{
  "title" : "",
  "description" : "",
  "author" : "",
  "targetLoudness" : -18.0,
  "shouldApplyLoudnessNormalization" : false,
  "videoFormatFrameRate" : 30,
  "audioFormatSampleRate" : 44100,
  "width" : 1920.0,
  "height" : 1080.0,
  "version" : "5.0",
  "editRate" : 30,
  "authoringClientName" :  {
    "name" : "Camtasia",
    "platform" : "Windows",
    "version" : "21.0"
  },
  "sourceBin" : [
    {
      "id" : 1,
      "src" : "C:\\git\\simonharrison789\\videos\\rings\\0intro.mp3",
      "rect" : [0, 0, 0, 0],
      "lastMod" : "20241211T103850",
      "loudnessNormalization" : true,
      "sourceTracks" : [
        {
          "range" : [0, 60081632],
          "type" : 2,
          "editRate" : 10000000,
          "trackRect" : [0, 0, 0, 0],
          "sampleRate" : 44100,
          "bitDepth" : 0,
          "numChannels" : 2,
          "integratedLUFS" : -13.3120466389427,
          "peakLevel" : 1.0,
          "metaData" : ""
        }
      ],
      "metadata" : {
        "timeAdded" : "20241126T154026.122616"
      }
    },
    {
      "id" : 2,
      "src" : "C:\\git\\simonharrison789\\videos\\rings\\1scenario.mp3",
      "rect" : [0, 0, 0, 0],
      "lastMod" : "20241211T103850",
      "loudnessNormalization" : true,
      "sourceTracks" : [
        {
          "range" : [0, 263314285],
          "type" : 2,
          "editRate" : 10000000,
          "trackRect" : [0, 0, 0, 0],
          "sampleRate" : 44100,
          "bitDepth" : 0,
          "numChannels" : 2,
          "integratedLUFS" : -12.5468538573313,
          "peakLevel" : 1.0,
          "metaData" : ""
        }
      ],
      "metadata" : {
        "timeAdded" : "20241126T154026.122616"
      }
    },
    {
      "id" : 3,
      "src" : "C:\\git\\simonharrison789\\videos\\rings\\2-3rings.mp3",
      "rect" : [0, 0, 0, 0],
      "lastMod" : "20241211T103850",
      "loudnessNormalization" : true,
      "sourceTracks" : [
        {
          "range" : [0, 313991836],
          "type" : 2,
          "editRate" : 10000000,
          "trackRect" : [0, 0, 0, 0],
          "sampleRate" : 44100,
          "bitDepth" : 0,
          "numChannels" : 2,
          "integratedLUFS" : -13.461459929912,
          "peakLevel" : 1.0,
          "metaData" : ""
        }
      ],
      "metadata" : {
        "timeAdded" : "20241126T154026.138232"
      }
    },
    {
      "id" : 4,
      "src" : "C:\\git\\simonharrison789\\videos\\rings\\3ringpercents.mp3",
      "rect" : [0, 0, 0, 0],
      "lastMod" : "20241211T103850",
      "loudnessNormalization" : true,
      "sourceTracks" : [
        {
          "range" : [0, 144195918],
          "type" : 2,
          "editRate" : 10000000,
          "trackRect" : [0, 0, 0, 0],
          "sampleRate" : 44100,
          "bitDepth" : 0,
          "numChannels" : 2,
          "integratedLUFS" : -13.0731781043551,
          "peakLevel" : 1.0,
          "metaData" : ""
        }
      ],
      "metadata" : {
        "timeAdded" : "20241126T154026.138232"
      }
    },
    {
      "id" : 5,
      "src" : "C:\\git\\simonharrison789\\videos\\rings\\4ceo-firefox.mp3",
      "rect" : [0, 0, 0, 0],
      "lastMod" : "20241211T103850",
      "loudnessNormalization" : true,
      "sourceTracks" : [
        {
          "range" : [0, 471771428],
          "type" : 2,
          "editRate" : 10000000,
          "trackRect" : [0, 0, 0, 0],
          "sampleRate" : 44100,
          "bitDepth" : 0,
          "numChannels" : 2,
          "integratedLUFS" : -13.6702756704255,
          "peakLevel" : 1.0,
          "metaData" : ""
        }
      ],
      "metadata" : {
        "timeAdded" : "20241126T154026.138232"
      }
    },
    {
      "id" : 6,
      "src" : "C:\\git\\simonharrison789\\videos\\rings\\5start-rollout.mp3",
      "rect" : [0, 0, 0, 0],
      "lastMod" : "20241211T103850",
      "loudnessNormalization" : true,
      "sourceTracks" : [
        {
          "range" : [0, 334367346],
          "type" : 2,
          "editRate" : 10000000,
          "trackRect" : [0, 0, 0, 0],
          "sampleRate" : 44100,
          "bitDepth" : 0,
          "numChannels" : 2,
          "integratedLUFS" : -14.3290640549161,
          "peakLevel" : 1.0,
          "metaData" : ""
        }
      ],
      "metadata" : {
        "timeAdded" : "20241126T154026.138232"
      }
    },
    {
      "id" : 7,
      "src" : "C:\\git\\simonharrison789\\videos\\rings\\6goldilocks.mp3",
      "rect" : [0, 0, 0, 0],
      "lastMod" : "20241211T103850",
      "loudnessNormalization" : true,
      "sourceTracks" : [
        {
          "range" : [0, 468636734],
          "type" : 2,
          "editRate" : 10000000,
          "trackRect" : [0, 0, 0, 0],
          "sampleRate" : 44100,
          "bitDepth" : 0,
          "numChannels" : 2,
          "integratedLUFS" : -15.0231132815421,
          "peakLevel" : 1.0,
          "metaData" : ""
        }
      ],
      "metadata" : {
        "timeAdded" : "20241126T154026.138232"
      }
    },
    {
      "id" : 8,
      "src" : "C:\\git\\simonharrison789\\videos\\rings\\7rollout.mp3",
      "rect" : [0, 0, 0, 0],
      "lastMod" : "20241211T103850",
      "loudnessNormalization" : true,
      "sourceTracks" : [
        {
          "range" : [0, 696163265],
          "type" : 2,
          "editRate" : 10000000,
          "trackRect" : [0, 0, 0, 0],
          "sampleRate" : 44100,
          "bitDepth" : 0,
          "numChannels" : 2,
          "integratedLUFS" : -15.5799611914285,
          "peakLevel" : 1.0,
          "metaData" : ""
        }
      ],
      "metadata" : {
        "timeAdded" : "20241126T154026.138232"
      }
    },
    {
      "id" : 9,
      "src" : "C:\\git\\simonharrison789\\videos\\rings\\end.mp3",
      "rect" : [0, 0, 0, 0],
      "lastMod" : "20241211T103850",
      "loudnessNormalization" : true,
      "sourceTracks" : [
        {
          "range" : [0, 90906122],
          "type" : 2,
          "editRate" : 10000000,
          "trackRect" : [0, 0, 0, 0],
          "sampleRate" : 44100,
          "bitDepth" : 0,
          "numChannels" : 2,
          "integratedLUFS" : -15.7060252802766,
          "peakLevel" : 0.864101052284241,
          "metaData" : ""
        }
      ],
      "metadata" : {
        "timeAdded" : "20241126T154026.138232"
      }
    },
    {
      "id" : 10,
      "src" : "C:\\git\\simonharrison789\\videos\\rings\\black-laptop.png",
      "rect" : [0, 0, 68, 45],
      "lastMod" : "20241211T103850",
      "loudnessNormalization" : true,
      "sourceTracks" : [
        {
          "range" : [0, 1],
          "type" : 1,
          "editRate" : 10000000,
          "trackRect" : [0, 0, 68, 45],
          "sampleRate" : 0,
          "bitDepth" : 24,
          "numChannels" : 0,
          "integratedLUFS" : 100.0,
          "peakLevel" : -1.0,
          "metaData" : ""
        }
      ],
      "metadata" : {
        "timeAdded" : "20241127T104242.013180"
      }
    },
    {
      "id" : 11,
      "src" : "C:\\git\\simonharrison789\\videos\\rings\\laptop.png",
      "rect" : [0, 0, 67, 45],
      "lastMod" : "20241211T103850",
      "loudnessNormalization" : true,
      "sourceTracks" : [
        {
          "range" : [0, 1],
          "type" : 1,
          "editRate" : 10000000,
          "trackRect" : [0, 0, 67, 45],
          "sampleRate" : 0,
          "bitDepth" : 24,
          "numChannels" : 0,
          "integratedLUFS" : 100.0,
          "peakLevel" : -1.0,
          "metaData" : ""
        }
      ],
      "metadata" : {
        "timeAdded" : "20241126T155149.629921"
      }
    },
    {
      "id" : 12,
      "src" : "C:\\git\\simonharrison789\\videos\\rings\\smoke.png",
      "rect" : [0, 0, 53, 76],
      "lastMod" : "20241211T103850",
      "loudnessNormalization" : true,
      "sourceTracks" : [
        {
          "range" : [0, 1],
          "type" : 1,
          "editRate" : 10000000,
          "trackRect" : [0, 0, 53, 76],
          "sampleRate" : 0,
          "bitDepth" : 8,
          "numChannels" : 0,
          "integratedLUFS" : 100.0,
          "peakLevel" : -1.0,
          "metaData" : ""
        }
      ],
      "metadata" : {
        "timeAdded" : "20241127T111111.978950"
      }
    },
    {
      "id" : 13,
      "src" : "C:\\git\\simonharrison789\\videos\\rings\\patch-trans.png",
      "rect" : [0, 0, 184, 160],
      "lastMod" : "20241211T103850",
      "loudnessNormalization" : true,
      "sourceTracks" : [
        {
          "range" : [0, 1],
          "type" : 1,
          "editRate" : 10000000,
          "trackRect" : [0, 0, 184, 160],
          "sampleRate" : 0,
          "bitDepth" : 8,
          "numChannels" : 0,
          "integratedLUFS" : 100.0,
          "peakLevel" : -1.0,
          "metaData" : ""
        }
      ],
      "metadata" : {
        "timeAdded" : "20241127T111530.618720"
      }
    },
    {
      "id" : 14,
      "src" : "C:\\git\\simonharrison789\\videos\\rings\\ceo-laptop.png",
      "rect" : [0, 0, 68, 57],
      "lastMod" : "20241211T103850",
      "loudnessNormalization" : true,
      "sourceTracks" : [
        {
          "range" : [0, 1],
          "type" : 1,
          "editRate" : 10000000,
          "trackRect" : [0, 0, 68, 57],
          "sampleRate" : 0,
          "bitDepth" : 24,
          "numChannels" : 0,
          "integratedLUFS" : 100.0,
          "peakLevel" : -1.0,
          "metaData" : ""
        }
      ],
      "metadata" : {
        "timeAdded" : "20241127T150844.878149"
      }
    },
    {
      "id" : 15,
      "src" : "C:\\git\\simonharrison789\\videos\\rings\\finger.png",
      "rect" : [0, 0, 125, 106],
      "lastMod" : "20241211T103850",
      "loudnessNormalization" : true,
      "sourceTracks" : [
        {
          "range" : [0, 1],
          "type" : 1,
          "editRate" : 10000000,
          "trackRect" : [0, 0, 125, 106],
          "sampleRate" : 0,
          "bitDepth" : 24,
          "numChannels" : 0,
          "integratedLUFS" : 100.0,
          "peakLevel" : -1.0,
          "metaData" : ""
        }
      ],
      "metadata" : {
        "timeAdded" : "20241127T151244.454305"
      }
    },
    {
      "id" : 16,
      "src" : "C:\\git\\simonharrison789\\videos\\rings\\rings.trec",
      "rect" : [0, 0, 1921, 1080],
      "lastMod" : "20241211T103850",
      "loudnessNormalization" : true,
      "sourceTracks" : [
        {
          "range" : [0, 691],
          "type" : 0,
          "editRate" : 30,
          "trackRect" : [0, 0, 1921, 1080],
          "sampleRate" : 30,
          "bitDepth" : 0,
          "numChannels" : 0,
          "integratedLUFS" : 100.0,
          "peakLevel" : -1.0,
          "metaData" : "2b7b6a00-7a1f-11e2-83d0-0017f200be7f;2b7b6aef-7a1f-11e2-83d0-0017f200be7f;2b7b6af0-7a1f-11e2-83d0-0017f200be7f;2b7b6af1-7a1f-11e2-83d0-0017f200be7f;2b7b6af2-7a1f-11e2-83d0-0017f200be7f;2b7b6af3-7a1f-11e2-83d0-0017f200be7f;2b7b6af5-7a1f-11e2-83d0-0017f200be7f;2b7b6af6-7a1f-11e2-83d0-0017f200be7f;2b7b6af7-7a1f-11e2-83d0-0017f200be7f;2b7b6af8-7a1f-11e2-83d0-0017f200be7f;2b7b6af9-7a1f-11e2-83d0-0017f200be7f;2b7b6afa-7a1f-11e2-83d0-0017f200be7f;"
        },
        {
          "range" : [0, 1017856],
          "type" : 2,
          "editRate" : 44100,
          "trackRect" : [0, 0, 0, 0],
          "sampleRate" : 44100,
          "bitDepth" : 16,
          "numChannels" : 2,
          "integratedLUFS" : -37.5824355318618,
          "peakLevel" : 0.306060791015625,
          "metaData" : ""
        }
      ],
      "metadata" : {
        "timeAdded" : "20241127T165937.018034"
      }
    },
    {
      "id" : 17,
      "src" : "C:\\git\\simonharrison789\\videos\\rings\\clock.png",
      "rect" : [0, 0, 203, 238],
      "lastMod" : "20241211T103850",
      "loudnessNormalization" : true,
      "sourceTracks" : [
        {
          "range" : [0, 1],
          "type" : 1,
          "editRate" : 10000000,
          "trackRect" : [0, 0, 203, 238],
          "sampleRate" : 0,
          "bitDepth" : 24,
          "numChannels" : 0,
          "integratedLUFS" : 100.0,
          "peakLevel" : -1.0,
          "metaData" : ""
        }
      ],
      "metadata" : {
        "timeAdded" : "20241128T091803.910695"
      }
    },
    {
      "id" : 18,
      "src" : "C:\\git\\simonharrison789\\videos\\rings\\calculcator.png",
      "rect" : [0, 0, 155, 205],
      "lastMod" : "20241211T103850",
      "loudnessNormalization" : true,
      "sourceTracks" : [
        {
          "range" : [0, 1],
          "type" : 1,
          "editRate" : 10000000,
          "trackRect" : [0, 0, 155, 205],
          "sampleRate" : 0,
          "bitDepth" : 24,
          "numChannels" : 0,
          "integratedLUFS" : 100.0,
          "peakLevel" : -1.0,
          "metaData" : ""
        }
      ],
      "metadata" : {
        "timeAdded" : "20241128T095756.765181"
      }
    },
    {
      "id" : 19,
      "src" : "C:\\git\\simonharrison789\\videos\\rings\\bored.png",
      "rect" : [0, 0, 226, 246],
      "lastMod" : "20241211T103850",
      "loudnessNormalization" : true,
      "sourceTracks" : [
        {
          "range" : [0, 1],
          "type" : 1,
          "editRate" : 10000000,
          "trackRect" : [0, 0, 226, 246],
          "sampleRate" : 0,
          "bitDepth" : 24,
          "numChannels" : 0,
          "integratedLUFS" : 100.0,
          "peakLevel" : -1.0,
          "metaData" : ""
        }
      ],
      "metadata" : {
        "timeAdded" : "20241128T105936.795693"
      }
    },
    {
      "id" : 20,
      "src" : "C:\\git\\simonharrison789\\videos\\rings\\confused.png",
      "rect" : [0, 0, 204, 235],
      "lastMod" : "20241211T103850",
      "loudnessNormalization" : true,
      "sourceTracks" : [
        {
          "range" : [0, 1],
          "type" : 1,
          "editRate" : 10000000,
          "trackRect" : [0, 0, 204, 235],
          "sampleRate" : 0,
          "bitDepth" : 24,
          "numChannels" : 0,
          "integratedLUFS" : 100.0,
          "peakLevel" : -1.0,
          "metaData" : ""
        }
      ],
      "metadata" : {
        "timeAdded" : "20241128T105936.811348"
      }
    },
    {
      "id" : 21,
      "src" : "C:\\git\\simonharrison789\\videos\\rings\\correct.png",
      "rect" : [0, 0, 169, 209],
      "lastMod" : "20241211T103850",
      "loudnessNormalization" : true,
      "sourceTracks" : [
        {
          "range" : [0, 1],
          "type" : 1,
          "editRate" : 10000000,
          "trackRect" : [0, 0, 169, 209],
          "sampleRate" : 0,
          "bitDepth" : 24,
          "numChannels" : 0,
          "integratedLUFS" : 100.0,
          "peakLevel" : -1.0,
          "metaData" : ""
        }
      ],
      "metadata" : {
        "timeAdded" : "20241128T110255.495428"
      }
    },
    {
      "id" : 22,
      "src" : "C:\\git\\simonharrison789\\videos\\rings\\deployed.png",
      "rect" : [0, 0, 1920, 1080],
      "lastMod" : "20241211T103850",
      "loudnessNormalization" : true,
      "sourceTracks" : [
        {
          "range" : [0, 1],
          "type" : 1,
          "editRate" : 10000000,
          "trackRect" : [0, 0, 1920, 1080],
          "sampleRate" : 0,
          "bitDepth" : 32,
          "numChannels" : 0,
          "integratedLUFS" : 100.0,
          "peakLevel" : -1.0,
          "metaData" : ""
        }
      ],
      "metadata" : {
        "timeAdded" : "20241128T151056.913058"
      }
    },
    {
      "id" : 23,
      "src" : "C:\\git\\simonharrison789\\videos\\rings\\9suggestion.mp3",
      "rect" : [0, 0, 0, 0],
      "lastMod" : "20241211T103850",
      "loudnessNormalization" : true,
      "sourceTracks" : [
        {
          "range" : [0, 83069387],
          "type" : 2,
          "editRate" : 10000000,
          "trackRect" : [0, 0, 0, 0],
          "sampleRate" : 44100,
          "bitDepth" : 0,
          "numChannels" : 2,
          "integratedLUFS" : -13.5613399726629,
          "peakLevel" : 1.0,
          "metaData" : ""
        }
      ],
      "metadata" : {
        "timeAdded" : "20241211T100225.815013"
      }
    },
    {
      "id" : 24,
      "src" : "C:\\git\\simonharrison789\\videos\\rings\\8missed.mp3",
      "rect" : [0, 0, 0, 0],
      "lastMod" : "20241211T103850",
      "loudnessNormalization" : true,
      "sourceTracks" : [
        {
          "range" : [0, 235102040],
          "type" : 2,
          "editRate" : 10000000,
          "trackRect" : [0, 0, 0, 0],
          "sampleRate" : 44100,
          "bitDepth" : 0,
          "numChannels" : 2,
          "integratedLUFS" : -12.4044217115469,
          "peakLevel" : 1.0,
          "metaData" : ""
        }
      ],
      "metadata" : {
        "timeAdded" : "20241211T100410.691308"
      }
    },
    {
      "id" : 25,
      "src" : "C:\\git\\simonharrison789\\videos\\rings\\find-patch.png",
      "rect" : [0, 0, 190, 190],
      "lastMod" : "20241211T103850",
      "loudnessNormalization" : true,
      "sourceTracks" : [
        {
          "range" : [0, 1],
          "type" : 1,
          "editRate" : 10000000,
          "trackRect" : [0, 0, 190, 190],
          "sampleRate" : 0,
          "bitDepth" : 24,
          "numChannels" : 0,
          "integratedLUFS" : 100.0,
          "peakLevel" : -1.0,
          "metaData" : ""
        }
      ],
      "metadata" : {
        "timeAdded" : "20241211T100852.915531"
      }
    },
    {
      "id" : 26,
      "src" : "C:\\git\\simonharrison789\\videos\\rings\\patch-catalog.png",
      "rect" : [0, 0, 189, 190],
      "lastMod" : "20241211T103850",
      "loudnessNormalization" : true,
      "sourceTracks" : [
        {
          "range" : [0, 1],
          "type" : 1,
          "editRate" : 10000000,
          "trackRect" : [0, 0, 189, 190],
          "sampleRate" : 0,
          "bitDepth" : 24,
          "numChannels" : 0,
          "integratedLUFS" : 100.0,
          "peakLevel" : -1.0,
          "metaData" : ""
        }
      ],
      "metadata" : {
        "timeAdded" : "20241211T100852.922527"
      }
    },
    {
      "id" : 27,
      "src" : "C:\\git\\simonharrison789\\videos\\rings\\spanner.png",
      "rect" : [0, 0, 169, 169],
      "lastMod" : "20241211T103850",
      "loudnessNormalization" : true,
      "sourceTracks" : [
        {
          "range" : [0, 1],
          "type" : 1,
          "editRate" : 10000000,
          "trackRect" : [0, 0, 169, 169],
          "sampleRate" : 0,
          "bitDepth" : 24,
          "numChannels" : 0,
          "integratedLUFS" : 100.0,
          "peakLevel" : -1.0,
          "metaData" : ""
        }
      ],
      "metadata" : {
        "timeAdded" : "20241211T100852.929522"
      }
    },
    {
      "id" : 28,
      "src" : "C:\\git\\simonharrison789\\videos\\rings\\track.png",
      "rect" : [0, 0, 175, 175],
      "lastMod" : "20241211T103850",
      "loudnessNormalization" : true,
      "sourceTracks" : [
        {
          "range" : [0, 1],
          "type" : 1,
          "editRate" : 10000000,
          "trackRect" : [0, 0, 175, 175],
          "sampleRate" : 0,
          "bitDepth" : 24,
          "numChannels" : 0,
          "integratedLUFS" : 100.0,
          "peakLevel" : -1.0,
          "metaData" : ""
        }
      ],
      "metadata" : {
        "timeAdded" : "20241211T100852.937517"
      }
    },
    {
      "id" : 29,
      "src" : "C:\\git\\simonharrison789\\videos\\rings\\rings.png",
      "rect" : [0, 0, 177, 177],
      "lastMod" : "20241211T103850",
      "loudnessNormalization" : true,
      "sourceTracks" : [
        {
          "range" : [0, 1],
          "type" : 1,
          "editRate" : 10000000,
          "trackRect" : [0, 0, 177, 177],
          "sampleRate" : 0,
          "bitDepth" : 24,
          "numChannels" : 0,
          "integratedLUFS" : 100.0,
          "peakLevel" : -1.0,
          "metaData" : ""
        }
      ],
      "metadata" : {
        "timeAdded" : "20241211T102859.851380"
      }
    },
    {
      "id" : 30,
      "src" : "C:\\git\\simonharrison789\\videos\\rings\\no.png",
      "rect" : [0, 0, 174, 146],
      "lastMod" : "20241211T103850",
      "loudnessNormalization" : true,
      "sourceTracks" : [
        {
          "range" : [0, 1],
          "type" : 1,
          "editRate" : 10000000,
          "trackRect" : [0, 0, 174, 146],
          "sampleRate" : 0,
          "bitDepth" : 24,
          "numChannels" : 0,
          "integratedLUFS" : 100.0,
          "peakLevel" : -1.0,
          "metaData" : ""
        }
      ],
      "metadata" : {
        "timeAdded" : "20241211T103218.177548"
      }
    },
    {
      "id" : 31,
      "src" : "C:\\git\\simonharrison789\\videos\\rings\\simplified-patch.png",
      "rect" : [0, 0, 170, 171],
      "lastMod" : "20241211T103850",
      "loudnessNormalization" : true,
      "sourceTracks" : [
        {
          "range" : [0, 1],
          "type" : 1,
          "editRate" : 10000000,
          "trackRect" : [0, 0, 170, 171],
          "sampleRate" : 0,
          "bitDepth" : 24,
          "numChannels" : 0,
          "integratedLUFS" : 100.0,
          "peakLevel" : -1.0,
          "metaData" : ""
        }
      ],
      "metadata" : {
        "timeAdded" : "20241211T103218.186539"
      }
    },
    {
      "id" : 32,
      "src" : "C:\\git\\simonharrison789\\videos\\rings\\yes.png",
      "rect" : [0, 0, 174, 146],
      "lastMod" : "20241211T103850",
      "loudnessNormalization" : true,
      "sourceTracks" : [
        {
          "range" : [0, 1],
          "type" : 1,
          "editRate" : 10000000,
          "trackRect" : [0, 0, 174, 146],
          "sampleRate" : 0,
          "bitDepth" : 24,
          "numChannels" : 0,
          "integratedLUFS" : 100.0,
          "peakLevel" : -1.0,
          "metaData" : ""
        }
      ],
      "metadata" : {
        "timeAdded" : "20241211T103218.194533"
      }
    }
  ],
  "timeline" : {
    "id" : 33,
    "sceneTrack" : {
      "scenes" : [
        {
          "csml" : {
            "tracks" : [
              {
                "trackIndex" : 0,
                "medias" : [
                  {
                    "id" : 34,
                    "_type" : "AMFile",
                    "src" : 1,
                    "trackNumber" : 0,
                    "attributes" : {
                      "ident" : "0intro",
                      "gain" : 1.0,
                      "mixToMono" : false,
                      "loudnessNormalization" : true
                    },
                      "channelNumber" : "0,1",
                    "effects" : [

                    ],
                    "start" : 0,
                    "duration" : 180,
                    "mediaStart" : 0,
                    "mediaDuration" : 180,
                    "scalar" : 1,
                    "metadata" : {
                      "clipSpeedAttribute" : false
                    },
                    "animationTracks" : {

                    }
                  },
                  {
                    "id" : 35,
                    "_type" : "AMFile",
                    "src" : 2,
                    "trackNumber" : 0,
                    "attributes" : {
                      "ident" : "1scenario",
                      "gain" : 1.0,
                      "mixToMono" : false,
                      "loudnessNormalization" : true
                    },
                      "channelNumber" : "0,1",
                    "effects" : [

                    ],
                    "start" : 200,
                    "duration" : 789,
                    "mediaStart" : 0,
                    "mediaDuration" : 789,
                    "scalar" : 1,
                    "metadata" : {
                      "clipSpeedAttribute" : false
                    },
                    "animationTracks" : {

                    }
                  },
                  {
                    "id" : 36,
                    "_type" : "AMFile",
                    "src" : 3,
                    "trackNumber" : 0,
                    "attributes" : {
                      "ident" : "2-3rings",
                      "gain" : 1.0,
                      "mixToMono" : false,
                      "loudnessNormalization" : true
                    },
                      "channelNumber" : "0,1",
                    "effects" : [

                    ],
                    "start" : 989,
                    "duration" : 201,
                    "mediaStart" : 0,
                    "mediaDuration" : 201,
                    "scalar" : 1,
                    "metadata" : {
                      "clipSpeedAttribute" : false
                    },
                    "animationTracks" : {

                    }
                  },
                  {
                    "id" : 37,
                    "_type" : "AMFile",
                    "src" : 3,
                    "trackNumber" : 0,
                    "attributes" : {
                      "ident" : "2-3rings",
                      "gain" : 1.0,
                      "mixToMono" : false,
                      "loudnessNormalization" : true
                    },
                      "channelNumber" : "0,1",
                    "effects" : [

                    ],
                    "start" : 1190,
                    "duration" : 473,
                    "mediaStart" : 469,
                    "mediaDuration" : 473,
                    "scalar" : 1,
                    "metadata" : {
                      "clipSpeedAttribute" : false
                    },
                    "animationTracks" : {

                    }
                  },
                  {
                    "id" : 38,
                    "_type" : "AMFile",
                    "src" : 4,
                    "trackNumber" : 0,
                    "attributes" : {
                      "ident" : "3ringpercents",
                      "gain" : 1.0,
                      "mixToMono" : false,
                      "loudnessNormalization" : true
                    },
                      "channelNumber" : "0,1",
                    "effects" : [

                    ],
                    "start" : 1663,
                    "duration" : 432,
                    "mediaStart" : 0,
                    "mediaDuration" : 432,
                    "scalar" : 1,
                    "metadata" : {
                      "clipSpeedAttribute" : false
                    },
                    "animationTracks" : {

                    }
                  },
                  {
                    "id" : 39,
                    "_type" : "AMFile",
                    "src" : 5,
                    "trackNumber" : 0,
                    "attributes" : {
                      "ident" : "4ceo-firefox",
                      "gain" : 1.0,
                      "mixToMono" : false,
                      "loudnessNormalization" : true
                    },
                      "channelNumber" : "0,1",
                    "effects" : [

                    ],
                    "start" : 2095,
                    "duration" : 1415,
                    "mediaStart" : 0,
                    "mediaDuration" : 1415,
                    "scalar" : 1,
                    "metadata" : {
                      "clipSpeedAttribute" : false
                    },
                    "animationTracks" : {

                    }
                  },
                  {
                    "id" : 40,
                    "_type" : "AMFile",
                    "src" : 6,
                    "trackNumber" : 0,
                    "attributes" : {
                      "ident" : "5start-rollout",
                      "gain" : 1.0,
                      "mixToMono" : false,
                      "loudnessNormalization" : true
                    },
                      "channelNumber" : "0,1",
                    "effects" : [

                    ],
                    "start" : 3510,
                    "duration" : 1002,
                    "mediaStart" : 0,
                    "mediaDuration" : 1002,
                    "scalar" : 1,
                    "metadata" : {
                      "clipSpeedAttribute" : false
                    },
                    "animationTracks" : {

                    }
                  },
                  {
                    "id" : 41,
                    "_type" : "AMFile",
                    "src" : 7,
                    "trackNumber" : 0,
                    "attributes" : {
                      "ident" : "6goldilocks",
                      "gain" : 1.0,
                      "mixToMono" : false,
                      "loudnessNormalization" : true
                    },
                      "channelNumber" : "0,1",
                    "parameters" : {
                      "volume" : {
                        "type" : "double",
                        "keyframes" : [
                          {
                            "endTime" : 0,
                            "time" : 0,
                            "value" : 0.0,
                            "duration" : 0
                          },
                          {
                            "endTime" : 19,
                            "time" : 19,
                            "value" : 0.0,
                            "duration" : 0
                          },
                          {
                            "endTime" : 22,
                            "time" : 22,
                            "value" : 1.0,
                            "duration" : 0
                          }
                        ]
                      }
                    },
                    "effects" : [

                    ],
                    "start" : 4553,
                    "duration" : 1406,
                    "mediaStart" : 0,
                    "mediaDuration" : 1406,
                    "scalar" : 1,
                    "metadata" : {
                      "clipSpeedAttribute" : false
                    },
                    "animationTracks" : {

                    }
                  },
                  {
                    "id" : 42,
                    "_type" : "AMFile",
                    "src" : 8,
                    "trackNumber" : 0,
                    "attributes" : {
                      "ident" : "7rollout",
                      "gain" : 1.0,
                      "mixToMono" : false,
                      "loudnessNormalization" : true
                    },
                      "channelNumber" : "0,1",
                    "parameters" : {
                      "volume" : {
                        "type" : "double",
                        "keyframes" : [
                          {
                            "endTime" : 0,
                            "time" : 0,
                            "value" : 1.0,
                            "duration" : 0
                          },
                          {
                            "endTime" : 792,
                            "time" : 792,
                            "value" : 1.0,
                            "duration" : 0
                          },
                          {
                            "endTime" : 793,
                            "time" : 793,
                            "value" : 0.0,
                            "duration" : 0
                          },
                          {
                            "endTime" : 824,
                            "time" : 824,
                            "value" : 0.0,
                            "duration" : 0
                          },
                          {
                            "endTime" : 827,
                            "time" : 827,
                            "value" : 1.0,
                            "duration" : 0
                          }
                        ]
                      }
                    },
                    "effects" : [

                    ],
                    "start" : 6004,
                    "duration" : 2088,
                    "mediaStart" : 0,
                    "mediaDuration" : 2088,
                    "scalar" : 1,
                    "metadata" : {
                      "clipSpeedAttribute" : false
                    },
                    "animationTracks" : {

                    }
                  },
                  {
                    "id" : 43,
                    "_type" : "AMFile",
                    "src" : 24,
                    "trackNumber" : 0,
                    "attributes" : {
                      "ident" : "8missed",
                      "gain" : 1.0,
                      "mixToMono" : false,
                      "loudnessNormalization" : true
                    },
                      "channelNumber" : "0,1",
                    "effects" : [

                    ],
                    "start" : 8092,
                    "duration" : 705,
                    "mediaStart" : 0,
                    "mediaDuration" : 705,
                    "scalar" : 1,
                    "metadata" : {
                      "clipSpeedAttribute" : false
                    },
                    "animationTracks" : {

                    }
                  },
                  {
                    "id" : 44,
                    "_type" : "AMFile",
                    "src" : 23,
                    "trackNumber" : 0,
                    "attributes" : {
                      "ident" : "9suggestion",
                      "gain" : 1.0,
                      "mixToMono" : false,
                      "loudnessNormalization" : true
                    },
                      "channelNumber" : "0,1",
                    "effects" : [

                    ],
                    "start" : 8797,
                    "duration" : 249,
                    "mediaStart" : 0,
                    "mediaDuration" : 249,
                    "scalar" : 1,
                    "metadata" : {
                      "clipSpeedAttribute" : false
                    },
                    "animationTracks" : {

                    }
                  },
                  {
                    "id" : 45,
                    "_type" : "AMFile",
                    "src" : 9,
                    "trackNumber" : 0,
                    "attributes" : {
                      "ident" : "end",
                      "gain" : 1.0,
                      "mixToMono" : false,
                      "loudnessNormalization" : true
                    },
                      "channelNumber" : "0,1",
                    "effects" : [

                    ],
                    "start" : 9065,
                    "duration" : 56,
                    "mediaStart" : 4,
                    "mediaDuration" : 56,
                    "scalar" : 1,
                    "metadata" : {
                      "clipSpeedAttribute" : false
                    },
                    "animationTracks" : {

                    }
                  },
                  {
                    "id" : 46,
                    "_type" : "AMFile",
                    "src" : 9,
                    "trackNumber" : 0,
                    "attributes" : {
                      "ident" : "end",
                      "gain" : 1.0,
                      "mixToMono" : false,
                      "loudnessNormalization" : true
                    },
                      "channelNumber" : "0,1",
                    "effects" : [

                    ],
                    "start" : 9125,
                    "duration" : 47,
                    "mediaStart" : 226,
                    "mediaDuration" : 47,
                    "scalar" : 1,
                    "metadata" : {
                      "clipSpeedAttribute" : false
                    },
                    "animationTracks" : {

                    }
                  }
                ]
              },
              {
                "trackIndex" : 1,
                "medias" : [
                  {
                    "id" : 47,
                    "_type" : "Callout",
                    "def" : {
                      "kind" : "remix",
                      "shape" : "text-rectangle",
                      "style" : "basic",
                      "enable-ligatures" : 1.0,
                      "fill-color-blue" : 1.0,
                      "fill-color-green" : 1.0,
                      "fill-color-opacity" : 0.0,
                      "fill-color-red" : 1.0,
                      "height" : 195.697977697978,
                      "line-spacing" : 0.0,
                      "stroke-color-blue" : 1.0,
                      "stroke-color-green" : 1.0,
                      "stroke-color-opacity" : 3.15303338993544e-16,
                      "stroke-color-red" : 1.0,
                      "stroke-width" : 0.0,
                      "tail-x" : -979.021895801364,
                      "tail-y" : 309.515017854296,
                      "width" : 1845.17627859175,
                      "word-wrap" : 1.0,
                      "fill-style" : "solid",
                      "horizontal-alignment" : "left",
                      "resize-behavior" : "resizeText",
                      "stroke-style" : "solid",
                      "text" : "Patch Management",
                      "vertical-alignment" : "center",
                      "font" : {
                        "color-blue" : 0.266666666666667,
                        "color-green" : 0.231372549019608,
                        "color-opacity" : 1.0,
                        "color-red" : 0.184313725490196,
                        "size" : 64.0,
                        "tracking" : 0.0,
                        "name" : "Montserrat",
                        "weight" : "Regular"
                      },
                      "textAttributes" : {
                        "type" : "textAttributeList",
                        "keyframes" : [
                          {
                            "endTime" : 0,
                            "time" : 0,
                            "value" : [{"name":"fontItalic","rangeEnd":16,"rangeStart":0,"value":0,"valueType":"int"},{"name":"fgColor","rangeEnd":16,"rangeStart":0,"value":"(35,40,47,255)","valueType":"color"},{"name":"underline","rangeEnd":16,"rangeStart":0,"value":0,"valueType":"int"},{"name":"strikethrough","rangeEnd":16,"rangeStart":0,"value":0,"valueType":"int"},{"name":"fontWeight","rangeEnd":16,"rangeStart":0,"value":400,"valueType":"int"},{"name":"fontName","rangeEnd":16,"rangeStart":0,"value":"???????","valueType":"string"},{"name":"kerning","rangeEnd":16,"rangeStart":0,"value":0,"valueType":"double"},{"name":"fontSize","rangeEnd":16,"rangeStart":0,"value":100,"valueType":"double"}],
                            "duration" : 0
                          }
                        ]
                      }
                    },
                    "attributes" : {
                      "autoRotateText" : true
                    },
                    "parameters" : {
                      "translation0" : -3.15303338993544e-14,
                      "translation1" : 446.542395799352,
                      "sourceCrop0" : 0.0,
                      "sourceCrop1" : 0.0,
                      "sourceCrop2" : 0.0,
                      "sourceCrop3" : 0.0,
                      "geometryCrop0" : 0.0,
                      "geometryCrop1" : 0.0,
                      "geometryCrop2" : 0.0,
                      "geometryCrop3" : 0.0
                    },
                    "effects" : [
                        {
                          "effectName" : "DropShadow",
                          "bypassed" : false,
                          "category" : "categoryVisualEffects",
                          "parameters" : {
                            "angle" : {
                              "type" : "double",
                              "defaultValue" : 5.49778714378214,
                              "valueBounds" : {
                                "minValue" : -1.1e+300,
                                "maxValue" : 1.1e+300,
                                "defaultValue" : 5.49778714378214
                              },
                              "uiHints" : {
                                "userInterfaceType" : 0,
                                "unitType" : 0
                              }
                            },
                            "blur" : {
                              "type" : "double",
                              "defaultValue" : 0.0,
                              "valueBounds" : {
                                "minValue" : 0.0,
                                "maxValue" : 50.0,
                                "defaultValue" : 10.0
                              },
                              "uiHints" : {
                                "userInterfaceType" : 0,
                                "unitType" : 0
                              }
                            },
                            "color-alpha" : {
                              "type" : "double",
                              "defaultValue" : 1.0,
                              "valueBounds" : {
                                "minValue" : 0.0,
                                "maxValue" : 1.0,
                                "defaultValue" : 1.0
                              },
                              "uiHints" : {
                                "userInterfaceType" : 0,
                                "unitType" : 0
                              }
                            },
                            "color-blue" : {
                              "type" : "double",
                              "defaultValue" : 1.0,
                              "valueBounds" : {
                                "minValue" : 0.0,
                                "maxValue" : 1.0,
                                "defaultValue" : 0.1216
                              },
                              "uiHints" : {
                                "userInterfaceType" : 0,
                                "unitType" : 0
                              }
                            },
                            "color-green" : {
                              "type" : "double",
                              "defaultValue" : 1.0,
                              "valueBounds" : {
                                "minValue" : 0.0,
                                "maxValue" : 1.0,
                                "defaultValue" : 0.1216
                              },
                              "uiHints" : {
                                "userInterfaceType" : 0,
                                "unitType" : 0
                              }
                            },
                            "color-red" : {
                              "type" : "double",
                              "defaultValue" : 1.0,
                              "valueBounds" : {
                                "minValue" : 0.0,
                                "maxValue" : 1.0,
                                "defaultValue" : 0.1216
                              },
                              "uiHints" : {
                                "userInterfaceType" : 0,
                                "unitType" : 0
                              }
                            },
                            "enabled" : {
                              "type" : "int",
                              "valueBounds" : {
                                "minValue" : 0,
                                "maxValue" : 1,
                                "defaultValue" : 1
                              },
                              "uiHints" : {
                                "userInterfaceType" : 0,
                                "unitType" : 0
                              },
                              "keyframes" : [
                                {
                                  "endTime" : 0,
                                  "time" : 0,
                                  "value" : 1,
                                  "duration" : 0
                                }
                              ]
                            },
                            "offset" : {
                              "type" : "double",
                              "defaultValue" : 0.0,
                              "valueBounds" : {
                                "minValue" : 0.0,
                                "maxValue" : 250.0,
                                "defaultValue" : 10.0
                              },
                              "uiHints" : {
                                "userInterfaceType" : 0,
                                "unitType" : 0
                              }
                            },
                            "opacity" : {
                              "type" : "double",
                              "defaultValue" : 0.0,
                              "valueBounds" : {
                                "minValue" : 0.0,
                                "maxValue" : 1.0,
                                "defaultValue" : 0.4
                              },
                              "uiHints" : {
                                "userInterfaceType" : 0,
                                "unitType" : 0
                              }
                            }
                          },
                          "metadata" : {
                            "default-dropshadow-blur" : 10.0,
                            "default-dropshadow-color-b" : 0.1216,
                            "default-dropshadow-color-g" : 0.1216,
                            "default-dropshadow-color-r" : 0.1216,
                            "default-dropshadow-offset" : 10.0,
                            "default-dropshadow-opacity" : 0.4
                          }
                        }
                    ],
                    "start" : 0,
                    "duration" : 1019,
                    "mediaStart" : 263,
                    "mediaDuration" : 1019,
                    "scalar" : 1,
                    "metadata" : {
                      "WinSubProjectDisplayName" : "",
                      "clipSpeedAttribute" : false,
                      "default-HAlign" : "center",
                      "default-LineSpace" : 0.0,
                      "default-VAlign" : "center",
                      "default-fill-color-opacity" : 1.0,
                      "default-height" : 156.0,
                      "default-rotation2" : 0.0,
                      "default-stroke-color-blue" : 0.56078431372549,
                      "default-stroke-color-green" : 0.686274509803922,
                      "default-stroke-color-opacity" : 1.0,
                      "default-stroke-color-red" : 0.0196078431372549,
                      "default-stroke-width" : 2.0,
                      "default-text-attributes" : "[{\"name\":\"fontItalic\",\"rangeEnd\":4,\"rangeStart\":0,\"value\":0,\"valueType\":\"int\"},{\"name\":\"strikethrough\",\"rangeEnd\":4,\"rangeStart\":0,\"value\":0,\"valueType\":\"int\"},{\"name\":\"fgColor\",\"rangeEnd\":4,\"rangeStart\":0,\"value\":\"(47,59,68,255)\",\"valueType\":\"color\"},{\"name\":\"fontWeight\",\"rangeEnd\":4,\"rangeStart\":0,\"value\":400,\"valueType\":\"int\"},{\"name\":\"fontSize\",\"rangeEnd\":4,\"rangeStart\":0,\"value\":166,\"valueType\":\"double\"},{\"name\":\"fontName\",\"rangeEnd\":4,\"rangeStart\":0,\"value\":\"Montserrat\",\"valueType\":\"string\"},{\"name\":\"underline\",\"rangeEnd\":4,\"rangeStart\":0,\"value\":0,\"valueType\":\"int\"}]",
                      "default-translation0" : 0.0,
                      "default-translation1" : 0.0,
                      "default-width" : 1016.0
                    },
                    "animationTracks" : {

                    }
                  },
                  {
                    "id" : 48,
                    "_type" : "Callout",
                    "def" : {
                      "kind" : "remix",
                      "shape" : "text-rectangle",
                      "style" : "basic",
                      "enable-ligatures" : 1.0,
                      "fill-color-blue" : 1.0,
                      "fill-color-green" : 1.0,
                      "fill-color-opacity" : 0.0,
                      "fill-color-red" : 1.0,
                      "height" : 195.697977697978,
                      "line-spacing" : 0.0,
                      "stroke-color-blue" : 1.0,
                      "stroke-color-green" : 1.0,
                      "stroke-color-opacity" : 3.15303338993544e-16,
                      "stroke-color-red" : 1.0,
                      "stroke-width" : 0.0,
                      "tail-x" : -979.021895801364,
                      "tail-y" : 309.515017854296,
                      "width" : 1845.17627859175,
                      "word-wrap" : 1.0,
                      "fill-style" : "solid",
                      "horizontal-alignment" : "left",
                      "resize-behavior" : "resizeText",
                      "stroke-style" : "solid",
                      "text" : "Building rings and configuring rollouts",
                      "vertical-alignment" : "center",
                      "font" : {
                        "color-blue" : 0.266666666666667,
                        "color-green" : 0.231372549019608,
                        "color-opacity" : 1.0,
                        "color-red" : 0.184313725490196,
                        "size" : 64.0,
                        "tracking" : 0.0,
                        "name" : "Montserrat",
                        "weight" : "Regular"
                      },
                      "textAttributes" : {
                        "type" : "textAttributeList",
                        "keyframes" : [
                          {
                            "endTime" : 0,
                            "time" : 0,
                            "value" : [{"name":"kerning","rangeEnd":39,"rangeStart":0,"value":0,"valueType":"double"},{"name":"fgColor","rangeEnd":39,"rangeStart":0,"value":"(35,40,47,255)","valueType":"color"},{"name":"strikethrough","rangeEnd":39,"rangeStart":0,"value":0,"valueType":"int"},{"name":"underline","rangeEnd":39,"rangeStart":0,"value":0,"valueType":"int"},{"name":"fontName","rangeEnd":39,"rangeStart":0,"value":"Faktum Medium","valueType":"string"},{"name":"fontWeight","rangeEnd":39,"rangeStart":0,"value":400,"valueType":"int"},{"name":"fontSize","rangeEnd":39,"rangeStart":0,"value":100,"valueType":"double"},{"name":"fontItalic","rangeEnd":39,"rangeStart":0,"value":0,"valueType":"int"}],
                            "duration" : 0
                          }
                        ]
                      }
                    },
                    "attributes" : {
                      "autoRotateText" : true
                    },
                    "parameters" : {
                      "translation0" : -3.15303338993544e-14,
                      "translation1" : 446.542395799352,
                      "sourceCrop0" : 0.0,
                      "sourceCrop1" : 0.0,
                      "sourceCrop2" : 0.0,
                      "sourceCrop3" : 0.0,
                      "geometryCrop0" : 0.0,
                      "geometryCrop1" : 0.0,
                      "geometryCrop2" : 0.0,
                      "geometryCrop3" : 0.0
                    },
                    "effects" : [
                        {
                          "effectName" : "DropShadow",
                          "bypassed" : false,
                          "category" : "categoryVisualEffects",
                          "parameters" : {
                            "angle" : {
                              "type" : "double",
                              "defaultValue" : 5.49778714378214,
                              "valueBounds" : {
                                "minValue" : -1.1e+300,
                                "maxValue" : 1.1e+300,
                                "defaultValue" : 5.49778714378214
                              },
                              "uiHints" : {
                                "userInterfaceType" : 0,
                                "unitType" : 0
                              }
                            },
                            "blur" : {
                              "type" : "double",
                              "defaultValue" : 0.0,
                              "valueBounds" : {
                                "minValue" : 0.0,
                                "maxValue" : 50.0,
                                "defaultValue" : 10.0
                              },
                              "uiHints" : {
                                "userInterfaceType" : 0,
                                "unitType" : 0
                              }
                            },
                            "color-alpha" : {
                              "type" : "double",
                              "defaultValue" : 1.0,
                              "valueBounds" : {
                                "minValue" : 0.0,
                                "maxValue" : 1.0,
                                "defaultValue" : 1.0
                              },
                              "uiHints" : {
                                "userInterfaceType" : 0,
                                "unitType" : 0
                              }
                            },
                            "color-blue" : {
                              "type" : "double",
                              "defaultValue" : 1.0,
                              "valueBounds" : {
                                "minValue" : 0.0,
                                "maxValue" : 1.0,
                                "defaultValue" : 0.1216
                              },
                              "uiHints" : {
                                "userInterfaceType" : 0,
                                "unitType" : 0
                              }
                            },
                            "color-green" : {
                              "type" : "double",
                              "defaultValue" : 1.0,
                              "valueBounds" : {
                                "minValue" : 0.0,
                                "maxValue" : 1.0,
                                "defaultValue" : 0.1216
                              },
                              "uiHints" : {
                                "userInterfaceType" : 0,
                                "unitType" : 0
                              }
                            },
                            "color-red" : {
                              "type" : "double",
                              "defaultValue" : 1.0,
                              "valueBounds" : {
                                "minValue" : 0.0,
                                "maxValue" : 1.0,
                                "defaultValue" : 0.1216
                              },
                              "uiHints" : {
                                "userInterfaceType" : 0,
                                "unitType" : 0
                              }
                            },
                            "enabled" : {
                              "type" : "int",
                              "valueBounds" : {
                                "minValue" : 0,
                                "maxValue" : 1,
                                "defaultValue" : 1
                              },
                              "uiHints" : {
                                "userInterfaceType" : 0,
                                "unitType" : 0
                              },
                              "keyframes" : [
                                {
                                  "endTime" : 0,
                                  "time" : 0,
                                  "value" : 1,
                                  "duration" : 0
                                }
                              ]
                            },
                            "offset" : {
                              "type" : "double",
                              "defaultValue" : 0.0,
                              "valueBounds" : {
                                "minValue" : 0.0,
                                "maxValue" : 250.0,
                                "defaultValue" : 10.0
                              },
                              "uiHints" : {
                                "userInterfaceType" : 0,
                                "unitType" : 0
                              }
                            },
                            "opacity" : {
                              "type" : "double",
                              "defaultValue" : 0.0,
                              "valueBounds" : {
                                "minValue" : 0.0,
                                "maxValue" : 1.0,
                                "defaultValue" : 0.4
                              },
                              "uiHints" : {
                                "userInterfaceType" : 0,
                                "unitType" : 0
                              }
                            }
                          },
                          "metadata" : {
                            "default-dropshadow-blur" : 10.0,
                            "default-dropshadow-color-b" : 0.1216,
                            "default-dropshadow-color-g" : 0.1216,
                            "default-dropshadow-color-r" : 0.1216,
                            "default-dropshadow-offset" : 10.0,
                            "default-dropshadow-opacity" : 0.4
                          }
                        }
                    ],
                    "start" : 1019,
                    "duration" : 211,
                    "mediaStart" : 263,
                    "mediaDuration" : 211,
                    "scalar" : 1,
                    "metadata" : {
                      "WinSubProjectDisplayName" : "",
                      "clipSpeedAttribute" : false,
                      "default-HAlign" : "center",
                      "default-LineSpace" : 0.0,
                      "default-VAlign" : "center",
                      "default-fill-color-opacity" : 1.0,
                      "default-height" : 156.0,
                      "default-rotation2" : 0.0,
                      "default-stroke-color-blue" : 0.56078431372549,
                      "default-stroke-color-green" : 0.686274509803922,
                      "default-stroke-color-opacity" : 1.0,
                      "default-stroke-color-red" : 0.0196078431372549,
                      "default-stroke-width" : 2.0,
                      "default-text-attributes" : "[{\"name\":\"fontItalic\",\"rangeEnd\":4,\"rangeStart\":0,\"value\":0,\"valueType\":\"int\"},{\"name\":\"strikethrough\",\"rangeEnd\":4,\"rangeStart\":0,\"value\":0,\"valueType\":\"int\"},{\"name\":\"fgColor\",\"rangeEnd\":4,\"rangeStart\":0,\"value\":\"(47,59,68,255)\",\"valueType\":\"color\"},{\"name\":\"fontWeight\",\"rangeEnd\":4,\"rangeStart\":0,\"value\":400,\"valueType\":\"int\"},{\"name\":\"fontSize\",\"rangeEnd\":4,\"rangeStart\":0,\"value\":166,\"valueType\":\"double\"},{\"name\":\"fontName\",\"rangeEnd\":4,\"rangeStart\":0,\"value\":\"Montserrat\",\"valueType\":\"string\"},{\"name\":\"underline\",\"rangeEnd\":4,\"rangeStart\":0,\"value\":0,\"valueType\":\"int\"}]",
                      "default-translation0" : 0.0,
                      "default-translation1" : 0.0,
                      "default-width" : 1016.0
                    },
                    "animationTracks" : {

                    }
                  },
                  {
                    "id" : 49,
                    "_type" : "Callout",
                    "def" : {
                      "kind" : "remix",
                      "shape" : "shape-ellipse",
                      "style" : "basic",
                      "fill-color-blue" : 1.0,
                      "fill-color-green" : 1.0,
                      "fill-color-opacity" : 0.0,
                      "fill-color-red" : 1.0,
                      "height" : {
                        "type" : "double",
                        "defaultValue" : 1331.99555634624,
                        "keyframes" : [
                          {
                            "endTime" : 138,
                            "time" : 126,
                            "value" : 1371.91831746207,
                            "duration" : 12
                          },
                          {
                            "endTime" : 152,
                            "time" : 139,
                            "value" : 1382.9871692532,
                            "duration" : 13
                          }
                        ]
                      },
                      "stroke-color-blue" : 0.0,
                      "stroke-color-green" : 0.0,
                      "stroke-color-opacity" : 1.0,
                      "stroke-color-red" : 0.0,
                      "stroke-width" : {
                        "type" : "double",
                        "defaultValue" : 6.0,
                        "keyframes" : [
                          {
                            "endTime" : 138,
                            "time" : 126,
                            "value" : 16.1694915254237,
                            "duration" : 12
                          },
                          {
                            "endTime" : 152,
                            "time" : 139,
                            "value" : 6.0,
                            "duration" : 13
                          }
                        ]
                      },
                      "width" : {
                        "type" : "double",
                        "defaultValue" : 1383.56927691497,
                        "keyframes" : [
                          {
                            "endTime" : 138,
                            "time" : 126,
                            "value" : 1371.91568716406,
                            "duration" : 12
                          },
                          {
                            "endTime" : 152,
                            "time" : 139,
                            "value" : 1383.00228412903,
                            "duration" : 13
                          }
                        ]
                      },
                      "fill-style" : "solid",
                      "stroke-style" : "solid"
                    },
                    "attributes" : {
                      "autoRotateText" : true
                    },
                    "parameters" : {
                      "translation0" : {
                        "type" : "double",
                        "defaultValue" : -25.0,
                        "keyframes" : [
                          {
                            "endTime" : 138,
                            "time" : 126,
                            "value" : -25.0,
                            "duration" : 12
                          }
                        ]
                      },
                      "translation1" : {
                        "type" : "double",
                        "defaultValue" : 25.0,
                        "keyframes" : [
                          {
                            "endTime" : 138,
                            "time" : 126,
                            "value" : 25.0,
                            "duration" : 12
                          }
                        ]
                      },
                      "sourceCrop0" : 0.0,
                      "sourceCrop1" : 0.0,
                      "sourceCrop2" : 0.0,
                      "sourceCrop3" : 0.0,
                      "geometryCrop0" : 0.0,
                      "geometryCrop1" : 0.0,
                      "geometryCrop2" : 0.0,
                      "geometryCrop3" : 0.0
                    },
                    "effects" : [

                    ],
                    "start" : 1248,
                    "duration" : 1516,
                    "mediaStart" : 0,
                    "mediaDuration" : 1516,
                    "scalar" : 1,
                    "metadata" : {
                      "clipSpeedAttribute" : false,
                      "default-fill-color-opacity" : 1.0,
                      "default-height" : 186.0,
                      "default-stroke-color-blue" : 0.537254901960784,
                      "default-stroke-color-green" : 0.133333333333333,
                      "default-stroke-color-red" : 0.388235294117647,
                      "default-stroke-width" : 6.0,
                      "default-translation0" : 0.0,
                      "default-translation1" : 0.0,
                      "default-width" : 356.0
                    },
                    "animationTracks" : {
                      "visual" : [
                        {
                          "endTime" : 138,
                          "duration" : 12,
                          "range" : [ 126, 12]
                        },
                        {
                          "endTime" : 152,
                          "duration" : 13,
                          "range" : [ 139, 13]
                        }
                      ]
                    }
                  },
                  {
                    "id" : 50,
                    "_type" : "Callout",
                    "def" : {
                      "kind" : "remix",
                      "shape" : "text-rectangle",
                      "style" : "basic",
                      "enable-ligatures" : 1.0,
                      "fill-color-blue" : 1.0,
                      "fill-color-green" : 1.0,
                      "fill-color-opacity" : 0.0,
                      "fill-color-red" : 1.0,
                      "height" : 195.697977697978,
                      "line-spacing" : 0.0,
                      "stroke-color-blue" : 1.0,
                      "stroke-color-green" : 1.0,
                      "stroke-color-opacity" : 3.15303338993544e-16,
                      "stroke-color-red" : 1.0,
                      "stroke-width" : 0.0,
                      "tail-x" : -979.021895801364,
                      "tail-y" : 309.515017854296,
                      "width" : 1845.17627859175,
                      "word-wrap" : 1.0,
                      "fill-style" : "solid",
                      "horizontal-alignment" : "left",
                      "resize-behavior" : "resizeText",
                      "stroke-style" : "solid",
                      "text" : "Promotion between rings",
                      "vertical-alignment" : "center",
                      "font" : {
                        "color-blue" : 0.266666666666667,
                        "color-green" : 0.231372549019608,
                        "color-opacity" : 1.0,
                        "color-red" : 0.184313725490196,
                        "size" : 64.0,
                        "tracking" : 0.0,
                        "name" : "Montserrat",
                        "weight" : "Regular"
                      },
                      "textAttributes" : {
                        "type" : "textAttributeList",
                        "keyframes" : [
                          {
                            "endTime" : 0,
                            "time" : 0,
                            "value" : [{"name":"fgColor","rangeEnd":23,"rangeStart":0,"value":"(35,40,47,255)","valueType":"color"},{"name":"fontSize","rangeEnd":23,"rangeStart":0,"value":100,"valueType":"double"},{"name":"kerning","rangeEnd":23,"rangeStart":0,"value":0,"valueType":"double"},{"name":"underline","rangeEnd":23,"rangeStart":0,"value":0,"valueType":"int"},{"name":"strikethrough","rangeEnd":23,"rangeStart":0,"value":0,"valueType":"int"},{"name":"fontWeight","rangeEnd":23,"rangeStart":0,"value":400,"valueType":"int"},{"name":"fontItalic","rangeEnd":23,"rangeStart":0,"value":0,"valueType":"int"},{"name":"fontName","rangeEnd":23,"rangeStart":0,"value":"Faktum Medium","valueType":"string"}],
                            "duration" : 0
                          }
                        ]
                      }
                    },
                    "attributes" : {
                      "autoRotateText" : true
                    },
                    "parameters" : {
                      "translation0" : -3.15303338993544e-14,
                      "translation1" : 446.542395799352,
                      "sourceCrop0" : 0.0,
                      "sourceCrop1" : 0.0,
                      "sourceCrop2" : 0.0,
                      "sourceCrop3" : 0.0,
                      "geometryCrop0" : 0.0,
                      "geometryCrop1" : 0.0,
                      "geometryCrop2" : 0.0,
                      "geometryCrop3" : 0.0
                    },
                    "effects" : [
                        {
                          "effectName" : "DropShadow",
                          "bypassed" : false,
                          "category" : "categoryVisualEffects",
                          "parameters" : {
                            "angle" : {
                              "type" : "double",
                              "defaultValue" : 5.49778714378214,
                              "valueBounds" : {
                                "minValue" : -1.1e+300,
                                "maxValue" : 1.1e+300,
                                "defaultValue" : 5.49778714378214
                              },
                              "uiHints" : {
                                "userInterfaceType" : 0,
                                "unitType" : 0
                              }
                            },
                            "blur" : {
                              "type" : "double",
                              "defaultValue" : 0.0,
                              "valueBounds" : {
                                "minValue" : 0.0,
                                "maxValue" : 50.0,
                                "defaultValue" : 10.0
                              },
                              "uiHints" : {
                                "userInterfaceType" : 0,
                                "unitType" : 0
                              }
                            },
                            "color-alpha" : {
                              "type" : "double",
                              "defaultValue" : 1.0,
                              "valueBounds" : {
                                "minValue" : 0.0,
                                "maxValue" : 1.0,
                                "defaultValue" : 1.0
                              },
                              "uiHints" : {
                                "userInterfaceType" : 0,
                                "unitType" : 0
                              }
                            },
                            "color-blue" : {
                              "type" : "double",
                              "defaultValue" : 1.0,
                              "valueBounds" : {
                                "minValue" : 0.0,
                                "maxValue" : 1.0,
                                "defaultValue" : 0.1216
                              },
                              "uiHints" : {
                                "userInterfaceType" : 0,
                                "unitType" : 0
                              }
                            },
                            "color-green" : {
                              "type" : "double",
                              "defaultValue" : 1.0,
                              "valueBounds" : {
                                "minValue" : 0.0,
                                "maxValue" : 1.0,
                                "defaultValue" : 0.1216
                              },
                              "uiHints" : {
                                "userInterfaceType" : 0,
                                "unitType" : 0
                              }
                            },
                            "color-red" : {
                              "type" : "double",
                              "defaultValue" : 1.0,
                              "valueBounds" : {
                                "minValue" : 0.0,
                                "maxValue" : 1.0,
                                "defaultValue" : 0.1216
                              },
                              "uiHints" : {
                                "userInterfaceType" : 0,
                                "unitType" : 0
                              }
                            },
                            "enabled" : {
                              "type" : "int",
                              "valueBounds" : {
                                "minValue" : 0,
                                "maxValue" : 1,
                                "defaultValue" : 1
                              },
                              "uiHints" : {
                                "userInterfaceType" : 0,
                                "unitType" : 0
                              },
                              "keyframes" : [
                                {
                                  "endTime" : 0,
                                  "time" : 0,
                                  "value" : 1,
                                  "duration" : 0
                                }
                              ]
                            },
                            "offset" : {
                              "type" : "double",
                              "defaultValue" : 0.0,
                              "valueBounds" : {
                                "minValue" : 0.0,
                                "maxValue" : 250.0,
                                "defaultValue" : 10.0
                              },
                              "uiHints" : {
                                "userInterfaceType" : 0,
                                "unitType" : 0
                              }
                            },
                            "opacity" : {
                              "type" : "double",
                              "defaultValue" : 0.0,
                              "valueBounds" : {
                                "minValue" : 0.0,
                                "maxValue" : 1.0,
                                "defaultValue" : 0.4
                              },
                              "uiHints" : {
                                "userInterfaceType" : 0,
                                "unitType" : 0
                              }
                            }
                          },
                          "metadata" : {
                            "default-dropshadow-blur" : 10.0,
                            "default-dropshadow-color-b" : 0.1216,
                            "default-dropshadow-color-g" : 0.1216,
                            "default-dropshadow-color-r" : 0.1216,
                            "default-dropshadow-offset" : 10.0,
                            "default-dropshadow-opacity" : 0.4
                          }
                        }
                    ],
                    "start" : 2764,
                    "duration" : 746,
                    "mediaStart" : 263,
                    "mediaDuration" : 746,
                    "scalar" : 1,
                    "metadata" : {
                      "WinSubProjectDisplayName" : "",
                      "clipSpeedAttribute" : false,
                      "default-HAlign" : "center",
                      "default-LineSpace" : 0.0,
                      "default-VAlign" : "center",
                      "default-fill-color-opacity" : 1.0,
                      "default-height" : 156.0,
                      "default-rotation2" : 0.0,
                      "default-stroke-color-blue" : 0.56078431372549,
                      "default-stroke-color-green" : 0.686274509803922,
                      "default-stroke-color-opacity" : 1.0,
                      "default-stroke-color-red" : 0.0196078431372549,
                      "default-stroke-width" : 2.0,
                      "default-text-attributes" : "[{\"name\":\"fontItalic\",\"rangeEnd\":4,\"rangeStart\":0,\"value\":0,\"valueType\":\"int\"},{\"name\":\"strikethrough\",\"rangeEnd\":4,\"rangeStart\":0,\"value\":0,\"valueType\":\"int\"},{\"name\":\"fgColor\",\"rangeEnd\":4,\"rangeStart\":0,\"value\":\"(47,59,68,255)\",\"valueType\":\"color\"},{\"name\":\"fontWeight\",\"rangeEnd\":4,\"rangeStart\":0,\"value\":400,\"valueType\":\"int\"},{\"name\":\"fontSize\",\"rangeEnd\":4,\"rangeStart\":0,\"value\":166,\"valueType\":\"double\"},{\"name\":\"fontName\",\"rangeEnd\":4,\"rangeStart\":0,\"value\":\"Montserrat\",\"valueType\":\"string\"},{\"name\":\"underline\",\"rangeEnd\":4,\"rangeStart\":0,\"value\":0,\"valueType\":\"int\"}]",
                      "default-translation0" : 0.0,
                      "default-translation1" : 0.0,
                      "default-width" : 1016.0
                    },
                    "animationTracks" : {

                    }
                  },
                  {
                    "id" : 51,
                    "_type" : "UnifiedMedia",
                    "video" : 
                        {
                          "id" : 52,
                          "_type" : "ScreenVMFile",
                          "src" : 16,
                          "trackNumber" : 0,
                          "attributes" : {
                            "ident" : "rings"
                          },
                          "parameters" : {
                            "translation0" : {
                              "type" : "double",
                              "defaultValue" : -1.13686837721616e-13,
                              "interp" : "eioe"
                            },
                            "translation1" : {
                              "type" : "double",
                              "defaultValue" : -0.28110359187913,
                              "interp" : "eioe"
                            },
                            "scale0" : {
                              "type" : "double",
                              "defaultValue" : 0.999479437792816,
                              "interp" : "eioe"
                            },
                            "scale1" : {
                              "type" : "double",
                              "defaultValue" : 0.999479437792816,
                              "interp" : "eioe"
                            },
                            "sourceCrop0" : {
                              "type" : "double",
                              "defaultValue" : 0.0,
                              "interp" : "eioe"
                            },
                            "sourceCrop1" : {
                              "type" : "double",
                              "defaultValue" : 0.0,
                              "interp" : "eioe"
                            },
                            "sourceCrop2" : {
                              "type" : "double",
                              "defaultValue" : 0.0,
                              "interp" : "eioe"
                            },
                            "sourceCrop3" : {
                              "type" : "double",
                              "defaultValue" : 0.0,
                              "interp" : "eioe"
                            },
                            "geometryCrop0" : {
                              "type" : "double",
                              "defaultValue" : 0.0,
                              "interp" : "eioe"
                            },
                            "geometryCrop1" : {
                              "type" : "double",
                              "defaultValue" : 0.0,
                              "interp" : "eioe"
                            },
                            "geometryCrop2" : {
                              "type" : "double",
                              "defaultValue" : 0.0,
                              "interp" : "eioe"
                            },
                            "geometryCrop3" : {
                              "type" : "double",
                              "defaultValue" : 0.0,
                              "interp" : "eioe"
                            },
                            "cursorScale" : {
                              "type" : "double",
                              "defaultValue" : 1.0,
                              "interp" : "linr"
                            },
                            "cursorOpacity" : {
                              "type" : "double",
                              "defaultValue" : 1.0,
                              "interp" : "linr"
                            }
                          },
                          "effects" : [

                          ],
                          "start" : 3510,
                          "duration" : 1019,
                          "mediaStart" : 0,
                          "mediaDuration" : 268,
                          "scalar" : "1019/268",
                          "animationTracks" : {

                          }
                        },
                    "audio" : 
                        {
                          "id" : 53,
                          "_type" : "AMFile",
                          "src" : 16,
                          "trackNumber" : 1,
                          "attributes" : {
                            "ident" : "",
                            "gain" : 1.0,
                            "mixToMono" : false,
                            "loudnessNormalization" : true
                          },
                            "channelNumber" : "0,1",
                          "parameters" : {
                            "volume" : {
                              "type" : "double",
                              "keyframes" : [
                                {
                                  "endTime" : "-268/1019",
                                  "time" : "-268/1019",
                                  "value" : 1.0,
                                  "duration" : 0
                                },
                                {
                                  "endTime" : 0,
                                  "time" : 0,
                                  "value" : 0.0,
                                  "duration" : 0
                                },
                                {
                                  "endTime" : 268,
                                  "time" : 268,
                                  "value" : 0.0,
                                  "duration" : 0
                                },
                                {
                                  "endTime" : "273360/1019",
                                  "time" : "273360/1019",
                                  "value" : 1.0,
                                  "duration" : 0
                                }
                              ]
                            }
                          },
                          "effects" : [

                          ],
                          "start" : 3510,
                          "duration" : 1019,
                          "mediaStart" : 0,
                          "mediaDuration" : 268,
                          "scalar" : "1019/268",
                          "animationTracks" : {

                          }
                        }
,
                    "start" : 3510,
                    "duration" : 1019,
                    "mediaStart" : 0,
                    "mediaDuration" : 691,
                    "scalar" : "1019/268",
                    "metadata" : {
                      "AutoAppliedSmartFocus" : "False",
                      "clipSpeedAttribute" : true,
                      "default-height" : 1079.43779281624,
                      "default-translation0" : 0.0,
                      "default-translation1" : 0.0,
                      "default-width" : 1920.0
                    }
                  },
                  {
                    "id" : 54,
                    "_type" : "Callout",
                    "def" : {
                      "kind" : "remix",
                      "shape" : "text-rectangle",
                      "style" : "basic",
                      "enable-ligatures" : 1.0,
                      "fill-color-blue" : 1.0,
                      "fill-color-green" : 1.0,
                      "fill-color-opacity" : 0.0,
                      "fill-color-red" : 1.0,
                      "height" : 195.697977697978,
                      "line-spacing" : 0.0,
                      "stroke-color-blue" : 1.0,
                      "stroke-color-green" : 1.0,
                      "stroke-color-opacity" : 3.15303338993544e-16,
                      "stroke-color-red" : 1.0,
                      "stroke-width" : 0.0,
                      "tail-x" : -1020.2499659768,
                      "tail-y" : 309.515017854296,
                      "width" : 1762.72013824087,
                      "word-wrap" : 1.0,
                      "fill-style" : "solid",
                      "horizontal-alignment" : "left",
                      "resize-behavior" : "resizeText",
                      "stroke-style" : "solid",
                      "text" : "Soak time",
                      "vertical-alignment" : "center",
                      "font" : {
                        "color-blue" : 0.266666666666667,
                        "color-green" : 0.231372549019608,
                        "color-opacity" : 1.0,
                        "color-red" : 0.184313725490196,
                        "size" : 64.0,
                        "tracking" : 0.0,
                        "name" : "Montserrat",
                        "weight" : "Regular"
                      },
                      "textAttributes" : {
                        "type" : "textAttributeList",
                        "keyframes" : [
                          {
                            "endTime" : 0,
                            "time" : 0,
                            "value" : [{"name":"strikethrough","rangeEnd":9,"rangeStart":0,"value":0,"valueType":"int"},{"name":"fontWeight","rangeEnd":9,"rangeStart":0,"value":400,"valueType":"int"},{"name":"fontItalic","rangeEnd":9,"rangeStart":0,"value":0,"valueType":"int"},{"name":"fontName","rangeEnd":9,"rangeStart":0,"value":"Faktum Medium","valueType":"string"},{"name":"fontSize","rangeEnd":9,"rangeStart":0,"value":100,"valueType":"double"},{"name":"kerning","rangeEnd":9,"rangeStart":0,"value":0,"valueType":"double"},{"name":"underline","rangeEnd":9,"rangeStart":0,"value":0,"valueType":"int"},{"name":"fgColor","rangeEnd":9,"rangeStart":0,"value":"(35,40,47,255)","valueType":"color"}],
                            "duration" : 0
                          }
                        ]
                      }
                    },
                    "attributes" : {
                      "autoRotateText" : true
                    },
                    "parameters" : {
                      "translation0" : 41.2280701754386,
                      "translation1" : 446.542395799352,
                      "sourceCrop0" : 0.0,
                      "sourceCrop1" : 0.0,
                      "sourceCrop2" : 0.0,
                      "sourceCrop3" : 0.0,
                      "geometryCrop0" : 0.0,
                      "geometryCrop1" : 0.0,
                      "geometryCrop2" : 0.0,
                      "geometryCrop3" : 0.0
                    },
                    "effects" : [
                        {
                          "effectName" : "DropShadow",
                          "bypassed" : false,
                          "category" : "categoryVisualEffects",
                          "parameters" : {
                            "angle" : {
                              "type" : "double",
                              "defaultValue" : 5.49778714378214,
                              "valueBounds" : {
                                "minValue" : -1.1e+300,
                                "maxValue" : 1.1e+300,
                                "defaultValue" : 5.49778714378214
                              },
                              "uiHints" : {
                                "userInterfaceType" : 0,
                                "unitType" : 0
                              }
                            },
                            "blur" : {
                              "type" : "double",
                              "defaultValue" : 0.0,
                              "valueBounds" : {
                                "minValue" : 0.0,
                                "maxValue" : 50.0,
                                "defaultValue" : 10.0
                              },
                              "uiHints" : {
                                "userInterfaceType" : 0,
                                "unitType" : 0
                              }
                            },
                            "color-alpha" : {
                              "type" : "double",
                              "defaultValue" : 1.0,
                              "valueBounds" : {
                                "minValue" : 0.0,
                                "maxValue" : 1.0,
                                "defaultValue" : 1.0
                              },
                              "uiHints" : {
                                "userInterfaceType" : 0,
                                "unitType" : 0
                              }
                            },
                            "color-blue" : {
                              "type" : "double",
                              "defaultValue" : 1.0,
                              "valueBounds" : {
                                "minValue" : 0.0,
                                "maxValue" : 1.0,
                                "defaultValue" : 0.1216
                              },
                              "uiHints" : {
                                "userInterfaceType" : 0,
                                "unitType" : 0
                              }
                            },
                            "color-green" : {
                              "type" : "double",
                              "defaultValue" : 1.0,
                              "valueBounds" : {
                                "minValue" : 0.0,
                                "maxValue" : 1.0,
                                "defaultValue" : 0.1216
                              },
                              "uiHints" : {
                                "userInterfaceType" : 0,
                                "unitType" : 0
                              }
                            },
                            "color-red" : {
                              "type" : "double",
                              "defaultValue" : 1.0,
                              "valueBounds" : {
                                "minValue" : 0.0,
                                "maxValue" : 1.0,
                                "defaultValue" : 0.1216
                              },
                              "uiHints" : {
                                "userInterfaceType" : 0,
                                "unitType" : 0
                              }
                            },
                            "enabled" : {
                              "type" : "int",
                              "valueBounds" : {
                                "minValue" : 0,
                                "maxValue" : 1,
                                "defaultValue" : 1
                              },
                              "uiHints" : {
                                "userInterfaceType" : 0,
                                "unitType" : 0
                              },
                              "keyframes" : [
                                {
                                  "endTime" : 0,
                                  "time" : 0,
                                  "value" : 1,
                                  "duration" : 0
                                }
                              ]
                            },
                            "offset" : {
                              "type" : "double",
                              "defaultValue" : 0.0,
                              "valueBounds" : {
                                "minValue" : 0.0,
                                "maxValue" : 250.0,
                                "defaultValue" : 10.0
                              },
                              "uiHints" : {
                                "userInterfaceType" : 0,
                                "unitType" : 0
                              }
                            },
                            "opacity" : {
                              "type" : "double",
                              "defaultValue" : 0.0,
                              "valueBounds" : {
                                "minValue" : 0.0,
                                "maxValue" : 1.0,
                                "defaultValue" : 0.4
                              },
                              "uiHints" : {
                                "userInterfaceType" : 0,
                                "unitType" : 0
                              }
                            }
                          },
                          "metadata" : {
                            "default-dropshadow-blur" : 10.0,
                            "default-dropshadow-color-b" : 0.1216,
                            "default-dropshadow-color-g" : 0.1216,
                            "default-dropshadow-color-r" : 0.1216,
                            "default-dropshadow-offset" : 10.0,
                            "default-dropshadow-opacity" : 0.4
                          }
                        }
                    ],
                    "start" : 4553,
                    "duration" : 1424,
                    "mediaStart" : 263,
                    "mediaDuration" : 1424,
                    "scalar" : 1,
                    "metadata" : {
                      "WinSubProjectDisplayName" : "",
                      "clipSpeedAttribute" : false,
                      "default-HAlign" : "center",
                      "default-LineSpace" : 0.0,
                      "default-VAlign" : "center",
                      "default-fill-color-opacity" : 1.0,
                      "default-height" : 156.0,
                      "default-rotation2" : 0.0,
                      "default-stroke-color-blue" : 0.56078431372549,
                      "default-stroke-color-green" : 0.686274509803922,
                      "default-stroke-color-opacity" : 1.0,
                      "default-stroke-color-red" : 0.0196078431372549,
                      "default-stroke-width" : 2.0,
                      "default-text-attributes" : "[{\"name\":\"fontItalic\",\"rangeEnd\":4,\"rangeStart\":0,\"value\":0,\"valueType\":\"int\"},{\"name\":\"strikethrough\",\"rangeEnd\":4,\"rangeStart\":0,\"value\":0,\"valueType\":\"int\"},{\"name\":\"fgColor\",\"rangeEnd\":4,\"rangeStart\":0,\"value\":\"(47,59,68,255)\",\"valueType\":\"color\"},{\"name\":\"fontWeight\",\"rangeEnd\":4,\"rangeStart\":0,\"value\":400,\"valueType\":\"int\"},{\"name\":\"fontSize\",\"rangeEnd\":4,\"rangeStart\":0,\"value\":166,\"valueType\":\"double\"},{\"name\":\"fontName\",\"rangeEnd\":4,\"rangeStart\":0,\"value\":\"Montserrat\",\"valueType\":\"string\"},{\"name\":\"underline\",\"rangeEnd\":4,\"rangeStart\":0,\"value\":0,\"valueType\":\"int\"}]",
                      "default-translation0" : 0.0,
                      "default-translation1" : 0.0,
                      "default-width" : 1016.0
                    },
                    "animationTracks" : {

                    }
                  },
                  {
                    "id" : 55,
                    "_type" : "UnifiedMedia",
                    "video" : 
                        {
                          "id" : 56,
                          "_type" : "ScreenVMFile",
                          "src" : 16,
                          "trackNumber" : 0,
                          "attributes" : {
                            "ident" : "rings"
                          },
                          "parameters" : {
                            "translation0" : {
                              "type" : "double",
                              "defaultValue" : -1.13686837721616e-13,
                              "interp" : "eioe"
                            },
                            "translation1" : {
                              "type" : "double",
                              "defaultValue" : -0.28110359187913,
                              "interp" : "eioe"
                            },
                            "scale0" : {
                              "type" : "double",
                              "defaultValue" : 0.999479437792816,
                              "interp" : "eioe"
                            },
                            "scale1" : {
                              "type" : "double",
                              "defaultValue" : 0.999479437792816,
                              "interp" : "eioe"
                            },
                            "sourceCrop0" : {
                              "type" : "double",
                              "defaultValue" : 0.0,
                              "interp" : "eioe"
                            },
                            "sourceCrop1" : {
                              "type" : "double",
                              "defaultValue" : 0.0,
                              "interp" : "eioe"
                            },
                            "sourceCrop2" : {
                              "type" : "double",
                              "defaultValue" : 0.0,
                              "interp" : "eioe"
                            },
                            "sourceCrop3" : {
                              "type" : "double",
                              "defaultValue" : 0.0,
                              "interp" : "eioe"
                            },
                            "geometryCrop0" : {
                              "type" : "double",
                              "defaultValue" : 0.0,
                              "interp" : "eioe"
                            },
                            "geometryCrop1" : {
                              "type" : "double",
                              "defaultValue" : 0.0,
                              "interp" : "eioe"
                            },
                            "geometryCrop2" : {
                              "type" : "double",
                              "defaultValue" : 0.0,
                              "interp" : "eioe"
                            },
                            "geometryCrop3" : {
                              "type" : "double",
                              "defaultValue" : 0.0,
                              "interp" : "eioe"
                            },
                            "cursorScale" : {
                              "type" : "double",
                              "defaultValue" : 1.0,
                              "interp" : "linr"
                            },
                            "cursorOpacity" : {
                              "type" : "double",
                              "defaultValue" : 1.0,
                              "interp" : "linr"
                            }
                          },
                          "effects" : [

                          ],
                          "start" : 5977,
                          "duration" : 103,
                          "mediaStart" : "25954/97",
                          "mediaDuration" : "721/97",
                          "scalar" : "97/7",
                          "animationTracks" : {

                          }
                        },
                    "audio" : 
                        {
                          "id" : 57,
                          "_type" : "AMFile",
                          "src" : 16,
                          "trackNumber" : 1,
                          "attributes" : {
                            "ident" : "",
                            "gain" : 1.0,
                            "mixToMono" : false,
                            "loudnessNormalization" : true
                          },
                            "channelNumber" : "0,1",
                          "effects" : [

                          ],
                          "start" : 5977,
                          "duration" : 103,
                          "mediaStart" : "25954/97",
                          "mediaDuration" : "721/97",
                          "scalar" : "97/7",
                          "animationTracks" : {

                          }
                        }
,
                    "start" : 5977,
                    "duration" : 103,
                    "mediaStart" : 0,
                    "mediaDuration" : 691,
                    "scalar" : "97/7",
                    "metadata" : {
                      "AutoAppliedSmartFocus" : "False",
                      "clipSpeedAttribute" : true,
                      "default-height" : 1079.43779281624,
                      "default-translation0" : 0.0,
                      "default-translation1" : 0.0,
                      "default-width" : 1920.0
                    }
                  },
                  {
                    "id" : 58,
                    "_type" : "ScreenVMFile",
                    "src" : 16,
                    "trackNumber" : 0,
                    "attributes" : {
                      "ident" : "rings"
                    },
                    "parameters" : {
                      "translation0" : {
                        "type" : "double",
                        "defaultValue" : -1.13686837721616e-13,
                        "interp" : "eioe"
                      },
                      "translation1" : {
                        "type" : "double",
                        "defaultValue" : -0.28110359187913,
                        "interp" : "eioe"
                      },
                      "scale0" : {
                        "type" : "double",
                        "defaultValue" : 0.999479437792816,
                        "interp" : "eioe"
                      },
                      "scale1" : {
                        "type" : "double",
                        "defaultValue" : 0.999479437792816,
                        "interp" : "eioe"
                      },
                      "sourceCrop0" : {
                        "type" : "double",
                        "defaultValue" : 0.0,
                        "interp" : "eioe"
                      },
                      "sourceCrop1" : {
                        "type" : "double",
                        "defaultValue" : 0.0,
                        "interp" : "eioe"
                      },
                      "sourceCrop2" : {
                        "type" : "double",
                        "defaultValue" : 0.0,
                        "interp" : "eioe"
                      },
                      "sourceCrop3" : {
                        "type" : "double",
                        "defaultValue" : 0.0,
                        "interp" : "eioe"
                      },
                      "geometryCrop0" : {
                        "type" : "double",
                        "defaultValue" : 0.0,
                        "interp" : "eioe"
                      },
                      "geometryCrop1" : {
                        "type" : "double",
                        "defaultValue" : 0.0,
                        "interp" : "eioe"
                      },
                      "geometryCrop2" : {
                        "type" : "double",
                        "defaultValue" : 0.0,
                        "interp" : "eioe"
                      },
                      "geometryCrop3" : {
                        "type" : "double",
                        "defaultValue" : 0.0,
                        "interp" : "eioe"
                      },
                      "cursorScale" : {
                        "type" : "double",
                        "defaultValue" : 1.0,
                        "interp" : "linr"
                      },
                      "cursorOpacity" : {
                        "type" : "double",
                        "defaultValue" : 1.0,
                        "interp" : "linr"
                      }
                    },
                    "effects" : [

                    ],
                    "start" : 6080,
                    "duration" : 84,
                    "mediaStart" : 275,
                    "mediaDuration" : "1628/127",
                    "scalar" : "2667/407",
                    "metadata" : {
                      "AutoAppliedSmartFocus" : "False",
                      "clipSpeedAttribute" : true
                    },
                    "animationTracks" : {

                    }
                  },
                  {
                    "id" : 59,
                    "_type" : "ScreenVMFile",
                    "src" : 16,
                    "trackNumber" : 0,
                    "attributes" : {
                      "ident" : "rings"
                    },
                    "parameters" : {
                      "translation0" : {
                        "type" : "double",
                        "defaultValue" : -1.13686837721616e-13,
                        "interp" : "eioe"
                      },
                      "translation1" : {
                        "type" : "double",
                        "defaultValue" : -0.28110359187913,
                        "interp" : "eioe"
                      },
                      "scale0" : {
                        "type" : "double",
                        "defaultValue" : 0.999479437792816,
                        "interp" : "eioe"
                      },
                      "scale1" : {
                        "type" : "double",
                        "defaultValue" : 0.999479437792816,
                        "interp" : "eioe"
                      },
                      "sourceCrop0" : {
                        "type" : "double",
                        "defaultValue" : 0.0,
                        "interp" : "eioe"
                      },
                      "sourceCrop1" : {
                        "type" : "double",
                        "defaultValue" : 0.0,
                        "interp" : "eioe"
                      },
                      "sourceCrop2" : {
                        "type" : "double",
                        "defaultValue" : 0.0,
                        "interp" : "eioe"
                      },
                      "sourceCrop3" : {
                        "type" : "double",
                        "defaultValue" : 0.0,
                        "interp" : "eioe"
                      },
                      "geometryCrop0" : {
                        "type" : "double",
                        "defaultValue" : 0.0,
                        "interp" : "eioe"
                      },
                      "geometryCrop1" : {
                        "type" : "double",
                        "defaultValue" : 0.0,
                        "interp" : "eioe"
                      },
                      "geometryCrop2" : {
                        "type" : "double",
                        "defaultValue" : 0.0,
                        "interp" : "eioe"
                      },
                      "geometryCrop3" : {
                        "type" : "double",
                        "defaultValue" : 0.0,
                        "interp" : "eioe"
                      },
                      "cursorScale" : {
                        "type" : "double",
                        "defaultValue" : 1.0,
                        "interp" : "linr"
                      },
                      "cursorOpacity" : {
                        "type" : "double",
                        "defaultValue" : 1.0,
                        "interp" : "linr"
                      }
                    },
                    "effects" : [

                    ],
                    "start" : 6164,
                    "duration" : 38,
                    "mediaStart" : "36553/127",
                    "mediaDuration" : "836/127",
                    "scalar" : "127/22",
                    "metadata" : {
                      "AutoAppliedSmartFocus" : "False",
                      "clipSpeedAttribute" : true
                    },
                    "animationTracks" : {

                    }
                  },
                  {
                    "id" : 60,
                    "_type" : "ScreenVMFile",
                    "src" : 16,
                    "trackNumber" : 0,
                    "attributes" : {
                      "ident" : "rings"
                    },
                    "parameters" : {
                      "translation0" : {
                        "type" : "double",
                        "defaultValue" : -1.13686837721616e-13,
                        "interp" : "eioe"
                      },
                      "translation1" : {
                        "type" : "double",
                        "defaultValue" : -0.28110359187913,
                        "interp" : "eioe"
                      },
                      "scale0" : {
                        "type" : "double",
                        "defaultValue" : 0.999479437792816,
                        "interp" : "eioe"
                      },
                      "scale1" : {
                        "type" : "double",
                        "defaultValue" : 0.999479437792816,
                        "interp" : "eioe"
                      },
                      "sourceCrop0" : {
                        "type" : "double",
                        "defaultValue" : 0.0,
                        "interp" : "eioe"
                      },
                      "sourceCrop1" : {
                        "type" : "double",
                        "defaultValue" : 0.0,
                        "interp" : "eioe"
                      },
                      "sourceCrop2" : {
                        "type" : "double",
                        "defaultValue" : 0.0,
                        "interp" : "eioe"
                      },
                      "sourceCrop3" : {
                        "type" : "double",
                        "defaultValue" : 0.0,
                        "interp" : "eioe"
                      },
                      "geometryCrop0" : {
                        "type" : "double",
                        "defaultValue" : 0.0,
                        "interp" : "eioe"
                      },
                      "geometryCrop1" : {
                        "type" : "double",
                        "defaultValue" : 0.0,
                        "interp" : "eioe"
                      },
                      "geometryCrop2" : {
                        "type" : "double",
                        "defaultValue" : 0.0,
                        "interp" : "eioe"
                      },
                      "geometryCrop3" : {
                        "type" : "double",
                        "defaultValue" : 0.0,
                        "interp" : "eioe"
                      },
                      "cursorScale" : {
                        "type" : "double",
                        "defaultValue" : 1.0,
                        "interp" : "linr"
                      },
                      "cursorOpacity" : {
                        "type" : "double",
                        "defaultValue" : 1.0,
                        "interp" : "linr"
                      }
                    },
                    "effects" : [

                    ],
                    "start" : 6202,
                    "duration" : 216,
                    "mediaStart" : "37389/127",
                    "mediaDuration" : "16104/127",
                    "scalar" : "1143/671",
                    "metadata" : {
                      "AutoAppliedSmartFocus" : "False",
                      "clipSpeedAttribute" : true
                    },
                    "animationTracks" : {

                    }
                  },
                  {
                    "id" : 61,
                    "_type" : "UnifiedMedia",
                    "video" : 
                        {
                          "id" : 62,
                          "_type" : "ScreenVMFile",
                          "src" : 16,
                          "trackNumber" : 0,
                          "attributes" : {
                            "ident" : "rings"
                          },
                          "parameters" : {
                            "translation0" : {
                              "type" : "double",
                              "defaultValue" : -1.13686837721616e-13,
                              "interp" : "eioe"
                            },
                            "translation1" : {
                              "type" : "double",
                              "defaultValue" : -0.28110359187913,
                              "interp" : "eioe"
                            },
                            "scale0" : {
                              "type" : "double",
                              "defaultValue" : 0.999479437792816,
                              "interp" : "eioe"
                            },
                            "scale1" : {
                              "type" : "double",
                              "defaultValue" : 0.999479437792816,
                              "interp" : "eioe"
                            },
                            "sourceCrop0" : {
                              "type" : "double",
                              "defaultValue" : 0.0,
                              "interp" : "eioe"
                            },
                            "sourceCrop1" : {
                              "type" : "double",
                              "defaultValue" : 0.0,
                              "interp" : "eioe"
                            },
                            "sourceCrop2" : {
                              "type" : "double",
                              "defaultValue" : 0.0,
                              "interp" : "eioe"
                            },
                            "sourceCrop3" : {
                              "type" : "double",
                              "defaultValue" : 0.0,
                              "interp" : "eioe"
                            },
                            "geometryCrop0" : {
                              "type" : "double",
                              "defaultValue" : 0.0,
                              "interp" : "eioe"
                            },
                            "geometryCrop1" : {
                              "type" : "double",
                              "defaultValue" : 0.0,
                              "interp" : "eioe"
                            },
                            "geometryCrop2" : {
                              "type" : "double",
                              "defaultValue" : 0.0,
                              "interp" : "eioe"
                            },
                            "geometryCrop3" : {
                              "type" : "double",
                              "defaultValue" : 0.0,
                              "interp" : "eioe"
                            },
                            "cursorScale" : {
                              "type" : "double",
                              "defaultValue" : 1.0,
                              "interp" : "linr"
                            },
                            "cursorOpacity" : {
                              "type" : "double",
                              "defaultValue" : 1.0,
                              "interp" : "linr"
                            }
                          },
                          "effects" : [

                          ],
                          "start" : 6418,
                          "duration" : 37,
                          "mediaStart" : 407,
                          "mediaDuration" : 28,
                          "scalar" : "37/28",
                          "animationTracks" : {

                          }
                        },
                    "audio" : 
                        {
                          "id" : 63,
                          "_type" : "AMFile",
                          "src" : 16,
                          "trackNumber" : 1,
                          "attributes" : {
                            "ident" : "",
                            "gain" : 1.0,
                            "mixToMono" : false,
                            "loudnessNormalization" : true
                          },
                            "channelNumber" : "0,1",
                          "parameters" : {
                            "volume" : {
                              "type" : "double",
                              "keyframes" : [
                                {
                                  "endTime" : 0,
                                  "time" : 0,
                                  "value" : 1.0,
                                  "duration" : 0
                                },
                                {
                                  "endTime" : 406,
                                  "time" : 406,
                                  "value" : 1.0,
                                  "duration" : 0
                                },
                                {
                                  "endTime" : 407,
                                  "time" : 407,
                                  "value" : 0.0,
                                  "duration" : 0
                                },
                                {
                                  "endTime" : 521,
                                  "time" : 521,
                                  "value" : 0.0,
                                  "duration" : 0
                                },
                                {
                                  "endTime" : 522,
                                  "time" : 522,
                                  "value" : 1.0,
                                  "duration" : 0
                                }
                              ]
                            }
                          },
                          "effects" : [

                          ],
                          "start" : 6418,
                          "duration" : 37,
                          "mediaStart" : 407,
                          "mediaDuration" : 28,
                          "scalar" : "37/28",
                          "animationTracks" : {

                          }
                        }
,
                    "start" : 6418,
                    "duration" : 37,
                    "mediaStart" : 0,
                    "mediaDuration" : 691,
                    "scalar" : "37/28",
                    "metadata" : {
                      "AutoAppliedSmartFocus" : "False",
                      "clipSpeedAttribute" : true,
                      "default-height" : 1079.43779281624,
                      "default-translation0" : 0.0,
                      "default-translation1" : 0.0,
                      "default-width" : 1920.0
                    }
                  },
                  {
                    "id" : 64,
                    "_type" : "UnifiedMedia",
                    "video" : 
                        {
                          "id" : 65,
                          "_type" : "ScreenVMFile",
                          "src" : 16,
                          "trackNumber" : 0,
                          "attributes" : {
                            "ident" : "rings"
                          },
                          "parameters" : {
                            "translation0" : {
                              "type" : "double",
                              "defaultValue" : -1.13686837721616e-13,
                              "interp" : "eioe"
                            },
                            "translation1" : {
                              "type" : "double",
                              "defaultValue" : -0.28110359187913,
                              "interp" : "eioe"
                            },
                            "scale0" : {
                              "type" : "double",
                              "defaultValue" : 0.999479437792816,
                              "interp" : "eioe"
                            },
                            "scale1" : {
                              "type" : "double",
                              "defaultValue" : 0.999479437792816,
                              "interp" : "eioe"
                            },
                            "sourceCrop0" : {
                              "type" : "double",
                              "defaultValue" : 0.0,
                              "interp" : "eioe"
                            },
                            "sourceCrop1" : {
                              "type" : "double",
                              "defaultValue" : 0.0,
                              "interp" : "eioe"
                            },
                            "sourceCrop2" : {
                              "type" : "double",
                              "defaultValue" : 0.0,
                              "interp" : "eioe"
                            },
                            "sourceCrop3" : {
                              "type" : "double",
                              "defaultValue" : 0.0,
                              "interp" : "eioe"
                            },
                            "geometryCrop0" : {
                              "type" : "double",
                              "defaultValue" : 0.0,
                              "interp" : "eioe"
                            },
                            "geometryCrop1" : {
                              "type" : "double",
                              "defaultValue" : 0.0,
                              "interp" : "eioe"
                            },
                            "geometryCrop2" : {
                              "type" : "double",
                              "defaultValue" : 0.0,
                              "interp" : "eioe"
                            },
                            "geometryCrop3" : {
                              "type" : "double",
                              "defaultValue" : 0.0,
                              "interp" : "eioe"
                            },
                            "cursorScale" : {
                              "type" : "double",
                              "defaultValue" : 1.0,
                              "interp" : "linr"
                            },
                            "cursorOpacity" : {
                              "type" : "double",
                              "defaultValue" : 1.0,
                              "interp" : "linr"
                            }
                          },
                          "effects" : [

                          ],
                          "start" : 6455,
                          "duration" : 476,
                          "mediaStart" : 435,
                          "mediaDuration" : 86,
                          "scalar" : "238/43",
                          "animationTracks" : {

                          }
                        },
                    "audio" : 
                        {
                          "id" : 66,
                          "_type" : "AMFile",
                          "src" : 16,
                          "trackNumber" : 1,
                          "attributes" : {
                            "ident" : "",
                            "gain" : 1.0,
                            "mixToMono" : false,
                            "loudnessNormalization" : true
                          },
                            "channelNumber" : "0,1",
                          "parameters" : {
                            "volume" : {
                              "type" : "double",
                              "keyframes" : [
                                {
                                  "endTime" : 0,
                                  "time" : 0,
                                  "value" : 1.0,
                                  "duration" : 0
                                },
                                {
                                  "endTime" : 406,
                                  "time" : 406,
                                  "value" : 1.0,
                                  "duration" : 0
                                },
                                {
                                  "endTime" : 407,
                                  "time" : 407,
                                  "value" : 0.0,
                                  "duration" : 0
                                },
                                {
                                  "endTime" : 521,
                                  "time" : 521,
                                  "value" : 0.0,
                                  "duration" : 0
                                },
                                {
                                  "endTime" : 522,
                                  "time" : 522,
                                  "value" : 1.0,
                                  "duration" : 0
                                }
                              ]
                            }
                          },
                          "effects" : [

                          ],
                          "start" : 6455,
                          "duration" : 476,
                          "mediaStart" : 435,
                          "mediaDuration" : 86,
                          "scalar" : "238/43",
                          "animationTracks" : {

                          }
                        }
,
                    "start" : 6455,
                    "duration" : 476,
                    "mediaStart" : 0,
                    "mediaDuration" : 691,
                    "scalar" : "238/43",
                    "metadata" : {
                      "AutoAppliedSmartFocus" : "False",
                      "clipSpeedAttribute" : true,
                      "default-height" : 1079.43779281624,
                      "default-translation0" : 0.0,
                      "default-translation1" : 0.0,
                      "default-width" : 1920.0
                    }
                  },
                  {
                    "id" : 67,
                    "_type" : "UnifiedMedia",
                    "video" : 
                        {
                          "id" : 68,
                          "_type" : "ScreenVMFile",
                          "src" : 16,
                          "trackNumber" : 0,
                          "attributes" : {
                            "ident" : "rings"
                          },
                          "parameters" : {
                            "translation0" : {
                              "type" : "double",
                              "defaultValue" : -1.13686837721616e-13,
                              "interp" : "eioe"
                            },
                            "translation1" : {
                              "type" : "double",
                              "defaultValue" : -0.28110359187913,
                              "interp" : "eioe"
                            },
                            "scale0" : {
                              "type" : "double",
                              "defaultValue" : 0.999479437792816,
                              "interp" : "eioe"
                            },
                            "scale1" : {
                              "type" : "double",
                              "defaultValue" : 0.999479437792816,
                              "interp" : "eioe"
                            },
                            "sourceCrop0" : {
                              "type" : "double",
                              "defaultValue" : 0.0,
                              "interp" : "eioe"
                            },
                            "sourceCrop1" : {
                              "type" : "double",
                              "defaultValue" : 0.0,
                              "interp" : "eioe"
                            },
                            "sourceCrop2" : {
                              "type" : "double",
                              "defaultValue" : 0.0,
                              "interp" : "eioe"
                            },
                            "sourceCrop3" : {
                              "type" : "double",
                              "defaultValue" : 0.0,
                              "interp" : "eioe"
                            },
                            "geometryCrop0" : {
                              "type" : "double",
                              "defaultValue" : 0.0,
                              "interp" : "eioe"
                            },
                            "geometryCrop1" : {
                              "type" : "double",
                              "defaultValue" : 0.0,
                              "interp" : "eioe"
                            },
                            "geometryCrop2" : {
                              "type" : "double",
                              "defaultValue" : 0.0,
                              "interp" : "eioe"
                            },
                            "geometryCrop3" : {
                              "type" : "double",
                              "defaultValue" : 0.0,
                              "interp" : "eioe"
                            },
                            "cursorScale" : {
                              "type" : "double",
                              "defaultValue" : 1.0,
                              "interp" : "linr"
                            },
                            "cursorOpacity" : {
                              "type" : "double",
                              "defaultValue" : 1.0,
                              "interp" : "linr"
                            }
                          },
                          "effects" : [

                          ],
                          "start" : 6931,
                          "duration" : 62,
                          "mediaStart" : 521,
                          "mediaDuration" : 62,
                          "scalar" : 1,
                          "animationTracks" : {

                          }
                        },
                    "audio" : 
                        {
                          "id" : 69,
                          "_type" : "AMFile",
                          "src" : 16,
                          "trackNumber" : 1,
                          "attributes" : {
                            "ident" : "",
                            "gain" : 1.0,
                            "mixToMono" : false,
                            "loudnessNormalization" : true
                          },
                            "channelNumber" : "0,1",
                          "parameters" : {
                            "volume" : {
                              "type" : "double",
                              "keyframes" : [
                                {
                                  "endTime" : 0,
                                  "time" : 0,
                                  "value" : 1.0,
                                  "duration" : 0
                                },
                                {
                                  "endTime" : 520,
                                  "time" : 520,
                                  "value" : 1.0,
                                  "duration" : 0
                                },
                                {
                                  "endTime" : 521,
                                  "time" : 521,
                                  "value" : 0.0,
                                  "duration" : 0
                                },
                                {
                                  "endTime" : 691,
                                  "time" : 691,
                                  "value" : 0.0,
                                  "duration" : 0
                                },
                                {
                                  "endTime" : 692,
                                  "time" : 692,
                                  "value" : 1.0,
                                  "duration" : 0
                                }
                              ]
                            }
                          },
                          "effects" : [

                          ],
                          "start" : 6931,
                          "duration" : 62,
                          "mediaStart" : 521,
                          "mediaDuration" : 62,
                          "scalar" : 1,
                          "animationTracks" : {

                          }
                        }
,
                    "start" : 6931,
                    "duration" : 62,
                    "mediaStart" : 0,
                    "mediaDuration" : 691,
                    "scalar" : 1,
                    "metadata" : {
                      "AutoAppliedSmartFocus" : "False",
                      "clipSpeedAttribute" : false,
                      "default-height" : 1079.43779281624,
                      "default-translation0" : 0.0,
                      "default-translation1" : 0.0,
                      "default-width" : 1920.0
                    }
                  },
                  {
                    "id" : 70,
                    "_type" : "IMFile",
                    "src" : 22,
                    "trackNumber" : 0,
                    "trimStartSum" : 0,
                    "attributes" : {
                      "ident" : "deployed"
                    },
                    "parameters" : {
                      "translation1" : -1.13686837721616e-13,
                      "sourceCrop0" : 0.0,
                      "sourceCrop1" : 0.0,
                      "sourceCrop2" : 0.0,
                      "sourceCrop3" : 0.0,
                      "geometryCrop0" : 0.0,
                      "geometryCrop1" : 0.0,
                      "geometryCrop2" : 0.0,
                      "geometryCrop3" : 0.0
                    },
                    "effects" : [

                    ],
                    "start" : 6993,
                    "duration" : 1136,
                    "mediaStart" : 0,
                    "mediaDuration" : 1,
                    "scalar" : 1,
                    "metadata" : {
                      "clipSpeedAttribute" : false,
                      "default-height" : 1080.0,
                      "default-translation0" : 0.0,
                      "default-translation1" : 0.0,
                      "default-width" : 1920.0
                    },
                    "animationTracks" : {

                    }
                  },
                  {
                    "id" : 71,
                    "_type" : "Callout",
                    "def" : {
                      "kind" : "remix",
                      "shape" : "text-rectangle",
                      "style" : "basic",
                      "enable-ligatures" : 1.0,
                      "fill-color-blue" : 1.0,
                      "fill-color-green" : 1.0,
                      "fill-color-opacity" : 0.0,
                      "fill-color-red" : 1.0,
                      "height" : 195.697977697978,
                      "line-spacing" : 0.0,
                      "stroke-color-blue" : 1.0,
                      "stroke-color-green" : 1.0,
                      "stroke-color-opacity" : 3.15303338993544e-16,
                      "stroke-color-red" : 1.0,
                      "stroke-width" : 0.0,
                      "tail-x" : -979.021895801364,
                      "tail-y" : 309.515017854296,
                      "width" : 1845.17627859175,
                      "word-wrap" : 1.0,
                      "fill-style" : "solid",
                      "horizontal-alignment" : "left",
                      "resize-behavior" : "resizeText",
                      "stroke-style" : "solid",
                      "text" : "Patch Management",
                      "vertical-alignment" : "center",
                      "font" : {
                        "color-blue" : 0.266666666666667,
                        "color-green" : 0.231372549019608,
                        "color-opacity" : 1.0,
                        "color-red" : 0.184313725490196,
                        "size" : 64.0,
                        "tracking" : 0.0,
                        "name" : "Montserrat",
                        "weight" : "Regular"
                      },
                      "textAttributes" : {
                        "type" : "textAttributeList",
                        "keyframes" : [
                          {
                            "endTime" : 0,
                            "time" : 0,
                            "value" : [{"name":"fontItalic","rangeEnd":16,"rangeStart":0,"value":0,"valueType":"int"},{"name":"strikethrough","rangeEnd":16,"rangeStart":0,"value":0,"valueType":"int"},{"name":"fontWeight","rangeEnd":16,"rangeStart":0,"value":400,"valueType":"int"},{"name":"fontSize","rangeEnd":16,"rangeStart":0,"value":100,"valueType":"double"},{"name":"underline","rangeEnd":16,"rangeStart":0,"value":0,"valueType":"int"},{"name":"kerning","rangeEnd":16,"rangeStart":0,"value":0,"valueType":"double"},{"name":"fgColor","rangeEnd":16,"rangeStart":0,"value":"(35,40,47,255)","valueType":"color"},{"name":"fontName","rangeEnd":16,"rangeStart":0,"value":"???????","valueType":"string"}],
                            "duration" : 0
                          }
                        ]
                      }
                    },
                    "attributes" : {
                      "autoRotateText" : true
                    },
                    "parameters" : {
                      "translation0" : -3.15303338993544e-14,
                      "translation1" : 446.542395799352,
                      "sourceCrop0" : 0.0,
                      "sourceCrop1" : 0.0,
                      "sourceCrop2" : 0.0,
                      "sourceCrop3" : 0.0,
                      "geometryCrop0" : 0.0,
                      "geometryCrop1" : 0.0,
                      "geometryCrop2" : 0.0,
                      "geometryCrop3" : 0.0
                    },
                    "effects" : [
                        {
                          "effectName" : "DropShadow",
                          "bypassed" : false,
                          "category" : "categoryVisualEffects",
                          "parameters" : {
                            "angle" : {
                              "type" : "double",
                              "defaultValue" : 5.49778714378214,
                              "valueBounds" : {
                                "minValue" : -1.1e+300,
                                "maxValue" : 1.1e+300,
                                "defaultValue" : 5.49778714378214
                              },
                              "uiHints" : {
                                "userInterfaceType" : 0,
                                "unitType" : 0
                              }
                            },
                            "blur" : {
                              "type" : "double",
                              "defaultValue" : 0.0,
                              "valueBounds" : {
                                "minValue" : 0.0,
                                "maxValue" : 50.0,
                                "defaultValue" : 10.0
                              },
                              "uiHints" : {
                                "userInterfaceType" : 0,
                                "unitType" : 0
                              }
                            },
                            "color-alpha" : {
                              "type" : "double",
                              "defaultValue" : 1.0,
                              "valueBounds" : {
                                "minValue" : 0.0,
                                "maxValue" : 1.0,
                                "defaultValue" : 1.0
                              },
                              "uiHints" : {
                                "userInterfaceType" : 0,
                                "unitType" : 0
                              }
                            },
                            "color-blue" : {
                              "type" : "double",
                              "defaultValue" : 1.0,
                              "valueBounds" : {
                                "minValue" : 0.0,
                                "maxValue" : 1.0,
                                "defaultValue" : 0.1216
                              },
                              "uiHints" : {
                                "userInterfaceType" : 0,
                                "unitType" : 0
                              }
                            },
                            "color-green" : {
                              "type" : "double",
                              "defaultValue" : 1.0,
                              "valueBounds" : {
                                "minValue" : 0.0,
                                "maxValue" : 1.0,
                                "defaultValue" : 0.1216
                              },
                              "uiHints" : {
                                "userInterfaceType" : 0,
                                "unitType" : 0
                              }
                            },
                            "color-red" : {
                              "type" : "double",
                              "defaultValue" : 1.0,
                              "valueBounds" : {
                                "minValue" : 0.0,
                                "maxValue" : 1.0,
                                "defaultValue" : 0.1216
                              },
                              "uiHints" : {
                                "userInterfaceType" : 0,
                                "unitType" : 0
                              }
                            },
                            "enabled" : {
                              "type" : "int",
                              "valueBounds" : {
                                "minValue" : 0,
                                "maxValue" : 1,
                                "defaultValue" : 1
                              },
                              "uiHints" : {
                                "userInterfaceType" : 0,
                                "unitType" : 0
                              },
                              "keyframes" : [
                                {
                                  "endTime" : 0,
                                  "time" : 0,
                                  "value" : 1,
                                  "duration" : 0
                                }
                              ]
                            },
                            "offset" : {
                              "type" : "double",
                              "defaultValue" : 0.0,
                              "valueBounds" : {
                                "minValue" : 0.0,
                                "maxValue" : 250.0,
                                "defaultValue" : 10.0
                              },
                              "uiHints" : {
                                "userInterfaceType" : 0,
                                "unitType" : 0
                              }
                            },
                            "opacity" : {
                              "type" : "double",
                              "defaultValue" : 0.0,
                              "valueBounds" : {
                                "minValue" : 0.0,
                                "maxValue" : 1.0,
                                "defaultValue" : 0.4
                              },
                              "uiHints" : {
                                "userInterfaceType" : 0,
                                "unitType" : 0
                              }
                            }
                          },
                          "metadata" : {
                            "default-dropshadow-blur" : 10.0,
                            "default-dropshadow-color-b" : 0.1216,
                            "default-dropshadow-color-g" : 0.1216,
                            "default-dropshadow-color-r" : 0.1216,
                            "default-dropshadow-offset" : 10.0,
                            "default-dropshadow-opacity" : 0.4
                          }
                        }
                    ],
                    "start" : 8129,
                    "duration" : 1043,
                    "mediaStart" : 45,
                    "mediaDuration" : 1043,
                    "scalar" : 1,
                    "metadata" : {
                      "WinSubProjectDisplayName" : "",
                      "clipSpeedAttribute" : false,
                      "default-HAlign" : "center",
                      "default-LineSpace" : 0.0,
                      "default-VAlign" : "center",
                      "default-fill-color-opacity" : 1.0,
                      "default-height" : 156.0,
                      "default-rotation2" : 0.0,
                      "default-stroke-color-blue" : 0.56078431372549,
                      "default-stroke-color-green" : 0.686274509803922,
                      "default-stroke-color-opacity" : 1.0,
                      "default-stroke-color-red" : 0.0196078431372549,
                      "default-stroke-width" : 2.0,
                      "default-text-attributes" : "[{\"name\":\"fontItalic\",\"rangeEnd\":4,\"rangeStart\":0,\"value\":0,\"valueType\":\"int\"},{\"name\":\"strikethrough\",\"rangeEnd\":4,\"rangeStart\":0,\"value\":0,\"valueType\":\"int\"},{\"name\":\"fgColor\",\"rangeEnd\":4,\"rangeStart\":0,\"value\":\"(47,59,68,255)\",\"valueType\":\"color\"},{\"name\":\"fontWeight\",\"rangeEnd\":4,\"rangeStart\":0,\"value\":400,\"valueType\":\"int\"},{\"name\":\"fontSize\",\"rangeEnd\":4,\"rangeStart\":0,\"value\":166,\"valueType\":\"double\"},{\"name\":\"fontName\",\"rangeEnd\":4,\"rangeStart\":0,\"value\":\"Montserrat\",\"valueType\":\"string\"},{\"name\":\"underline\",\"rangeEnd\":4,\"rangeStart\":0,\"value\":0,\"valueType\":\"int\"}]",
                      "default-translation0" : 0.0,
                      "default-translation1" : 0.0,
                      "default-width" : 1016.0
                    },
                    "animationTracks" : {

                    }
                  }
                ],
                "transitions" : [
                  {
                    "name" : "Fade",
                    "duration" : 30,
                    "trivial" : false,
                    "reverse" : false,
                    "bypass" : false,
                    "useAudioPreRoll" : true,
                    "useVisualPreRoll" : true,
                    "leftMedia" : 48
                  },
                  {
                    "name" : "Fade",
                    "duration" : 30,
                    "trivial" : false,
                    "reverse" : false,
                    "bypass" : false,
                    "useAudioPreRoll" : true,
                    "useVisualPreRoll" : true,
                    "rightMedia" : 49
                  }
                ]
              },
              {
                "trackIndex" : 2,
                "medias" : [
                  {
                    "id" : 72,
                    "_type" : "Callout",
                    "def" : {
                      "kind" : "remix",
                      "shape" : "text-rectangle",
                      "style" : "basic",
                      "enable-ligatures" : 1.0,
                      "fill-color-blue" : 1.0,
                      "fill-color-green" : 1.0,
                      "fill-color-opacity" : 0.0,
                      "fill-color-red" : 1.0,
                      "height" : 202.0,
                      "line-spacing" : 0.0,
                      "stroke-color-blue" : 0.890196078431372,
                      "stroke-color-green" : 0.870588235294118,
                      "stroke-color-opacity" : 0.0,
                      "stroke-color-red" : 0.847058823529412,
                      "stroke-width" : 0.0,
                      "tail-x" : 1.83865683865719,
                      "tail-y" : -20.0,
                      "width" : 888.552989352988,
                      "word-wrap" : 1.0,
                      "fill-style" : "solid",
                      "horizontal-alignment" : "left",
                      "resize-behavior" : "resizeText",
                      "stroke-style" : "solid",
                      "text" : "Rings and rollouts",
                      "vertical-alignment" : "center",
                      "font" : {
                        "color-blue" : 0.266666666666667,
                        "color-green" : 0.231372549019608,
                        "color-opacity" : 1.0,
                        "color-red" : 0.184313725490196,
                        "size" : 64.0,
                        "tracking" : 0.0,
                        "name" : "Montserrat",
                        "weight" : "Regular"
                      },
                      "textAttributes" : {
                        "type" : "textAttributeList",
                        "keyframes" : [
                          {
                            "endTime" : 0,
                            "time" : 0,
                            "value" : [{"name":"kerning","rangeEnd":18,"rangeStart":0,"value":0,"valueType":"double"},{"name":"fgColor","rangeEnd":18,"rangeStart":0,"value":"(35,40,47,255)","valueType":"color"},{"name":"underline","rangeEnd":18,"rangeStart":0,"value":0,"valueType":"int"},{"name":"strikethrough","rangeEnd":18,"rangeStart":0,"value":0,"valueType":"int"},{"name":"fontWeight","rangeEnd":18,"rangeStart":0,"value":400,"valueType":"int"},{"name":"fontItalic","rangeEnd":18,"rangeStart":0,"value":0,"valueType":"int"},{"name":"fontName","rangeEnd":18,"rangeStart":0,"value":"Faktum Medium","valueType":"string"},{"name":"fontSize","rangeEnd":18,"rangeStart":0,"value":80,"valueType":"double"}],
                            "duration" : 0
                          }
                        ]
                      }
                    },
                    "attributes" : {
                      "autoRotateText" : true
                    },
                    "parameters" : {
                      "translation0" : -22.9729729729729,
                      "translation1" : 65.9980740971404,
                      "sourceCrop0" : 0.0,
                      "sourceCrop1" : 0.0,
                      "sourceCrop2" : 0.0,
                      "sourceCrop3" : 0.0,
                      "geometryCrop0" : 0.0,
                      "geometryCrop1" : 0.0,
                      "geometryCrop2" : 0.0,
                      "geometryCrop3" : 0.0
                    },
                    "effects" : [

                    ],
                    "start" : 84,
                    "duration" : 116,
                    "mediaStart" : 0,
                    "mediaDuration" : 116,
                    "scalar" : 1,
                    "metadata" : {
                      "clipSpeedAttribute" : false,
                      "default-HAlign" : "center",
                      "default-LineSpace" : 0.0,
                      "default-VAlign" : "center",
                      "default-fill-color-opacity" : 1.0,
                      "default-height" : 176.0,
                      "default-stroke-color-blue" : 0.56078431372549,
                      "default-stroke-color-green" : 0.686274509803922,
                      "default-stroke-color-opacity" : 1.0,
                      "default-stroke-color-red" : 0.0196078431372549,
                      "default-stroke-width" : 2.0,
                      "default-text-attributes" : "[{\"name\":\"fgColor\",\"rangeEnd\":23,\"rangeStart\":0,\"value\":\"(47,59,68,255)\",\"valueType\":\"color\"},{\"name\":\"underline\",\"rangeEnd\":23,\"rangeStart\":0,\"value\":0,\"valueType\":\"int\"},{\"name\":\"strikethrough\",\"rangeEnd\":23,\"rangeStart\":0,\"value\":0,\"valueType\":\"int\"},{\"name\":\"fontWeight\",\"rangeEnd\":23,\"rangeStart\":0,\"value\":400,\"valueType\":\"int\"},{\"name\":\"fontItalic\",\"rangeEnd\":23,\"rangeStart\":0,\"value\":0,\"valueType\":\"int\"},{\"name\":\"fontName\",\"rangeEnd\":23,\"rangeStart\":0,\"value\":\"Faktum Medium\",\"valueType\":\"string\"},{\"name\":\"kerning\",\"rangeEnd\":23,\"rangeStart\":0,\"value\":0,\"valueType\":\"double\"},{\"name\":\"fontSize\",\"rangeEnd\":23,\"rangeStart\":0,\"value\":80,\"valueType\":\"double\"}]",
                      "default-translation0" : 0.0,
                      "default-translation1" : 0.0,
                      "default-width" : 376.0
                    },
                    "animationTracks" : {

                    }
                  },
                  {
                    "id" : 73,
                    "_type" : "Group",
                    "parameters" : {
                      "translation0" : 116.506822612086,
                      "translation1" : 21.4298245614034,
                      "sourceCrop0" : 0.0,
                      "sourceCrop1" : 0.0,
                      "sourceCrop2" : 0.0,
                      "sourceCrop3" : 0.0,
                      "geometryCrop0" : 0.0,
                      "geometryCrop1" : 0.0,
                      "geometryCrop2" : 0.0,
                      "geometryCrop3" : 0.0,
                      "volume" : 1.0
                    },
                    "tracks" : [
                      {
                        "trackIndex" : 0,
                        "medias" : [
                          {
                            "id" : 74,
                            "_type" : "IMFile",
                            "src" : 11,
                            "trackNumber" : 0,
                            "trimStartSum" : 0,
                            "attributes" : {
                              "ident" : "laptop"
                            },
                            "parameters" : {
                              "translation0" : -416.666666666667,
                              "translation1" : -44.1666666666667,
                              "scale0" : 1.48148148148148,
                              "scale1" : 1.48148148148148,
                              "sourceCrop0" : 0.0,
                              "sourceCrop1" : 0.0,
                              "sourceCrop2" : 0.0,
                              "sourceCrop3" : 0.0,
                              "geometryCrop0" : 0.0,
                              "geometryCrop1" : 0.0,
                              "geometryCrop2" : 0.0,
                              "geometryCrop3" : 0.0
                            },
                            "effects" : [

                            ],
                            "start" : 0,
                            "duration" : 474,
                            "mediaStart" : 0,
                            "mediaDuration" : 1,
                            "scalar" : 1,
                            "metadata" : {
                              "clipSpeedAttribute" : false,
                              "default-height" : 45.0,
                              "default-scale0" : 1.0,
                              "default-scale1" : 1.0,
                              "default-translation0" : -0.5,
                              "default-translation1" : -0.5,
                              "default-width" : 67.0
                            },
                            "animationTracks" : {

                            }
                          }
                        ],
                          "ident" : "",
                          "audioMuted" : false,
                          "videoHidden" : false,
                          "magnetic" : false,
                          "matte" : 0,
                          "solo" : false,
                          "metadata" : {
                            "IsLocked" : "False",
                            "WinTrackHeight" : "56"
                          }
                      },
                      {
                        "trackIndex" : 1,
                        "medias" : [
                          {
                            "id" : 75,
                            "_type" : "IMFile",
                            "src" : 11,
                            "trackNumber" : 0,
                            "trimStartSum" : 0,
                            "attributes" : {
                              "ident" : "laptop"
                            },
                            "parameters" : {
                              "translation0" : 353.0,
                              "translation1" : -95.8333333333334,
                              "scale0" : 1.48148148148148,
                              "scale1" : 1.48148148148148,
                              "sourceCrop0" : 0.0,
                              "sourceCrop1" : 0.0,
                              "sourceCrop2" : 0.0,
                              "sourceCrop3" : 0.0,
                              "geometryCrop0" : 0.0,
                              "geometryCrop1" : 0.0,
                              "geometryCrop2" : 0.0,
                              "geometryCrop3" : 0.0
                            },
                            "effects" : [

                            ],
                            "start" : 0,
                            "duration" : 474,
                            "mediaStart" : 0,
                            "mediaDuration" : 1,
                            "scalar" : 1,
                            "metadata" : {
                              "clipSpeedAttribute" : false,
                              "default-height" : 45.0,
                              "default-scale0" : 1.0,
                              "default-scale1" : 1.0,
                              "default-translation0" : -0.5,
                              "default-translation1" : -0.5,
                              "default-width" : 67.0
                            },
                            "animationTracks" : {

                            }
                          }
                        ],
                          "ident" : "",
                          "audioMuted" : false,
                          "videoHidden" : false,
                          "magnetic" : false,
                          "matte" : 0,
                          "solo" : false,
                          "metadata" : {
                            "IsLocked" : "False",
                            "WinTrackHeight" : "56"
                          }
                      },
                      {
                        "trackIndex" : 2,
                        "medias" : [
                          {
                            "id" : 76,
                            "_type" : "IMFile",
                            "src" : 11,
                            "trackNumber" : 0,
                            "trimStartSum" : 0,
                            "attributes" : {
                              "ident" : "laptop"
                            },
                            "parameters" : {
                              "translation0" : 386.5,
                              "translation1" : 49.9999999999999,
                              "scale0" : 1.48148148148148,
                              "scale1" : 1.48148148148148,
                              "sourceCrop0" : 0.0,
                              "sourceCrop1" : 0.0,
                              "sourceCrop2" : 0.0,
                              "sourceCrop3" : 0.0,
                              "geometryCrop0" : 0.0,
                              "geometryCrop1" : 0.0,
                              "geometryCrop2" : 0.0,
                              "geometryCrop3" : 0.0
                            },
                            "effects" : [

                            ],
                            "start" : 0,
                            "duration" : 324,
                            "mediaStart" : 0,
                            "mediaDuration" : 1,
                            "scalar" : 1,
                            "metadata" : {
                              "clipSpeedAttribute" : false,
                              "default-height" : 45.0,
                              "default-scale0" : 1.0,
                              "default-scale1" : 1.0,
                              "default-translation0" : -0.5,
                              "default-translation1" : -0.5,
                              "default-width" : 67.0
                            },
                            "animationTracks" : {

                            }
                          },
                          {
                            "id" : 77,
                            "_type" : "IMFile",
                            "src" : 10,
                            "trackNumber" : 0,
                            "trimStartSum" : 0,
                            "attributes" : {
                              "ident" : "black-laptop"
                            },
                            "parameters" : {
                              "translation0" : 386.5,
                              "translation1" : 50.0,
                              "scale0" : 1.481,
                              "scale1" : 1.481,
                              "sourceCrop0" : 0.0,
                              "sourceCrop1" : 0.0,
                              "sourceCrop2" : 0.0,
                              "sourceCrop3" : 0.0,
                              "geometryCrop0" : 0.0,
                              "geometryCrop1" : 0.0,
                              "geometryCrop2" : 0.0,
                              "geometryCrop3" : 0.0
                            },
                            "effects" : [

                            ],
                            "start" : 324,
                            "duration" : 150,
                            "mediaStart" : 0,
                            "mediaDuration" : 1,
                            "scalar" : 1,
                            "metadata" : {
                              "clipSpeedAttribute" : false,
                              "default-height" : 45.0,
                              "default-scale0" : 1.0,
                              "default-scale1" : 1.0,
                              "default-translation0" : 0.0,
                              "default-translation1" : -0.5,
                              "default-width" : 68.0
                            },
                            "animationTracks" : {

                            }
                          }
                        ],
                          "ident" : "",
                          "audioMuted" : false,
                          "videoHidden" : false,
                          "magnetic" : false,
                          "matte" : 0,
                          "solo" : false,
                          "metadata" : {
                            "IsLocked" : "False",
                            "WinTrackHeight" : "56"
                          }
                      },
                      {
                        "trackIndex" : 3,
                        "medias" : [
                          {
                            "id" : 78,
                            "_type" : "IMFile",
                            "src" : 11,
                            "trackNumber" : 0,
                            "trimStartSum" : 0,
                            "attributes" : {
                              "ident" : "laptop"
                            },
                            "parameters" : {
                              "translation0" : 232.0,
                              "translation1" : -206.666666666667,
                              "scale0" : 1.48148148148148,
                              "scale1" : 1.48148148148148,
                              "sourceCrop0" : 0.0,
                              "sourceCrop1" : 0.0,
                              "sourceCrop2" : 0.0,
                              "sourceCrop3" : 0.0,
                              "geometryCrop0" : 0.0,
                              "geometryCrop1" : 0.0,
                              "geometryCrop2" : 0.0,
                              "geometryCrop3" : 0.0
                            },
                            "effects" : [

                            ],
                            "start" : 0,
                            "duration" : 324,
                            "mediaStart" : 0,
                            "mediaDuration" : 1,
                            "scalar" : 1,
                            "metadata" : {
                              "clipSpeedAttribute" : false,
                              "default-height" : 45.0,
                              "default-scale0" : 1.0,
                              "default-scale1" : 1.0,
                              "default-translation0" : -0.5,
                              "default-translation1" : -0.5,
                              "default-width" : 67.0
                            },
                            "animationTracks" : {

                            }
                          },
                          {
                            "id" : 79,
                            "_type" : "IMFile",
                            "src" : 10,
                            "trackNumber" : 0,
                            "trimStartSum" : 0,
                            "attributes" : {
                              "ident" : "black-laptop"
                            },
                            "parameters" : {
                              "translation0" : 232.0,
                              "translation1" : -206.7,
                              "scale0" : 1.481,
                              "scale1" : 1.481,
                              "sourceCrop0" : 0.0,
                              "sourceCrop1" : 0.0,
                              "sourceCrop2" : 0.0,
                              "sourceCrop3" : 0.0,
                              "geometryCrop0" : 0.0,
                              "geometryCrop1" : 0.0,
                              "geometryCrop2" : 0.0,
                              "geometryCrop3" : 0.0
                            },
                            "effects" : [

                            ],
                            "start" : 324,
                            "duration" : 150,
                            "mediaStart" : 0,
                            "mediaDuration" : 1,
                            "scalar" : 1,
                            "metadata" : {
                              "clipSpeedAttribute" : false,
                              "default-height" : 45.0,
                              "default-scale0" : 1.0,
                              "default-scale1" : 1.0,
                              "default-translation0" : 0.0,
                              "default-translation1" : -0.5,
                              "default-width" : 68.0
                            },
                            "animationTracks" : {

                            }
                          }
                        ],
                          "ident" : "",
                          "audioMuted" : false,
                          "videoHidden" : false,
                          "magnetic" : false,
                          "matte" : 0,
                          "solo" : false,
                          "metadata" : {
                            "IsLocked" : "False",
                            "WinTrackHeight" : "56"
                          }
                      },
                      {
                        "trackIndex" : 4,
                        "medias" : [
                          {
                            "id" : 80,
                            "_type" : "IMFile",
                            "src" : 11,
                            "trackNumber" : 0,
                            "trimStartSum" : 0,
                            "attributes" : {
                              "ident" : "laptop"
                            },
                            "parameters" : {
                              "translation0" : 420.0,
                              "translation1" : 179.166666666667,
                              "scale0" : 1.48148148148148,
                              "scale1" : 1.48148148148148,
                              "sourceCrop0" : 0.0,
                              "sourceCrop1" : 0.0,
                              "sourceCrop2" : 0.0,
                              "sourceCrop3" : 0.0,
                              "geometryCrop0" : 0.0,
                              "geometryCrop1" : 0.0,
                              "geometryCrop2" : 0.0,
                              "geometryCrop3" : 0.0
                            },
                            "effects" : [

                            ],
                            "start" : 0,
                            "duration" : 474,
                            "mediaStart" : 0,
                            "mediaDuration" : 1,
                            "scalar" : 1,
                            "metadata" : {
                              "clipSpeedAttribute" : false,
                              "default-height" : 45.0,
                              "default-scale0" : 1.0,
                              "default-scale1" : 1.0,
                              "default-translation0" : -0.5,
                              "default-translation1" : -0.5,
                              "default-width" : 67.0
                            },
                            "animationTracks" : {

                            }
                          }
                        ],
                          "ident" : "",
                          "audioMuted" : false,
                          "videoHidden" : false,
                          "magnetic" : false,
                          "matte" : 0,
                          "solo" : false,
                          "metadata" : {
                            "IsLocked" : "False",
                            "WinTrackHeight" : "56"
                          }
                      },
                      {
                        "trackIndex" : 5,
                        "medias" : [
                          {
                            "id" : 81,
                            "_type" : "IMFile",
                            "src" : 11,
                            "trackNumber" : 0,
                            "trimStartSum" : 0,
                            "attributes" : {
                              "ident" : "laptop"
                            },
                            "parameters" : {
                              "translation0" : 198.5,
                              "translation1" : -50.8333333333334,
                              "scale0" : 1.48148148148148,
                              "scale1" : 1.48148148148148,
                              "sourceCrop0" : 0.0,
                              "sourceCrop1" : 0.0,
                              "sourceCrop2" : 0.0,
                              "sourceCrop3" : 0.0,
                              "geometryCrop0" : 0.0,
                              "geometryCrop1" : 0.0,
                              "geometryCrop2" : 0.0,
                              "geometryCrop3" : 0.0
                            },
                            "effects" : [

                            ],
                            "start" : 0,
                            "duration" : 474,
                            "mediaStart" : 0,
                            "mediaDuration" : 1,
                            "scalar" : 1,
                            "metadata" : {
                              "clipSpeedAttribute" : false,
                              "default-height" : 45.0,
                              "default-scale0" : 1.0,
                              "default-scale1" : 1.0,
                              "default-translation0" : -0.5,
                              "default-translation1" : -0.5,
                              "default-width" : 67.0
                            },
                            "animationTracks" : {

                            }
                          }
                        ],
                          "ident" : "",
                          "audioMuted" : false,
                          "videoHidden" : false,
                          "magnetic" : false,
                          "matte" : 0,
                          "solo" : false,
                          "metadata" : {
                            "IsLocked" : "False",
                            "WinTrackHeight" : "56"
                          }
                      },
                      {
                        "trackIndex" : 6,
                        "medias" : [
                          {
                            "id" : 82,
                            "_type" : "IMFile",
                            "src" : 11,
                            "trackNumber" : 0,
                            "trimStartSum" : 0,
                            "attributes" : {
                              "ident" : "laptop"
                            },
                            "parameters" : {
                              "translation0" : 232.0,
                              "translation1" : 179.166666666667,
                              "scale0" : 1.48148148148148,
                              "scale1" : 1.48148148148148,
                              "sourceCrop0" : 0.0,
                              "sourceCrop1" : 0.0,
                              "sourceCrop2" : 0.0,
                              "sourceCrop3" : 0.0,
                              "geometryCrop0" : 0.0,
                              "geometryCrop1" : 0.0,
                              "geometryCrop2" : 0.0,
                              "geometryCrop3" : 0.0
                            },
                            "effects" : [

                            ],
                            "start" : 0,
                            "duration" : 474,
                            "mediaStart" : 0,
                            "mediaDuration" : 1,
                            "scalar" : 1,
                            "metadata" : {
                              "clipSpeedAttribute" : false,
                              "default-height" : 45.0,
                              "default-scale0" : 1.0,
                              "default-scale1" : 1.0,
                              "default-translation0" : -0.5,
                              "default-translation1" : -0.5,
                              "default-width" : 67.0
                            },
                            "animationTracks" : {

                            }
                          }
                        ],
                          "ident" : "",
                          "audioMuted" : false,
                          "videoHidden" : false,
                          "magnetic" : false,
                          "matte" : 0,
                          "solo" : false,
                          "metadata" : {
                            "IsLocked" : "False",
                            "WinTrackHeight" : "56"
                          }
                      },
                      {
                        "trackIndex" : 7,
                        "medias" : [
                          {
                            "id" : 83,
                            "_type" : "IMFile",
                            "src" : 11,
                            "trackNumber" : 0,
                            "trimStartSum" : 0,
                            "attributes" : {
                              "ident" : "laptop"
                            },
                            "parameters" : {
                              "translation0" : 97.9999999999999,
                              "translation1" : -116.666666666667,
                              "scale0" : 1.48148148148148,
                              "scale1" : 1.48148148148148,
                              "sourceCrop0" : 0.0,
                              "sourceCrop1" : 0.0,
                              "sourceCrop2" : 0.0,
                              "sourceCrop3" : 0.0,
                              "geometryCrop0" : 0.0,
                              "geometryCrop1" : 0.0,
                              "geometryCrop2" : 0.0,
                              "geometryCrop3" : 0.0
                            },
                            "effects" : [

                            ],
                            "start" : 0,
                            "duration" : 474,
                            "mediaStart" : 0,
                            "mediaDuration" : 1,
                            "scalar" : 1,
                            "metadata" : {
                              "clipSpeedAttribute" : false,
                              "default-height" : 45.0,
                              "default-scale0" : 1.0,
                              "default-scale1" : 1.0,
                              "default-translation0" : -0.5,
                              "default-translation1" : -0.5,
                              "default-width" : 67.0
                            },
                            "animationTracks" : {

                            }
                          }
                        ],
                          "ident" : "",
                          "audioMuted" : false,
                          "videoHidden" : false,
                          "magnetic" : false,
                          "matte" : 0,
                          "solo" : false,
                          "metadata" : {
                            "IsLocked" : "False",
                            "WinTrackHeight" : "56"
                          }
                      },
                      {
                        "trackIndex" : 8,
                        "medias" : [
                          {
                            "id" : 84,
                            "_type" : "IMFile",
                            "src" : 11,
                            "trackNumber" : 0,
                            "trimStartSum" : 0,
                            "attributes" : {
                              "ident" : "laptop"
                            },
                            "parameters" : {
                              "translation0" : 165.0,
                              "translation1" : 49.9999999999999,
                              "scale0" : 1.48148148148148,
                              "scale1" : 1.48148148148148,
                              "sourceCrop0" : 0.0,
                              "sourceCrop1" : 0.0,
                              "sourceCrop2" : 0.0,
                              "sourceCrop3" : 0.0,
                              "geometryCrop0" : 0.0,
                              "geometryCrop1" : 0.0,
                              "geometryCrop2" : 0.0,
                              "geometryCrop3" : 0.0
                            },
                            "effects" : [

                            ],
                            "start" : 0,
                            "duration" : 474,
                            "mediaStart" : 0,
                            "mediaDuration" : 1,
                            "scalar" : 1,
                            "metadata" : {
                              "clipSpeedAttribute" : false,
                              "default-height" : 45.0,
                              "default-scale0" : 1.0,
                              "default-scale1" : 1.0,
                              "default-translation0" : -0.5,
                              "default-translation1" : -0.5,
                              "default-width" : 67.0
                            },
                            "animationTracks" : {

                            }
                          }
                        ],
                          "ident" : "",
                          "audioMuted" : false,
                          "videoHidden" : false,
                          "magnetic" : false,
                          "matte" : 0,
                          "solo" : false,
                          "metadata" : {
                            "IsLocked" : "False",
                            "WinTrackHeight" : "56"
                          }
                      },
                      {
                        "trackIndex" : 9,
                        "medias" : [
                          {
                            "id" : 85,
                            "_type" : "IMFile",
                            "src" : 11,
                            "trackNumber" : 0,
                            "trimStartSum" : 0,
                            "attributes" : {
                              "ident" : "laptop"
                            },
                            "parameters" : {
                              "translation0" : -133.877192982456,
                              "translation1" : 206.666666666667,
                              "scale0" : 1.48148148148148,
                              "scale1" : 1.48148148148148,
                              "sourceCrop0" : 0.0,
                              "sourceCrop1" : 0.0,
                              "sourceCrop2" : 0.0,
                              "sourceCrop3" : 0.0,
                              "geometryCrop0" : 0.0,
                              "geometryCrop1" : 0.0,
                              "geometryCrop2" : 0.0,
                              "geometryCrop3" : 0.0
                            },
                            "effects" : [

                            ],
                            "start" : 0,
                            "duration" : 474,
                            "mediaStart" : 0,
                            "mediaDuration" : 1,
                            "scalar" : 1,
                            "metadata" : {
                              "clipSpeedAttribute" : false,
                              "default-height" : 45.0,
                              "default-scale0" : 1.0,
                              "default-scale1" : 1.0,
                              "default-translation0" : -0.5,
                              "default-translation1" : -0.5,
                              "default-width" : 67.0
                            },
                            "animationTracks" : {

                            }
                          }
                        ],
                          "ident" : "",
                          "audioMuted" : false,
                          "videoHidden" : false,
                          "magnetic" : false,
                          "matte" : 0,
                          "solo" : false,
                          "metadata" : {
                            "IsLocked" : "False",
                            "WinTrackHeight" : "56"
                          }
                      },
                      {
                        "trackIndex" : 10,
                        "medias" : [
                          {
                            "id" : 86,
                            "_type" : "IMFile",
                            "src" : 11,
                            "trackNumber" : 0,
                            "trimStartSum" : 0,
                            "attributes" : {
                              "ident" : "laptop"
                            },
                            "parameters" : {
                              "translation0" : -72.1666666666669,
                              "translation1" : -161.666666666667,
                              "scale0" : 1.48148148148148,
                              "scale1" : 1.48148148148148,
                              "sourceCrop0" : 0.0,
                              "sourceCrop1" : 0.0,
                              "sourceCrop2" : 0.0,
                              "sourceCrop3" : 0.0,
                              "geometryCrop0" : 0.0,
                              "geometryCrop1" : 0.0,
                              "geometryCrop2" : 0.0,
                              "geometryCrop3" : 0.0
                            },
                            "effects" : [

                            ],
                            "start" : 0,
                            "duration" : 474,
                            "mediaStart" : 0,
                            "mediaDuration" : 1,
                            "scalar" : 1,
                            "metadata" : {
                              "clipSpeedAttribute" : false,
                              "default-height" : 45.0,
                              "default-scale0" : 1.0,
                              "default-scale1" : 1.0,
                              "default-translation0" : -0.5,
                              "default-translation1" : -0.5,
                              "default-width" : 67.0
                            },
                            "animationTracks" : {

                            }
                          }
                        ],
                          "ident" : "",
                          "audioMuted" : false,
                          "videoHidden" : false,
                          "magnetic" : false,
                          "matte" : 0,
                          "solo" : false,
                          "metadata" : {
                            "IsLocked" : "False",
                            "WinTrackHeight" : "56"
                          }
                      },
                      {
                        "trackIndex" : 11,
                        "medias" : [
                          {
                            "id" : 87,
                            "_type" : "IMFile",
                            "src" : 11,
                            "trackNumber" : 0,
                            "trimStartSum" : 0,
                            "attributes" : {
                              "ident" : "laptop"
                            },
                            "parameters" : {
                              "translation0" : -5.16666666666688,
                              "translation1" : -41.6666666666666,
                              "scale0" : 1.48148148148148,
                              "scale1" : 1.48148148148148,
                              "sourceCrop0" : 0.0,
                              "sourceCrop1" : 0.0,
                              "sourceCrop2" : 0.0,
                              "sourceCrop3" : 0.0,
                              "geometryCrop0" : 0.0,
                              "geometryCrop1" : 0.0,
                              "geometryCrop2" : 0.0,
                              "geometryCrop3" : 0.0
                            },
                            "effects" : [

                            ],
                            "start" : 0,
                            "duration" : 474,
                            "mediaStart" : 0,
                            "mediaDuration" : 1,
                            "scalar" : 1,
                            "metadata" : {
                              "clipSpeedAttribute" : false,
                              "default-height" : 45.0,
                              "default-scale0" : 1.0,
                              "default-scale1" : 1.0,
                              "default-translation0" : -0.5,
                              "default-translation1" : -0.5,
                              "default-width" : 67.0
                            },
                            "animationTracks" : {

                            }
                          }
                        ],
                          "ident" : "",
                          "audioMuted" : false,
                          "videoHidden" : false,
                          "magnetic" : false,
                          "matte" : 0,
                          "solo" : false,
                          "metadata" : {
                            "IsLocked" : "False",
                            "WinTrackHeight" : "56"
                          }
                      },
                      {
                        "trackIndex" : 12,
                        "medias" : [
                          {
                            "id" : 88,
                            "_type" : "IMFile",
                            "src" : 11,
                            "trackNumber" : 0,
                            "trimStartSum" : 0,
                            "attributes" : {
                              "ident" : "laptop"
                            },
                            "parameters" : {
                              "translation0" : -300.0,
                              "translation1" : 184.166666666667,
                              "scale0" : 1.48148148148148,
                              "scale1" : 1.48148148148148,
                              "sourceCrop0" : 0.0,
                              "sourceCrop1" : 0.0,
                              "sourceCrop2" : 0.0,
                              "sourceCrop3" : 0.0,
                              "geometryCrop0" : 0.0,
                              "geometryCrop1" : 0.0,
                              "geometryCrop2" : 0.0,
                              "geometryCrop3" : 0.0
                            },
                            "effects" : [

                            ],
                            "start" : 0,
                            "duration" : 474,
                            "mediaStart" : 0,
                            "mediaDuration" : 1,
                            "scalar" : 1,
                            "metadata" : {
                              "clipSpeedAttribute" : false,
                              "default-height" : 45.0,
                              "default-scale0" : 1.0,
                              "default-scale1" : 1.0,
                              "default-translation0" : -0.5,
                              "default-translation1" : -0.5,
                              "default-width" : 67.0
                            },
                            "animationTracks" : {

                            }
                          }
                        ],
                          "ident" : "",
                          "audioMuted" : false,
                          "videoHidden" : false,
                          "magnetic" : false,
                          "matte" : 0,
                          "solo" : false,
                          "metadata" : {
                            "IsLocked" : "False",
                            "WinTrackHeight" : "56"
                          }
                      },
                      {
                        "trackIndex" : 13,
                        "medias" : [
                          {
                            "id" : 89,
                            "_type" : "IMFile",
                            "src" : 11,
                            "trackNumber" : 0,
                            "trimStartSum" : 0,
                            "attributes" : {
                              "ident" : "laptop"
                            },
                            "parameters" : {
                              "translation0" : -168.333333333333,
                              "translation1" : -50.8333333333333,
                              "scale0" : 1.48148148148148,
                              "scale1" : 1.48148148148148,
                              "sourceCrop0" : 0.0,
                              "sourceCrop1" : 0.0,
                              "sourceCrop2" : 0.0,
                              "sourceCrop3" : 0.0,
                              "geometryCrop0" : 0.0,
                              "geometryCrop1" : 0.0,
                              "geometryCrop2" : 0.0,
                              "geometryCrop3" : 0.0
                            },
                            "effects" : [

                            ],
                            "start" : 0,
                            "duration" : 474,
                            "mediaStart" : 0,
                            "mediaDuration" : 1,
                            "scalar" : 1,
                            "metadata" : {
                              "clipSpeedAttribute" : false,
                              "default-height" : 45.0,
                              "default-scale0" : 1.0,
                              "default-scale1" : 1.0,
                              "default-translation0" : -0.5,
                              "default-translation1" : -0.5,
                              "default-width" : 67.0
                            },
                            "animationTracks" : {

                            }
                          }
                        ],
                          "ident" : "",
                          "audioMuted" : false,
                          "videoHidden" : false,
                          "magnetic" : false,
                          "matte" : 0,
                          "solo" : false,
                          "metadata" : {
                            "IsLocked" : "False",
                            "WinTrackHeight" : "56"
                          }
                      },
                      {
                        "trackIndex" : 14,
                        "medias" : [
                          {
                            "id" : 90,
                            "_type" : "IMFile",
                            "src" : 11,
                            "trackNumber" : 0,
                            "trimStartSum" : 0,
                            "attributes" : {
                              "ident" : "laptop"
                            },
                            "parameters" : {
                              "translation0" : -18.3333333333334,
                              "translation1" : 72.5,
                              "scale0" : 1.48148148148148,
                              "scale1" : 1.48148148148148,
                              "sourceCrop0" : 0.0,
                              "sourceCrop1" : 0.0,
                              "sourceCrop2" : 0.0,
                              "sourceCrop3" : 0.0,
                              "geometryCrop0" : 0.0,
                              "geometryCrop1" : 0.0,
                              "geometryCrop2" : 0.0,
                              "geometryCrop3" : 0.0
                            },
                            "effects" : [

                            ],
                            "start" : 0,
                            "duration" : 324,
                            "mediaStart" : 0,
                            "mediaDuration" : 1,
                            "scalar" : 1,
                            "metadata" : {
                              "clipSpeedAttribute" : false,
                              "default-height" : 45.0,
                              "default-scale0" : 1.0,
                              "default-scale1" : 1.0,
                              "default-translation0" : -0.5,
                              "default-translation1" : -0.5,
                              "default-width" : 67.0
                            },
                            "animationTracks" : {

                            }
                          },
                          {
                            "id" : 91,
                            "_type" : "IMFile",
                            "src" : 10,
                            "trackNumber" : 0,
                            "trimStartSum" : 0,
                            "attributes" : {
                              "ident" : "black-laptop"
                            },
                            "parameters" : {
                              "translation0" : -18.3,
                              "translation1" : 72.5,
                              "scale0" : 1.481,
                              "scale1" : 1.481,
                              "sourceCrop0" : 0.0,
                              "sourceCrop1" : 0.0,
                              "sourceCrop2" : 0.0,
                              "sourceCrop3" : 0.0,
                              "geometryCrop0" : 0.0,
                              "geometryCrop1" : 0.0,
                              "geometryCrop2" : 0.0,
                              "geometryCrop3" : 0.0
                            },
                            "effects" : [

                            ],
                            "start" : 324,
                            "duration" : 150,
                            "mediaStart" : 0,
                            "mediaDuration" : 1,
                            "scalar" : 1,
                            "metadata" : {
                              "clipSpeedAttribute" : false,
                              "default-height" : 45.0,
                              "default-scale0" : 1.0,
                              "default-scale1" : 1.0,
                              "default-translation0" : 0.0,
                              "default-translation1" : -0.5,
                              "default-width" : 68.0
                            },
                            "animationTracks" : {

                            }
                          }
                        ],
                          "ident" : "",
                          "audioMuted" : false,
                          "videoHidden" : false,
                          "magnetic" : false,
                          "matte" : 0,
                          "solo" : false,
                          "metadata" : {
                            "IsLocked" : "False",
                            "WinTrackHeight" : "56"
                          }
                      },
                      {
                        "trackIndex" : 15,
                        "medias" : [
                          {
                            "id" : 92,
                            "_type" : "IMFile",
                            "src" : 11,
                            "trackNumber" : 0,
                            "trimStartSum" : 0,
                            "attributes" : {
                              "ident" : "laptop"
                            },
                            "parameters" : {
                              "translation0" : 28.3333333333332,
                              "translation1" : 179.166666666667,
                              "scale0" : 1.48148148148148,
                              "scale1" : 1.48148148148148,
                              "sourceCrop0" : 0.0,
                              "sourceCrop1" : 0.0,
                              "sourceCrop2" : 0.0,
                              "sourceCrop3" : 0.0,
                              "geometryCrop0" : 0.0,
                              "geometryCrop1" : 0.0,
                              "geometryCrop2" : 0.0,
                              "geometryCrop3" : 0.0
                            },
                            "effects" : [

                            ],
                            "start" : 0,
                            "duration" : 474,
                            "mediaStart" : 0,
                            "mediaDuration" : 1,
                            "scalar" : 1,
                            "metadata" : {
                              "clipSpeedAttribute" : false,
                              "default-height" : 45.0,
                              "default-scale0" : 1.0,
                              "default-scale1" : 1.0,
                              "default-translation0" : -0.5,
                              "default-translation1" : -0.5,
                              "default-width" : 67.0
                            },
                            "animationTracks" : {

                            }
                          }
                        ],
                          "ident" : "",
                          "audioMuted" : false,
                          "videoHidden" : false,
                          "magnetic" : false,
                          "matte" : 0,
                          "solo" : false,
                          "metadata" : {
                            "IsLocked" : "False",
                            "WinTrackHeight" : "56"
                          }
                      },
                      {
                        "trackIndex" : 16,
                        "medias" : [
                          {
                            "id" : 93,
                            "_type" : "IMFile",
                            "src" : 11,
                            "trackNumber" : 0,
                            "trimStartSum" : 0,
                            "attributes" : {
                              "ident" : "laptop"
                            },
                            "parameters" : {
                              "translation0" : -283.333333333334,
                              "translation1" : -161.666666666667,
                              "scale0" : 1.48148148148148,
                              "scale1" : 1.48148148148148,
                              "sourceCrop0" : 0.0,
                              "sourceCrop1" : 0.0,
                              "sourceCrop2" : 0.0,
                              "sourceCrop3" : 0.0,
                              "geometryCrop0" : 0.0,
                              "geometryCrop1" : 0.0,
                              "geometryCrop2" : 0.0,
                              "geometryCrop3" : 0.0
                            },
                            "effects" : [

                            ],
                            "start" : 0,
                            "duration" : 324,
                            "mediaStart" : 0,
                            "mediaDuration" : 1,
                            "scalar" : 1,
                            "metadata" : {
                              "clipSpeedAttribute" : false,
                              "default-height" : 45.0,
                              "default-scale0" : 1.0,
                              "default-scale1" : 1.0,
                              "default-translation0" : -0.5,
                              "default-translation1" : -0.5,
                              "default-width" : 67.0
                            },
                            "animationTracks" : {

                            }
                          },
                          {
                            "id" : 94,
                            "_type" : "IMFile",
                            "src" : 10,
                            "trackNumber" : 0,
                            "trimStartSum" : 0,
                            "attributes" : {
                              "ident" : "black-laptop"
                            },
                            "parameters" : {
                              "translation0" : -283.3,
                              "translation1" : -161.7,
                              "scale0" : 1.481,
                              "scale1" : 1.481,
                              "sourceCrop0" : 0.0,
                              "sourceCrop1" : 0.0,
                              "sourceCrop2" : 0.0,
                              "sourceCrop3" : 0.0,
                              "geometryCrop0" : 0.0,
                              "geometryCrop1" : 0.0,
                              "geometryCrop2" : 0.0,
                              "geometryCrop3" : 0.0
                            },
                            "effects" : [

                            ],
                            "start" : 324,
                            "duration" : 150,
                            "mediaStart" : 0,
                            "mediaDuration" : 1,
                            "scalar" : 1,
                            "metadata" : {
                              "clipSpeedAttribute" : false,
                              "default-height" : 45.0,
                              "default-scale0" : 1.0,
                              "default-scale1" : 1.0,
                              "default-translation0" : 0.0,
                              "default-translation1" : -0.5,
                              "default-width" : 68.0
                            },
                            "animationTracks" : {

                            }
                          }
                        ],
                          "ident" : "",
                          "audioMuted" : false,
                          "videoHidden" : false,
                          "magnetic" : false,
                          "matte" : 0,
                          "solo" : false,
                          "metadata" : {
                            "IsLocked" : "False",
                            "WinTrackHeight" : "56"
                          }
                      },
                      {
                        "trackIndex" : 17,
                        "medias" : [
                          {
                            "id" : 95,
                            "_type" : "IMFile",
                            "src" : 11,
                            "trackNumber" : 0,
                            "trimStartSum" : 0,
                            "attributes" : {
                              "ident" : "laptop"
                            },
                            "parameters" : {
                              "translation0" : -173.333333333333,
                              "translation1" : 72.5,
                              "scale0" : 1.48148148148148,
                              "scale1" : 1.48148148148148,
                              "sourceCrop0" : 0.0,
                              "sourceCrop1" : 0.0,
                              "sourceCrop2" : 0.0,
                              "sourceCrop3" : 0.0,
                              "geometryCrop0" : 0.0,
                              "geometryCrop1" : 0.0,
                              "geometryCrop2" : 0.0,
                              "geometryCrop3" : 0.0
                            },
                            "effects" : [

                            ],
                            "start" : 0,
                            "duration" : 474,
                            "mediaStart" : 0,
                            "mediaDuration" : 1,
                            "scalar" : 1,
                            "metadata" : {
                              "clipSpeedAttribute" : false,
                              "default-height" : 45.0,
                              "default-scale0" : 1.0,
                              "default-scale1" : 1.0,
                              "default-translation0" : -0.5,
                              "default-translation1" : -0.5,
                              "default-width" : 67.0
                            },
                            "animationTracks" : {

                            }
                          }
                        ],
                          "ident" : "",
                          "audioMuted" : false,
                          "videoHidden" : false,
                          "magnetic" : false,
                          "matte" : 0,
                          "solo" : false,
                          "metadata" : {
                            "IsLocked" : "False",
                            "WinTrackHeight" : "56"
                          }
                      },
                      {
                        "trackIndex" : 18,
                        "medias" : [
                          {
                            "id" : 96,
                            "_type" : "IMFile",
                            "src" : 11,
                            "trackNumber" : 0,
                            "trimStartSum" : 0,
                            "attributes" : {
                              "ident" : "laptop"
                            },
                            "parameters" : {
                              "translation0" : -300.0,
                              "translation1" : 4.99999999999982,
                              "scale0" : 1.48148148148148,
                              "scale1" : 1.48148148148148,
                              "sourceCrop0" : 0.0,
                              "sourceCrop1" : 0.0,
                              "sourceCrop2" : 0.0,
                              "sourceCrop3" : 0.0,
                              "geometryCrop0" : 0.0,
                              "geometryCrop1" : 0.0,
                              "geometryCrop2" : 0.0,
                              "geometryCrop3" : 0.0
                            },
                            "effects" : [

                            ],
                            "start" : 0,
                            "duration" : 474,
                            "mediaStart" : 0,
                            "mediaDuration" : 1,
                            "scalar" : 1,
                            "metadata" : {
                              "clipSpeedAttribute" : false,
                              "default-height" : 45.0,
                              "default-scale0" : 1.0,
                              "default-scale1" : 1.0,
                              "default-translation0" : -0.5,
                              "default-translation1" : -0.5,
                              "default-width" : 67.0
                            },
                            "animationTracks" : {

                            }
                          }
                        ],
                          "ident" : "",
                          "audioMuted" : false,
                          "videoHidden" : false,
                          "magnetic" : false,
                          "matte" : 0,
                          "solo" : false,
                          "metadata" : {
                            "IsLocked" : "False",
                            "WinTrackHeight" : "56"
                          }
                      },
                      {
                        "trackIndex" : 19,
                        "medias" : [
                          {
                            "id" : 97,
                            "_type" : "IMFile",
                            "src" : 11,
                            "trackNumber" : 0,
                            "trimStartSum" : 0,
                            "attributes" : {
                              "ident" : "laptop"
                            },
                            "parameters" : {
                              "translation0" : -420.0,
                              "translation1" : 72.5,
                              "scale0" : 1.48148148148148,
                              "scale1" : 1.48148148148148,
                              "sourceCrop0" : 0.0,
                              "sourceCrop1" : 0.0,
                              "sourceCrop2" : 0.0,
                              "sourceCrop3" : 0.0,
                              "geometryCrop0" : 0.0,
                              "geometryCrop1" : 0.0,
                              "geometryCrop2" : 0.0,
                              "geometryCrop3" : 0.0
                            },
                            "effects" : [

                            ],
                            "start" : 0,
                            "duration" : 474,
                            "mediaStart" : 0,
                            "mediaDuration" : 1,
                            "scalar" : 1,
                            "metadata" : {
                              "clipSpeedAttribute" : false,
                              "default-height" : 45.0,
                              "default-scale0" : 1.0,
                              "default-scale1" : 1.0,
                              "default-translation0" : -0.5,
                              "default-translation1" : -0.5,
                              "default-width" : 67.0
                            },
                            "animationTracks" : {

                            }
                          }
                        ],
                          "ident" : "",
                          "audioMuted" : false,
                          "videoHidden" : false,
                          "magnetic" : false,
                          "matte" : 0,
                          "solo" : false,
                          "metadata" : {
                            "IsLocked" : "False",
                            "WinTrackHeight" : "56"
                          }
                      },
                      {
                        "trackIndex" : 20,
                        "medias" : [
                          {
                            "id" : 98,
                            "_type" : "IMFile",
                            "src" : 12,
                            "trackNumber" : 0,
                            "trimStartSum" : 0,
                            "attributes" : {
                              "ident" : "smoke"
                            },
                            "parameters" : {
                              "translation0" : -284.784600389863,
                              "translation1" : -84.2076023391811,
                              "sourceCrop0" : 0.0,
                              "sourceCrop1" : 0.0,
                              "sourceCrop2" : 0.0,
                              "sourceCrop3" : 0.0,
                              "geometryCrop0" : 0.0,
                              "geometryCrop1" : 0.0,
                              "geometryCrop2" : 0.0,
                              "geometryCrop3" : 0.0
                            },
                            "effects" : [

                            ],
                            "start" : 324,
                            "duration" : 150,
                            "mediaStart" : 0,
                            "mediaDuration" : 1,
                            "scalar" : 1,
                            "metadata" : {
                              "clipSpeedAttribute" : false,
                              "default-height" : 76.0,
                              "default-translation0" : -0.5,
                              "default-translation1" : 0.0,
                              "default-width" : 53.0
                            },
                            "animationTracks" : {

                            }
                          }
                        ],
                          "ident" : "",
                          "audioMuted" : false,
                          "videoHidden" : false,
                          "magnetic" : false,
                          "matte" : 0,
                          "solo" : false,
                          "metadata" : {
                            "IsLocked" : "False",
                            "WinTrackHeight" : "56"
                          }
                      },
                      {
                        "trackIndex" : 21,
                        "medias" : [
                          {
                            "id" : 99,
                            "_type" : "IMFile",
                            "src" : 12,
                            "trackNumber" : 0,
                            "trimStartSum" : 0,
                            "attributes" : {
                              "ident" : "smoke"
                            },
                            "parameters" : {
                              "translation0" : 393.70857699805,
                              "translation1" : 121.029239766082,
                              "sourceCrop0" : 0.0,
                              "sourceCrop1" : 0.0,
                              "sourceCrop2" : 0.0,
                              "sourceCrop3" : 0.0,
                              "geometryCrop0" : 0.0,
                              "geometryCrop1" : 0.0,
                              "geometryCrop2" : 0.0,
                              "geometryCrop3" : 0.0
                            },
                            "effects" : [

                            ],
                            "start" : 324,
                            "duration" : 150,
                            "mediaStart" : 0,
                            "mediaDuration" : 1,
                            "scalar" : 1,
                            "metadata" : {
                              "clipSpeedAttribute" : false,
                              "default-height" : 76.0,
                              "default-rotation2" : 0.0,
                              "default-translation0" : -0.5,
                              "default-translation1" : 0.0,
                              "default-width" : 53.0
                            },
                            "animationTracks" : {

                            }
                          }
                        ],
                          "ident" : "",
                          "audioMuted" : false,
                          "videoHidden" : false,
                          "magnetic" : false,
                          "matte" : 0,
                          "solo" : false,
                          "metadata" : {
                            "IsLocked" : "False",
                            "WinTrackHeight" : "56"
                          }
                      },
                      {
                        "trackIndex" : 22,
                        "medias" : [
                          {
                            "id" : 100,
                            "_type" : "IMFile",
                            "src" : 12,
                            "trackNumber" : 0,
                            "trimStartSum" : 0,
                            "attributes" : {
                              "ident" : "smoke"
                            },
                            "parameters" : {
                              "translation0" : 233.708576998051,
                              "translation1" : -135.637426900584,
                              "sourceCrop0" : 0.0,
                              "sourceCrop1" : 0.0,
                              "sourceCrop2" : 0.0,
                              "sourceCrop3" : 0.0,
                              "geometryCrop0" : 0.0,
                              "geometryCrop1" : 0.0,
                              "geometryCrop2" : 0.0,
                              "geometryCrop3" : 0.0
                            },
                            "effects" : [

                            ],
                            "start" : 324,
                            "duration" : 150,
                            "mediaStart" : 0,
                            "mediaDuration" : 1,
                            "scalar" : 1,
                            "metadata" : {
                              "clipSpeedAttribute" : false,
                              "default-height" : 76.0,
                              "default-translation0" : -0.5,
                              "default-translation1" : 0.0,
                              "default-width" : 53.0
                            },
                            "animationTracks" : {

                            }
                          }
                        ],
                          "ident" : "",
                          "audioMuted" : false,
                          "videoHidden" : false,
                          "magnetic" : false,
                          "matte" : 0,
                          "solo" : false,
                          "metadata" : {
                            "IsLocked" : "False",
                            "WinTrackHeight" : "56"
                          }
                      },
                      {
                        "trackIndex" : 23,
                        "medias" : [
                          {
                            "id" : 101,
                            "_type" : "IMFile",
                            "src" : 12,
                            "trackNumber" : 0,
                            "trimStartSum" : 0,
                            "attributes" : {
                              "ident" : "smoke"
                            },
                            "parameters" : {
                              "translation0" : -7.95808966861597,
                              "translation1" : 144.362573099415,
                              "sourceCrop0" : 0.0,
                              "sourceCrop1" : 0.0,
                              "sourceCrop2" : 0.0,
                              "sourceCrop3" : 0.0,
                              "geometryCrop0" : 0.0,
                              "geometryCrop1" : 0.0,
                              "geometryCrop2" : 0.0,
                              "geometryCrop3" : 0.0
                            },
                            "effects" : [

                            ],
                            "start" : 324,
                            "duration" : 150,
                            "mediaStart" : 0,
                            "mediaDuration" : 1,
                            "scalar" : 1,
                            "metadata" : {
                              "clipSpeedAttribute" : false,
                              "default-height" : 76.0,
                              "default-translation0" : -0.5,
                              "default-translation1" : 0.0,
                              "default-width" : 53.0
                            },
                            "animationTracks" : {

                            }
                          }
                        ],
                          "ident" : "",
                          "audioMuted" : false,
                          "videoHidden" : false,
                          "magnetic" : false,
                          "matte" : 0,
                          "solo" : false,
                          "metadata" : {
                            "IsLocked" : "False",
                            "WinTrackHeight" : "56"
                          }
                      }
                    ],
                    "attributes" : {
                      "ident" : "devices",
                      "widthAttr" : 939.0,
                      "heightAttr" : 480.0,
                      "gain" : 1.0,
                      "mixToMono" : false,
                      "assetProperties" : [
                      ]
                    },
                    "effects" : [

                    ],
                    "start" : 200,
                    "duration" : 474,
                    "mediaStart" : 0.0,
                    "mediaDuration" : 474.0,
                    "scalar" : 1,
                    "metadata" : {
                      "clipSpeedAttribute" : false
                    },
                    "animationTracks" : {

                    }
                  },
                  {
                    "id" : 102,
                    "_type" : "Callout",
                    "def" : {
                      "kind" : "remix",
                      "shape" : "shape-ellipse",
                      "style" : "basic",
                      "fill-color-blue" : 1.0,
                      "fill-color-green" : 1.0,
                      "fill-color-opacity" : 0.0,
                      "fill-color-red" : 1.0,
                      "height" : 349.833338419596,
                      "stroke-color-blue" : 0.0,
                      "stroke-color-green" : 0.0,
                      "stroke-color-opacity" : 1.0,
                      "stroke-color-red" : 0.0,
                      "stroke-width" : 6.0,
                      "width" : 350.0,
                      "fill-style" : "solid",
                      "stroke-style" : "solid"
                    },
                    "attributes" : {
                      "autoRotateText" : true
                    },
                    "parameters" : {
                      "sourceCrop0" : 0.0,
                      "sourceCrop1" : 0.0,
                      "sourceCrop2" : 0.0,
                      "sourceCrop3" : 0.0,
                      "geometryCrop0" : 0.0,
                      "geometryCrop1" : 0.0,
                      "geometryCrop2" : 0.0,
                      "geometryCrop3" : 0.0
                    },
                    "effects" : [

                    ],
                    "start" : 674,
                    "duration" : 345,
                    "mediaStart" : 0,
                    "mediaDuration" : 345,
                    "scalar" : 1,
                    "metadata" : {
                      "clipSpeedAttribute" : false,
                      "default-fill-color-opacity" : 1.0,
                      "default-height" : 186.0,
                      "default-stroke-color-blue" : 0.537254901960784,
                      "default-stroke-color-green" : 0.133333333333333,
                      "default-stroke-color-red" : 0.388235294117647,
                      "default-translation0" : 0.0,
                      "default-translation1" : 0.0,
                      "default-width" : 356.0
                    },
                    "animationTracks" : {

                    }
                  },
                  {
                    "id" : 103,
                    "_type" : "Callout",
                    "def" : {
                      "kind" : "remix",
                      "shape" : "text-rectangle",
                      "style" : "basic",
                      "enable-ligatures" : 1.0,
                      "fill-color-blue" : 1.0,
                      "fill-color-green" : 1.0,
                      "fill-color-opacity" : 0.0,
                      "fill-color-red" : 1.0,
                      "height" : 202.0,
                      "line-spacing" : 0.0,
                      "stroke-color-blue" : 0.890196078431372,
                      "stroke-color-green" : 0.870588235294118,
                      "stroke-color-opacity" : 0.0,
                      "stroke-color-red" : 0.847058823529412,
                      "stroke-width" : 0.0,
                      "tail-x" : -491.404586404586,
                      "tail-y" : -20.0,
                      "width" : 1226.39082719083,
                      "word-wrap" : 1.0,
                      "fill-style" : "solid",
                      "horizontal-alignment" : "left",
                      "resize-behavior" : "resizeText",
                      "stroke-style" : "solid",
                      "text" : "Concepts and overview",
                      "vertical-alignment" : "center",
                      "font" : {
                        "color-blue" : 0.266666666666667,
                        "color-green" : 0.231372549019608,
                        "color-opacity" : 1.0,
                        "color-red" : 0.184313725490196,
                        "size" : 64.0,
                        "tracking" : 0.0,
                        "name" : "Montserrat",
                        "weight" : "Regular"
                      },
                      "textAttributes" : {
                        "type" : "textAttributeList",
                        "keyframes" : [
                          {
                            "endTime" : 0,
                            "time" : 0,
                            "value" : [{"name":"fontSize","rangeEnd":21,"rangeStart":0,"value":80,"valueType":"double"},{"name":"fgColor","rangeEnd":21,"rangeStart":0,"value":"(35,40,47,255)","valueType":"color"},{"name":"strikethrough","rangeEnd":21,"rangeStart":0,"value":0,"valueType":"int"},{"name":"fontName","rangeEnd":21,"rangeStart":0,"value":"Faktum Medium","valueType":"string"},{"name":"fontItalic","rangeEnd":21,"rangeStart":0,"value":0,"valueType":"int"},{"name":"fontWeight","rangeEnd":21,"rangeStart":0,"value":400,"valueType":"int"},{"name":"kerning","rangeEnd":21,"rangeStart":0,"value":0,"valueType":"double"},{"name":"underline","rangeEnd":21,"rangeStart":0,"value":0,"valueType":"int"}],
                            "duration" : 0
                          }
                        ]
                      }
                    },
                    "attributes" : {
                      "autoRotateText" : true
                    },
                    "parameters" : {
                      "translation0" : 89.1891891891894,
                      "translation1" : 79.9999999999999,
                      "sourceCrop0" : 0.0,
                      "sourceCrop1" : 0.0,
                      "sourceCrop2" : 0.0,
                      "sourceCrop3" : 0.0,
                      "geometryCrop0" : 0.0,
                      "geometryCrop1" : 0.0,
                      "geometryCrop2" : 0.0,
                      "geometryCrop3" : 0.0
                    },
                    "effects" : [

                    ],
                    "start" : 1087,
                    "duration" : 143,
                    "mediaStart" : 68,
                    "mediaDuration" : 143,
                    "scalar" : 1,
                    "metadata" : {
                      "clipSpeedAttribute" : false,
                      "default-HAlign" : "center",
                      "default-LineSpace" : 0.0,
                      "default-VAlign" : "center",
                      "default-fill-color-opacity" : 1.0,
                      "default-height" : 176.0,
                      "default-stroke-color-blue" : 0.56078431372549,
                      "default-stroke-color-green" : 0.686274509803922,
                      "default-stroke-color-opacity" : 1.0,
                      "default-stroke-color-red" : 0.0196078431372549,
                      "default-stroke-width" : 2.0,
                      "default-text-attributes" : "[{\"name\":\"fgColor\",\"rangeEnd\":23,\"rangeStart\":0,\"value\":\"(47,59,68,255)\",\"valueType\":\"color\"},{\"name\":\"underline\",\"rangeEnd\":23,\"rangeStart\":0,\"value\":0,\"valueType\":\"int\"},{\"name\":\"strikethrough\",\"rangeEnd\":23,\"rangeStart\":0,\"value\":0,\"valueType\":\"int\"},{\"name\":\"fontWeight\",\"rangeEnd\":23,\"rangeStart\":0,\"value\":400,\"valueType\":\"int\"},{\"name\":\"fontItalic\",\"rangeEnd\":23,\"rangeStart\":0,\"value\":0,\"valueType\":\"int\"},{\"name\":\"fontName\",\"rangeEnd\":23,\"rangeStart\":0,\"value\":\"Faktum Medium\",\"valueType\":\"string\"},{\"name\":\"kerning\",\"rangeEnd\":23,\"rangeStart\":0,\"value\":0,\"valueType\":\"double\"},{\"name\":\"fontSize\",\"rangeEnd\":23,\"rangeStart\":0,\"value\":80,\"valueType\":\"double\"}]",
                      "default-translation0" : 0.0,
                      "default-translation1" : 0.0,
                      "default-width" : 376.0
                    },
                    "animationTracks" : {

                    }
                  },
                  {
                    "id" : 104,
                    "_type" : "Callout",
                    "def" : {
                      "kind" : "remix",
                      "shape" : "shape-ellipse",
                      "style" : "basic",
                      "fill-color-blue" : 1.0,
                      "fill-color-green" : 1.0,
                      "fill-color-opacity" : 0.0,
                      "fill-color-red" : 1.0,
                      "height" : {
                        "type" : "double",
                        "defaultValue" : 777.089250238876,
                        "keyframes" : [
                          {
                            "endTime" : 103,
                            "time" : 91,
                            "value" : 765.917940683238,
                            "duration" : 12
                          },
                          {
                            "endTime" : 117,
                            "time" : 104,
                            "value" : 776.82061668157,
                            "duration" : 13
                          },
                          {
                            "endTime" : 278,
                            "time" : 266,
                            "value" : 765.917940683238,
                            "duration" : 12
                          },
                          {
                            "endTime" : 408,
                            "time" : 395,
                            "value" : 776.82061668157,
                            "duration" : 13
                          }
                        ]
                      },
                      "stroke-color-blue" : 0.0,
                      "stroke-color-green" : 0.0,
                      "stroke-color-opacity" : 1.0,
                      "stroke-color-red" : 0.0,
                      "stroke-width" : {
                        "type" : "double",
                        "defaultValue" : 6.0,
                        "keyframes" : [
                          {
                            "endTime" : 103,
                            "time" : 91,
                            "value" : 16.1694915254237,
                            "duration" : 12
                          },
                          {
                            "endTime" : 117,
                            "time" : 104,
                            "value" : 6.0,
                            "duration" : 13
                          },
                          {
                            "endTime" : 278,
                            "time" : 266,
                            "value" : 0.0,
                            "duration" : 12
                          },
                          {
                            "endTime" : 408,
                            "time" : 395,
                            "value" : 6.0,
                            "duration" : 13
                          }
                        ]
                      },
                      "width" : {
                        "type" : "double",
                        "defaultValue" : 777.459457730091,
                        "keyframes" : [
                          {
                            "endTime" : 103,
                            "time" : 91,
                            "value" : 765.915822000875,
                            "duration" : 12
                          },
                          {
                            "endTime" : 117,
                            "time" : 104,
                            "value" : 777.002041803964,
                            "duration" : 13
                          },
                          {
                            "endTime" : 278,
                            "time" : 266,
                            "value" : 765.915822000875,
                            "duration" : 12
                          },
                          {
                            "endTime" : 408,
                            "time" : 395,
                            "value" : 777.002041803964,
                            "duration" : 13
                          }
                        ]
                      },
                      "fill-style" : "solid",
                      "stroke-style" : "solid"
                    },
                    "attributes" : {
                      "autoRotateText" : true
                    },
                    "parameters" : {
                      "translation0" : {
                        "type" : "double",
                        "defaultValue" : -25.0,
                        "keyframes" : [
                          {
                            "endTime" : 103,
                            "time" : 91,
                            "value" : -25.0,
                            "duration" : 12
                          }
                        ]
                      },
                      "translation1" : {
                        "type" : "double",
                        "defaultValue" : 25.0,
                        "keyframes" : [
                          {
                            "endTime" : 103,
                            "time" : 91,
                            "value" : 25.0,
                            "duration" : 12
                          }
                        ]
                      },
                      "sourceCrop0" : 0.0,
                      "sourceCrop1" : 0.0,
                      "sourceCrop2" : 0.0,
                      "sourceCrop3" : 0.0,
                      "geometryCrop0" : 0.0,
                      "geometryCrop1" : 0.0,
                      "geometryCrop2" : 0.0,
                      "geometryCrop3" : 0.0
                    },
                    "effects" : [

                    ],
                    "start" : 1248,
                    "duration" : 1516,
                    "mediaStart" : 0,
                    "mediaDuration" : 1516,
                    "scalar" : 1,
                    "metadata" : {
                      "clipSpeedAttribute" : false,
                      "default-fill-color-opacity" : 1.0,
                      "default-height" : 186.0,
                      "default-stroke-color-blue" : 0.537254901960784,
                      "default-stroke-color-green" : 0.133333333333333,
                      "default-stroke-color-red" : 0.388235294117647,
                      "default-stroke-width" : 16.1694915254237,
                      "default-translation0" : 0.0,
                      "default-translation1" : 0.0,
                      "default-width" : 356.0
                    },
                    "animationTracks" : {
                      "visual" : [
                        {
                          "endTime" : 103,
                          "duration" : 12,
                          "range" : [ 91, 12]
                        },
                        {
                          "endTime" : 117,
                          "duration" : 13,
                          "range" : [ 104, 13]
                        },
                        {
                          "endTime" : 278,
                          "duration" : 12,
                          "range" : [ 266, 12]
                        },
                        {
                          "endTime" : 408,
                          "duration" : 13,
                          "range" : [ 395, 13]
                        }
                      ]
                    }
                  },
                  {
                    "id" : 105,
                    "_type" : "Callout",
                    "def" : {
                      "kind" : "remix",
                      "shape" : "text-rectangle",
                      "style" : "basic",
                      "enable-ligatures" : 1.0,
                      "fill-color-blue" : 1.0,
                      "fill-color-green" : 1.0,
                      "fill-color-opacity" : 0.0,
                      "fill-color-red" : 1.0,
                      "height" : 202.0,
                      "line-spacing" : 0.0,
                      "stroke-color-blue" : 0.890196078431372,
                      "stroke-color-green" : 0.870588235294118,
                      "stroke-color-opacity" : 0.0,
                      "stroke-color-red" : 0.847058823529412,
                      "stroke-width" : 0.0,
                      "tail-x" : -422.422923402878,
                      "tail-y" : -20.0,
                      "width" : 1658.81528027084,
                      "word-wrap" : 1.0,
                      "fill-style" : "solid",
                      "horizontal-alignment" : "left",
                      "resize-behavior" : "resizeText",
                      "stroke-style" : "solid",
                      "text" : "Automatic only if success criteria are met",
                      "vertical-alignment" : "center",
                      "font" : {
                        "color-blue" : 0.266666666666667,
                        "color-green" : 0.231372549019608,
                        "color-opacity" : 1.0,
                        "color-red" : 0.184313725490196,
                        "size" : 64.0,
                        "tracking" : 0.0,
                        "name" : "Montserrat",
                        "weight" : "Regular"
                      },
                      "textAttributes" : {
                        "type" : "textAttributeList",
                        "keyframes" : [
                          {
                            "endTime" : 0,
                            "time" : 0,
                            "value" : [{"name":"fontWeight","rangeEnd":42,"rangeStart":0,"value":400,"valueType":"int"},{"name":"fgColor","rangeEnd":42,"rangeStart":0,"value":"(35,40,47,255)","valueType":"color"},{"name":"underline","rangeEnd":42,"rangeStart":0,"value":0,"valueType":"int"},{"name":"strikethrough","rangeEnd":42,"rangeStart":0,"value":0,"valueType":"int"},{"name":"kerning","rangeEnd":42,"rangeStart":0,"value":0,"valueType":"double"},{"name":"fontItalic","rangeEnd":42,"rangeStart":0,"value":0,"valueType":"int"},{"name":"fontSize","rangeEnd":42,"rangeStart":0,"value":75,"valueType":"double"},{"name":"fontName","rangeEnd":42,"rangeStart":0,"value":"???????","valueType":"string"}],
                            "duration" : 0
                          }
                        ]
                      }
                    },
                    "attributes" : {
                      "autoRotateText" : true
                    },
                    "parameters" : {
                      "translation0" : 117.504823484779,
                      "translation1" : 279.511587610654,
                      "sourceCrop0" : 0.0,
                      "sourceCrop1" : 0.0,
                      "sourceCrop2" : 0.0,
                      "sourceCrop3" : 0.0,
                      "geometryCrop0" : 0.0,
                      "geometryCrop1" : 0.0,
                      "geometryCrop2" : 0.0,
                      "geometryCrop3" : 0.0
                    },
                    "effects" : [

                    ],
                    "start" : 2872,
                    "duration" : 638,
                    "mediaStart" : 58,
                    "mediaDuration" : 638,
                    "scalar" : 1,
                    "metadata" : {
                      "clipSpeedAttribute" : false,
                      "default-HAlign" : "center",
                      "default-LineSpace" : 0.0,
                      "default-VAlign" : "center",
                      "default-fill-color-opacity" : 1.0,
                      "default-height" : 176.0,
                      "default-stroke-color-blue" : 0.56078431372549,
                      "default-stroke-color-green" : 0.686274509803922,
                      "default-stroke-color-opacity" : 1.0,
                      "default-stroke-color-red" : 0.0196078431372549,
                      "default-stroke-width" : 2.0,
                      "default-text-attributes" : "[{\"name\":\"fgColor\",\"rangeEnd\":23,\"rangeStart\":0,\"value\":\"(47,59,68,255)\",\"valueType\":\"color\"},{\"name\":\"underline\",\"rangeEnd\":23,\"rangeStart\":0,\"value\":0,\"valueType\":\"int\"},{\"name\":\"strikethrough\",\"rangeEnd\":23,\"rangeStart\":0,\"value\":0,\"valueType\":\"int\"},{\"name\":\"fontWeight\",\"rangeEnd\":23,\"rangeStart\":0,\"value\":400,\"valueType\":\"int\"},{\"name\":\"fontItalic\",\"rangeEnd\":23,\"rangeStart\":0,\"value\":0,\"valueType\":\"int\"},{\"name\":\"fontName\",\"rangeEnd\":23,\"rangeStart\":0,\"value\":\"Faktum Medium\",\"valueType\":\"string\"},{\"name\":\"kerning\",\"rangeEnd\":23,\"rangeStart\":0,\"value\":0,\"valueType\":\"double\"},{\"name\":\"fontSize\",\"rangeEnd\":23,\"rangeStart\":0,\"value\":80,\"valueType\":\"double\"}]",
                      "default-translation0" : 0.0,
                      "default-translation1" : 0.0,
                      "default-width" : 376.0
                    },
                    "animationTracks" : {

                    }
                  },
                  {
                    "id" : 106,
                    "_type" : "Callout",
                    "def" : {
                      "kind" : "remix",
                      "shape" : "text-rectangle",
                      "style" : "basic",
                      "enable-ligatures" : 1.0,
                      "fill-color-blue" : 1.0,
                      "fill-color-green" : 1.0,
                      "fill-color-opacity" : 0.0,
                      "fill-color-red" : 1.0,
                      "height" : 237.087719298246,
                      "line-spacing" : 0.0,
                      "stroke-color-blue" : 0.890196078431372,
                      "stroke-color-green" : 0.870588235294118,
                      "stroke-color-opacity" : 0.0,
                      "stroke-color-red" : 0.847058823529412,
                      "stroke-width" : 0.0,
                      "tail-x" : -982.949239192352,
                      "tail-y" : -2.45614035087721,
                      "width" : 604.429315358559,
                      "word-wrap" : 1.0,
                      "fill-style" : "solid",
                      "horizontal-alignment" : "left",
                      "resize-behavior" : "resizeText",
                      "stroke-style" : "solid",
                      "text" : "Configure the success criteria",
                      "vertical-alignment" : "center",
                      "font" : {
                        "color-blue" : 0.266666666666667,
                        "color-green" : 0.231372549019608,
                        "color-opacity" : 1.0,
                        "color-red" : 0.184313725490196,
                        "size" : 64.0,
                        "tracking" : 0.0,
                        "name" : "Montserrat",
                        "weight" : "Regular"
                      },
                      "textAttributes" : {
                        "type" : "textAttributeList",
                        "keyframes" : [
                          {
                            "endTime" : 0,
                            "time" : 0,
                            "value" : [{"name":"fontName","rangeEnd":30,"rangeStart":0,"value":"Faktum Medium","valueType":"string"},{"name":"fontWeight","rangeEnd":30,"rangeStart":0,"value":400,"valueType":"int"},{"name":"fontItalic","rangeEnd":30,"rangeStart":0,"value":0,"valueType":"int"},{"name":"fontSize","rangeEnd":30,"rangeStart":0,"value":80,"valueType":"double"},{"name":"kerning","rangeEnd":30,"rangeStart":0,"value":0,"valueType":"double"},{"name":"underline","rangeEnd":30,"rangeStart":0,"value":0,"valueType":"int"},{"name":"fgColor","rangeEnd":30,"rangeStart":0,"value":"(35,40,47,255)","valueType":"color"},{"name":"strikethrough","rangeEnd":30,"rangeStart":0,"value":0,"valueType":"int"}],
                            "duration" : 0
                          }
                        ]
                      }
                    },
                    "attributes" : {
                      "autoRotateText" : true
                    },
                    "parameters" : {
                      "translation0" : 558.969972844665,
                      "translation1" : 309.793814918053,
                      "sourceCrop0" : 0.0,
                      "sourceCrop1" : 0.0,
                      "sourceCrop2" : 0.0,
                      "sourceCrop3" : 0.0,
                      "geometryCrop0" : 0.0,
                      "geometryCrop1" : 0.0,
                      "geometryCrop2" : 0.0,
                      "geometryCrop3" : 0.0
                    },
                    "effects" : [

                    ],
                    "start" : 3614,
                    "duration" : 271,
                    "mediaStart" : 58,
                    "mediaDuration" : 271,
                    "scalar" : 1,
                    "metadata" : {
                      "clipSpeedAttribute" : false,
                      "default-HAlign" : "center",
                      "default-LineSpace" : 0.0,
                      "default-VAlign" : "center",
                      "default-fill-color-opacity" : 1.0,
                      "default-height" : 176.0,
                      "default-stroke-color-blue" : 0.56078431372549,
                      "default-stroke-color-green" : 0.686274509803922,
                      "default-stroke-color-opacity" : 1.0,
                      "default-stroke-color-red" : 0.0196078431372549,
                      "default-stroke-width" : 2.0,
                      "default-text-attributes" : "[{\"name\":\"fgColor\",\"rangeEnd\":23,\"rangeStart\":0,\"value\":\"(47,59,68,255)\",\"valueType\":\"color\"},{\"name\":\"underline\",\"rangeEnd\":23,\"rangeStart\":0,\"value\":0,\"valueType\":\"int\"},{\"name\":\"strikethrough\",\"rangeEnd\":23,\"rangeStart\":0,\"value\":0,\"valueType\":\"int\"},{\"name\":\"fontWeight\",\"rangeEnd\":23,\"rangeStart\":0,\"value\":400,\"valueType\":\"int\"},{\"name\":\"fontItalic\",\"rangeEnd\":23,\"rangeStart\":0,\"value\":0,\"valueType\":\"int\"},{\"name\":\"fontName\",\"rangeEnd\":23,\"rangeStart\":0,\"value\":\"Faktum Medium\",\"valueType\":\"string\"},{\"name\":\"kerning\",\"rangeEnd\":23,\"rangeStart\":0,\"value\":0,\"valueType\":\"double\"},{\"name\":\"fontSize\",\"rangeEnd\":23,\"rangeStart\":0,\"value\":80,\"valueType\":\"double\"}]",
                      "default-translation0" : 0.0,
                      "default-translation1" : 0.0,
                      "default-width" : 376.0
                    },
                    "animationTracks" : {

                    }
                  },
                  {
                    "id" : 107,
                    "_type" : "Callout",
                    "def" : {
                      "kind" : "remix",
                      "shape" : "text-rectangle",
                      "style" : "basic",
                      "enable-ligatures" : 1.0,
                      "fill-color-blue" : 1.0,
                      "fill-color-green" : 1.0,
                      "fill-color-opacity" : 0.0,
                      "fill-color-red" : 1.0,
                      "height" : 342.372762286474,
                      "line-spacing" : 0.0,
                      "stroke-color-blue" : 0.890196078431372,
                      "stroke-color-green" : 0.870588235294118,
                      "stroke-color-opacity" : 0.0,
                      "stroke-color-red" : 0.847058823529412,
                      "stroke-width" : 0.0,
                      "tail-x" : -1021.54573042042,
                      "tail-y" : 16.8530478099038,
                      "width" : 621.973175007682,
                      "word-wrap" : 1.0,
                      "fill-style" : "solid",
                      "horizontal-alignment" : "left",
                      "resize-behavior" : "resizeText",
                      "stroke-style" : "solid",
                      "text" : "Associate the rollout with a patch configuration",
                      "vertical-alignment" : "center",
                      "font" : {
                        "color-blue" : 0.266666666666667,
                        "color-green" : 0.231372549019608,
                        "color-opacity" : 1.0,
                        "color-red" : 0.184313725490196,
                        "size" : 64.0,
                        "tracking" : 0.0,
                        "name" : "Montserrat",
                        "weight" : "Regular"
                      },
                      "textAttributes" : {
                        "type" : "textAttributeList",
                        "keyframes" : [
                          {
                            "endTime" : 0,
                            "time" : 0,
                            "value" : [{"name":"strikethrough","rangeEnd":48,"rangeStart":0,"value":0,"valueType":"int"},{"name":"fontSize","rangeEnd":48,"rangeStart":0,"value":65,"valueType":"double"},{"name":"kerning","rangeEnd":48,"rangeStart":0,"value":0,"valueType":"double"},{"name":"fontName","rangeEnd":48,"rangeStart":0,"value":"Faktum Medium","valueType":"string"},{"name":"underline","rangeEnd":48,"rangeStart":0,"value":0,"valueType":"int"},{"name":"fontWeight","rangeEnd":48,"rangeStart":0,"value":400,"valueType":"int"},{"name":"fgColor","rangeEnd":48,"rangeStart":0,"value":"(35,40,47,255)","valueType":"color"},{"name":"fontItalic","rangeEnd":48,"rangeStart":0,"value":0,"valueType":"int"}],
                            "duration" : 0
                          }
                        ]
                      }
                    },
                    "attributes" : {
                      "autoRotateText" : true
                    },
                    "parameters" : {
                      "translation0" : 597.566464072735,
                      "translation1" : 290.484626757272,
                      "sourceCrop0" : 0.0,
                      "sourceCrop1" : 0.0,
                      "sourceCrop2" : 0.0,
                      "sourceCrop3" : 0.0,
                      "geometryCrop0" : 0.0,
                      "geometryCrop1" : 0.0,
                      "geometryCrop2" : 0.0,
                      "geometryCrop3" : 0.0
                    },
                    "effects" : [

                    ],
                    "start" : 4008,
                    "duration" : 514,
                    "mediaStart" : 58,
                    "mediaDuration" : 514,
                    "scalar" : 1,
                    "metadata" : {
                      "clipSpeedAttribute" : false,
                      "default-HAlign" : "center",
                      "default-LineSpace" : 0.0,
                      "default-VAlign" : "center",
                      "default-fill-color-opacity" : 1.0,
                      "default-height" : 176.0,
                      "default-stroke-color-blue" : 0.56078431372549,
                      "default-stroke-color-green" : 0.686274509803922,
                      "default-stroke-color-opacity" : 1.0,
                      "default-stroke-color-red" : 0.0196078431372549,
                      "default-stroke-width" : 2.0,
                      "default-text-attributes" : "[{\"name\":\"fgColor\",\"rangeEnd\":23,\"rangeStart\":0,\"value\":\"(47,59,68,255)\",\"valueType\":\"color\"},{\"name\":\"underline\",\"rangeEnd\":23,\"rangeStart\":0,\"value\":0,\"valueType\":\"int\"},{\"name\":\"strikethrough\",\"rangeEnd\":23,\"rangeStart\":0,\"value\":0,\"valueType\":\"int\"},{\"name\":\"fontWeight\",\"rangeEnd\":23,\"rangeStart\":0,\"value\":400,\"valueType\":\"int\"},{\"name\":\"fontItalic\",\"rangeEnd\":23,\"rangeStart\":0,\"value\":0,\"valueType\":\"int\"},{\"name\":\"fontName\",\"rangeEnd\":23,\"rangeStart\":0,\"value\":\"Faktum Medium\",\"valueType\":\"string\"},{\"name\":\"kerning\",\"rangeEnd\":23,\"rangeStart\":0,\"value\":0,\"valueType\":\"double\"},{\"name\":\"fontSize\",\"rangeEnd\":23,\"rangeStart\":0,\"value\":80,\"valueType\":\"double\"}]",
                      "default-translation0" : 0.0,
                      "default-translation1" : 0.0,
                      "default-width" : 376.0
                    },
                    "animationTracks" : {

                    }
                  },
                  {
                    "id" : 108,
                    "_type" : "IMFile",
                    "src" : 17,
                    "trackNumber" : 0,
                    "trimStartSum" : 0,
                    "attributes" : {
                      "ident" : "clock"
                    },
                    "parameters" : {
                      "translation0" : -260.613519091847,
                      "translation1" : 446.542395799352,
                      "scale0" : 0.572460563172637,
                      "scale1" : 0.572460563172637,
                      "sourceCrop0" : 0.0,
                      "sourceCrop1" : 0.0,
                      "sourceCrop2" : 0.0,
                      "sourceCrop3" : 0.0,
                      "geometryCrop0" : 0.0,
                      "geometryCrop1" : 0.0,
                      "geometryCrop2" : 0.0,
                      "geometryCrop3" : 0.0
                    },
                    "effects" : [

                    ],
                    "start" : 4678,
                    "duration" : 1299,
                    "mediaStart" : 0,
                    "mediaDuration" : 1,
                    "scalar" : 1,
                    "metadata" : {
                      "clipSpeedAttribute" : false,
                      "default-height" : 238.0,
                      "default-scale0" : 1.0,
                      "default-scale1" : 1.0,
                      "default-translation0" : -0.5,
                      "default-translation1" : 0.0,
                      "default-width" : 203.0
                    },
                    "animationTracks" : {

                    }
                  },
                  {
                    "id" : 109,
                    "_type" : "Callout",
                    "def" : {
                      "kind" : "remix",
                      "shape" : "text-rectangle",
                      "style" : "basic",
                      "enable-ligatures" : 1.0,
                      "fill-color-blue" : 1.0,
                      "fill-color-green" : 1.0,
                      "fill-color-opacity" : 0.0,
                      "fill-color-red" : 1.0,
                      "height" : 252.0,
                      "line-spacing" : 0.0,
                      "stroke-color-blue" : 0.890196078431372,
                      "stroke-color-green" : 0.870588235294118,
                      "stroke-color-opacity" : 0.0,
                      "stroke-color-red" : 0.847058823529412,
                      "stroke-width" : 0.0,
                      "tail-x" : -1008.4037846469,
                      "tail-y" : -26.0925039872408,
                      "width" : 870.032849445559,
                      "word-wrap" : 1.0,
                      "fill-style" : "solid",
                      "horizontal-alignment" : "left",
                      "resize-behavior" : "resizeText",
                      "stroke-style" : "solid",
                      "text" : "Success = 75%",
                      "vertical-alignment" : "center",
                      "font" : {
                        "color-blue" : 0.266666666666667,
                        "color-green" : 0.231372549019608,
                        "color-opacity" : 1.0,
                        "color-red" : 0.184313725490196,
                        "size" : 64.0,
                        "tracking" : 0.0,
                        "name" : "Montserrat",
                        "weight" : "Regular"
                      },
                      "textAttributes" : {
                        "type" : "textAttributeList",
                        "keyframes" : [
                          {
                            "endTime" : 0,
                            "time" : 0,
                            "value" : [{"name":"underline","rangeEnd":13,"rangeStart":0,"value":0,"valueType":"int"},{"name":"fontWeight","rangeEnd":13,"rangeStart":0,"value":400,"valueType":"int"},{"name":"fontItalic","rangeEnd":13,"rangeStart":0,"value":0,"valueType":"int"},{"name":"strikethrough","rangeEnd":13,"rangeStart":0,"value":0,"valueType":"int"},{"name":"fontSize","rangeEnd":13,"rangeStart":0,"value":100,"valueType":"double"},{"name":"fontName","rangeEnd":13,"rangeStart":0,"value":"Faktum Medium","valueType":"string"},{"name":"fgColor","rangeEnd":13,"rangeStart":0,"value":"(35,40,47,255)","valueType":"color"},{"name":"kerning","rangeEnd":13,"rangeStart":0,"value":0,"valueType":"double"}],
                            "duration" : 0
                          }
                        ]
                      }
                    },
                    "attributes" : {
                      "autoRotateText" : true
                    },
                    "parameters" : {
                      "translation0" : 604.42451829921,
                      "translation1" : 420.702905827144,
                      "sourceCrop0" : 0.0,
                      "sourceCrop1" : 0.0,
                      "sourceCrop2" : 0.0,
                      "sourceCrop3" : 0.0,
                      "geometryCrop0" : 0.0,
                      "geometryCrop1" : 0.0,
                      "geometryCrop2" : 0.0,
                      "geometryCrop3" : 0.0
                    },
                    "effects" : [

                    ],
                    "start" : 6052,
                    "duration" : 882,
                    "mediaStart" : 58,
                    "mediaDuration" : 882,
                    "scalar" : 1,
                    "metadata" : {
                      "clipSpeedAttribute" : false,
                      "default-HAlign" : "center",
                      "default-LineSpace" : 0.0,
                      "default-VAlign" : "center",
                      "default-fill-color-opacity" : 1.0,
                      "default-height" : 176.0,
                      "default-stroke-color-blue" : 0.56078431372549,
                      "default-stroke-color-green" : 0.686274509803922,
                      "default-stroke-color-opacity" : 1.0,
                      "default-stroke-color-red" : 0.0196078431372549,
                      "default-stroke-width" : 2.0,
                      "default-text-attributes" : "[{\"name\":\"fgColor\",\"rangeEnd\":23,\"rangeStart\":0,\"value\":\"(47,59,68,255)\",\"valueType\":\"color\"},{\"name\":\"underline\",\"rangeEnd\":23,\"rangeStart\":0,\"value\":0,\"valueType\":\"int\"},{\"name\":\"strikethrough\",\"rangeEnd\":23,\"rangeStart\":0,\"value\":0,\"valueType\":\"int\"},{\"name\":\"fontWeight\",\"rangeEnd\":23,\"rangeStart\":0,\"value\":400,\"valueType\":\"int\"},{\"name\":\"fontItalic\",\"rangeEnd\":23,\"rangeStart\":0,\"value\":0,\"valueType\":\"int\"},{\"name\":\"fontName\",\"rangeEnd\":23,\"rangeStart\":0,\"value\":\"Faktum Medium\",\"valueType\":\"string\"},{\"name\":\"kerning\",\"rangeEnd\":23,\"rangeStart\":0,\"value\":0,\"valueType\":\"double\"},{\"name\":\"fontSize\",\"rangeEnd\":23,\"rangeStart\":0,\"value\":80,\"valueType\":\"double\"}]",
                      "default-translation0" : 0.0,
                      "default-translation1" : 0.0,
                      "default-width" : 376.0
                    },
                    "animationTracks" : {

                    }
                  },
                  {
                    "id" : 110,
                    "_type" : "Callout",
                    "def" : {
                      "kind" : "remix",
                      "shape" : "text-rectangle",
                      "style" : "basic",
                      "enable-ligatures" : 1.0,
                      "fill-color-blue" : 1.0,
                      "fill-color-green" : 1.0,
                      "fill-color-opacity" : 0.0,
                      "fill-color-red" : 1.0,
                      "height" : 176.521090066776,
                      "line-spacing" : 0.0,
                      "stroke-color-blue" : 0.890196078431372,
                      "stroke-color-green" : 0.870588235294118,
                      "stroke-color-opacity" : 0.0,
                      "stroke-color-red" : 0.847058823529412,
                      "stroke-width" : 0.0,
                      "tail-x" : -735.676511919624,
                      "tail-y" : -32.739454966612,
                      "width" : 608.065678994923,
                      "word-wrap" : 1.0,
                      "fill-style" : "solid",
                      "horizontal-alignment" : "left",
                      "resize-behavior" : "resizeText",
                      "stroke-style" : "solid",
                      "text" : "Address these issues",
                      "vertical-alignment" : "center",
                      "font" : {
                        "color-blue" : 0.266666666666667,
                        "color-green" : 0.231372549019608,
                        "color-opacity" : 1.0,
                        "color-red" : 0.184313725490196,
                        "size" : 64.0,
                        "tracking" : 0.0,
                        "name" : "Montserrat",
                        "weight" : "Regular"
                      },
                      "textAttributes" : {
                        "type" : "textAttributeList",
                        "keyframes" : [
                          {
                            "endTime" : 0,
                            "time" : 0,
                            "value" : [{"name":"underline","rangeEnd":20,"rangeStart":0,"value":0,"valueType":"int"},{"name":"fontWeight","rangeEnd":20,"rangeStart":0,"value":400,"valueType":"int"},{"name":"fontItalic","rangeEnd":20,"rangeStart":0,"value":0,"valueType":"int"},{"name":"fontName","rangeEnd":20,"rangeStart":0,"value":"Faktum Medium","valueType":"string"},{"name":"fontSize","rangeEnd":20,"rangeStart":0,"value":60,"valueType":"double"},{"name":"strikethrough","rangeEnd":20,"rangeStart":0,"value":0,"valueType":"int"},{"name":"kerning","rangeEnd":20,"rangeStart":0,"value":0,"valueType":"double"},{"name":"fgColor","rangeEnd":20,"rangeStart":0,"value":"(35,40,47,255)","valueType":"color"}],
                            "duration" : 0
                          }
                        ]
                      }
                    },
                    "attributes" : {
                      "autoRotateText" : true
                    },
                    "parameters" : {
                      "translation0" : 620.788154662847,
                      "translation1" : 58.5308153036582,
                      "sourceCrop0" : 0.0,
                      "sourceCrop1" : 0.0,
                      "sourceCrop2" : 0.0,
                      "sourceCrop3" : 0.0,
                      "geometryCrop0" : 0.0,
                      "geometryCrop1" : 0.0,
                      "geometryCrop2" : 0.0,
                      "geometryCrop3" : 0.0
                    },
                    "effects" : [

                    ],
                    "start" : 7298,
                    "duration" : 376,
                    "mediaStart" : 162,
                    "mediaDuration" : 376,
                    "scalar" : 1,
                    "metadata" : {
                      "clipSpeedAttribute" : false,
                      "default-HAlign" : "center",
                      "default-LineSpace" : 0.0,
                      "default-VAlign" : "center",
                      "default-fill-color-opacity" : 1.0,
                      "default-height" : 176.0,
                      "default-stroke-color-blue" : 0.56078431372549,
                      "default-stroke-color-green" : 0.686274509803922,
                      "default-stroke-color-opacity" : 1.0,
                      "default-stroke-color-red" : 0.0196078431372549,
                      "default-stroke-width" : 2.0,
                      "default-text-attributes" : "[{\"name\":\"fgColor\",\"rangeEnd\":23,\"rangeStart\":0,\"value\":\"(47,59,68,255)\",\"valueType\":\"color\"},{\"name\":\"underline\",\"rangeEnd\":23,\"rangeStart\":0,\"value\":0,\"valueType\":\"int\"},{\"name\":\"strikethrough\",\"rangeEnd\":23,\"rangeStart\":0,\"value\":0,\"valueType\":\"int\"},{\"name\":\"fontWeight\",\"rangeEnd\":23,\"rangeStart\":0,\"value\":400,\"valueType\":\"int\"},{\"name\":\"fontItalic\",\"rangeEnd\":23,\"rangeStart\":0,\"value\":0,\"valueType\":\"int\"},{\"name\":\"fontName\",\"rangeEnd\":23,\"rangeStart\":0,\"value\":\"Faktum Medium\",\"valueType\":\"string\"},{\"name\":\"kerning\",\"rangeEnd\":23,\"rangeStart\":0,\"value\":0,\"valueType\":\"double\"},{\"name\":\"fontSize\",\"rangeEnd\":23,\"rangeStart\":0,\"value\":80,\"valueType\":\"double\"}]",
                      "default-translation0" : 0.0,
                      "default-translation1" : 0.0,
                      "default-width" : 376.0
                    },
                    "animationTracks" : {

                    }
                  },
                  {
                    "id" : 111,
                    "_type" : "Callout",
                    "def" : {
                      "kind" : "remix",
                      "shape" : "text-rectangle",
                      "style" : "basic",
                      "enable-ligatures" : 1.0,
                      "fill-color-blue" : 1.0,
                      "fill-color-green" : 1.0,
                      "fill-color-opacity" : 0.0,
                      "fill-color-red" : 1.0,
                      "height" : 10.7811035918793,
                      "line-spacing" : 0.0,
                      "stroke-color-blue" : 0.890196078431372,
                      "stroke-color-green" : 0.870588235294118,
                      "stroke-color-opacity" : 1.0,
                      "stroke-color-red" : 0.847058823529412,
                      "stroke-width" : 9.32203389830508,
                      "tail-x" : 159.833333333333,
                      "tail-y" : -77.3905517959396,
                      "width" : 14.3333333333333,
                      "word-wrap" : 1.0,
                      "fill-style" : "solid",
                      "horizontal-alignment" : "center",
                      "resize-behavior" : "resizeText",
                      "stroke-style" : "solid",
                      "text" : "",
                      "vertical-alignment" : "center",
                      "font" : {
                        "color-blue" : 0.266666666666667,
                        "color-green" : 0.231372549019608,
                        "color-opacity" : 1.0,
                        "color-red" : 0.184313725490196,
                        "size" : 64.0,
                        "tracking" : 0.0,
                        "name" : "Montserrat",
                        "weight" : "Regular"
                      },
                      "textAttributes" : {
                        "type" : "textAttributeList",
                        "keyframes" : [
                          {
                            "endTime" : 0,
                            "time" : 0,
                            "value" : [{"name":"fgColor","rangeEnd":1,"rangeStart":0,"value":"(47,59,68,255)","valueType":"color"},{"name":"fontSize","rangeEnd":1,"rangeStart":0,"value":64,"valueType":"double"},{"name":"fontWeight","rangeEnd":1,"rangeStart":0,"value":400,"valueType":"int"},{"name":"kerning","rangeEnd":1,"rangeStart":0,"value":0,"valueType":"double"},{"name":"underline","rangeEnd":1,"rangeStart":0,"value":0,"valueType":"int"},{"name":"strikethrough","rangeEnd":1,"rangeStart":0,"value":0,"valueType":"int"},{"name":"fontItalic","rangeEnd":1,"rangeStart":0,"value":0,"valueType":"int"},{"name":"fontName","rangeEnd":1,"rangeStart":0,"value":"Montserrat","valueType":"string"}],
                            "duration" : 0
                          }
                        ]
                      }
                    },
                    "attributes" : {
                      "autoRotateText" : true
                    },
                    "parameters" : {
                      "translation0" : -325.257575757576,
                      "translation1" : 71.9730847965587,
                      "sourceCrop0" : 0.0,
                      "sourceCrop1" : 0.0,
                      "sourceCrop2" : 0.0,
                      "sourceCrop3" : 0.0,
                      "geometryCrop0" : 0.0,
                      "geometryCrop1" : 0.0,
                      "geometryCrop2" : 0.0,
                      "geometryCrop3" : 0.0
                    },
                    "effects" : [

                    ],
                    "start" : 7789,
                    "duration" : 104,
                    "mediaStart" : 0,
                    "mediaDuration" : 104,
                    "scalar" : 1,
                    "metadata" : {
                      "clipSpeedAttribute" : false,
                      "default-HAlign" : "center",
                      "default-LineSpace" : 0.0,
                      "default-VAlign" : "center",
                      "default-fill-color-opacity" : 1.0,
                      "default-height" : 176.0,
                      "default-stroke-color-blue" : 0.56078431372549,
                      "default-stroke-color-green" : 0.686274509803922,
                      "default-stroke-color-red" : 0.0196078431372549,
                      "default-stroke-width" : 2.0,
                      "default-translation0" : 0.0,
                      "default-translation1" : 0.0,
                      "default-width" : 376.0
                    },
                    "animationTracks" : {

                    }
                  },
                  {
                    "id" : 112,
                    "_type" : "Callout",
                    "def" : {
                      "kind" : "remix",
                      "shape" : "text-rectangle",
                      "style" : "basic",
                      "enable-ligatures" : 1.0,
                      "fill-color-blue" : 1.0,
                      "fill-color-green" : 1.0,
                      "fill-color-opacity" : 0.0,
                      "fill-color-red" : 1.0,
                      "height" : 176.521090066776,
                      "line-spacing" : 0.0,
                      "stroke-color-blue" : 0.890196078431372,
                      "stroke-color-green" : 0.870588235294118,
                      "stroke-color-opacity" : 0.0,
                      "stroke-color-red" : 0.847058823529412,
                      "stroke-width" : 0.0,
                      "tail-x" : -735.676511919624,
                      "tail-y" : -32.739454966612,
                      "width" : 608.065678994923,
                      "word-wrap" : 1.0,
                      "fill-style" : "solid",
                      "horizontal-alignment" : "left",
                      "resize-behavior" : "resizeText",
                      "stroke-style" : "solid",
                      "text" : "Address these issues also",
                      "vertical-alignment" : "center",
                      "font" : {
                        "color-blue" : 0.266666666666667,
                        "color-green" : 0.231372549019608,
                        "color-opacity" : 1.0,
                        "color-red" : 0.184313725490196,
                        "size" : 64.0,
                        "tracking" : 0.0,
                        "name" : "Montserrat",
                        "weight" : "Regular"
                      },
                      "textAttributes" : {
                        "type" : "textAttributeList",
                        "keyframes" : [
                          {
                            "endTime" : 0,
                            "time" : 0,
                            "value" : [{"name":"strikethrough","rangeEnd":25,"rangeStart":0,"value":0,"valueType":"int"},{"name":"fontWeight","rangeEnd":25,"rangeStart":0,"value":400,"valueType":"int"},{"name":"kerning","rangeEnd":25,"rangeStart":0,"value":0,"valueType":"double"},{"name":"fgColor","rangeEnd":25,"rangeStart":0,"value":"(35,40,47,255)","valueType":"color"},{"name":"fontItalic","rangeEnd":25,"rangeStart":0,"value":0,"valueType":"int"},{"name":"fontName","rangeEnd":25,"rangeStart":0,"value":"Faktum Medium","valueType":"string"},{"name":"underline","rangeEnd":25,"rangeStart":0,"value":0,"valueType":"int"},{"name":"fontSize","rangeEnd":25,"rangeStart":0,"value":60,"valueType":"double"}],
                            "duration" : 0
                          }
                        ]
                      }
                    },
                    "attributes" : {
                      "autoRotateText" : true
                    },
                    "parameters" : {
                      "translation0" : 620.788154662847,
                      "translation1" : -19.8475630747202,
                      "sourceCrop0" : 0.0,
                      "sourceCrop1" : 0.0,
                      "sourceCrop2" : 0.0,
                      "sourceCrop3" : 0.0,
                      "geometryCrop0" : 0.0,
                      "geometryCrop1" : 0.0,
                      "geometryCrop2" : 0.0,
                      "geometryCrop3" : 0.0
                    },
                    "effects" : [

                    ],
                    "start" : 7937,
                    "duration" : 192,
                    "mediaStart" : 162,
                    "mediaDuration" : 192,
                    "scalar" : 1,
                    "metadata" : {
                      "clipSpeedAttribute" : false,
                      "default-HAlign" : "center",
                      "default-LineSpace" : 0.0,
                      "default-VAlign" : "center",
                      "default-fill-color-opacity" : 1.0,
                      "default-height" : 176.0,
                      "default-stroke-color-blue" : 0.56078431372549,
                      "default-stroke-color-green" : 0.686274509803922,
                      "default-stroke-color-opacity" : 1.0,
                      "default-stroke-color-red" : 0.0196078431372549,
                      "default-stroke-width" : 2.0,
                      "default-text-attributes" : "[{\"name\":\"fgColor\",\"rangeEnd\":23,\"rangeStart\":0,\"value\":\"(47,59,68,255)\",\"valueType\":\"color\"},{\"name\":\"underline\",\"rangeEnd\":23,\"rangeStart\":0,\"value\":0,\"valueType\":\"int\"},{\"name\":\"strikethrough\",\"rangeEnd\":23,\"rangeStart\":0,\"value\":0,\"valueType\":\"int\"},{\"name\":\"fontWeight\",\"rangeEnd\":23,\"rangeStart\":0,\"value\":400,\"valueType\":\"int\"},{\"name\":\"fontItalic\",\"rangeEnd\":23,\"rangeStart\":0,\"value\":0,\"valueType\":\"int\"},{\"name\":\"fontName\",\"rangeEnd\":23,\"rangeStart\":0,\"value\":\"Faktum Medium\",\"valueType\":\"string\"},{\"name\":\"kerning\",\"rangeEnd\":23,\"rangeStart\":0,\"value\":0,\"valueType\":\"double\"},{\"name\":\"fontSize\",\"rangeEnd\":23,\"rangeStart\":0,\"value\":80,\"valueType\":\"double\"}]",
                      "default-translation0" : 0.0,
                      "default-translation1" : 0.0,
                      "default-width" : 376.0
                    },
                    "animationTracks" : {

                    }
                  },
                  {
                    "id" : 113,
                    "_type" : "Callout",
                    "def" : {
                      "kind" : "remix",
                      "shape" : "text-rectangle",
                      "style" : "basic",
                      "enable-ligatures" : 1.0,
                      "fill-color-blue" : 1.0,
                      "fill-color-green" : 1.0,
                      "fill-color-opacity" : 0.0,
                      "fill-color-red" : 1.0,
                      "height" : 224.360446570973,
                      "line-spacing" : 0.0,
                      "stroke-color-blue" : 0.890196078431372,
                      "stroke-color-green" : 0.870588235294118,
                      "stroke-color-opacity" : 0.0,
                      "stroke-color-red" : 0.847058823529412,
                      "stroke-width" : 0.0,
                      "tail-x" : -245.578231821344,
                      "tail-y" : -8.81977671451352,
                      "width" : 1584.62587555512,
                      "word-wrap" : 1.0,
                      "fill-style" : "solid",
                      "horizontal-alignment" : "left",
                      "resize-behavior" : "resizeText",
                      "stroke-style" : "solid",
                      "text" : "You CAN intervene to improve deployment",
                      "vertical-alignment" : "center",
                      "font" : {
                        "color-blue" : 0.266666666666667,
                        "color-green" : 0.231372549019608,
                        "color-opacity" : 1.0,
                        "color-red" : 0.184313725490196,
                        "size" : 64.0,
                        "tracking" : 0.0,
                        "name" : "Montserrat",
                        "weight" : "Regular"
                      },
                      "textAttributes" : {
                        "type" : "textAttributeList",
                        "keyframes" : [
                          {
                            "endTime" : 0,
                            "time" : 0,
                            "value" : [{"name":"fontItalic","rangeEnd":39,"rangeStart":0,"value":0,"valueType":"int"},{"name":"underline","rangeEnd":39,"rangeStart":0,"value":0,"valueType":"int"},{"name":"fgColor","rangeEnd":39,"rangeStart":0,"value":"(35,40,47,255)","valueType":"color"},{"name":"kerning","rangeEnd":39,"rangeStart":0,"value":0,"valueType":"double"},{"name":"fontSize","rangeEnd":39,"rangeStart":0,"value":70,"valueType":"double"},{"name":"strikethrough","rangeEnd":39,"rangeStart":0,"value":0,"valueType":"int"},{"name":"fontName","rangeEnd":39,"rangeStart":0,"value":"???????","valueType":"string"},{"name":"fontWeight","rangeEnd":39,"rangeStart":0,"value":400,"valueType":"int"}],
                            "duration" : 0
                          }
                        ]
                      }
                    },
                    "attributes" : {
                      "autoRotateText" : true
                    },
                    "parameters" : {
                      "translation0" : 130.689874564567,
                      "translation1" : 267.977230417653,
                      "sourceCrop0" : 0.0,
                      "sourceCrop1" : 0.0,
                      "sourceCrop2" : 0.0,
                      "sourceCrop3" : 0.0,
                      "geometryCrop0" : 0.0,
                      "geometryCrop1" : 0.0,
                      "geometryCrop2" : 0.0,
                      "geometryCrop3" : 0.0
                    },
                    "effects" : [

                    ],
                    "start" : 8167,
                    "duration" : 1005,
                    "mediaStart" : 145,
                    "mediaDuration" : 1005,
                    "scalar" : 1,
                    "metadata" : {
                      "clipSpeedAttribute" : false,
                      "default-HAlign" : "center",
                      "default-LineSpace" : 0.0,
                      "default-VAlign" : "center",
                      "default-fill-color-opacity" : 1.0,
                      "default-height" : 176.0,
                      "default-stroke-color-blue" : 0.56078431372549,
                      "default-stroke-color-green" : 0.686274509803922,
                      "default-stroke-color-opacity" : 1.0,
                      "default-stroke-color-red" : 0.0196078431372549,
                      "default-stroke-width" : 2.0,
                      "default-text-attributes" : "[{\"name\":\"fgColor\",\"rangeEnd\":23,\"rangeStart\":0,\"value\":\"(47,59,68,255)\",\"valueType\":\"color\"},{\"name\":\"underline\",\"rangeEnd\":23,\"rangeStart\":0,\"value\":0,\"valueType\":\"int\"},{\"name\":\"strikethrough\",\"rangeEnd\":23,\"rangeStart\":0,\"value\":0,\"valueType\":\"int\"},{\"name\":\"fontWeight\",\"rangeEnd\":23,\"rangeStart\":0,\"value\":400,\"valueType\":\"int\"},{\"name\":\"fontItalic\",\"rangeEnd\":23,\"rangeStart\":0,\"value\":0,\"valueType\":\"int\"},{\"name\":\"fontName\",\"rangeEnd\":23,\"rangeStart\":0,\"value\":\"Faktum Medium\",\"valueType\":\"string\"},{\"name\":\"kerning\",\"rangeEnd\":23,\"rangeStart\":0,\"value\":0,\"valueType\":\"double\"},{\"name\":\"fontSize\",\"rangeEnd\":23,\"rangeStart\":0,\"value\":80,\"valueType\":\"double\"}]",
                      "default-translation0" : 0.0,
                      "default-translation1" : 0.0,
                      "default-width" : 376.0
                    },
                    "animationTracks" : {

                    }
                  }
                ],
                "transitions" : [
                  {
                    "name" : "Fade",
                    "duration" : 30,
                    "trivial" : false,
                    "reverse" : false,
                    "bypass" : false,
                    "useAudioPreRoll" : true,
                    "useVisualPreRoll" : true,
                    "rightMedia" : 72
                  },
                  {
                    "name" : "Fade",
                    "duration" : 30,
                    "trivial" : false,
                    "reverse" : false,
                    "bypass" : false,
                    "useAudioPreRoll" : true,
                    "useVisualPreRoll" : true,
                    "rightMedia" : 103
                  },
                  {
                    "name" : "Fade",
                    "duration" : 30,
                    "trivial" : false,
                    "reverse" : false,
                    "bypass" : false,
                    "useAudioPreRoll" : true,
                    "useVisualPreRoll" : true,
                    "leftMedia" : 103
                  },
                  {
                    "name" : "Fade",
                    "duration" : 30,
                    "trivial" : false,
                    "reverse" : false,
                    "bypass" : false,
                    "useAudioPreRoll" : true,
                    "useVisualPreRoll" : true,
                    "rightMedia" : 104
                  },
                  {
                    "name" : "Fade",
                    "duration" : 30,
                    "trivial" : false,
                    "reverse" : false,
                    "bypass" : false,
                    "useAudioPreRoll" : true,
                    "useVisualPreRoll" : true,
                    "rightMedia" : 105
                  },
                  {
                    "name" : "Fade",
                    "duration" : 30,
                    "trivial" : false,
                    "reverse" : false,
                    "bypass" : false,
                    "useAudioPreRoll" : true,
                    "useVisualPreRoll" : true,
                    "rightMedia" : 106
                  },
                  {
                    "name" : "Fade",
                    "duration" : 30,
                    "trivial" : false,
                    "reverse" : false,
                    "bypass" : false,
                    "useAudioPreRoll" : true,
                    "useVisualPreRoll" : true,
                    "leftMedia" : 106
                  },
                  {
                    "name" : "Fade",
                    "duration" : 30,
                    "trivial" : false,
                    "reverse" : false,
                    "bypass" : false,
                    "useAudioPreRoll" : true,
                    "useVisualPreRoll" : true,
                    "rightMedia" : 107
                  },
                  {
                    "name" : "Fade",
                    "duration" : 30,
                    "trivial" : false,
                    "reverse" : false,
                    "bypass" : false,
                    "useAudioPreRoll" : true,
                    "useVisualPreRoll" : true,
                    "rightMedia" : 108
                  },
                  {
                    "name" : "Fade",
                    "duration" : 30,
                    "trivial" : false,
                    "reverse" : false,
                    "bypass" : false,
                    "useAudioPreRoll" : true,
                    "useVisualPreRoll" : true,
                    "rightMedia" : 109
                  },
                  {
                    "name" : "Fade",
                    "duration" : 30,
                    "trivial" : false,
                    "reverse" : false,
                    "bypass" : false,
                    "useAudioPreRoll" : true,
                    "useVisualPreRoll" : true,
                    "leftMedia" : 109
                  },
                  {
                    "name" : "Fade",
                    "duration" : 30,
                    "trivial" : false,
                    "reverse" : false,
                    "bypass" : false,
                    "useAudioPreRoll" : true,
                    "useVisualPreRoll" : true,
                    "rightMedia" : 110
                  },
                  {
                    "name" : "Fade",
                    "duration" : 30,
                    "trivial" : false,
                    "reverse" : false,
                    "bypass" : false,
                    "useAudioPreRoll" : true,
                    "useVisualPreRoll" : true,
                    "leftMedia" : 110
                  },
                  {
                    "name" : "Fade",
                    "duration" : 30,
                    "trivial" : false,
                    "reverse" : false,
                    "bypass" : false,
                    "useAudioPreRoll" : true,
                    "useVisualPreRoll" : true,
                    "rightMedia" : 111
                  },
                  {
                    "name" : "Fade",
                    "duration" : 30,
                    "trivial" : false,
                    "reverse" : false,
                    "bypass" : false,
                    "useAudioPreRoll" : true,
                    "useVisualPreRoll" : true,
                    "leftMedia" : 111
                  },
                  {
                    "name" : "Fade",
                    "duration" : 30,
                    "trivial" : false,
                    "reverse" : false,
                    "bypass" : false,
                    "useAudioPreRoll" : true,
                    "useVisualPreRoll" : true,
                    "rightMedia" : 112
                  },
                  {
                    "name" : "Fade",
                    "duration" : 30,
                    "trivial" : false,
                    "reverse" : false,
                    "bypass" : false,
                    "useAudioPreRoll" : true,
                    "useVisualPreRoll" : true,
                    "rightMedia" : 113
                  }
                ]
              },
              {
                "trackIndex" : 3,
                "medias" : [
                  {
                    "id" : 114,
                    "_type" : "IMFile",
                    "src" : 29,
                    "trackNumber" : 0,
                    "trimStartSum" : -3,
                    "attributes" : {
                      "ident" : "rings"
                    },
                    "parameters" : {
                      "translation0" : -611.310810810811,
                      "translation1" : 53.4980740971404,
                      "sourceCrop0" : 0.0,
                      "sourceCrop1" : 0.0,
                      "sourceCrop2" : 0.0,
                      "sourceCrop3" : 0.0,
                      "geometryCrop0" : 0.0,
                      "geometryCrop1" : 0.0,
                      "geometryCrop2" : 0.0,
                      "geometryCrop3" : 0.0
                    },
                    "effects" : [

                    ],
                    "start" : 84,
                    "duration" : 116,
                    "mediaStart" : 0,
                    "mediaDuration" : 1,
                    "scalar" : 1,
                    "metadata" : {
                      "clipSpeedAttribute" : false,
                      "default-height" : 177.0,
                      "default-translation0" : -0.5,
                      "default-translation1" : -0.5,
                      "default-width" : 177.0
                    },
                    "animationTracks" : {

                    }
                  },
                  {
                    "id" : 115,
                    "_type" : "Group",
                    "parameters" : {
                      "translation0" : 150.006822612086,
                      "translation1" : 49.7631578947367,
                      "sourceCrop0" : 0.0,
                      "sourceCrop1" : 0.0,
                      "sourceCrop2" : 0.0,
                      "sourceCrop3" : 0.0,
                      "geometryCrop0" : 0.0,
                      "geometryCrop1" : 0.0,
                      "geometryCrop2" : 0.0,
                      "geometryCrop3" : 0.0,
                      "volume" : 1.0
                    },
                    "tracks" : [
                      {
                        "trackIndex" : 0,
                        "medias" : [
                          {
                            "id" : 116,
                            "_type" : "IMFile",
                            "src" : 13,
                            "trackNumber" : 0,
                            "trimStartSum" : 30,
                            "attributes" : {
                              "ident" : "patch-trans"
                            },
                            "parameters" : {
                              "translation0" : -300.916666666667,
                              "translation1" : 183.333333333333,
                              "scale0" : 0.354166666666668,
                              "scale1" : 0.354166666666668,
                              "sourceCrop0" : 0.0,
                              "sourceCrop1" : 0.0,
                              "sourceCrop2" : 0.0,
                              "sourceCrop3" : 0.0,
                              "geometryCrop0" : 0.0,
                              "geometryCrop1" : 0.0,
                              "geometryCrop2" : 0.0,
                              "geometryCrop3" : 0.0
                            },
                            "effects" : [

                            ],
                            "start" : 30,
                            "duration" : 364,
                            "mediaStart" : 0,
                            "mediaDuration" : 1,
                            "scalar" : 1,
                            "metadata" : {
                              "clipSpeedAttribute" : false,
                              "default-height" : 160.0,
                              "default-scale0" : 1.0,
                              "default-scale1" : 1.0,
                              "default-translation0" : 0.0,
                              "default-translation1" : 0.0,
                              "default-width" : 184.0
                            },
                            "animationTracks" : {

                            }
                          }
                        ],
                          "ident" : "",
                          "audioMuted" : false,
                          "videoHidden" : false,
                          "magnetic" : false,
                          "matte" : 0,
                          "solo" : false,
                          "metadata" : {
                            "IsLocked" : "False",
                            "WinTrackHeight" : "56"
                          }
                      },
                      {
                        "trackIndex" : 1,
                        "medias" : [
                          {
                            "id" : 117,
                            "_type" : "IMFile",
                            "src" : 13,
                            "trackNumber" : 0,
                            "trimStartSum" : 30,
                            "attributes" : {
                              "ident" : "patch-trans"
                            },
                            "parameters" : {
                              "translation0" : 230.166666666667,
                              "translation1" : -206.666666666667,
                              "scale0" : 0.354166666666668,
                              "scale1" : 0.354166666666668,
                              "sourceCrop0" : 0.0,
                              "sourceCrop1" : 0.0,
                              "sourceCrop2" : 0.0,
                              "sourceCrop3" : 0.0,
                              "geometryCrop0" : 0.0,
                              "geometryCrop1" : 0.0,
                              "geometryCrop2" : 0.0,
                              "geometryCrop3" : 0.0
                            },
                            "effects" : [

                            ],
                            "start" : 30,
                            "duration" : 364,
                            "mediaStart" : 0,
                            "mediaDuration" : 1,
                            "scalar" : 1,
                            "metadata" : {
                              "clipSpeedAttribute" : false,
                              "default-height" : 160.0,
                              "default-scale0" : 1.0,
                              "default-scale1" : 1.0,
                              "default-translation0" : 0.0,
                              "default-translation1" : 0.0,
                              "default-width" : 184.0
                            },
                            "animationTracks" : {

                            }
                          }
                        ],
                          "ident" : "",
                          "audioMuted" : false,
                          "videoHidden" : false,
                          "magnetic" : false,
                          "matte" : 0,
                          "solo" : false,
                          "metadata" : {
                            "IsLocked" : "False",
                            "WinTrackHeight" : "56"
                          }
                      },
                      {
                        "trackIndex" : 2,
                        "medias" : [
                          {
                            "id" : 118,
                            "_type" : "IMFile",
                            "src" : 13,
                            "trackNumber" : 0,
                            "trimStartSum" : 30,
                            "attributes" : {
                              "ident" : "patch-trans"
                            },
                            "parameters" : {
                              "translation0" : -420.916666666667,
                              "translation1" : -49.7631578947368,
                              "scale0" : 0.354166666666668,
                              "scale1" : 0.354166666666668,
                              "sourceCrop0" : 0.0,
                              "sourceCrop1" : 0.0,
                              "sourceCrop2" : 0.0,
                              "sourceCrop3" : 0.0,
                              "geometryCrop0" : 0.0,
                              "geometryCrop1" : 0.0,
                              "geometryCrop2" : 0.0,
                              "geometryCrop3" : 0.0
                            },
                            "effects" : [

                            ],
                            "start" : 30,
                            "duration" : 364,
                            "mediaStart" : 0,
                            "mediaDuration" : 1,
                            "scalar" : 1,
                            "metadata" : {
                              "clipSpeedAttribute" : false,
                              "default-height" : 160.0,
                              "default-scale0" : 1.0,
                              "default-scale1" : 1.0,
                              "default-translation0" : 0.0,
                              "default-translation1" : 0.0,
                              "default-width" : 184.0
                            },
                            "animationTracks" : {

                            }
                          }
                        ],
                          "ident" : "",
                          "audioMuted" : false,
                          "videoHidden" : false,
                          "magnetic" : false,
                          "matte" : 0,
                          "solo" : false,
                          "metadata" : {
                            "IsLocked" : "False",
                            "WinTrackHeight" : "56"
                          }
                      },
                      {
                        "trackIndex" : 3,
                        "medias" : [
                          {
                            "id" : 119,
                            "_type" : "IMFile",
                            "src" : 13,
                            "trackNumber" : 0,
                            "trimStartSum" : 30,
                            "attributes" : {
                              "ident" : "patch-trans"
                            },
                            "parameters" : {
                              "translation0" : 352.083333333333,
                              "translation1" : -100.833333333333,
                              "scale0" : 0.354166666666668,
                              "scale1" : 0.354166666666668,
                              "sourceCrop0" : 0.0,
                              "sourceCrop1" : 0.0,
                              "sourceCrop2" : 0.0,
                              "sourceCrop3" : 0.0,
                              "geometryCrop0" : 0.0,
                              "geometryCrop1" : 0.0,
                              "geometryCrop2" : 0.0,
                              "geometryCrop3" : 0.0
                            },
                            "effects" : [

                            ],
                            "start" : 30,
                            "duration" : 104,
                            "mediaStart" : 0,
                            "mediaDuration" : 1,
                            "scalar" : 1,
                            "metadata" : {
                              "clipSpeedAttribute" : false,
                              "default-height" : 160.0,
                              "default-scale0" : 1.0,
                              "default-scale1" : 1.0,
                              "default-translation0" : 0.0,
                              "default-translation1" : 0.0,
                              "default-width" : 184.0
                            },
                            "animationTracks" : {

                            }
                          }
                        ],
                          "ident" : "",
                          "audioMuted" : false,
                          "videoHidden" : false,
                          "magnetic" : false,
                          "matte" : 0,
                          "solo" : false,
                          "metadata" : {
                            "IsLocked" : "False",
                            "WinTrackHeight" : "56"
                          }
                      },
                      {
                        "trackIndex" : 4,
                        "medias" : [
                          {
                            "id" : 120,
                            "_type" : "IMFile",
                            "src" : 13,
                            "trackNumber" : 0,
                            "trimStartSum" : 30,
                            "attributes" : {
                              "ident" : "patch-trans"
                            },
                            "parameters" : {
                              "translation0" : 198.5,
                              "translation1" : -50.8333333333332,
                              "scale0" : 0.354166666666668,
                              "scale1" : 0.354166666666668,
                              "sourceCrop0" : 0.0,
                              "sourceCrop1" : 0.0,
                              "sourceCrop2" : 0.0,
                              "sourceCrop3" : 0.0,
                              "geometryCrop0" : 0.0,
                              "geometryCrop1" : 0.0,
                              "geometryCrop2" : 0.0,
                              "geometryCrop3" : 0.0
                            },
                            "effects" : [

                            ],
                            "start" : 30,
                            "duration" : 364,
                            "mediaStart" : 0,
                            "mediaDuration" : 1,
                            "scalar" : 1,
                            "metadata" : {
                              "clipSpeedAttribute" : false,
                              "default-height" : 160.0,
                              "default-scale0" : 1.0,
                              "default-scale1" : 1.0,
                              "default-translation0" : 0.0,
                              "default-translation1" : 0.0,
                              "default-width" : 184.0
                            },
                            "animationTracks" : {

                            }
                          }
                        ],
                          "ident" : "",
                          "audioMuted" : false,
                          "videoHidden" : false,
                          "magnetic" : false,
                          "matte" : 0,
                          "solo" : false,
                          "metadata" : {
                            "IsLocked" : "False",
                            "WinTrackHeight" : "56"
                          }
                      },
                      {
                        "trackIndex" : 5,
                        "medias" : [
                          {
                            "id" : 121,
                            "_type" : "IMFile",
                            "src" : 13,
                            "trackNumber" : 0,
                            "trimStartSum" : 30,
                            "attributes" : {
                              "ident" : "patch-trans"
                            },
                            "parameters" : {
                              "translation0" : 101.666666666666,
                              "translation1" : -124.166666666667,
                              "scale0" : 0.354166666666668,
                              "scale1" : 0.354166666666668,
                              "sourceCrop0" : 0.0,
                              "sourceCrop1" : 0.0,
                              "sourceCrop2" : 0.0,
                              "sourceCrop3" : 0.0,
                              "geometryCrop0" : 0.0,
                              "geometryCrop1" : 0.0,
                              "geometryCrop2" : 0.0,
                              "geometryCrop3" : 0.0
                            },
                            "effects" : [

                            ],
                            "start" : 30,
                            "duration" : 104,
                            "mediaStart" : 0,
                            "mediaDuration" : 1,
                            "scalar" : 1,
                            "metadata" : {
                              "clipSpeedAttribute" : false,
                              "default-height" : 160.0,
                              "default-scale0" : 1.0,
                              "default-scale1" : 1.0,
                              "default-translation0" : 0.0,
                              "default-translation1" : 0.0,
                              "default-width" : 184.0
                            },
                            "animationTracks" : {

                            }
                          }
                        ],
                          "ident" : "",
                          "audioMuted" : false,
                          "videoHidden" : false,
                          "magnetic" : false,
                          "matte" : 0,
                          "solo" : false,
                          "metadata" : {
                            "IsLocked" : "False",
                            "WinTrackHeight" : "56"
                          }
                      },
                      {
                        "trackIndex" : 6,
                        "medias" : [
                          {
                            "id" : 122,
                            "_type" : "IMFile",
                            "src" : 13,
                            "trackNumber" : 0,
                            "trimStartSum" : 30,
                            "attributes" : {
                              "ident" : "patch-trans"
                            },
                            "parameters" : {
                              "translation0" : 386.5,
                              "translation1" : 55.0,
                              "scale0" : 0.354166666666668,
                              "scale1" : 0.354166666666668,
                              "sourceCrop0" : 0.0,
                              "sourceCrop1" : 0.0,
                              "sourceCrop2" : 0.0,
                              "sourceCrop3" : 0.0,
                              "geometryCrop0" : 0.0,
                              "geometryCrop1" : 0.0,
                              "geometryCrop2" : 0.0,
                              "geometryCrop3" : 0.0
                            },
                            "effects" : [

                            ],
                            "start" : 30,
                            "duration" : 364,
                            "mediaStart" : 0,
                            "mediaDuration" : 1,
                            "scalar" : 1,
                            "metadata" : {
                              "clipSpeedAttribute" : false,
                              "default-height" : 160.0,
                              "default-scale0" : 1.0,
                              "default-scale1" : 1.0,
                              "default-translation0" : 0.0,
                              "default-translation1" : 0.0,
                              "default-width" : 184.0
                            },
                            "animationTracks" : {

                            }
                          }
                        ],
                          "ident" : "",
                          "audioMuted" : false,
                          "videoHidden" : false,
                          "magnetic" : false,
                          "matte" : 0,
                          "solo" : false,
                          "metadata" : {
                            "IsLocked" : "False",
                            "WinTrackHeight" : "56"
                          }
                      },
                      {
                        "trackIndex" : 7,
                        "medias" : [
                          {
                            "id" : 123,
                            "_type" : "IMFile",
                            "src" : 13,
                            "trackNumber" : 0,
                            "trimStartSum" : 30,
                            "attributes" : {
                              "ident" : "patch-trans"
                            },
                            "parameters" : {
                              "translation0" : 420.916666666667,
                              "translation1" : 178.333333333333,
                              "scale0" : 0.354166666666668,
                              "scale1" : 0.354166666666668,
                              "sourceCrop0" : 0.0,
                              "sourceCrop1" : 0.0,
                              "sourceCrop2" : 0.0,
                              "sourceCrop3" : 0.0,
                              "geometryCrop0" : 0.0,
                              "geometryCrop1" : 0.0,
                              "geometryCrop2" : 0.0,
                              "geometryCrop3" : 0.0
                            },
                            "effects" : [

                            ],
                            "start" : 30,
                            "duration" : 104,
                            "mediaStart" : 0,
                            "mediaDuration" : 1,
                            "scalar" : 1,
                            "metadata" : {
                              "clipSpeedAttribute" : false,
                              "default-height" : 160.0,
                              "default-scale0" : 1.0,
                              "default-scale1" : 1.0,
                              "default-translation0" : 0.0,
                              "default-translation1" : 0.0,
                              "default-width" : 184.0
                            },
                            "animationTracks" : {

                            }
                          }
                        ],
                          "ident" : "",
                          "audioMuted" : false,
                          "videoHidden" : false,
                          "magnetic" : false,
                          "matte" : 0,
                          "solo" : false,
                          "metadata" : {
                            "IsLocked" : "False",
                            "WinTrackHeight" : "56"
                          }
                      },
                      {
                        "trackIndex" : 8,
                        "medias" : [
                          {
                            "id" : 124,
                            "_type" : "IMFile",
                            "src" : 13,
                            "trackNumber" : 0,
                            "trimStartSum" : 30,
                            "attributes" : {
                              "ident" : "patch-trans"
                            },
                            "parameters" : {
                              "translation0" : 231.083333333333,
                              "translation1" : 178.333333333333,
                              "scale0" : 0.354166666666668,
                              "scale1" : 0.354166666666668,
                              "sourceCrop0" : 0.0,
                              "sourceCrop1" : 0.0,
                              "sourceCrop2" : 0.0,
                              "sourceCrop3" : 0.0,
                              "geometryCrop0" : 0.0,
                              "geometryCrop1" : 0.0,
                              "geometryCrop2" : 0.0,
                              "geometryCrop3" : 0.0
                            },
                            "effects" : [

                            ],
                            "start" : 30,
                            "duration" : 364,
                            "mediaStart" : 0,
                            "mediaDuration" : 1,
                            "scalar" : 1,
                            "metadata" : {
                              "clipSpeedAttribute" : false,
                              "default-height" : 160.0,
                              "default-scale0" : 1.0,
                              "default-scale1" : 1.0,
                              "default-translation0" : 0.0,
                              "default-translation1" : 0.0,
                              "default-width" : 184.0
                            },
                            "animationTracks" : {

                            }
                          }
                        ],
                          "ident" : "",
                          "audioMuted" : false,
                          "videoHidden" : false,
                          "magnetic" : false,
                          "matte" : 0,
                          "solo" : false,
                          "metadata" : {
                            "IsLocked" : "False",
                            "WinTrackHeight" : "56"
                          }
                      },
                      {
                        "trackIndex" : 9,
                        "medias" : [
                          {
                            "id" : 125,
                            "_type" : "IMFile",
                            "src" : 13,
                            "trackNumber" : 0,
                            "trimStartSum" : 30,
                            "attributes" : {
                              "ident" : "patch-trans"
                            },
                            "parameters" : {
                              "translation0" : 165.0,
                              "translation1" : 44.1666666666667,
                              "scale0" : 0.354166666666668,
                              "scale1" : 0.354166666666668,
                              "sourceCrop0" : 0.0,
                              "sourceCrop1" : 0.0,
                              "sourceCrop2" : 0.0,
                              "sourceCrop3" : 0.0,
                              "geometryCrop0" : 0.0,
                              "geometryCrop1" : 0.0,
                              "geometryCrop2" : 0.0,
                              "geometryCrop3" : 0.0
                            },
                            "effects" : [

                            ],
                            "start" : 30,
                            "duration" : 104,
                            "mediaStart" : 0,
                            "mediaDuration" : 1,
                            "scalar" : 1,
                            "metadata" : {
                              "clipSpeedAttribute" : false,
                              "default-height" : 160.0,
                              "default-scale0" : 1.0,
                              "default-scale1" : 1.0,
                              "default-translation0" : 0.0,
                              "default-translation1" : 0.0,
                              "default-width" : 184.0
                            },
                            "animationTracks" : {

                            }
                          }
                        ],
                          "ident" : "",
                          "audioMuted" : false,
                          "videoHidden" : false,
                          "magnetic" : false,
                          "matte" : 0,
                          "solo" : false,
                          "metadata" : {
                            "IsLocked" : "False",
                            "WinTrackHeight" : "56"
                          }
                      },
                      {
                        "trackIndex" : 10,
                        "medias" : [
                          {
                            "id" : 126,
                            "_type" : "IMFile",
                            "src" : 13,
                            "trackNumber" : 0,
                            "trimStartSum" : 30,
                            "attributes" : {
                              "ident" : "patch-trans"
                            },
                            "parameters" : {
                              "translation0" : -6.08333333333343,
                              "translation1" : -40.0000000000002,
                              "scale0" : 0.354166666666668,
                              "scale1" : 0.354166666666668,
                              "sourceCrop0" : 0.0,
                              "sourceCrop1" : 0.0,
                              "sourceCrop2" : 0.0,
                              "sourceCrop3" : 0.0,
                              "geometryCrop0" : 0.0,
                              "geometryCrop1" : 0.0,
                              "geometryCrop2" : 0.0,
                              "geometryCrop3" : 0.0
                            },
                            "effects" : [

                            ],
                            "start" : 30,
                            "duration" : 104,
                            "mediaStart" : 0,
                            "mediaDuration" : 1,
                            "scalar" : 1,
                            "metadata" : {
                              "clipSpeedAttribute" : false,
                              "default-height" : 160.0,
                              "default-rotation2" : 0.0,
                              "default-scale0" : 1.0,
                              "default-scale1" : 1.0,
                              "default-translation0" : 0.0,
                              "default-translation1" : 0.0,
                              "default-width" : 184.0
                            },
                            "animationTracks" : {

                            }
                          }
                        ],
                          "ident" : "",
                          "audioMuted" : false,
                          "videoHidden" : false,
                          "magnetic" : false,
                          "matte" : 0,
                          "solo" : false,
                          "metadata" : {
                            "IsLocked" : "False",
                            "WinTrackHeight" : "56"
                          }
                      },
                      {
                        "trackIndex" : 11,
                        "medias" : [
                          {
                            "id" : 127,
                            "_type" : "IMFile",
                            "src" : 13,
                            "trackNumber" : 0,
                            "trimStartSum" : 30,
                            "attributes" : {
                              "ident" : "patch-trans"
                            },
                            "parameters" : {
                              "translation0" : -17.7129629629633,
                              "translation1" : 72.5000000000001,
                              "scale0" : 0.354166666666668,
                              "scale1" : 0.354166666666668,
                              "sourceCrop0" : 0.0,
                              "sourceCrop1" : 0.0,
                              "sourceCrop2" : 0.0,
                              "sourceCrop3" : 0.0,
                              "geometryCrop0" : 0.0,
                              "geometryCrop1" : 0.0,
                              "geometryCrop2" : 0.0,
                              "geometryCrop3" : 0.0
                            },
                            "effects" : [

                            ],
                            "start" : 30,
                            "duration" : 364,
                            "mediaStart" : 0,
                            "mediaDuration" : 1,
                            "scalar" : 1,
                            "metadata" : {
                              "clipSpeedAttribute" : false,
                              "default-height" : 160.0,
                              "default-scale0" : 1.0,
                              "default-scale1" : 1.0,
                              "default-translation0" : 0.0,
                              "default-translation1" : 0.0,
                              "default-width" : 184.0
                            },
                            "animationTracks" : {

                            }
                          }
                        ],
                          "ident" : "",
                          "audioMuted" : false,
                          "videoHidden" : false,
                          "magnetic" : false,
                          "matte" : 0,
                          "solo" : false,
                          "metadata" : {
                            "IsLocked" : "False",
                            "WinTrackHeight" : "56"
                          }
                      },
                      {
                        "trackIndex" : 12,
                        "medias" : [
                          {
                            "id" : 128,
                            "_type" : "IMFile",
                            "src" : 13,
                            "trackNumber" : 0,
                            "trimStartSum" : 30,
                            "attributes" : {
                              "ident" : "patch-trans"
                            },
                            "parameters" : {
                              "translation0" : -73.0833333333335,
                              "translation1" : -161.666666666666,
                              "scale0" : 0.354166666666668,
                              "scale1" : 0.354166666666668,
                              "sourceCrop0" : 0.0,
                              "sourceCrop1" : 0.0,
                              "sourceCrop2" : 0.0,
                              "sourceCrop3" : 0.0,
                              "geometryCrop0" : 0.0,
                              "geometryCrop1" : 0.0,
                              "geometryCrop2" : 0.0,
                              "geometryCrop3" : 0.0
                            },
                            "effects" : [

                            ],
                            "start" : 30,
                            "duration" : 104,
                            "mediaStart" : 0,
                            "mediaDuration" : 1,
                            "scalar" : 1,
                            "metadata" : {
                              "clipSpeedAttribute" : false,
                              "default-height" : 160.0,
                              "default-scale0" : 1.0,
                              "default-scale1" : 1.0,
                              "default-translation0" : 0.0,
                              "default-translation1" : 0.0,
                              "default-width" : 184.0
                            },
                            "animationTracks" : {

                            }
                          }
                        ],
                          "ident" : "",
                          "audioMuted" : false,
                          "videoHidden" : false,
                          "magnetic" : false,
                          "matte" : 0,
                          "solo" : false,
                          "metadata" : {
                            "IsLocked" : "False",
                            "WinTrackHeight" : "56"
                          }
                      },
                      {
                        "trackIndex" : 13,
                        "medias" : [
                          {
                            "id" : 129,
                            "_type" : "IMFile",
                            "src" : 13,
                            "trackNumber" : 0,
                            "trimStartSum" : 30,
                            "attributes" : {
                              "ident" : "patch-trans"
                            },
                            "parameters" : {
                              "translation0" : 31.9166666666661,
                              "translation1" : 178.333333333333,
                              "scale0" : 0.354166666666668,
                              "scale1" : 0.354166666666668,
                              "sourceCrop0" : 0.0,
                              "sourceCrop1" : 0.0,
                              "sourceCrop2" : 0.0,
                              "sourceCrop3" : 0.0,
                              "geometryCrop0" : 0.0,
                              "geometryCrop1" : 0.0,
                              "geometryCrop2" : 0.0,
                              "geometryCrop3" : 0.0
                            },
                            "effects" : [

                            ],
                            "start" : 30,
                            "duration" : 104,
                            "mediaStart" : 0,
                            "mediaDuration" : 1,
                            "scalar" : 1,
                            "metadata" : {
                              "clipSpeedAttribute" : false,
                              "default-height" : 160.0,
                              "default-scale0" : 1.0,
                              "default-scale1" : 1.0,
                              "default-translation0" : 0.0,
                              "default-translation1" : 0.0,
                              "default-width" : 184.0
                            },
                            "animationTracks" : {

                            }
                          }
                        ],
                          "ident" : "",
                          "audioMuted" : false,
                          "videoHidden" : false,
                          "magnetic" : false,
                          "matte" : 0,
                          "solo" : false,
                          "metadata" : {
                            "IsLocked" : "False",
                            "WinTrackHeight" : "56"
                          }
                      },
                      {
                        "trackIndex" : 14,
                        "medias" : [
                          {
                            "id" : 130,
                            "_type" : "IMFile",
                            "src" : 13,
                            "trackNumber" : 0,
                            "trimStartSum" : 30,
                            "attributes" : {
                              "ident" : "patch-trans"
                            },
                            "parameters" : {
                              "translation0" : -166.62962962963,
                              "translation1" : -51.6666666666669,
                              "scale0" : 0.354166666666668,
                              "scale1" : 0.354166666666668,
                              "sourceCrop0" : 0.0,
                              "sourceCrop1" : 0.0,
                              "sourceCrop2" : 0.0,
                              "sourceCrop3" : 0.0,
                              "geometryCrop0" : 0.0,
                              "geometryCrop1" : 0.0,
                              "geometryCrop2" : 0.0,
                              "geometryCrop3" : 0.0
                            },
                            "effects" : [

                            ],
                            "start" : 30,
                            "duration" : 364,
                            "mediaStart" : 0,
                            "mediaDuration" : 1,
                            "scalar" : 1,
                            "metadata" : {
                              "clipSpeedAttribute" : false,
                              "default-height" : 160.0,
                              "default-scale0" : 1.0,
                              "default-scale1" : 1.0,
                              "default-translation0" : 0.0,
                              "default-translation1" : 0.0,
                              "default-width" : 184.0
                            },
                            "animationTracks" : {

                            }
                          }
                        ],
                          "ident" : "",
                          "audioMuted" : false,
                          "videoHidden" : false,
                          "magnetic" : false,
                          "matte" : 0,
                          "solo" : false,
                          "metadata" : {
                            "IsLocked" : "False",
                            "WinTrackHeight" : "56"
                          }
                      },
                      {
                        "trackIndex" : 15,
                        "medias" : [
                          {
                            "id" : 131,
                            "_type" : "IMFile",
                            "src" : 13,
                            "trackNumber" : 0,
                            "trimStartSum" : 30,
                            "attributes" : {
                              "ident" : "patch-trans"
                            },
                            "parameters" : {
                              "translation0" : -284.25,
                              "translation1" : -161.666666666666,
                              "scale0" : 0.354166666666668,
                              "scale1" : 0.354166666666668,
                              "sourceCrop0" : 0.0,
                              "sourceCrop1" : 0.0,
                              "sourceCrop2" : 0.0,
                              "sourceCrop3" : 0.0,
                              "geometryCrop0" : 0.0,
                              "geometryCrop1" : 0.0,
                              "geometryCrop2" : 0.0,
                              "geometryCrop3" : 0.0
                            },
                            "effects" : [

                            ],
                            "start" : 30,
                            "duration" : 364,
                            "mediaStart" : 0,
                            "mediaDuration" : 1,
                            "scalar" : 1,
                            "metadata" : {
                              "clipSpeedAttribute" : false,
                              "default-height" : 160.0,
                              "default-scale0" : 1.0,
                              "default-scale1" : 1.0,
                              "default-translation0" : 0.0,
                              "default-translation1" : 0.0,
                              "default-width" : 184.0
                            },
                            "animationTracks" : {

                            }
                          }
                        ],
                          "ident" : "",
                          "audioMuted" : false,
                          "videoHidden" : false,
                          "magnetic" : false,
                          "matte" : 0,
                          "solo" : false,
                          "metadata" : {
                            "IsLocked" : "False",
                            "WinTrackHeight" : "56"
                          }
                      },
                      {
                        "trackIndex" : 16,
                        "medias" : [
                          {
                            "id" : 132,
                            "_type" : "IMFile",
                            "src" : 13,
                            "trackNumber" : 0,
                            "trimStartSum" : 30,
                            "attributes" : {
                              "ident" : "patch-trans"
                            },
                            "parameters" : {
                              "translation0" : -134.046296296297,
                              "translation1" : 206.666666666667,
                              "scale0" : 0.354166666666668,
                              "scale1" : 0.354166666666668,
                              "sourceCrop0" : 0.0,
                              "sourceCrop1" : 0.0,
                              "sourceCrop2" : 0.0,
                              "sourceCrop3" : 0.0,
                              "geometryCrop0" : 0.0,
                              "geometryCrop1" : 0.0,
                              "geometryCrop2" : 0.0,
                              "geometryCrop3" : 0.0
                            },
                            "effects" : [

                            ],
                            "start" : 30,
                            "duration" : 104,
                            "mediaStart" : 0,
                            "mediaDuration" : 1,
                            "scalar" : 1,
                            "metadata" : {
                              "clipSpeedAttribute" : false,
                              "default-height" : 160.0,
                              "default-scale0" : 1.0,
                              "default-scale1" : 1.0,
                              "default-translation0" : 0.0,
                              "default-translation1" : 0.0,
                              "default-width" : 184.0
                            },
                            "animationTracks" : {

                            }
                          }
                        ],
                          "ident" : "",
                          "audioMuted" : false,
                          "videoHidden" : false,
                          "magnetic" : false,
                          "matte" : 0,
                          "solo" : false,
                          "metadata" : {
                            "IsLocked" : "False",
                            "WinTrackHeight" : "56"
                          }
                      },
                      {
                        "trackIndex" : 17,
                        "medias" : [
                          {
                            "id" : 133,
                            "_type" : "IMFile",
                            "src" : 13,
                            "trackNumber" : 0,
                            "trimStartSum" : 30,
                            "attributes" : {
                              "ident" : "patch-trans"
                            },
                            "parameters" : {
                              "translation0" : -174.25,
                              "translation1" : 72.5000000000001,
                              "scale0" : 0.354166666666668,
                              "scale1" : 0.354166666666668,
                              "sourceCrop0" : 0.0,
                              "sourceCrop1" : 0.0,
                              "sourceCrop2" : 0.0,
                              "sourceCrop3" : 0.0,
                              "geometryCrop0" : 0.0,
                              "geometryCrop1" : 0.0,
                              "geometryCrop2" : 0.0,
                              "geometryCrop3" : 0.0
                            },
                            "effects" : [

                            ],
                            "start" : 30,
                            "duration" : 104,
                            "mediaStart" : 0,
                            "mediaDuration" : 1,
                            "scalar" : 1,
                            "metadata" : {
                              "clipSpeedAttribute" : false,
                              "default-height" : 160.0,
                              "default-scale0" : 1.0,
                              "default-scale1" : 1.0,
                              "default-translation0" : 0.0,
                              "default-translation1" : 0.0,
                              "default-width" : 184.0
                            },
                            "animationTracks" : {

                            }
                          }
                        ],
                          "ident" : "",
                          "audioMuted" : false,
                          "videoHidden" : false,
                          "magnetic" : false,
                          "matte" : 0,
                          "solo" : false,
                          "metadata" : {
                            "IsLocked" : "False",
                            "WinTrackHeight" : "56"
                          }
                      },
                      {
                        "trackIndex" : 18,
                        "medias" : [
                          {
                            "id" : 134,
                            "_type" : "IMFile",
                            "src" : 13,
                            "trackNumber" : 0,
                            "trimStartSum" : 30,
                            "attributes" : {
                              "ident" : "patch-trans"
                            },
                            "parameters" : {
                              "translation0" : -300.916666666667,
                              "translation1" : 5.0,
                              "scale0" : 0.354166666666668,
                              "scale1" : 0.354166666666668,
                              "sourceCrop0" : 0.0,
                              "sourceCrop1" : 0.0,
                              "sourceCrop2" : 0.0,
                              "sourceCrop3" : 0.0,
                              "geometryCrop0" : 0.0,
                              "geometryCrop1" : 0.0,
                              "geometryCrop2" : 0.0,
                              "geometryCrop3" : 0.0
                            },
                            "effects" : [

                            ],
                            "start" : 30,
                            "duration" : 364,
                            "mediaStart" : 0,
                            "mediaDuration" : 1,
                            "scalar" : 1,
                            "metadata" : {
                              "clipSpeedAttribute" : false,
                              "default-height" : 160.0,
                              "default-scale0" : 1.0,
                              "default-scale1" : 1.0,
                              "default-translation0" : 0.0,
                              "default-translation1" : 0.0,
                              "default-width" : 184.0
                            },
                            "animationTracks" : {

                            }
                          }
                        ],
                          "ident" : "",
                          "audioMuted" : false,
                          "videoHidden" : false,
                          "magnetic" : false,
                          "matte" : 0,
                          "solo" : false,
                          "metadata" : {
                            "IsLocked" : "False",
                            "WinTrackHeight" : "56"
                          }
                      },
                      {
                        "trackIndex" : 19,
                        "medias" : [
                          {
                            "id" : 135,
                            "_type" : "IMFile",
                            "src" : 13,
                            "trackNumber" : 0,
                            "trimStartSum" : 30,
                            "attributes" : {
                              "ident" : "patch-trans"
                            },
                            "parameters" : {
                              "translation0" : -420.916666666667,
                              "translation1" : 72.5,
                              "scale0" : 0.354166666666668,
                              "scale1" : 0.354166666666668,
                              "sourceCrop0" : 0.0,
                              "sourceCrop1" : 0.0,
                              "sourceCrop2" : 0.0,
                              "sourceCrop3" : 0.0,
                              "geometryCrop0" : 0.0,
                              "geometryCrop1" : 0.0,
                              "geometryCrop2" : 0.0,
                              "geometryCrop3" : 0.0
                            },
                            "effects" : [

                            ],
                            "start" : 30,
                            "duration" : 104,
                            "mediaStart" : 0,
                            "mediaDuration" : 1,
                            "scalar" : 1,
                            "metadata" : {
                              "clipSpeedAttribute" : false,
                              "default-height" : 160.0,
                              "default-scale0" : 1.0,
                              "default-scale1" : 1.0,
                              "default-translation0" : 0.0,
                              "default-translation1" : 0.0,
                              "default-width" : 184.0
                            },
                            "animationTracks" : {

                            }
                          }
                        ],
                          "ident" : "",
                          "audioMuted" : false,
                          "videoHidden" : false,
                          "magnetic" : false,
                          "matte" : 0,
                          "solo" : false,
                          "metadata" : {
                            "IsLocked" : "False",
                            "WinTrackHeight" : "56"
                          }
                      }
                    ],
                    "attributes" : {
                      "ident" : "patches",
                      "widthAttr" : 907.0,
                      "heightAttr" : 470.0,
                      "gain" : 1.0,
                      "mixToMono" : false,
                      "assetProperties" : [
                      ]
                    },
                    "effects" : [

                    ],
                    "start" : 310,
                    "duration" : 364,
                    "mediaStart" : 30.0,
                    "mediaDuration" : 364.0,
                    "scalar" : 1,
                    "metadata" : {
                      "clipSpeedAttribute" : false
                    },
                    "animationTracks" : {

                    }
                  },
                  {
                    "id" : 136,
                    "_type" : "Callout",
                    "def" : {
                      "kind" : "remix",
                      "shape" : "shape-ellipse",
                      "style" : "basic",
                      "fill-color-blue" : 1.0,
                      "fill-color-green" : 1.0,
                      "fill-color-opacity" : 0.0,
                      "fill-color-red" : 1.0,
                      "height" : 791.612576324211,
                      "stroke-color-blue" : 0.0,
                      "stroke-color-green" : 0.0,
                      "stroke-color-opacity" : 1.0,
                      "stroke-color-red" : 0.0,
                      "stroke-width" : 6.0,
                      "width" : 791.989702768574,
                      "fill-style" : "solid",
                      "stroke-style" : "solid"
                    },
                    "attributes" : {
                      "autoRotateText" : true
                    },
                    "parameters" : {
                      "sourceCrop0" : 0.0,
                      "sourceCrop1" : 0.0,
                      "sourceCrop2" : 0.0,
                      "sourceCrop3" : 0.0,
                      "geometryCrop0" : 0.0,
                      "geometryCrop1" : 0.0,
                      "geometryCrop2" : 0.0,
                      "geometryCrop3" : 0.0
                    },
                    "effects" : [

                    ],
                    "start" : 674,
                    "duration" : 345,
                    "mediaStart" : 0,
                    "mediaDuration" : 345,
                    "scalar" : 1,
                    "metadata" : {
                      "clipSpeedAttribute" : false,
                      "default-fill-color-opacity" : 1.0,
                      "default-height" : 186.0,
                      "default-stroke-color-blue" : 0.537254901960784,
                      "default-stroke-color-green" : 0.133333333333333,
                      "default-stroke-color-red" : 0.388235294117647,
                      "default-translation0" : 0.0,
                      "default-translation1" : 0.0,
                      "default-width" : 356.0
                    },
                    "animationTracks" : {

                    }
                  },
                  {
                    "id" : 137,
                    "_type" : "IMFile",
                    "src" : 13,
                    "trackNumber" : 0,
                    "trimStartSum" : 0,
                    "attributes" : {
                      "ident" : "patch-trans"
                    },
                    "parameters" : {
                      "translation0" : -654.054054054054,
                      "translation1" : 80.0,
                      "sourceCrop0" : 0.0,
                      "sourceCrop1" : 0.0,
                      "sourceCrop2" : 0.0,
                      "sourceCrop3" : 0.0,
                      "geometryCrop0" : 0.0,
                      "geometryCrop1" : 0.0,
                      "geometryCrop2" : 0.0,
                      "geometryCrop3" : 0.0
                    },
                    "effects" : [

                    ],
                    "start" : 1086,
                    "duration" : 144,
                    "mediaStart" : 0,
                    "mediaDuration" : 1,
                    "scalar" : 1,
                    "metadata" : {
                      "clipSpeedAttribute" : false,
                      "default-height" : 160.0,
                      "default-translation0" : 0.0,
                      "default-translation1" : 0.0,
                      "default-width" : 184.0
                    },
                    "animationTracks" : {

                    }
                  },
                  {
                    "id" : 138,
                    "_type" : "Callout",
                    "def" : {
                      "kind" : "remix",
                      "shape" : "shape-ellipse",
                      "style" : "basic",
                      "fill-color-blue" : 1.0,
                      "fill-color-green" : 1.0,
                      "fill-color-opacity" : 0.0,
                      "fill-color-red" : 1.0,
                      "height" : {
                        "type" : "double",
                        "defaultValue" : 311.149026815574,
                        "keyframes" : [
                          {
                            "endTime" : 67,
                            "time" : 55,
                            "value" : 299.916279096088,
                            "duration" : 12
                          },
                          {
                            "endTime" : 81,
                            "time" : 68,
                            "value" : 311.001569699556,
                            "duration" : 13
                          }
                        ]
                      },
                      "stroke-color-blue" : 0.0,
                      "stroke-color-green" : 0.0,
                      "stroke-color-opacity" : 1.0,
                      "stroke-color-red" : 0.0,
                      "stroke-width" : {
                        "type" : "double",
                        "defaultValue" : 6.0,
                        "keyframes" : [
                          {
                            "endTime" : 67,
                            "time" : 55,
                            "value" : 16.1694915254237,
                            "duration" : 12
                          },
                          {
                            "endTime" : 81,
                            "time" : 68,
                            "value" : 6.0,
                            "duration" : 13
                          }
                        ]
                      },
                      "width" : {
                        "type" : "double",
                        "defaultValue" : 311.297259081786,
                        "keyframes" : [
                          {
                            "endTime" : 67,
                            "time" : 55,
                            "value" : 299.915988346569,
                            "duration" : 12
                          },
                          {
                            "endTime" : 81,
                            "time" : 68,
                            "value" : 311.002244280186,
                            "duration" : 13
                          }
                        ]
                      },
                      "fill-style" : "solid",
                      "stroke-style" : "solid"
                    },
                    "attributes" : {
                      "autoRotateText" : true
                    },
                    "parameters" : {
                      "translation0" : {
                        "type" : "double",
                        "defaultValue" : -25.0,
                        "keyframes" : [
                          {
                            "endTime" : 67,
                            "time" : 55,
                            "value" : -25.0,
                            "duration" : 12
                          }
                        ]
                      },
                      "translation1" : {
                        "type" : "double",
                        "defaultValue" : 25.0,
                        "keyframes" : [
                          {
                            "endTime" : 67,
                            "time" : 55,
                            "value" : 25.0,
                            "duration" : 12
                          }
                        ]
                      },
                      "sourceCrop0" : 0.0,
                      "sourceCrop1" : 0.0,
                      "sourceCrop2" : 0.0,
                      "sourceCrop3" : 0.0,
                      "geometryCrop0" : 0.0,
                      "geometryCrop1" : 0.0,
                      "geometryCrop2" : 0.0,
                      "geometryCrop3" : 0.0
                    },
                    "effects" : [

                    ],
                    "start" : 1248,
                    "duration" : 1516,
                    "mediaStart" : 0,
                    "mediaDuration" : 1516,
                    "scalar" : 1,
                    "metadata" : {
                      "clipSpeedAttribute" : false,
                      "default-fill-color-opacity" : 1.0,
                      "default-height" : 186.0,
                      "default-stroke-color-blue" : 0.537254901960784,
                      "default-stroke-color-green" : 0.133333333333333,
                      "default-stroke-color-red" : 0.388235294117647,
                      "default-stroke-width" : 16.1694915254237,
                      "default-translation0" : 0.0,
                      "default-translation1" : 0.0,
                      "default-width" : 356.0
                    },
                    "animationTracks" : {
                      "visual" : [
                        {
                          "endTime" : 67,
                          "duration" : 12,
                          "range" : [ 55, 12]
                        },
                        {
                          "endTime" : 81,
                          "duration" : 13,
                          "range" : [ 68, 13]
                        }
                      ]
                    }
                  },
                  {
                    "id" : 139,
                    "_type" : "IMFile",
                    "src" : 31,
                    "trackNumber" : 0,
                    "trimStartSum" : -488,
                    "attributes" : {
                      "ident" : "simplified-patch"
                    },
                    "parameters" : {
                      "translation0" : -812.272399457732,
                      "translation1" : 291.383238796017,
                      "scale0" : 0.861150278533766,
                      "scale1" : 0.861150278533766,
                      "sourceCrop0" : 0.0,
                      "sourceCrop1" : 0.0,
                      "sourceCrop2" : 0.0,
                      "sourceCrop3" : 0.0,
                      "geometryCrop0" : 0.0,
                      "geometryCrop1" : 0.0,
                      "geometryCrop2" : 0.0,
                      "geometryCrop3" : 0.0
                    },
                    "effects" : [

                    ],
                    "start" : 2872,
                    "duration" : 638,
                    "mediaStart" : 0,
                    "mediaDuration" : 1,
                    "scalar" : 1,
                    "metadata" : {
                      "clipSpeedAttribute" : false,
                      "default-height" : 171.0,
                      "default-scale0" : 1.0,
                      "default-scale1" : 1.0,
                      "default-translation0" : 0.0,
                      "default-translation1" : -0.5,
                      "default-width" : 170.0
                    },
                    "animationTracks" : {

                    }
                  },
                  {
                    "id" : 140,
                    "_type" : "Callout",
                    "def" : {
                      "kind" : "remix",
                      "shape" : "text-rectangle",
                      "style" : "basic",
                      "enable-ligatures" : 1.0,
                      "fill-color-blue" : 1.0,
                      "fill-color-green" : 1.0,
                      "fill-color-opacity" : 0.0,
                      "fill-color-red" : 1.0,
                      "height" : 307.263157894737,
                      "line-spacing" : 0.0,
                      "stroke-color-blue" : 0.890196078431372,
                      "stroke-color-green" : 0.870588235294118,
                      "stroke-color-opacity" : 0.0,
                      "stroke-color-red" : 0.847058823529412,
                      "stroke-width" : 0.0,
                      "tail-x" : -1014.52818656077,
                      "tail-y" : 32.6315789473684,
                      "width" : 667.587210095401,
                      "word-wrap" : 1.0,
                      "fill-style" : "solid",
                      "horizontal-alignment" : "left",
                      "resize-behavior" : "resizeText",
                      "stroke-style" : "solid",
                      "text" : "When can a patch be promoted?",
                      "vertical-alignment" : "center",
                      "font" : {
                        "color-blue" : 0.266666666666667,
                        "color-green" : 0.231372549019608,
                        "color-opacity" : 1.0,
                        "color-red" : 0.184313725490196,
                        "size" : 64.0,
                        "tracking" : 0.0,
                        "name" : "Montserrat",
                        "weight" : "Regular"
                      },
                      "textAttributes" : {
                        "type" : "textAttributeList",
                        "keyframes" : [
                          {
                            "endTime" : 0,
                            "time" : 0,
                            "value" : [{"name":"strikethrough","rangeEnd":29,"rangeStart":0,"value":0,"valueType":"int"},{"name":"fgColor","rangeEnd":29,"rangeStart":0,"value":"(35,40,47,255)","valueType":"color"},{"name":"fontName","rangeEnd":29,"rangeStart":0,"value":"Faktum Medium","valueType":"string"},{"name":"underline","rangeEnd":29,"rangeStart":0,"value":0,"valueType":"int"},{"name":"fontWeight","rangeEnd":29,"rangeStart":0,"value":400,"valueType":"int"},{"name":"fontItalic","rangeEnd":29,"rangeStart":0,"value":0,"valueType":"int"},{"name":"fontSize","rangeEnd":29,"rangeStart":0,"value":80,"valueType":"double"},{"name":"kerning","rangeEnd":29,"rangeStart":0,"value":0,"valueType":"double"}],
                            "duration" : 0
                          }
                        ]
                      }
                    },
                    "attributes" : {
                      "autoRotateText" : true
                    },
                    "parameters" : {
                      "translation0" : 590.548924784526,
                      "translation1" : 2.8421709430404e-14,
                      "sourceCrop0" : 0.0,
                      "sourceCrop1" : 0.0,
                      "sourceCrop2" : 0.0,
                      "sourceCrop3" : 0.0,
                      "geometryCrop0" : 0.0,
                      "geometryCrop1" : 0.0,
                      "geometryCrop2" : 0.0,
                      "geometryCrop3" : 0.0
                    },
                    "effects" : [

                    ],
                    "start" : 3729,
                    "duration" : 156,
                    "mediaStart" : 58,
                    "mediaDuration" : 156,
                    "scalar" : 1,
                    "metadata" : {
                      "clipSpeedAttribute" : false,
                      "default-HAlign" : "center",
                      "default-LineSpace" : 0.0,
                      "default-VAlign" : "center",
                      "default-fill-color-opacity" : 1.0,
                      "default-height" : 176.0,
                      "default-stroke-color-blue" : 0.56078431372549,
                      "default-stroke-color-green" : 0.686274509803922,
                      "default-stroke-color-opacity" : 1.0,
                      "default-stroke-color-red" : 0.0196078431372549,
                      "default-stroke-width" : 2.0,
                      "default-text-attributes" : "[{\"name\":\"fgColor\",\"rangeEnd\":23,\"rangeStart\":0,\"value\":\"(47,59,68,255)\",\"valueType\":\"color\"},{\"name\":\"underline\",\"rangeEnd\":23,\"rangeStart\":0,\"value\":0,\"valueType\":\"int\"},{\"name\":\"strikethrough\",\"rangeEnd\":23,\"rangeStart\":0,\"value\":0,\"valueType\":\"int\"},{\"name\":\"fontWeight\",\"rangeEnd\":23,\"rangeStart\":0,\"value\":400,\"valueType\":\"int\"},{\"name\":\"fontItalic\",\"rangeEnd\":23,\"rangeStart\":0,\"value\":0,\"valueType\":\"int\"},{\"name\":\"fontName\",\"rangeEnd\":23,\"rangeStart\":0,\"value\":\"Faktum Medium\",\"valueType\":\"string\"},{\"name\":\"kerning\",\"rangeEnd\":23,\"rangeStart\":0,\"value\":0,\"valueType\":\"double\"},{\"name\":\"fontSize\",\"rangeEnd\":23,\"rangeStart\":0,\"value\":80,\"valueType\":\"double\"}]",
                      "default-translation0" : 0.0,
                      "default-translation1" : 0.0,
                      "default-width" : 376.0
                    },
                    "animationTracks" : {

                    }
                  },
                  {
                    "id" : 141,
                    "_type" : "IMFile",
                    "src" : 17,
                    "trackNumber" : 0,
                    "trimStartSum" : 0,
                    "attributes" : {
                      "ident" : "clock"
                    },
                    "parameters" : {
                      "translation0" : 500.452428985016,
                      "translation1" : 20.3956442831216,
                      "scale0" : 0.645665888860081,
                      "scale1" : 0.645665888860081,
                      "sourceCrop0" : 0.0,
                      "sourceCrop1" : 0.0,
                      "sourceCrop2" : 0.0,
                      "sourceCrop3" : 0.0,
                      "geometryCrop0" : 0.0,
                      "geometryCrop1" : 0.0,
                      "geometryCrop2" : 0.0,
                      "geometryCrop3" : 0.0
                    },
                    "effects" : [

                    ],
                    "start" : 4154,
                    "duration" : 368,
                    "mediaStart" : 0,
                    "mediaDuration" : 1,
                    "scalar" : 1,
                    "metadata" : {
                      "clipSpeedAttribute" : false,
                      "default-height" : 238.0,
                      "default-scale0" : 1.0,
                      "default-scale1" : 1.0,
                      "default-translation0" : -0.5,
                      "default-translation1" : 0.0,
                      "default-width" : 203.0
                    },
                    "animationTracks" : {

                    }
                  },
                  {
                    "id" : 142,
                    "_type" : "Callout",
                    "def" : {
                      "kind" : "remix",
                      "shape" : "arrow",
                      "style" : "urban",
                      "stroke-color-blue" : 0.184313725490196,
                      "stroke-color-green" : 0.156862745098039,
                      "stroke-color-opacity" : 1.0,
                      "stroke-color-red" : 0.137254901960784,
                      "stroke-width" : 8.0,
                      "tail-x" : {
                        "type" : "double",
                        "defaultValue" : -0.0872033023733252,
                        "interp" : "eioe"
                      },
                      "tail-y" : {
                        "type" : "double",
                        "defaultValue" : 77.1929824561403,
                        "interp" : "eioe"
                      },
                      "shape-anchor" : "rounded",
                      "shape-tail" : "rounded",
                      "stroke-style" : "solid"
                    },
                    "attributes" : {
                      "autoRotateText" : true
                    },
                    "parameters" : {
                      "translation0" : -588.59649122807,
                      "translation1" : 96.4912280701754,
                      "scale0" : 1.05263157894737,
                      "scale1" : 1.05263157894737,
                      "sourceCrop0" : 0.0,
                      "sourceCrop1" : 0.0,
                      "sourceCrop2" : 0.0,
                      "sourceCrop3" : 0.0,
                      "geometryCrop0" : 0.0,
                      "geometryCrop1" : 0.0,
                      "geometryCrop2" : 0.0,
                      "geometryCrop3" : 0.0
                    },
                    "effects" : [

                    ],
                    "start" : 4799,
                    "duration" : 1178,
                    "mediaStart" : 0,
                    "mediaDuration" : 1178,
                    "scalar" : 1,
                    "metadata" : {
                      "clipSpeedAttribute" : false,
                      "default-callout-shape-anchor" : "none",
                      "default-callout-shape-tail" : "arrow",
                      "default-height" : 40.0,
                      "default-scale0" : 1.0,
                      "default-scale1" : 1.0,
                      "default-stroke-color-blue" : 0.129411764705882,
                      "default-stroke-color-green" : 0.741176470588235,
                      "default-stroke-color-red" : 0.956862745098039,
                      "default-translation0" : 0.0,
                      "default-translation1" : 0.0,
                      "default-width" : 100.0
                    },
                    "animationTracks" : {

                    }
                  },
                  {
                    "id" : 143,
                    "_type" : "Callout",
                    "def" : {
                      "kind" : "remix",
                      "shape" : "text-rectangle",
                      "style" : "basic",
                      "enable-ligatures" : 1.0,
                      "fill-color-blue" : 1.0,
                      "fill-color-green" : 1.0,
                      "fill-color-opacity" : 0.0,
                      "fill-color-red" : 1.0,
                      "height" : 189.814992025518,
                      "line-spacing" : 0.0,
                      "stroke-color-blue" : 0.890196078431372,
                      "stroke-color-green" : 0.870588235294118,
                      "stroke-color-opacity" : 0.0,
                      "stroke-color-red" : 0.847058823529412,
                      "stroke-width" : 0.0,
                      "tail-x" : -816.585602828715,
                      "tail-y" : -26.0925039872408,
                      "width" : 271.702042631286,
                      "word-wrap" : 1.0,
                      "fill-style" : "solid",
                      "horizontal-alignment" : "left",
                      "resize-behavior" : "resizeText",
                      "stroke-style" : "solid",
                      "text" : "1 = 3/5",
                      "vertical-alignment" : "center",
                      "font" : {
                        "color-blue" : 0.266666666666667,
                        "color-green" : 0.231372549019608,
                        "color-opacity" : 1.0,
                        "color-red" : 0.184313725490196,
                        "size" : 64.0,
                        "tracking" : 0.0,
                        "name" : "Montserrat",
                        "weight" : "Regular"
                      },
                      "textAttributes" : {
                        "type" : "textAttributeList",
                        "keyframes" : [
                          {
                            "endTime" : 0,
                            "time" : 0,
                            "value" : [{"name":"fontName","rangeEnd":7,"rangeStart":0,"value":"Faktum Medium","valueType":"string"},{"name":"fontWeight","rangeEnd":7,"rangeStart":0,"value":400,"valueType":"int"},{"name":"strikethrough","rangeEnd":7,"rangeStart":0,"value":0,"valueType":"int"},{"name":"underline","rangeEnd":7,"rangeStart":0,"value":0,"valueType":"int"},{"name":"kerning","rangeEnd":7,"rangeStart":0,"value":0,"valueType":"double"},{"name":"fgColor","rangeEnd":7,"rangeStart":0,"value":"(35,40,47,255)","valueType":"color"},{"name":"fontItalic","rangeEnd":7,"rangeStart":0,"value":0,"valueType":"int"},{"name":"fontSize","rangeEnd":7,"rangeStart":0,"value":80,"valueType":"double"}],
                            "duration" : 0
                          }
                        ]
                      }
                    },
                    "attributes" : {
                      "autoRotateText" : true
                    },
                    "parameters" : {
                      "translation0" : 386.358832177548,
                      "translation1" : 230.704503144926,
                      "sourceCrop0" : 0.0,
                      "sourceCrop1" : 0.0,
                      "sourceCrop2" : 0.0,
                      "sourceCrop3" : 0.0,
                      "geometryCrop0" : 0.0,
                      "geometryCrop1" : 0.0,
                      "geometryCrop2" : 0.0,
                      "geometryCrop3" : 0.0
                    },
                    "effects" : [

                    ],
                    "start" : 6190,
                    "duration" : 744,
                    "mediaStart" : 58,
                    "mediaDuration" : 744,
                    "scalar" : 1,
                    "metadata" : {
                      "clipSpeedAttribute" : false,
                      "default-HAlign" : "center",
                      "default-LineSpace" : 0.0,
                      "default-VAlign" : "center",
                      "default-fill-color-opacity" : 1.0,
                      "default-height" : 176.0,
                      "default-stroke-color-blue" : 0.56078431372549,
                      "default-stroke-color-green" : 0.686274509803922,
                      "default-stroke-color-opacity" : 1.0,
                      "default-stroke-color-red" : 0.0196078431372549,
                      "default-stroke-width" : 2.0,
                      "default-text-attributes" : "[{\"name\":\"fgColor\",\"rangeEnd\":23,\"rangeStart\":0,\"value\":\"(47,59,68,255)\",\"valueType\":\"color\"},{\"name\":\"underline\",\"rangeEnd\":23,\"rangeStart\":0,\"value\":0,\"valueType\":\"int\"},{\"name\":\"strikethrough\",\"rangeEnd\":23,\"rangeStart\":0,\"value\":0,\"valueType\":\"int\"},{\"name\":\"fontWeight\",\"rangeEnd\":23,\"rangeStart\":0,\"value\":400,\"valueType\":\"int\"},{\"name\":\"fontItalic\",\"rangeEnd\":23,\"rangeStart\":0,\"value\":0,\"valueType\":\"int\"},{\"name\":\"fontName\",\"rangeEnd\":23,\"rangeStart\":0,\"value\":\"Faktum Medium\",\"valueType\":\"string\"},{\"name\":\"kerning\",\"rangeEnd\":23,\"rangeStart\":0,\"value\":0,\"valueType\":\"double\"},{\"name\":\"fontSize\",\"rangeEnd\":23,\"rangeStart\":0,\"value\":80,\"valueType\":\"double\"}]",
                      "default-translation0" : 0.0,
                      "default-translation1" : 0.0,
                      "default-width" : 376.0
                    },
                    "animationTracks" : {

                    }
                  },
                  {
                    "id" : 144,
                    "_type" : "Callout",
                    "def" : {
                      "kind" : "remix",
                      "shape" : "text-rectangle",
                      "style" : "basic",
                      "enable-ligatures" : 1.0,
                      "fill-color-blue" : 1.0,
                      "fill-color-green" : 1.0,
                      "fill-color-opacity" : 0.0,
                      "fill-color-red" : 1.0,
                      "height" : 176.521090066776,
                      "line-spacing" : 0.0,
                      "stroke-color-blue" : 0.890196078431372,
                      "stroke-color-green" : 0.870588235294118,
                      "stroke-color-opacity" : 0.0,
                      "stroke-color-red" : 0.847058823529412,
                      "stroke-width" : 0.0,
                      "tail-x" : -735.676511919624,
                      "tail-y" : -32.739454966612,
                      "width" : 608.065678994923,
                      "word-wrap" : 1.0,
                      "fill-style" : "solid",
                      "horizontal-alignment" : "left",
                      "resize-behavior" : "resizeText",
                      "stroke-style" : "solid",
                      "text" : "Likely to fail again if issues not addressed",
                      "vertical-alignment" : "center",
                      "font" : {
                        "color-blue" : 0.266666666666667,
                        "color-green" : 0.231372549019608,
                        "color-opacity" : 1.0,
                        "color-red" : 0.184313725490196,
                        "size" : 64.0,
                        "tracking" : 0.0,
                        "name" : "Montserrat",
                        "weight" : "Regular"
                      },
                      "textAttributes" : {
                        "type" : "textAttributeList",
                        "keyframes" : [
                          {
                            "endTime" : 0,
                            "time" : 0,
                            "value" : [{"name":"fgColor","rangeEnd":44,"rangeStart":0,"value":"(35,40,47,255)","valueType":"color"},{"name":"fontWeight","rangeEnd":44,"rangeStart":0,"value":400,"valueType":"int"},{"name":"fontItalic","rangeEnd":44,"rangeStart":0,"value":0,"valueType":"int"},{"name":"kerning","rangeEnd":44,"rangeStart":0,"value":0,"valueType":"double"},{"name":"fontName","rangeEnd":44,"rangeStart":0,"value":"Faktum Medium","valueType":"string"},{"name":"fontSize","rangeEnd":44,"rangeStart":0,"value":60,"valueType":"double"},{"name":"underline","rangeEnd":44,"rangeStart":0,"value":0,"valueType":"int"},{"name":"strikethrough","rangeEnd":44,"rangeStart":0,"value":0,"valueType":"int"}],
                            "duration" : 0
                          }
                        ]
                      }
                    },
                    "attributes" : {
                      "autoRotateText" : true
                    },
                    "parameters" : {
                      "translation0" : 620.788154662847,
                      "translation1" : -137.439700666858,
                      "sourceCrop0" : 0.0,
                      "sourceCrop1" : 0.0,
                      "sourceCrop2" : 0.0,
                      "sourceCrop3" : 0.0,
                      "geometryCrop0" : 0.0,
                      "geometryCrop1" : 0.0,
                      "geometryCrop2" : 0.0,
                      "geometryCrop3" : 0.0
                    },
                    "effects" : [

                    ],
                    "start" : 7488,
                    "duration" : 186,
                    "mediaStart" : 162,
                    "mediaDuration" : 186,
                    "scalar" : 1,
                    "metadata" : {
                      "clipSpeedAttribute" : false,
                      "default-HAlign" : "center",
                      "default-LineSpace" : 0.0,
                      "default-VAlign" : "center",
                      "default-fill-color-opacity" : 1.0,
                      "default-height" : 176.0,
                      "default-stroke-color-blue" : 0.56078431372549,
                      "default-stroke-color-green" : 0.686274509803922,
                      "default-stroke-color-opacity" : 1.0,
                      "default-stroke-color-red" : 0.0196078431372549,
                      "default-stroke-width" : 2.0,
                      "default-text-attributes" : "[{\"name\":\"fgColor\",\"rangeEnd\":23,\"rangeStart\":0,\"value\":\"(47,59,68,255)\",\"valueType\":\"color\"},{\"name\":\"underline\",\"rangeEnd\":23,\"rangeStart\":0,\"value\":0,\"valueType\":\"int\"},{\"name\":\"strikethrough\",\"rangeEnd\":23,\"rangeStart\":0,\"value\":0,\"valueType\":\"int\"},{\"name\":\"fontWeight\",\"rangeEnd\":23,\"rangeStart\":0,\"value\":400,\"valueType\":\"int\"},{\"name\":\"fontItalic\",\"rangeEnd\":23,\"rangeStart\":0,\"value\":0,\"valueType\":\"int\"},{\"name\":\"fontName\",\"rangeEnd\":23,\"rangeStart\":0,\"value\":\"Faktum Medium\",\"valueType\":\"string\"},{\"name\":\"kerning\",\"rangeEnd\":23,\"rangeStart\":0,\"value\":0,\"valueType\":\"double\"},{\"name\":\"fontSize\",\"rangeEnd\":23,\"rangeStart\":0,\"value\":80,\"valueType\":\"double\"}]",
                      "default-translation0" : 0.0,
                      "default-translation1" : 0.0,
                      "default-width" : 376.0
                    },
                    "animationTracks" : {

                    }
                  },
                  {
                    "id" : 145,
                    "_type" : "Callout",
                    "def" : {
                      "kind" : "remix",
                      "shape" : "text-rectangle",
                      "style" : "basic",
                      "enable-ligatures" : 1.0,
                      "fill-color-blue" : 1.0,
                      "fill-color-green" : 1.0,
                      "fill-color-opacity" : 0.0,
                      "fill-color-red" : 1.0,
                      "height" : 224.360446570973,
                      "line-spacing" : 0.0,
                      "stroke-color-blue" : 0.890196078431372,
                      "stroke-color-green" : 0.870588235294118,
                      "stroke-color-opacity" : 0.0,
                      "stroke-color-red" : 0.847058823529412,
                      "stroke-width" : 0.0,
                      "tail-x" : -734.767421010533,
                      "tail-y" : -8.81977671451352,
                      "width" : 606.247497176741,
                      "word-wrap" : 1.0,
                      "fill-style" : "solid",
                      "horizontal-alignment" : "left",
                      "resize-behavior" : "resizeText",
                      "stroke-style" : "solid",
                      "text" : "Why did some patch deployments fail?",
                      "vertical-alignment" : "center",
                      "font" : {
                        "color-blue" : 0.266666666666667,
                        "color-green" : 0.231372549019608,
                        "color-opacity" : 1.0,
                        "color-red" : 0.184313725490196,
                        "size" : 64.0,
                        "tracking" : 0.0,
                        "name" : "Montserrat",
                        "weight" : "Regular"
                      },
                      "textAttributes" : {
                        "type" : "textAttributeList",
                        "keyframes" : [
                          {
                            "endTime" : 0,
                            "time" : 0,
                            "value" : [{"name":"fontWeight","rangeEnd":36,"rangeStart":0,"value":400,"valueType":"int"},{"name":"kerning","rangeEnd":36,"rangeStart":0,"value":0,"valueType":"double"},{"name":"fontSize","rangeEnd":36,"rangeStart":0,"value":60,"valueType":"double"},{"name":"fontName","rangeEnd":36,"rangeStart":0,"value":"Faktum Medium","valueType":"string"},{"name":"strikethrough","rangeEnd":36,"rangeStart":0,"value":0,"valueType":"int"},{"name":"fontItalic","rangeEnd":36,"rangeStart":0,"value":0,"valueType":"int"},{"name":"underline","rangeEnd":36,"rangeStart":0,"value":0,"valueType":"int"},{"name":"fgColor","rangeEnd":36,"rangeStart":0,"value":"(35,40,47,255)","valueType":"color"}],
                            "duration" : 0
                          }
                        ]
                      }
                    },
                    "attributes" : {
                      "autoRotateText" : true
                    },
                    "parameters" : {
                      "translation0" : 619.879063753756,
                      "translation1" : 267.977230417653,
                      "sourceCrop0" : 0.0,
                      "sourceCrop1" : 0.0,
                      "sourceCrop2" : 0.0,
                      "sourceCrop3" : 0.0,
                      "geometryCrop0" : 0.0,
                      "geometryCrop1" : 0.0,
                      "geometryCrop2" : 0.0,
                      "geometryCrop3" : 0.0
                    },
                    "effects" : [

                    ],
                    "start" : 7810,
                    "duration" : 319,
                    "mediaStart" : 162,
                    "mediaDuration" : 319,
                    "scalar" : 1,
                    "metadata" : {
                      "clipSpeedAttribute" : false,
                      "default-HAlign" : "center",
                      "default-LineSpace" : 0.0,
                      "default-VAlign" : "center",
                      "default-fill-color-opacity" : 1.0,
                      "default-height" : 176.0,
                      "default-stroke-color-blue" : 0.56078431372549,
                      "default-stroke-color-green" : 0.686274509803922,
                      "default-stroke-color-opacity" : 1.0,
                      "default-stroke-color-red" : 0.0196078431372549,
                      "default-stroke-width" : 2.0,
                      "default-text-attributes" : "[{\"name\":\"fgColor\",\"rangeEnd\":23,\"rangeStart\":0,\"value\":\"(47,59,68,255)\",\"valueType\":\"color\"},{\"name\":\"underline\",\"rangeEnd\":23,\"rangeStart\":0,\"value\":0,\"valueType\":\"int\"},{\"name\":\"strikethrough\",\"rangeEnd\":23,\"rangeStart\":0,\"value\":0,\"valueType\":\"int\"},{\"name\":\"fontWeight\",\"rangeEnd\":23,\"rangeStart\":0,\"value\":400,\"valueType\":\"int\"},{\"name\":\"fontItalic\",\"rangeEnd\":23,\"rangeStart\":0,\"value\":0,\"valueType\":\"int\"},{\"name\":\"fontName\",\"rangeEnd\":23,\"rangeStart\":0,\"value\":\"Faktum Medium\",\"valueType\":\"string\"},{\"name\":\"kerning\",\"rangeEnd\":23,\"rangeStart\":0,\"value\":0,\"valueType\":\"double\"},{\"name\":\"fontSize\",\"rangeEnd\":23,\"rangeStart\":0,\"value\":80,\"valueType\":\"double\"}]",
                      "default-translation0" : 0.0,
                      "default-translation1" : 0.0,
                      "default-width" : 376.0
                    },
                    "animationTracks" : {

                    }
                  },
                  {
                    "id" : 146,
                    "_type" : "IMFile",
                    "src" : 27,
                    "trackNumber" : 0,
                    "trimStartSum" : 0,
                    "attributes" : {
                      "ident" : "spanner"
                    },
                    "parameters" : {
                      "translation0" : -775.697532619882,
                      "translation1" : 265.11926739211,
                      "scale0" : 0.809929516054717,
                      "scale1" : 0.809929516054717,
                      "sourceCrop0" : 0.0,
                      "sourceCrop1" : 0.0,
                      "sourceCrop2" : 0.0,
                      "sourceCrop3" : 0.0,
                      "geometryCrop0" : 0.0,
                      "geometryCrop1" : 0.0,
                      "geometryCrop2" : 0.0,
                      "geometryCrop3" : 0.0
                    },
                    "effects" : [

                    ],
                    "start" : 8167,
                    "duration" : 1005,
                    "mediaStart" : 0,
                    "mediaDuration" : 1,
                    "scalar" : 1,
                    "metadata" : {
                      "clipSpeedAttribute" : false,
                      "default-height" : 169.0,
                      "default-scale0" : 1.0,
                      "default-scale1" : 1.0,
                      "default-translation0" : -0.5,
                      "default-translation1" : -0.5,
                      "default-width" : 169.0
                    },
                    "animationTracks" : {

                    }
                  }
                ],
                "transitions" : [
                  {
                    "name" : "Fade",
                    "duration" : 30,
                    "trivial" : false,
                    "reverse" : false,
                    "bypass" : false,
                    "useAudioPreRoll" : true,
                    "useVisualPreRoll" : true,
                    "rightMedia" : 114
                  },
                  {
                    "name" : "Fade",
                    "duration" : 30,
                    "trivial" : false,
                    "reverse" : false,
                    "bypass" : false,
                    "useAudioPreRoll" : true,
                    "useVisualPreRoll" : true,
                    "rightMedia" : 137
                  },
                  {
                    "name" : "Fade",
                    "duration" : 30,
                    "trivial" : false,
                    "reverse" : false,
                    "bypass" : false,
                    "useAudioPreRoll" : true,
                    "useVisualPreRoll" : true,
                    "leftMedia" : 137
                  },
                  {
                    "name" : "Fade",
                    "duration" : 30,
                    "trivial" : false,
                    "reverse" : false,
                    "bypass" : false,
                    "useAudioPreRoll" : true,
                    "useVisualPreRoll" : true,
                    "rightMedia" : 138
                  },
                  {
                    "name" : "Fade",
                    "duration" : 30,
                    "trivial" : false,
                    "reverse" : false,
                    "bypass" : false,
                    "useAudioPreRoll" : true,
                    "useVisualPreRoll" : true,
                    "rightMedia" : 139
                  },
                  {
                    "name" : "Fade",
                    "duration" : 30,
                    "trivial" : false,
                    "reverse" : false,
                    "bypass" : false,
                    "useAudioPreRoll" : true,
                    "useVisualPreRoll" : true,
                    "rightMedia" : 140
                  },
                  {
                    "name" : "Fade",
                    "duration" : 30,
                    "trivial" : false,
                    "reverse" : false,
                    "bypass" : false,
                    "useAudioPreRoll" : true,
                    "useVisualPreRoll" : true,
                    "leftMedia" : 140
                  },
                  {
                    "name" : "Fade",
                    "duration" : 30,
                    "trivial" : false,
                    "reverse" : false,
                    "bypass" : false,
                    "useAudioPreRoll" : true,
                    "useVisualPreRoll" : true,
                    "rightMedia" : 141
                  },
                  {
                    "name" : "Fade",
                    "duration" : 30,
                    "trivial" : false,
                    "reverse" : false,
                    "bypass" : false,
                    "useAudioPreRoll" : true,
                    "useVisualPreRoll" : true,
                    "rightMedia" : 142
                  },
                  {
                    "name" : "Fade",
                    "duration" : 30,
                    "trivial" : false,
                    "reverse" : false,
                    "bypass" : false,
                    "useAudioPreRoll" : true,
                    "useVisualPreRoll" : true,
                    "rightMedia" : 143
                  },
                  {
                    "name" : "Fade",
                    "duration" : 30,
                    "trivial" : false,
                    "reverse" : false,
                    "bypass" : false,
                    "useAudioPreRoll" : true,
                    "useVisualPreRoll" : true,
                    "leftMedia" : 143
                  },
                  {
                    "name" : "Fade",
                    "duration" : 30,
                    "trivial" : false,
                    "reverse" : false,
                    "bypass" : false,
                    "useAudioPreRoll" : true,
                    "useVisualPreRoll" : true,
                    "rightMedia" : 144
                  },
                  {
                    "name" : "Fade",
                    "duration" : 30,
                    "trivial" : false,
                    "reverse" : false,
                    "bypass" : false,
                    "useAudioPreRoll" : true,
                    "useVisualPreRoll" : true,
                    "leftMedia" : 144
                  },
                  {
                    "name" : "Fade",
                    "duration" : 30,
                    "trivial" : false,
                    "reverse" : false,
                    "bypass" : false,
                    "useAudioPreRoll" : true,
                    "useVisualPreRoll" : true,
                    "rightMedia" : 145
                  },
                  {
                    "name" : "Fade",
                    "duration" : 30,
                    "trivial" : false,
                    "reverse" : false,
                    "bypass" : false,
                    "useAudioPreRoll" : true,
                    "useVisualPreRoll" : true,
                    "rightMedia" : 146
                  }
                ]
              },
              {
                "trackIndex" : 4,
                "medias" : [
                  {
                    "id" : 147,
                    "_type" : "Callout",
                    "def" : {
                      "kind" : "remix",
                      "shape" : "text-rectangle",
                      "style" : "basic",
                      "enable-ligatures" : 1.0,
                      "fill-color-blue" : {
                        "type" : "double",
                        "defaultValue" : 0.109803921568627,
                        "keyframes" : [
                          {
                            "endTime" : 74,
                            "time" : 0,
                            "value" : 1.0,
                            "duration" : 74
                          }
                        ]
                      },
                      "fill-color-green" : {
                        "type" : "double",
                        "defaultValue" : 0.109803921568627,
                        "keyframes" : [
                          {
                            "endTime" : 74,
                            "time" : 0,
                            "value" : 1.0,
                            "duration" : 74
                          }
                        ]
                      },
                      "fill-color-opacity" : 1.0,
                      "fill-color-red" : {
                        "type" : "double",
                        "defaultValue" : 0.96078431372549,
                        "keyframes" : [
                          {
                            "endTime" : 74,
                            "time" : 0,
                            "value" : 1.0,
                            "duration" : 74
                          }
                        ]
                      },
                      "height" : 1241.46737511424,
                      "line-spacing" : 0.0,
                      "stroke-color-blue" : {
                        "type" : "double",
                        "defaultValue" : 0.172549019607843,
                        "keyframes" : [
                          {
                            "endTime" : 74,
                            "time" : 0,
                            "value" : 0.419607843137255,
                            "duration" : 74
                          }
                        ]
                      },
                      "stroke-color-green" : {
                        "type" : "double",
                        "defaultValue" : 0.0627450980392157,
                        "keyframes" : [
                          {
                            "endTime" : 74,
                            "time" : 0,
                            "value" : 0.0392156862745098,
                            "duration" : 74
                          }
                        ]
                      },
                      "stroke-color-opacity" : {
                        "type" : "double",
                        "defaultValue" : 1.0,
                        "keyframes" : [
                          {
                            "endTime" : 74,
                            "time" : 0,
                            "value" : 1.0,
                            "duration" : 74
                          }
                        ]
                      },
                      "stroke-color-red" : {
                        "type" : "double",
                        "defaultValue" : 1.0,
                        "keyframes" : [
                          {
                            "endTime" : 74,
                            "time" : 0,
                            "value" : 0.937254901960784,
                            "duration" : 74
                          }
                        ]
                      },
                      "stroke-width" : {
                        "type" : "double",
                        "defaultValue" : 2.0,
                        "keyframes" : [
                          {
                            "endTime" : 74,
                            "time" : 0,
                            "value" : 2.0,
                            "duration" : 74
                          }
                        ]
                      },
                      "tail-x" : -3.44827586206901,
                      "tail-y" : 37.7145883049484,
                      "width" : 2022.41379310345,
                      "word-wrap" : 1.0,
                      "fill-style" : "gradient",
                      "horizontal-alignment" : "center",
                      "resize-behavior" : "resizeText",
                      "stroke-style" : "solid",
                      "text" : "",
                      "vertical-alignment" : "center",
                      "font" : {
                        "color-blue" : 0.266666666666667,
                        "color-green" : 0.231372549019608,
                        "color-opacity" : 1.0,
                        "color-red" : 0.184313725490196,
                        "size" : 64.0,
                        "tracking" : 0.0,
                        "name" : "Montserrat",
                        "weight" : "Regular"
                      },
                      "textAttributes" : {
                        "type" : "textAttributeList",
                        "keyframes" : [
                          {
                            "endTime" : 0,
                            "time" : 0,
                            "value" : [{"name":"underline","rangeEnd":1,"rangeStart":0,"value":0,"valueType":"int"},{"name":"fontSize","rangeEnd":1,"rangeStart":0,"value":64,"valueType":"double"},{"name":"fontName","rangeEnd":1,"rangeStart":0,"value":"Montserrat","valueType":"string"},{"name":"fontItalic","rangeEnd":1,"rangeStart":0,"value":0,"valueType":"int"},{"name":"fontWeight","rangeEnd":1,"rangeStart":0,"value":400,"valueType":"int"},{"name":"kerning","rangeEnd":1,"rangeStart":0,"value":0,"valueType":"double"},{"name":"fgColor","rangeEnd":1,"rangeStart":0,"value":"(47,59,68,255)","valueType":"color"},{"name":"strikethrough","rangeEnd":1,"rangeStart":0,"value":0,"valueType":"int"}],
                            "duration" : 0
                          }
                        ]
                      }
                    },
                    "attributes" : {
                      "autoRotateText" : true
                    },
                    "parameters" : {
                      "translation0" : {
                        "type" : "double",
                        "defaultValue" : -2006.89655172414,
                        "keyframes" : [
                          {
                            "endTime" : 74,
                            "time" : 0,
                            "value" : 2050.0,
                            "duration" : 74
                          }
                        ]
                      },
                      "translation1" : {
                        "type" : "double",
                        "defaultValue" : -57.7146043611094,
                        "keyframes" : [
                          {
                            "endTime" : 74,
                            "time" : 0,
                            "value" : -1.59872115546023e-14,
                            "duration" : 74
                          }
                        ]
                      },
                      "sourceCrop0" : 0.0,
                      "sourceCrop1" : 0.0,
                      "sourceCrop2" : 0.0,
                      "sourceCrop3" : 0.0,
                      "geometryCrop0" : 0.0,
                      "geometryCrop1" : 0.0,
                      "geometryCrop2" : 0.0,
                      "geometryCrop3" : 0.0
                    },
                    "effects" : [

                    ],
                    "start" : 160,
                    "duration" : 75,
                    "mediaStart" : 0,
                    "mediaDuration" : 75,
                    "scalar" : 1,
                    "metadata" : {
                      "clipSpeedAttribute" : false,
                      "default-HAlign" : "center",
                      "default-LineSpace" : 0.0,
                      "default-VAlign" : "center",
                      "default-callout-stroke-style" : "solid",
                      "default-fill-color-blue" : 1.0,
                      "default-fill-color-green" : 1.0,
                      "default-fill-color-red" : 1.0,
                      "default-fill-style" : "solid",
                      "default-height" : 1268.0,
                      "default-stroke-color-blue" : 0.56078431372549,
                      "default-stroke-color-green" : 0.686274509803922,
                      "default-stroke-color-opacity" : 1.0,
                      "default-stroke-color-red" : 0.0196078431372549,
                      "default-stroke-width" : 2.0,
                      "default-translation0" : 0.0,
                      "default-translation1" : 0.0,
                      "default-width" : 2049.0
                    },
                    "animationTracks" : {
                      "visual" : [
                        {
                          "endTime" : 74,
                          "duration" : 74,
                          "range" : [ 0, 74]
                        }
                      ]
                    }
                  },
                  {
                    "id" : 148,
                    "_type" : "Group",
                    "parameters" : {
                      "translation0" : 6.42348927875264,
                      "translation1" : 26.0131578947368,
                      "sourceCrop0" : 0.0,
                      "sourceCrop1" : 0.0,
                      "sourceCrop2" : 0.0,
                      "sourceCrop3" : 0.0,
                      "geometryCrop0" : 0.0,
                      "geometryCrop1" : 0.0,
                      "geometryCrop2" : 0.0,
                      "geometryCrop3" : 0.0,
                      "volume" : 1.0
                    },
                    "tracks" : [
                      {
                        "trackIndex" : 0,
                        "medias" : [
                          {
                            "id" : 149,
                            "_type" : "IMFile",
                            "src" : 11,
                            "trackNumber" : 0,
                            "trimStartSum" : 0,
                            "attributes" : {
                              "ident" : "laptop"
                            },
                            "parameters" : {
                              "translation0" : -306.583333333333,
                              "translation1" : -48.75,
                              "scale0" : 1.48148148148148,
                              "scale1" : 1.48148148148148,
                              "sourceCrop0" : 0.0,
                              "sourceCrop1" : 0.0,
                              "sourceCrop2" : 0.0,
                              "sourceCrop3" : 0.0,
                              "geometryCrop0" : 0.0,
                              "geometryCrop1" : 0.0,
                              "geometryCrop2" : 0.0,
                              "geometryCrop3" : 0.0
                            },
                            "effects" : [

                            ],
                            "start" : 0,
                            "duration" : 345,
                            "mediaStart" : 0,
                            "mediaDuration" : 1,
                            "scalar" : 1,
                            "metadata" : {
                              "clipSpeedAttribute" : false,
                              "default-height" : 45.0,
                              "default-scale0" : 1.0,
                              "default-scale1" : 1.0,
                              "default-translation0" : -0.5,
                              "default-translation1" : -0.5,
                              "default-width" : 67.0
                            },
                            "animationTracks" : {

                            }
                          }
                        ],
                          "ident" : "",
                          "audioMuted" : false,
                          "videoHidden" : false,
                          "magnetic" : false,
                          "matte" : 0,
                          "solo" : false,
                          "metadata" : {
                            "IsLocked" : "False",
                            "WinTrackHeight" : "56"
                          }
                      },
                      {
                        "trackIndex" : 1,
                        "medias" : [
                          {
                            "id" : 150,
                            "_type" : "IMFile",
                            "src" : 11,
                            "trackNumber" : 0,
                            "trimStartSum" : 0,
                            "attributes" : {
                              "ident" : "laptop"
                            },
                            "parameters" : {
                              "translation0" : 463.083333333334,
                              "translation1" : -100.416666666667,
                              "scale0" : 1.48148148148148,
                              "scale1" : 1.48148148148148,
                              "sourceCrop0" : 0.0,
                              "sourceCrop1" : 0.0,
                              "sourceCrop2" : 0.0,
                              "sourceCrop3" : 0.0,
                              "geometryCrop0" : 0.0,
                              "geometryCrop1" : 0.0,
                              "geometryCrop2" : 0.0,
                              "geometryCrop3" : 0.0
                            },
                            "effects" : [

                            ],
                            "start" : 0,
                            "duration" : 345,
                            "mediaStart" : 0,
                            "mediaDuration" : 1,
                            "scalar" : 1,
                            "metadata" : {
                              "clipSpeedAttribute" : false,
                              "default-height" : 45.0,
                              "default-scale0" : 1.0,
                              "default-scale1" : 1.0,
                              "default-translation0" : -0.5,
                              "default-translation1" : -0.5,
                              "default-width" : 67.0
                            },
                            "animationTracks" : {

                            }
                          }
                        ],
                          "ident" : "",
                          "audioMuted" : false,
                          "videoHidden" : false,
                          "magnetic" : false,
                          "matte" : 0,
                          "solo" : false,
                          "metadata" : {
                            "IsLocked" : "False",
                            "WinTrackHeight" : "56"
                          }
                      },
                      {
                        "trackIndex" : 2,
                        "medias" : [
                          {
                            "id" : 151,
                            "_type" : "IMFile",
                            "src" : 11,
                            "trackNumber" : 0,
                            "trimStartSum" : 0,
                            "attributes" : {
                              "ident" : "laptop"
                            },
                            "parameters" : {
                              "translation0" : 496.583333333333,
                              "translation1" : 45.4166666666665,
                              "scale0" : 1.48148148148148,
                              "scale1" : 1.48148148148148,
                              "sourceCrop0" : 0.0,
                              "sourceCrop1" : 0.0,
                              "sourceCrop2" : 0.0,
                              "sourceCrop3" : 0.0,
                              "geometryCrop0" : 0.0,
                              "geometryCrop1" : 0.0,
                              "geometryCrop2" : 0.0,
                              "geometryCrop3" : 0.0
                            },
                            "effects" : [

                            ],
                            "start" : 0,
                            "duration" : 345,
                            "mediaStart" : 0,
                            "mediaDuration" : 1,
                            "scalar" : 1,
                            "metadata" : {
                              "clipSpeedAttribute" : false,
                              "default-height" : 45.0,
                              "default-scale0" : 1.0,
                              "default-scale1" : 1.0,
                              "default-translation0" : -0.5,
                              "default-translation1" : -0.5,
                              "default-width" : 67.0
                            },
                            "animationTracks" : {

                            }
                          }
                        ],
                          "ident" : "",
                          "audioMuted" : false,
                          "videoHidden" : false,
                          "magnetic" : false,
                          "matte" : 0,
                          "solo" : false,
                          "metadata" : {
                            "IsLocked" : "False",
                            "WinTrackHeight" : "56"
                          }
                      },
                      {
                        "trackIndex" : 3,
                        "medias" : [
                          {
                            "id" : 152,
                            "_type" : "IMFile",
                            "src" : 11,
                            "trackNumber" : 0,
                            "trimStartSum" : 0,
                            "attributes" : {
                              "ident" : "laptop"
                            },
                            "parameters" : {
                              "translation0" : -496.583333333333,
                              "translation1" : -177.916666666667,
                              "scale0" : 1.48148148148148,
                              "scale1" : 1.48148148148148,
                              "sourceCrop0" : 0.0,
                              "sourceCrop1" : 0.0,
                              "sourceCrop2" : 0.0,
                              "sourceCrop3" : 0.0,
                              "geometryCrop0" : 0.0,
                              "geometryCrop1" : 0.0,
                              "geometryCrop2" : 0.0,
                              "geometryCrop3" : 0.0
                            },
                            "effects" : [

                            ],
                            "start" : 0,
                            "duration" : 345,
                            "mediaStart" : 0,
                            "mediaDuration" : 1,
                            "scalar" : 1,
                            "metadata" : {
                              "clipSpeedAttribute" : false,
                              "default-height" : 45.0,
                              "default-scale0" : 1.0,
                              "default-scale1" : 1.0,
                              "default-translation0" : -0.5,
                              "default-translation1" : -0.5,
                              "default-width" : 67.0
                            },
                            "animationTracks" : {

                            }
                          }
                        ],
                          "ident" : "",
                          "audioMuted" : false,
                          "videoHidden" : false,
                          "magnetic" : false,
                          "matte" : 0,
                          "solo" : false,
                          "metadata" : {
                            "IsLocked" : "False",
                            "WinTrackHeight" : "56"
                          }
                      },
                      {
                        "trackIndex" : 4,
                        "medias" : [
                          {
                            "id" : 153,
                            "_type" : "IMFile",
                            "src" : 11,
                            "trackNumber" : 0,
                            "trimStartSum" : 0,
                            "attributes" : {
                              "ident" : "laptop"
                            },
                            "parameters" : {
                              "translation0" : 442.200982880174,
                              "translation1" : 244.583333333333,
                              "scale0" : 1.48148148148148,
                              "scale1" : 1.48148148148148,
                              "sourceCrop0" : 0.0,
                              "sourceCrop1" : 0.0,
                              "sourceCrop2" : 0.0,
                              "sourceCrop3" : 0.0,
                              "geometryCrop0" : 0.0,
                              "geometryCrop1" : 0.0,
                              "geometryCrop2" : 0.0,
                              "geometryCrop3" : 0.0
                            },
                            "effects" : [

                            ],
                            "start" : 0,
                            "duration" : 345,
                            "mediaStart" : 0,
                            "mediaDuration" : 1,
                            "scalar" : 1,
                            "metadata" : {
                              "clipSpeedAttribute" : false,
                              "default-height" : 45.0,
                              "default-scale0" : 1.0,
                              "default-scale1" : 1.0,
                              "default-translation0" : -0.5,
                              "default-translation1" : -0.5,
                              "default-width" : 67.0
                            },
                            "animationTracks" : {

                            }
                          }
                        ],
                          "ident" : "",
                          "audioMuted" : false,
                          "videoHidden" : false,
                          "magnetic" : false,
                          "matte" : 0,
                          "solo" : false,
                          "metadata" : {
                            "IsLocked" : "False",
                            "WinTrackHeight" : "56"
                          }
                      },
                      {
                        "trackIndex" : 5,
                        "medias" : [
                          {
                            "id" : 154,
                            "_type" : "IMFile",
                            "src" : 11,
                            "trackNumber" : 0,
                            "trimStartSum" : 0,
                            "attributes" : {
                              "ident" : "laptop"
                            },
                            "parameters" : {
                              "translation0" : 442.200982880174,
                              "translation1" : -244.583333333333,
                              "scale0" : 1.48148148148148,
                              "scale1" : 1.48148148148148,
                              "sourceCrop0" : 0.0,
                              "sourceCrop1" : 0.0,
                              "sourceCrop2" : 0.0,
                              "sourceCrop3" : 0.0,
                              "geometryCrop0" : 0.0,
                              "geometryCrop1" : 0.0,
                              "geometryCrop2" : 0.0,
                              "geometryCrop3" : 0.0
                            },
                            "effects" : [

                            ],
                            "start" : 0,
                            "duration" : 345,
                            "mediaStart" : 0,
                            "mediaDuration" : 1,
                            "scalar" : 1,
                            "metadata" : {
                              "clipSpeedAttribute" : false,
                              "default-height" : 45.0,
                              "default-scale0" : 1.0,
                              "default-scale1" : 1.0,
                              "default-translation0" : -0.5,
                              "default-translation1" : -0.5,
                              "default-width" : 67.0
                            },
                            "animationTracks" : {

                            }
                          }
                        ],
                          "ident" : "",
                          "audioMuted" : false,
                          "videoHidden" : false,
                          "magnetic" : false,
                          "matte" : 0,
                          "solo" : false,
                          "metadata" : {
                            "IsLocked" : "False",
                            "WinTrackHeight" : "56"
                          }
                      },
                      {
                        "trackIndex" : 6,
                        "medias" : [
                          {
                            "id" : 155,
                            "_type" : "IMFile",
                            "src" : 11,
                            "trackNumber" : 0,
                            "trimStartSum" : 0,
                            "attributes" : {
                              "ident" : "laptop"
                            },
                            "parameters" : {
                              "translation0" : -476.098484848485,
                              "translation1" : 207.916666666667,
                              "scale0" : 1.48148148148148,
                              "scale1" : 1.48148148148148,
                              "sourceCrop0" : 0.0,
                              "sourceCrop1" : 0.0,
                              "sourceCrop2" : 0.0,
                              "sourceCrop3" : 0.0,
                              "geometryCrop0" : 0.0,
                              "geometryCrop1" : 0.0,
                              "geometryCrop2" : 0.0,
                              "geometryCrop3" : 0.0
                            },
                            "effects" : [

                            ],
                            "start" : 0,
                            "duration" : 345,
                            "mediaStart" : 0,
                            "mediaDuration" : 1,
                            "scalar" : 1,
                            "metadata" : {
                              "clipSpeedAttribute" : false,
                              "default-height" : 45.0,
                              "default-scale0" : 1.0,
                              "default-scale1" : 1.0,
                              "default-translation0" : -0.5,
                              "default-translation1" : -0.5,
                              "default-width" : 67.0
                            },
                            "animationTracks" : {

                            }
                          }
                        ],
                          "ident" : "",
                          "audioMuted" : false,
                          "videoHidden" : false,
                          "magnetic" : false,
                          "matte" : 0,
                          "solo" : false,
                          "metadata" : {
                            "IsLocked" : "False",
                            "WinTrackHeight" : "56"
                          }
                      },
                      {
                        "trackIndex" : 7,
                        "medias" : [
                          {
                            "id" : 156,
                            "_type" : "IMFile",
                            "src" : 11,
                            "trackNumber" : 0,
                            "trimStartSum" : 0,
                            "attributes" : {
                              "ident" : "laptop"
                            },
                            "parameters" : {
                              "translation0" : 188.046296296296,
                              "translation1" : -203.929829647666,
                              "scale0" : 1.48148148148148,
                              "scale1" : 1.48148148148148,
                              "sourceCrop0" : 0.0,
                              "sourceCrop1" : 0.0,
                              "sourceCrop2" : 0.0,
                              "sourceCrop3" : 0.0,
                              "geometryCrop0" : 0.0,
                              "geometryCrop1" : 0.0,
                              "geometryCrop2" : 0.0,
                              "geometryCrop3" : 0.0
                            },
                            "effects" : [

                            ],
                            "start" : 0,
                            "duration" : 345,
                            "mediaStart" : 0,
                            "mediaDuration" : 1,
                            "scalar" : 1,
                            "metadata" : {
                              "clipSpeedAttribute" : false,
                              "default-height" : 45.0,
                              "default-scale0" : 1.0,
                              "default-scale1" : 1.0,
                              "default-translation0" : -0.5,
                              "default-translation1" : -0.5,
                              "default-width" : 67.0
                            },
                            "animationTracks" : {

                            }
                          }
                        ],
                          "ident" : "",
                          "audioMuted" : false,
                          "videoHidden" : false,
                          "magnetic" : false,
                          "matte" : 0,
                          "solo" : false,
                          "metadata" : {
                            "IsLocked" : "False",
                            "WinTrackHeight" : "56"
                          }
                      },
                      {
                        "trackIndex" : 8,
                        "medias" : [
                          {
                            "id" : 157,
                            "_type" : "IMFile",
                            "src" : 11,
                            "trackNumber" : 0,
                            "trimStartSum" : 0,
                            "attributes" : {
                              "ident" : "laptop"
                            },
                            "parameters" : {
                              "translation0" : 275.083333333333,
                              "translation1" : 45.4166666666666,
                              "scale0" : 1.48148148148148,
                              "scale1" : 1.48148148148148,
                              "sourceCrop0" : 0.0,
                              "sourceCrop1" : 0.0,
                              "sourceCrop2" : 0.0,
                              "sourceCrop3" : 0.0,
                              "geometryCrop0" : 0.0,
                              "geometryCrop1" : 0.0,
                              "geometryCrop2" : 0.0,
                              "geometryCrop3" : 0.0
                            },
                            "effects" : [

                            ],
                            "start" : 0,
                            "duration" : 345,
                            "mediaStart" : 0,
                            "mediaDuration" : 1,
                            "scalar" : 1,
                            "metadata" : {
                              "clipSpeedAttribute" : false,
                              "default-height" : 45.0,
                              "default-scale0" : 1.0,
                              "default-scale1" : 1.0,
                              "default-translation0" : -0.5,
                              "default-translation1" : -0.5,
                              "default-width" : 67.0
                            },
                            "animationTracks" : {

                            }
                          }
                        ],
                          "ident" : "",
                          "audioMuted" : false,
                          "videoHidden" : false,
                          "magnetic" : false,
                          "matte" : 0,
                          "solo" : false,
                          "metadata" : {
                            "IsLocked" : "False",
                            "WinTrackHeight" : "56"
                          }
                      },
                      {
                        "trackIndex" : 9,
                        "medias" : [
                          {
                            "id" : 158,
                            "_type" : "IMFile",
                            "src" : 11,
                            "trackNumber" : 0,
                            "trimStartSum" : 0,
                            "attributes" : {
                              "ident" : "laptop"
                            },
                            "parameters" : {
                              "translation0" : -8.62037037037055,
                              "translation1" : 241.25,
                              "scale0" : 1.48148148148148,
                              "scale1" : 1.48148148148148,
                              "sourceCrop0" : 0.0,
                              "sourceCrop1" : 0.0,
                              "sourceCrop2" : 0.0,
                              "sourceCrop3" : 0.0,
                              "geometryCrop0" : 0.0,
                              "geometryCrop1" : 0.0,
                              "geometryCrop2" : 0.0,
                              "geometryCrop3" : 0.0
                            },
                            "effects" : [

                            ],
                            "start" : 0,
                            "duration" : 345,
                            "mediaStart" : 0,
                            "mediaDuration" : 1,
                            "scalar" : 1,
                            "metadata" : {
                              "clipSpeedAttribute" : false,
                              "default-height" : 45.0,
                              "default-scale0" : 1.0,
                              "default-scale1" : 1.0,
                              "default-translation0" : -0.5,
                              "default-translation1" : -0.5,
                              "default-width" : 67.0
                            },
                            "animationTracks" : {

                            }
                          }
                        ],
                          "ident" : "",
                          "audioMuted" : false,
                          "videoHidden" : false,
                          "magnetic" : false,
                          "matte" : 0,
                          "solo" : false,
                          "metadata" : {
                            "IsLocked" : "False",
                            "WinTrackHeight" : "56"
                          }
                      },
                      {
                        "trackIndex" : 10,
                        "medias" : [
                          {
                            "id" : 159,
                            "_type" : "IMFile",
                            "src" : 11,
                            "trackNumber" : 0,
                            "trimStartSum" : 0,
                            "attributes" : {
                              "ident" : "laptop"
                            },
                            "parameters" : {
                              "translation0" : 43.2061403508771,
                              "translation1" : -311.25,
                              "scale0" : 1.48148148148148,
                              "scale1" : 1.48148148148148,
                              "sourceCrop0" : 0.0,
                              "sourceCrop1" : 0.0,
                              "sourceCrop2" : 0.0,
                              "sourceCrop3" : 0.0,
                              "geometryCrop0" : 0.0,
                              "geometryCrop1" : 0.0,
                              "geometryCrop2" : 0.0,
                              "geometryCrop3" : 0.0
                            },
                            "effects" : [

                            ],
                            "start" : 0,
                            "duration" : 345,
                            "mediaStart" : 0,
                            "mediaDuration" : 1,
                            "scalar" : 1,
                            "metadata" : {
                              "clipSpeedAttribute" : false,
                              "default-height" : 45.0,
                              "default-scale0" : 1.0,
                              "default-scale1" : 1.0,
                              "default-translation0" : -0.5,
                              "default-translation1" : -0.5,
                              "default-width" : 67.0
                            },
                            "animationTracks" : {

                            }
                          }
                        ],
                          "ident" : "",
                          "audioMuted" : false,
                          "videoHidden" : false,
                          "magnetic" : false,
                          "matte" : 0,
                          "solo" : false,
                          "metadata" : {
                            "IsLocked" : "False",
                            "WinTrackHeight" : "56"
                          }
                      },
                      {
                        "trackIndex" : 11,
                        "medias" : [
                          {
                            "id" : 160,
                            "_type" : "IMFile",
                            "src" : 11,
                            "trackNumber" : 0,
                            "trimStartSum" : 0,
                            "attributes" : {
                              "ident" : "laptop"
                            },
                            "parameters" : {
                              "translation0" : 61.0346003898641,
                              "translation1" : -82.0833333333334,
                              "scale0" : 1.48148148148148,
                              "scale1" : 1.48148148148148,
                              "sourceCrop0" : 0.0,
                              "sourceCrop1" : 0.0,
                              "sourceCrop2" : 0.0,
                              "sourceCrop3" : 0.0,
                              "geometryCrop0" : 0.0,
                              "geometryCrop1" : 0.0,
                              "geometryCrop2" : 0.0,
                              "geometryCrop3" : 0.0
                            },
                            "effects" : [

                            ],
                            "start" : 0,
                            "duration" : 345,
                            "mediaStart" : 0,
                            "mediaDuration" : 1,
                            "scalar" : 1,
                            "metadata" : {
                              "clipSpeedAttribute" : false,
                              "default-height" : 45.0,
                              "default-scale0" : 1.0,
                              "default-scale1" : 1.0,
                              "default-translation0" : -0.5,
                              "default-translation1" : -0.5,
                              "default-width" : 67.0
                            },
                            "animationTracks" : {

                            }
                          }
                        ],
                          "ident" : "",
                          "audioMuted" : false,
                          "videoHidden" : false,
                          "magnetic" : false,
                          "matte" : 0,
                          "solo" : false,
                          "metadata" : {
                            "IsLocked" : "False",
                            "WinTrackHeight" : "56"
                          }
                      },
                      {
                        "trackIndex" : 12,
                        "medias" : [
                          {
                            "id" : 161,
                            "_type" : "IMFile",
                            "src" : 11,
                            "trackNumber" : 0,
                            "trimStartSum" : 0,
                            "attributes" : {
                              "ident" : "laptop"
                            },
                            "parameters" : {
                              "translation0" : -236.583333333334,
                              "translation1" : 177.916666666667,
                              "scale0" : 1.48148148148148,
                              "scale1" : 1.48148148148148,
                              "sourceCrop0" : 0.0,
                              "sourceCrop1" : 0.0,
                              "sourceCrop2" : 0.0,
                              "sourceCrop3" : 0.0,
                              "geometryCrop0" : 0.0,
                              "geometryCrop1" : 0.0,
                              "geometryCrop2" : 0.0,
                              "geometryCrop3" : 0.0
                            },
                            "effects" : [

                            ],
                            "start" : 0,
                            "duration" : 345,
                            "mediaStart" : 0,
                            "mediaDuration" : 1,
                            "scalar" : 1,
                            "metadata" : {
                              "clipSpeedAttribute" : false,
                              "default-height" : 45.0,
                              "default-scale0" : 1.0,
                              "default-scale1" : 1.0,
                              "default-translation0" : -0.5,
                              "default-translation1" : -0.5,
                              "default-width" : 67.0
                            },
                            "animationTracks" : {

                            }
                          }
                        ],
                          "ident" : "",
                          "audioMuted" : false,
                          "videoHidden" : false,
                          "magnetic" : false,
                          "matte" : 0,
                          "solo" : false,
                          "metadata" : {
                            "IsLocked" : "False",
                            "WinTrackHeight" : "56"
                          }
                      },
                      {
                        "trackIndex" : 13,
                        "medias" : [
                          {
                            "id" : 162,
                            "_type" : "IMFile",
                            "src" : 11,
                            "trackNumber" : 0,
                            "trimStartSum" : 0,
                            "attributes" : {
                              "ident" : "laptop"
                            },
                            "parameters" : {
                              "translation0" : -65.465399610136,
                              "translation1" : -78.1535087719299,
                              "scale0" : 1.48148148148148,
                              "scale1" : 1.48148148148148,
                              "sourceCrop0" : 0.0,
                              "sourceCrop1" : 0.0,
                              "sourceCrop2" : 0.0,
                              "sourceCrop3" : 0.0,
                              "geometryCrop0" : 0.0,
                              "geometryCrop1" : 0.0,
                              "geometryCrop2" : 0.0,
                              "geometryCrop3" : 0.0
                            },
                            "effects" : [

                            ],
                            "start" : 0,
                            "duration" : 345,
                            "mediaStart" : 0,
                            "mediaDuration" : 1,
                            "scalar" : 1,
                            "metadata" : {
                              "clipSpeedAttribute" : false,
                              "default-height" : 45.0,
                              "default-scale0" : 1.0,
                              "default-scale1" : 1.0,
                              "default-translation0" : -0.5,
                              "default-translation1" : -0.5,
                              "default-width" : 67.0
                            },
                            "animationTracks" : {

                            }
                          }
                        ],
                          "ident" : "",
                          "audioMuted" : false,
                          "videoHidden" : false,
                          "magnetic" : false,
                          "matte" : 0,
                          "solo" : false,
                          "metadata" : {
                            "IsLocked" : "False",
                            "WinTrackHeight" : "56"
                          }
                      },
                      {
                        "trackIndex" : 14,
                        "medias" : [
                          {
                            "id" : 163,
                            "_type" : "IMFile",
                            "src" : 11,
                            "trackNumber" : 0,
                            "trimStartSum" : 0,
                            "attributes" : {
                              "ident" : "laptop"
                            },
                            "parameters" : {
                              "translation0" : 68.2500000000002,
                              "translation1" : 22.6798245614034,
                              "scale0" : 1.48148148148148,
                              "scale1" : 1.48148148148148,
                              "sourceCrop0" : 0.0,
                              "sourceCrop1" : 0.0,
                              "sourceCrop2" : 0.0,
                              "sourceCrop3" : 0.0,
                              "geometryCrop0" : 0.0,
                              "geometryCrop1" : 0.0,
                              "geometryCrop2" : 0.0,
                              "geometryCrop3" : 0.0
                            },
                            "effects" : [

                            ],
                            "start" : 0,
                            "duration" : 345,
                            "mediaStart" : 0,
                            "mediaDuration" : 1,
                            "scalar" : 1,
                            "metadata" : {
                              "clipSpeedAttribute" : false,
                              "default-height" : 45.0,
                              "default-scale0" : 1.0,
                              "default-scale1" : 1.0,
                              "default-translation0" : -0.5,
                              "default-translation1" : -0.5,
                              "default-width" : 67.0
                            },
                            "animationTracks" : {

                            }
                          }
                        ],
                          "ident" : "",
                          "audioMuted" : false,
                          "videoHidden" : false,
                          "magnetic" : false,
                          "matte" : 0,
                          "solo" : false,
                          "metadata" : {
                            "IsLocked" : "False",
                            "WinTrackHeight" : "56"
                          }
                      },
                      {
                        "trackIndex" : 15,
                        "medias" : [
                          {
                            "id" : 164,
                            "_type" : "IMFile",
                            "src" : 11,
                            "trackNumber" : 0,
                            "trimStartSum" : 0,
                            "attributes" : {
                              "ident" : "laptop"
                            },
                            "parameters" : {
                              "translation0" : 167.509259259259,
                              "translation1" : 202.083333333333,
                              "scale0" : 1.48148148148148,
                              "scale1" : 1.48148148148148,
                              "sourceCrop0" : 0.0,
                              "sourceCrop1" : 0.0,
                              "sourceCrop2" : 0.0,
                              "sourceCrop3" : 0.0,
                              "geometryCrop0" : 0.0,
                              "geometryCrop1" : 0.0,
                              "geometryCrop2" : 0.0,
                              "geometryCrop3" : 0.0
                            },
                            "effects" : [

                            ],
                            "start" : 0,
                            "duration" : 345,
                            "mediaStart" : 0,
                            "mediaDuration" : 1,
                            "scalar" : 1,
                            "metadata" : {
                              "clipSpeedAttribute" : false,
                              "default-height" : 45.0,
                              "default-scale0" : 1.0,
                              "default-scale1" : 1.0,
                              "default-translation0" : -0.5,
                              "default-translation1" : -0.5,
                              "default-width" : 67.0
                            },
                            "animationTracks" : {

                            }
                          }
                        ],
                          "ident" : "",
                          "audioMuted" : false,
                          "videoHidden" : false,
                          "magnetic" : false,
                          "matte" : 0,
                          "solo" : false,
                          "metadata" : {
                            "IsLocked" : "False",
                            "WinTrackHeight" : "56"
                          }
                      },
                      {
                        "trackIndex" : 16,
                        "medias" : [
                          {
                            "id" : 165,
                            "_type" : "IMFile",
                            "src" : 11,
                            "trackNumber" : 0,
                            "trimStartSum" : 0,
                            "attributes" : {
                              "ident" : "laptop"
                            },
                            "parameters" : {
                              "translation0" : -207.324074074074,
                              "translation1" : -244.583333333333,
                              "scale0" : 1.48148148148148,
                              "scale1" : 1.48148148148148,
                              "sourceCrop0" : 0.0,
                              "sourceCrop1" : 0.0,
                              "sourceCrop2" : 0.0,
                              "sourceCrop3" : 0.0,
                              "geometryCrop0" : 0.0,
                              "geometryCrop1" : 0.0,
                              "geometryCrop2" : 0.0,
                              "geometryCrop3" : 0.0
                            },
                            "effects" : [

                            ],
                            "start" : 0,
                            "duration" : 345,
                            "mediaStart" : 0,
                            "mediaDuration" : 1,
                            "scalar" : 1,
                            "metadata" : {
                              "clipSpeedAttribute" : false,
                              "default-height" : 45.0,
                              "default-scale0" : 1.0,
                              "default-scale1" : 1.0,
                              "default-translation0" : -0.5,
                              "default-translation1" : -0.5,
                              "default-width" : 67.0
                            },
                            "animationTracks" : {

                            }
                          }
                        ],
                          "ident" : "",
                          "audioMuted" : false,
                          "videoHidden" : false,
                          "magnetic" : false,
                          "matte" : 0,
                          "solo" : false,
                          "metadata" : {
                            "IsLocked" : "False",
                            "WinTrackHeight" : "56"
                          }
                      },
                      {
                        "trackIndex" : 17,
                        "medias" : [
                          {
                            "id" : 166,
                            "_type" : "IMFile",
                            "src" : 11,
                            "trackNumber" : 0,
                            "trimStartSum" : 0,
                            "attributes" : {
                              "ident" : "laptop"
                            },
                            "parameters" : {
                              "translation0" : -63.2685185185183,
                              "translation1" : 22.6798245614034,
                              "scale0" : 1.48148148148148,
                              "scale1" : 1.48148148148148,
                              "sourceCrop0" : 0.0,
                              "sourceCrop1" : 0.0,
                              "sourceCrop2" : 0.0,
                              "sourceCrop3" : 0.0,
                              "geometryCrop0" : 0.0,
                              "geometryCrop1" : 0.0,
                              "geometryCrop2" : 0.0,
                              "geometryCrop3" : 0.0
                            },
                            "effects" : [

                            ],
                            "start" : 0,
                            "duration" : 345,
                            "mediaStart" : 0,
                            "mediaDuration" : 1,
                            "scalar" : 1,
                            "metadata" : {
                              "clipSpeedAttribute" : false,
                              "default-height" : 45.0,
                              "default-scale0" : 1.0,
                              "default-scale1" : 1.0,
                              "default-translation0" : -0.5,
                              "default-translation1" : -0.5,
                              "default-width" : 67.0
                            },
                            "animationTracks" : {

                            }
                          }
                        ],
                          "ident" : "",
                          "audioMuted" : false,
                          "videoHidden" : false,
                          "magnetic" : false,
                          "matte" : 0,
                          "solo" : false,
                          "metadata" : {
                            "IsLocked" : "False",
                            "WinTrackHeight" : "56"
                          }
                      },
                      {
                        "trackIndex" : 18,
                        "medias" : [
                          {
                            "id" : 167,
                            "_type" : "IMFile",
                            "src" : 11,
                            "trackNumber" : 0,
                            "trimStartSum" : 0,
                            "attributes" : {
                              "ident" : "laptop"
                            },
                            "parameters" : {
                              "translation0" : -496.583333333334,
                              "translation1" : 35.4166666666665,
                              "scale0" : 1.48148148148148,
                              "scale1" : 1.48148148148148,
                              "sourceCrop0" : 0.0,
                              "sourceCrop1" : 0.0,
                              "sourceCrop2" : 0.0,
                              "sourceCrop3" : 0.0,
                              "geometryCrop0" : 0.0,
                              "geometryCrop1" : 0.0,
                              "geometryCrop2" : 0.0,
                              "geometryCrop3" : 0.0
                            },
                            "effects" : [

                            ],
                            "start" : 0,
                            "duration" : 345,
                            "mediaStart" : 0,
                            "mediaDuration" : 1,
                            "scalar" : 1,
                            "metadata" : {
                              "clipSpeedAttribute" : false,
                              "default-height" : 45.0,
                              "default-scale0" : 1.0,
                              "default-scale1" : 1.0,
                              "default-translation0" : -0.5,
                              "default-translation1" : -0.5,
                              "default-width" : 67.0
                            },
                            "animationTracks" : {

                            }
                          }
                        ],
                          "ident" : "",
                          "audioMuted" : false,
                          "videoHidden" : false,
                          "magnetic" : false,
                          "matte" : 0,
                          "solo" : false,
                          "metadata" : {
                            "IsLocked" : "False",
                            "WinTrackHeight" : "56"
                          }
                      },
                      {
                        "trackIndex" : 19,
                        "medias" : [
                          {
                            "id" : 168,
                            "_type" : "IMFile",
                            "src" : 11,
                            "trackNumber" : 0,
                            "trimStartSum" : 0,
                            "attributes" : {
                              "ident" : "laptop"
                            },
                            "parameters" : {
                              "translation0" : -405.842592592593,
                              "translation1" : 311.25,
                              "scale0" : 1.48148148148148,
                              "scale1" : 1.48148148148148,
                              "sourceCrop0" : 0.0,
                              "sourceCrop1" : 0.0,
                              "sourceCrop2" : 0.0,
                              "sourceCrop3" : 0.0,
                              "geometryCrop0" : 0.0,
                              "geometryCrop1" : 0.0,
                              "geometryCrop2" : 0.0,
                              "geometryCrop3" : 0.0
                            },
                            "effects" : [

                            ],
                            "start" : 0,
                            "duration" : 345,
                            "mediaStart" : 0,
                            "mediaDuration" : 1,
                            "scalar" : 1,
                            "metadata" : {
                              "clipSpeedAttribute" : false,
                              "default-height" : 45.0,
                              "default-scale0" : 1.0,
                              "default-scale1" : 1.0,
                              "default-translation0" : -0.5,
                              "default-translation1" : -0.5,
                              "default-width" : 67.0
                            },
                            "animationTracks" : {

                            }
                          }
                        ],
                          "ident" : "",
                          "audioMuted" : false,
                          "videoHidden" : false,
                          "magnetic" : false,
                          "matte" : 0,
                          "solo" : false,
                          "metadata" : {
                            "IsLocked" : "False",
                            "WinTrackHeight" : "56"
                          }
                      }
                    ],
                    "attributes" : {
                      "ident" : "ring-devices",
                      "widthAttr" : 1092.0,
                      "heightAttr" : 689.0,
                      "gain" : 1.0,
                      "mixToMono" : false,
                      "assetProperties" : [
                      ]
                    },
                    "effects" : [

                    ],
                    "start" : 674,
                    "duration" : 345,
                    "mediaStart" : 0.0,
                    "mediaDuration" : 345.0,
                    "scalar" : 1,
                    "metadata" : {
                      "clipSpeedAttribute" : false
                    },
                    "animationTracks" : {

                    }
                  },
                  {
                    "id" : 169,
                    "_type" : "Callout",
                    "def" : {
                      "kind" : "remix",
                      "shape" : "text-rectangle",
                      "style" : "basic",
                      "enable-ligatures" : 1.0,
                      "fill-color-blue" : 1.0,
                      "fill-color-green" : 1.0,
                      "fill-color-opacity" : 0.0,
                      "fill-color-red" : 1.0,
                      "height" : 128.1152920719,
                      "line-spacing" : 0.0,
                      "stroke-color-blue" : 0.56078431372549,
                      "stroke-color-green" : 0.686274509803922,
                      "stroke-color-opacity" : 0.0,
                      "stroke-color-red" : 0.0196078431372549,
                      "stroke-width" : 2.0,
                      "tail-x" : -139.942760942761,
                      "tail-y" : -48.2149122807017,
                      "width" : 96.0,
                      "word-wrap" : 1.0,
                      "fill-style" : "solid",
                      "horizontal-alignment" : "center",
                      "resize-behavior" : "resizeText",
                      "stroke-style" : "solid",
                      "text" : "1%",
                      "vertical-alignment" : "center",
                      "font" : {
                        "color-blue" : 0.266666666666667,
                        "color-green" : 0.231372549019608,
                        "color-opacity" : 1.0,
                        "color-red" : 0.184313725490196,
                        "size" : 64.0,
                        "tracking" : 0.0,
                        "name" : "Montserrat",
                        "weight" : "Regular"
                      },
                      "textAttributes" : {
                        "type" : "textAttributeList",
                        "keyframes" : [
                          {
                            "endTime" : 0,
                            "time" : 0,
                            "value" : [{"name":"fontItalic","rangeEnd":2,"rangeStart":0,"value":0,"valueType":"int"},{"name":"fontName","rangeEnd":2,"rangeStart":0,"value":"Faktum","valueType":"string"},{"name":"fontSize","rangeEnd":2,"rangeStart":0,"value":75,"valueType":"double"},{"name":"kerning","rangeEnd":2,"rangeStart":0,"value":0,"valueType":"double"},{"name":"underline","rangeEnd":2,"rangeStart":0,"value":0,"valueType":"int"},{"name":"strikethrough","rangeEnd":2,"rangeStart":0,"value":0,"valueType":"int"},{"name":"fgColor","rangeEnd":2,"rangeStart":0,"value":"(254,5,5,255)","valueType":"color"},{"name":"fontWeight","rangeEnd":2,"rangeStart":0,"value":400,"valueType":"int"}],
                            "duration" : 0
                          }
                        ]
                      }
                    },
                    "attributes" : {
                      "autoRotateText" : true
                    },
                    "parameters" : {
                      "translation0" : -35.0572395324707,
                      "translation1" : 25.0,
                      "sourceCrop0" : 0.0,
                      "sourceCrop1" : 0.0,
                      "sourceCrop2" : 0.0,
                      "sourceCrop3" : 0.0,
                      "geometryCrop0" : 0.0,
                      "geometryCrop1" : 0.0,
                      "geometryCrop2" : 0.0,
                      "geometryCrop3" : 0.0
                    },
                    "effects" : [

                    ],
                    "start" : 1847,
                    "duration" : 917,
                    "mediaStart" : 0,
                    "mediaDuration" : 917,
                    "scalar" : 1,
                    "metadata" : {
                      "clipSpeedAttribute" : false,
                      "default-HAlign" : "center",
                      "default-LineSpace" : 0.0,
                      "default-VAlign" : "center",
                      "default-fill-color-opacity" : 1.0,
                      "default-height" : 176.0,
                      "default-stroke-color-opacity" : 1.0,
                      "default-translation0" : 0.0,
                      "default-translation1" : 0.0,
                      "default-width" : 376.0
                    },
                    "animationTracks" : {

                    }
                  },
                  {
                    "id" : 170,
                    "_type" : "Callout",
                    "def" : {
                      "kind" : "remix",
                      "shape" : "text-rectangle",
                      "style" : "basic",
                      "enable-ligatures" : 1.0,
                      "fill-color-blue" : 1.0,
                      "fill-color-green" : 1.0,
                      "fill-color-opacity" : 0.0,
                      "fill-color-red" : 1.0,
                      "height" : 202.0,
                      "line-spacing" : 0.0,
                      "stroke-color-blue" : 0.890196078431372,
                      "stroke-color-green" : 0.870588235294118,
                      "stroke-color-opacity" : 0.0,
                      "stroke-color-red" : 0.847058823529412,
                      "stroke-width" : 0.0,
                      "tail-x" : -422.422923402878,
                      "tail-y" : -20.0,
                      "width" : 1658.81528027084,
                      "word-wrap" : 1.0,
                      "fill-style" : "solid",
                      "horizontal-alignment" : "left",
                      "resize-behavior" : "resizeText",
                      "stroke-style" : "solid",
                      "text" : "Must have applications you want to patch",
                      "vertical-alignment" : "center",
                      "font" : {
                        "color-blue" : 0.266666666666667,
                        "color-green" : 0.231372549019608,
                        "color-opacity" : 1.0,
                        "color-red" : 0.184313725490196,
                        "size" : 64.0,
                        "tracking" : 0.0,
                        "name" : "Montserrat",
                        "weight" : "Regular"
                      },
                      "textAttributes" : {
                        "type" : "textAttributeList",
                        "keyframes" : [
                          {
                            "endTime" : 0,
                            "time" : 0,
                            "value" : [{"name":"fontItalic","rangeEnd":40,"rangeStart":0,"value":0,"valueType":"int"},{"name":"strikethrough","rangeEnd":40,"rangeStart":0,"value":0,"valueType":"int"},{"name":"fontSize","rangeEnd":40,"rangeStart":0,"value":75,"valueType":"double"},{"name":"fontWeight","rangeEnd":40,"rangeStart":0,"value":400,"valueType":"int"},{"name":"underline","rangeEnd":40,"rangeStart":0,"value":0,"valueType":"int"},{"name":"kerning","rangeEnd":40,"rangeStart":0,"value":0,"valueType":"double"},{"name":"fontName","rangeEnd":40,"rangeStart":0,"value":"???????","valueType":"string"},{"name":"fgColor","rangeEnd":40,"rangeStart":0,"value":"(35,40,47,255)","valueType":"color"}],
                            "duration" : 0
                          }
                        ]
                      }
                    },
                    "attributes" : {
                      "autoRotateText" : true
                    },
                    "parameters" : {
                      "translation0" : 117.504823484779,
                      "translation1" : 71.337674567176,
                      "sourceCrop0" : 0.0,
                      "sourceCrop1" : 0.0,
                      "sourceCrop2" : 0.0,
                      "sourceCrop3" : 0.0,
                      "geometryCrop0" : 0.0,
                      "geometryCrop1" : 0.0,
                      "geometryCrop2" : 0.0,
                      "geometryCrop3" : 0.0
                    },
                    "effects" : [

                    ],
                    "start" : 3104,
                    "duration" : 406,
                    "mediaStart" : 58,
                    "mediaDuration" : 406,
                    "scalar" : 1,
                    "metadata" : {
                      "clipSpeedAttribute" : false,
                      "default-HAlign" : "center",
                      "default-LineSpace" : 0.0,
                      "default-VAlign" : "center",
                      "default-fill-color-opacity" : 1.0,
                      "default-height" : 176.0,
                      "default-stroke-color-blue" : 0.56078431372549,
                      "default-stroke-color-green" : 0.686274509803922,
                      "default-stroke-color-opacity" : 1.0,
                      "default-stroke-color-red" : 0.0196078431372549,
                      "default-stroke-width" : 2.0,
                      "default-text-attributes" : "[{\"name\":\"fgColor\",\"rangeEnd\":23,\"rangeStart\":0,\"value\":\"(47,59,68,255)\",\"valueType\":\"color\"},{\"name\":\"underline\",\"rangeEnd\":23,\"rangeStart\":0,\"value\":0,\"valueType\":\"int\"},{\"name\":\"strikethrough\",\"rangeEnd\":23,\"rangeStart\":0,\"value\":0,\"valueType\":\"int\"},{\"name\":\"fontWeight\",\"rangeEnd\":23,\"rangeStart\":0,\"value\":400,\"valueType\":\"int\"},{\"name\":\"fontItalic\",\"rangeEnd\":23,\"rangeStart\":0,\"value\":0,\"valueType\":\"int\"},{\"name\":\"fontName\",\"rangeEnd\":23,\"rangeStart\":0,\"value\":\"Faktum Medium\",\"valueType\":\"string\"},{\"name\":\"kerning\",\"rangeEnd\":23,\"rangeStart\":0,\"value\":0,\"valueType\":\"double\"},{\"name\":\"fontSize\",\"rangeEnd\":23,\"rangeStart\":0,\"value\":80,\"valueType\":\"double\"}]",
                      "default-translation0" : 0.0,
                      "default-translation1" : 0.0,
                      "default-width" : 376.0
                    },
                    "animationTracks" : {

                    }
                  },
                  {
                    "id" : 171,
                    "_type" : "Callout",
                    "def" : {
                      "kind" : "remix",
                      "shape" : "text-rectangle",
                      "style" : "basic",
                      "enable-ligatures" : 1.0,
                      "fill-color-blue" : 1.0,
                      "fill-color-green" : 1.0,
                      "fill-color-opacity" : 0.0,
                      "fill-color-red" : 1.0,
                      "height" : 180.40350877193,
                      "line-spacing" : 0.0,
                      "stroke-color-blue" : 0.890196078431372,
                      "stroke-color-green" : 0.870588235294118,
                      "stroke-color-opacity" : 0.0,
                      "stroke-color-red" : 0.847058823529412,
                      "stroke-width" : 0.0,
                      "tail-x" : -1079.44046726253,
                      "tail-y" : 18.8903061461233,
                      "width" : 506.183701323471,
                      "word-wrap" : 1.0,
                      "fill-style" : "solid",
                      "horizontal-alignment" : "left",
                      "resize-behavior" : "resizeText",
                      "stroke-style" : "solid",
                      "text" : "Deployment to test begins...",
                      "vertical-alignment" : "center",
                      "font" : {
                        "color-blue" : 0.266666666666667,
                        "color-green" : 0.231372549019608,
                        "color-opacity" : 1.0,
                        "color-red" : 0.184313725490196,
                        "size" : 64.0,
                        "tracking" : 0.0,
                        "name" : "Montserrat",
                        "weight" : "Regular"
                      },
                      "textAttributes" : {
                        "type" : "textAttributeList",
                        "keyframes" : [
                          {
                            "endTime" : 0,
                            "time" : 0,
                            "value" : [{"name":"fontItalic","rangeEnd":28,"rangeStart":0,"value":0,"valueType":"int"},{"name":"fontName","rangeEnd":28,"rangeStart":0,"value":"Faktum Medium","valueType":"string"},{"name":"underline","rangeEnd":28,"rangeStart":0,"value":0,"valueType":"int"},{"name":"fontWeight","rangeEnd":28,"rangeStart":0,"value":400,"valueType":"int"},{"name":"fontSize","rangeEnd":28,"rangeStart":0,"value":65,"valueType":"double"},{"name":"kerning","rangeEnd":28,"rangeStart":0,"value":0,"valueType":"double"},{"name":"fgColor","rangeEnd":28,"rangeStart":0,"value":"(35,40,47,255)","valueType":"color"},{"name":"strikethrough","rangeEnd":28,"rangeStart":0,"value":0,"valueType":"int"}],
                            "duration" : 0
                          }
                        ]
                      }
                    },
                    "attributes" : {
                      "autoRotateText" : true
                    },
                    "parameters" : {
                      "translation0" : 539.67173447905,
                      "translation1" : -146.640348200212,
                      "sourceCrop0" : 0.0,
                      "sourceCrop1" : 0.0,
                      "sourceCrop2" : 0.0,
                      "sourceCrop3" : 0.0,
                      "geometryCrop0" : 0.0,
                      "geometryCrop1" : 0.0,
                      "geometryCrop2" : 0.0,
                      "geometryCrop3" : 0.0
                    },
                    "effects" : [

                    ],
                    "start" : 4238,
                    "duration" : 284,
                    "mediaStart" : 58,
                    "mediaDuration" : 284,
                    "scalar" : 1,
                    "metadata" : {
                      "clipSpeedAttribute" : false,
                      "default-HAlign" : "center",
                      "default-LineSpace" : 0.0,
                      "default-VAlign" : "center",
                      "default-fill-color-opacity" : 1.0,
                      "default-height" : 176.0,
                      "default-stroke-color-blue" : 0.56078431372549,
                      "default-stroke-color-green" : 0.686274509803922,
                      "default-stroke-color-opacity" : 1.0,
                      "default-stroke-color-red" : 0.0196078431372549,
                      "default-stroke-width" : 2.0,
                      "default-text-attributes" : "[{\"name\":\"fgColor\",\"rangeEnd\":23,\"rangeStart\":0,\"value\":\"(47,59,68,255)\",\"valueType\":\"color\"},{\"name\":\"underline\",\"rangeEnd\":23,\"rangeStart\":0,\"value\":0,\"valueType\":\"int\"},{\"name\":\"strikethrough\",\"rangeEnd\":23,\"rangeStart\":0,\"value\":0,\"valueType\":\"int\"},{\"name\":\"fontWeight\",\"rangeEnd\":23,\"rangeStart\":0,\"value\":400,\"valueType\":\"int\"},{\"name\":\"fontItalic\",\"rangeEnd\":23,\"rangeStart\":0,\"value\":0,\"valueType\":\"int\"},{\"name\":\"fontName\",\"rangeEnd\":23,\"rangeStart\":0,\"value\":\"Faktum Medium\",\"valueType\":\"string\"},{\"name\":\"kerning\",\"rangeEnd\":23,\"rangeStart\":0,\"value\":0,\"valueType\":\"double\"},{\"name\":\"fontSize\",\"rangeEnd\":23,\"rangeStart\":0,\"value\":80,\"valueType\":\"double\"}]",
                      "default-translation0" : 0.0,
                      "default-translation1" : 0.0,
                      "default-width" : 376.0
                    },
                    "animationTracks" : {

                    }
                  },
                  {
                    "id" : 172,
                    "_type" : "Callout",
                    "def" : {
                      "kind" : "remix",
                      "shape" : "arrow",
                      "style" : "urban",
                      "stroke-color-blue" : 0.184313725490196,
                      "stroke-color-green" : 0.156862745098039,
                      "stroke-color-opacity" : 1.0,
                      "stroke-color-red" : 0.137254901960784,
                      "stroke-width" : 8.0,
                      "tail-x" : {
                        "type" : "double",
                        "defaultValue" : -0.0872033023733252,
                        "interp" : "eioe"
                      },
                      "tail-y" : {
                        "type" : "double",
                        "defaultValue" : 77.1929824561403,
                        "interp" : "eioe"
                      },
                      "shape-anchor" : "rounded",
                      "shape-tail" : "rounded",
                      "stroke-style" : "solid"
                    },
                    "attributes" : {
                      "autoRotateText" : true
                    },
                    "parameters" : {
                      "translation0" : {
                        "type" : "double",
                        "defaultValue" : 60.5263157894736,
                        "keyframes" : [
                          {
                            "endTime" : 687,
                            "time" : 657,
                            "value" : 482.344497607655,
                            "duration" : 30
                          },
                          {
                            "endTime" : 776,
                            "time" : 746,
                            "value" : -141.291866028708,
                            "duration" : 30
                          },
                          {
                            "endTime" : 1043,
                            "time" : 1013,
                            "value" : 218.708133971292,
                            "duration" : 30
                          }
                        ]
                      },
                      "translation1" : {
                        "type" : "double",
                        "defaultValue" : 96.4912280701754,
                        "keyframes" : [
                          {
                            "endTime" : 687,
                            "time" : 657,
                            "value" : 96.4912280701754,
                            "duration" : 30
                          },
                          {
                            "endTime" : 776,
                            "time" : 746,
                            "value" : 96.4912280701754,
                            "duration" : 30
                          },
                          {
                            "endTime" : 1043,
                            "time" : 1013,
                            "value" : 96.4912280701754,
                            "duration" : 30
                          }
                        ]
                      },
                      "scale0" : {
                        "type" : "double",
                        "defaultValue" : 1.05263157894737,
                        "keyframes" : [
                          {
                            "endTime" : 687,
                            "time" : 657,
                            "value" : 1.05263157894737,
                            "duration" : 30
                          },
                          {
                            "endTime" : 776,
                            "time" : 746,
                            "value" : 1.05263157894737,
                            "duration" : 30
                          },
                          {
                            "endTime" : 1043,
                            "time" : 1013,
                            "value" : 1.05263157894737,
                            "duration" : 30
                          }
                        ]
                      },
                      "scale1" : {
                        "type" : "double",
                        "defaultValue" : 1.05263157894737,
                        "keyframes" : [
                          {
                            "endTime" : 687,
                            "time" : 657,
                            "value" : 1.05263157894737,
                            "duration" : 30
                          },
                          {
                            "endTime" : 776,
                            "time" : 746,
                            "value" : 1.05263157894737,
                            "duration" : 30
                          },
                          {
                            "endTime" : 1043,
                            "time" : 1013,
                            "value" : 1.05263157894737,
                            "duration" : 30
                          }
                        ]
                      },
                      "sourceCrop0" : 0.0,
                      "sourceCrop1" : 0.0,
                      "sourceCrop2" : 0.0,
                      "sourceCrop3" : 0.0,
                      "geometryCrop0" : 0.0,
                      "geometryCrop1" : 0.0,
                      "geometryCrop2" : 0.0,
                      "geometryCrop3" : 0.0
                    },
                    "effects" : [

                    ],
                    "start" : 4799,
                    "duration" : 1178,
                    "mediaStart" : 0,
                    "mediaDuration" : 1178,
                    "scalar" : 1,
                    "metadata" : {
                      "clipSpeedAttribute" : false,
                      "default-callout-shape-anchor" : "none",
                      "default-callout-shape-tail" : "arrow",
                      "default-height" : 40.0,
                      "default-scale0" : 1.0,
                      "default-scale1" : 1.0,
                      "default-stroke-color-blue" : 0.129411764705882,
                      "default-stroke-color-green" : 0.741176470588235,
                      "default-stroke-color-red" : 0.956862745098039,
                      "default-translation0" : 0.0,
                      "default-translation1" : 0.0,
                      "default-width" : 100.0
                    },
                    "animationTracks" : {
                      "visual" : [
                        {
                          "endTime" : 687,
                          "duration" : 30,
                          "range" : [ 657, 30]
                        },
                        {
                          "endTime" : 776,
                          "duration" : 30,
                          "range" : [ 746, 30]
                        },
                        {
                          "endTime" : 1043,
                          "duration" : 30,
                          "range" : [ 1013, 30]
                        }
                      ]
                    }
                  },
                  {
                    "id" : 173,
                    "_type" : "Callout",
                    "def" : {
                      "kind" : "remix",
                      "shape" : "text-rectangle",
                      "style" : "basic",
                      "enable-ligatures" : 1.0,
                      "fill-color-blue" : 1.0,
                      "fill-color-green" : 1.0,
                      "fill-color-opacity" : 0.0,
                      "fill-color-red" : 1.0,
                      "height" : 189.814992025518,
                      "line-spacing" : 0.0,
                      "stroke-color-blue" : 0.890196078431372,
                      "stroke-color-green" : 0.870588235294118,
                      "stroke-color-opacity" : 0.0,
                      "stroke-color-red" : 0.847058823529412,
                      "stroke-width" : 0.0,
                      "tail-x" : -816.585602828715,
                      "tail-y" : -26.0925039872408,
                      "width" : 271.702042631286,
                      "word-wrap" : 1.0,
                      "fill-style" : "solid",
                      "horizontal-alignment" : "left",
                      "resize-behavior" : "resizeText",
                      "stroke-style" : "solid",
                      "text" : "= 60%",
                      "vertical-alignment" : "center",
                      "font" : {
                        "color-blue" : 0.266666666666667,
                        "color-green" : 0.231372549019608,
                        "color-opacity" : 1.0,
                        "color-red" : 0.184313725490196,
                        "size" : 64.0,
                        "tracking" : 0.0,
                        "name" : "Montserrat",
                        "weight" : "Regular"
                      },
                      "textAttributes" : {
                        "type" : "textAttributeList",
                        "keyframes" : [
                          {
                            "endTime" : 0,
                            "time" : 0,
                            "value" : [{"name":"fontName","rangeEnd":5,"rangeStart":0,"value":"Faktum Medium","valueType":"string"},{"name":"fontItalic","rangeEnd":5,"rangeStart":0,"value":0,"valueType":"int"},{"name":"fontSize","rangeEnd":5,"rangeStart":0,"value":80,"valueType":"double"},{"name":"kerning","rangeEnd":5,"rangeStart":0,"value":0,"valueType":"double"},{"name":"fontWeight","rangeEnd":5,"rangeStart":0,"value":400,"valueType":"int"},{"name":"strikethrough","rangeEnd":5,"rangeStart":0,"value":0,"valueType":"int"},{"name":"underline","rangeEnd":5,"rangeStart":0,"value":0,"valueType":"int"},{"name":"fgColor","rangeEnd":5,"rangeStart":0,"value":"(35,40,47,255)","valueType":"color"}],
                            "duration" : 0
                          }
                        ]
                      }
                    },
                    "attributes" : {
                      "autoRotateText" : true
                    },
                    "parameters" : {
                      "translation0" : 658.060881935574,
                      "translation1" : 230.704503144926,
                      "sourceCrop0" : 0.0,
                      "sourceCrop1" : 0.0,
                      "sourceCrop2" : 0.0,
                      "sourceCrop3" : 0.0,
                      "geometryCrop0" : 0.0,
                      "geometryCrop1" : 0.0,
                      "geometryCrop2" : 0.0,
                      "geometryCrop3" : 0.0
                    },
                    "effects" : [

                    ],
                    "start" : 6264,
                    "duration" : 670,
                    "mediaStart" : 64,
                    "mediaDuration" : 670,
                    "scalar" : 1,
                    "metadata" : {
                      "clipSpeedAttribute" : false,
                      "default-HAlign" : "center",
                      "default-LineSpace" : 0.0,
                      "default-VAlign" : "center",
                      "default-fill-color-opacity" : 1.0,
                      "default-height" : 176.0,
                      "default-stroke-color-blue" : 0.56078431372549,
                      "default-stroke-color-green" : 0.686274509803922,
                      "default-stroke-color-opacity" : 1.0,
                      "default-stroke-color-red" : 0.0196078431372549,
                      "default-stroke-width" : 2.0,
                      "default-text-attributes" : "[{\"name\":\"fgColor\",\"rangeEnd\":23,\"rangeStart\":0,\"value\":\"(47,59,68,255)\",\"valueType\":\"color\"},{\"name\":\"underline\",\"rangeEnd\":23,\"rangeStart\":0,\"value\":0,\"valueType\":\"int\"},{\"name\":\"strikethrough\",\"rangeEnd\":23,\"rangeStart\":0,\"value\":0,\"valueType\":\"int\"},{\"name\":\"fontWeight\",\"rangeEnd\":23,\"rangeStart\":0,\"value\":400,\"valueType\":\"int\"},{\"name\":\"fontItalic\",\"rangeEnd\":23,\"rangeStart\":0,\"value\":0,\"valueType\":\"int\"},{\"name\":\"fontName\",\"rangeEnd\":23,\"rangeStart\":0,\"value\":\"Faktum Medium\",\"valueType\":\"string\"},{\"name\":\"kerning\",\"rangeEnd\":23,\"rangeStart\":0,\"value\":0,\"valueType\":\"double\"},{\"name\":\"fontSize\",\"rangeEnd\":23,\"rangeStart\":0,\"value\":80,\"valueType\":\"double\"}]",
                      "default-translation0" : 0.0,
                      "default-translation1" : 0.0,
                      "default-width" : 376.0
                    },
                    "animationTracks" : {

                    }
                  },
                  {
                    "id" : 174,
                    "_type" : "Callout",
                    "def" : {
                      "kind" : "remix",
                      "shape" : "text-rectangle",
                      "style" : "basic",
                      "enable-ligatures" : 1.0,
                      "fill-color-blue" : 1.0,
                      "fill-color-green" : 1.0,
                      "fill-color-opacity" : 0.0,
                      "fill-color-red" : 1.0,
                      "height" : 191.90191948722,
                      "line-spacing" : 0.0,
                      "stroke-color-blue" : 0.890196078431372,
                      "stroke-color-green" : 0.870588235294118,
                      "stroke-color-opacity" : 0.0,
                      "stroke-color-red" : 0.847058823529412,
                      "stroke-width" : 0.0,
                      "tail-x" : -632.949239192351,
                      "tail-y" : -26.0925039872408,
                      "width" : 646.0,
                      "word-wrap" : 1.0,
                      "fill-style" : "solid",
                      "horizontal-alignment" : "left",
                      "resize-behavior" : "resizeText",
                      "stroke-style" : "solid",
                      "text" : "Retrospective",
                      "vertical-alignment" : "center",
                      "font" : {
                        "color-blue" : 0.266666666666667,
                        "color-green" : 0.231372549019608,
                        "color-opacity" : 1.0,
                        "color-red" : 0.184313725490196,
                        "size" : 64.0,
                        "tracking" : 0.0,
                        "name" : "Montserrat",
                        "weight" : "Regular"
                      },
                      "textAttributes" : {
                        "type" : "textAttributeList",
                        "keyframes" : [
                          {
                            "endTime" : 0,
                            "time" : 0,
                            "value" : [{"name":"fgColor","rangeEnd":13,"rangeStart":0,"value":"(35,40,47,255)","valueType":"color"},{"name":"underline","rangeEnd":13,"rangeStart":0,"value":0,"valueType":"int"},{"name":"fontName","rangeEnd":13,"rangeStart":0,"value":"Faktum Medium","valueType":"string"},{"name":"fontSize","rangeEnd":13,"rangeStart":0,"value":100,"valueType":"double"},{"name":"fontItalic","rangeEnd":13,"rangeStart":0,"value":0,"valueType":"int"},{"name":"kerning","rangeEnd":13,"rangeStart":0,"value":0,"valueType":"double"},{"name":"fontWeight","rangeEnd":13,"rangeStart":0,"value":400,"valueType":"int"},{"name":"strikethrough","rangeEnd":13,"rangeStart":0,"value":0,"valueType":"int"}],
                            "duration" : 0
                          }
                        ]
                      }
                    },
                    "attributes" : {
                      "autoRotateText" : true
                    },
                    "parameters" : {
                      "translation0" : 518.060881935574,
                      "translation1" : 467.068139508562,
                      "sourceCrop0" : 0.0,
                      "sourceCrop1" : 0.0,
                      "sourceCrop2" : 0.0,
                      "sourceCrop3" : 0.0,
                      "geometryCrop0" : 0.0,
                      "geometryCrop1" : 0.0,
                      "geometryCrop2" : 0.0,
                      "geometryCrop3" : 0.0
                    },
                    "effects" : [

                    ],
                    "start" : 7043,
                    "duration" : 1086,
                    "mediaStart" : 162,
                    "mediaDuration" : 1086,
                    "scalar" : 1,
                    "metadata" : {
                      "clipSpeedAttribute" : false,
                      "default-HAlign" : "center",
                      "default-LineSpace" : 0.0,
                      "default-VAlign" : "center",
                      "default-fill-color-opacity" : 1.0,
                      "default-height" : 176.0,
                      "default-stroke-color-blue" : 0.56078431372549,
                      "default-stroke-color-green" : 0.686274509803922,
                      "default-stroke-color-opacity" : 1.0,
                      "default-stroke-color-red" : 0.0196078431372549,
                      "default-stroke-width" : 2.0,
                      "default-text-attributes" : "[{\"name\":\"fgColor\",\"rangeEnd\":23,\"rangeStart\":0,\"value\":\"(47,59,68,255)\",\"valueType\":\"color\"},{\"name\":\"underline\",\"rangeEnd\":23,\"rangeStart\":0,\"value\":0,\"valueType\":\"int\"},{\"name\":\"strikethrough\",\"rangeEnd\":23,\"rangeStart\":0,\"value\":0,\"valueType\":\"int\"},{\"name\":\"fontWeight\",\"rangeEnd\":23,\"rangeStart\":0,\"value\":400,\"valueType\":\"int\"},{\"name\":\"fontItalic\",\"rangeEnd\":23,\"rangeStart\":0,\"value\":0,\"valueType\":\"int\"},{\"name\":\"fontName\",\"rangeEnd\":23,\"rangeStart\":0,\"value\":\"Faktum Medium\",\"valueType\":\"string\"},{\"name\":\"kerning\",\"rangeEnd\":23,\"rangeStart\":0,\"value\":0,\"valueType\":\"double\"},{\"name\":\"fontSize\",\"rangeEnd\":23,\"rangeStart\":0,\"value\":80,\"valueType\":\"double\"}]",
                      "default-translation0" : 0.0,
                      "default-translation1" : 0.0,
                      "default-width" : 376.0
                    },
                    "animationTracks" : {

                    }
                  },
                  {
                    "id" : 175,
                    "_type" : "Callout",
                    "def" : {
                      "kind" : "remix",
                      "shape" : "text-rectangle",
                      "style" : "basic",
                      "enable-ligatures" : 1.0,
                      "fill-color-blue" : 1.0,
                      "fill-color-green" : 1.0,
                      "fill-color-opacity" : 0.0,
                      "fill-color-red" : 1.0,
                      "height" : 224.360446570973,
                      "line-spacing" : 0.0,
                      "stroke-color-blue" : 0.890196078431372,
                      "stroke-color-green" : 0.870588235294118,
                      "stroke-color-opacity" : 0.0,
                      "stroke-color-red" : 0.847058823529412,
                      "stroke-width" : 0.0,
                      "tail-x" : -245.578231821344,
                      "tail-y" : -8.81977671451352,
                      "width" : 1584.62587555512,
                      "word-wrap" : 1.0,
                      "fill-style" : "solid",
                      "horizontal-alignment" : "left",
                      "resize-behavior" : "resizeText",
                      "stroke-style" : "solid",
                      "text" : "Monitor the rollout and act",
                      "vertical-alignment" : "center",
                      "font" : {
                        "color-blue" : 0.266666666666667,
                        "color-green" : 0.231372549019608,
                        "color-opacity" : 1.0,
                        "color-red" : 0.184313725490196,
                        "size" : 64.0,
                        "tracking" : 0.0,
                        "name" : "Montserrat",
                        "weight" : "Regular"
                      },
                      "textAttributes" : {
                        "type" : "textAttributeList",
                        "keyframes" : [
                          {
                            "endTime" : 0,
                            "time" : 0,
                            "value" : [{"name":"underline","rangeEnd":27,"rangeStart":0,"value":0,"valueType":"int"},{"name":"strikethrough","rangeEnd":27,"rangeStart":0,"value":0,"valueType":"int"},{"name":"fontSize","rangeEnd":27,"rangeStart":0,"value":70,"valueType":"double"},{"name":"fontItalic","rangeEnd":27,"rangeStart":0,"value":0,"valueType":"int"},{"name":"fontName","rangeEnd":27,"rangeStart":0,"value":"???","valueType":"string"},{"name":"kerning","rangeEnd":27,"rangeStart":0,"value":0,"valueType":"double"},{"name":"fgColor","rangeEnd":27,"rangeStart":0,"value":"(35,40,47,255)","valueType":"color"},{"name":"fontWeight","rangeEnd":27,"rangeStart":0,"value":400,"valueType":"int"}],
                            "duration" : 0
                          }
                        ]
                      }
                    },
                    "attributes" : {
                      "autoRotateText" : true
                    },
                    "parameters" : {
                      "translation0" : 130.689874564567,
                      "translation1" : 73.3826358230584,
                      "sourceCrop0" : 0.0,
                      "sourceCrop1" : 0.0,
                      "sourceCrop2" : 0.0,
                      "sourceCrop3" : 0.0,
                      "geometryCrop0" : 0.0,
                      "geometryCrop1" : 0.0,
                      "geometryCrop2" : 0.0,
                      "geometryCrop3" : 0.0
                    },
                    "effects" : [

                    ],
                    "start" : 8320,
                    "duration" : 852,
                    "mediaStart" : 145,
                    "mediaDuration" : 852,
                    "scalar" : 1,
                    "metadata" : {
                      "clipSpeedAttribute" : false,
                      "default-HAlign" : "center",
                      "default-LineSpace" : 0.0,
                      "default-VAlign" : "center",
                      "default-fill-color-opacity" : 1.0,
                      "default-height" : 176.0,
                      "default-stroke-color-blue" : 0.56078431372549,
                      "default-stroke-color-green" : 0.686274509803922,
                      "default-stroke-color-opacity" : 1.0,
                      "default-stroke-color-red" : 0.0196078431372549,
                      "default-stroke-width" : 2.0,
                      "default-text-attributes" : "[{\"name\":\"fgColor\",\"rangeEnd\":23,\"rangeStart\":0,\"value\":\"(47,59,68,255)\",\"valueType\":\"color\"},{\"name\":\"underline\",\"rangeEnd\":23,\"rangeStart\":0,\"value\":0,\"valueType\":\"int\"},{\"name\":\"strikethrough\",\"rangeEnd\":23,\"rangeStart\":0,\"value\":0,\"valueType\":\"int\"},{\"name\":\"fontWeight\",\"rangeEnd\":23,\"rangeStart\":0,\"value\":400,\"valueType\":\"int\"},{\"name\":\"fontItalic\",\"rangeEnd\":23,\"rangeStart\":0,\"value\":0,\"valueType\":\"int\"},{\"name\":\"fontName\",\"rangeEnd\":23,\"rangeStart\":0,\"value\":\"Faktum Medium\",\"valueType\":\"string\"},{\"name\":\"kerning\",\"rangeEnd\":23,\"rangeStart\":0,\"value\":0,\"valueType\":\"double\"},{\"name\":\"fontSize\",\"rangeEnd\":23,\"rangeStart\":0,\"value\":80,\"valueType\":\"double\"}]",
                      "default-translation0" : 0.0,
                      "default-translation1" : 0.0,
                      "default-width" : 376.0
                    },
                    "animationTracks" : {

                    }
                  }
                ],
                "transitions" : [
                  {
                    "name" : "Fade",
                    "duration" : 30,
                    "trivial" : false,
                    "reverse" : false,
                    "bypass" : false,
                    "useAudioPreRoll" : true,
                    "useVisualPreRoll" : true,
                    "rightMedia" : 170
                  },
                  {
                    "name" : "Fade",
                    "duration" : 30,
                    "trivial" : false,
                    "reverse" : false,
                    "bypass" : false,
                    "useAudioPreRoll" : true,
                    "useVisualPreRoll" : true,
                    "rightMedia" : 171
                  },
                  {
                    "name" : "Fade",
                    "duration" : 30,
                    "trivial" : false,
                    "reverse" : false,
                    "bypass" : false,
                    "useAudioPreRoll" : true,
                    "useVisualPreRoll" : true,
                    "rightMedia" : 172
                  },
                  {
                    "name" : "Fade",
                    "duration" : 30,
                    "trivial" : false,
                    "reverse" : false,
                    "bypass" : false,
                    "useAudioPreRoll" : true,
                    "useVisualPreRoll" : true,
                    "rightMedia" : 173
                  },
                  {
                    "name" : "Fade",
                    "duration" : 30,
                    "trivial" : false,
                    "reverse" : false,
                    "bypass" : false,
                    "useAudioPreRoll" : true,
                    "useVisualPreRoll" : true,
                    "leftMedia" : 173
                  },
                  {
                    "name" : "Fade",
                    "duration" : 30,
                    "trivial" : false,
                    "reverse" : false,
                    "bypass" : false,
                    "useAudioPreRoll" : true,
                    "useVisualPreRoll" : true,
                    "rightMedia" : 174
                  },
                  {
                    "name" : "Fade",
                    "duration" : 30,
                    "trivial" : false,
                    "reverse" : false,
                    "bypass" : false,
                    "useAudioPreRoll" : true,
                    "useVisualPreRoll" : true,
                    "rightMedia" : 175
                  }
                ]
              },
              {
                "trackIndex" : 5,
                "medias" : [
                  {
                    "id" : 176,
                    "_type" : "Callout",
                    "def" : {
                      "kind" : "remix",
                      "shape" : "text-rectangle",
                      "style" : "basic",
                      "enable-ligatures" : {
                        "type" : "double",
                        "defaultValue" : 1.0,
                        "interp" : "linr"
                      },
                      "fill-color-blue" : {
                        "type" : "double",
                        "defaultValue" : 0.109803921568627,
                        "interp" : "linr",
                        "keyframes" : [
                          {
                            "endTime" : 74,
                            "time" : 0,
                            "value" : 1.0,
                            "duration" : 74
                          }
                        ]
                      },
                      "fill-color-green" : {
                        "type" : "double",
                        "defaultValue" : 0.109803921568627,
                        "interp" : "linr",
                        "keyframes" : [
                          {
                            "endTime" : 74,
                            "time" : 0,
                            "value" : 1.0,
                            "duration" : 74
                          }
                        ]
                      },
                      "fill-color-opacity" : {
                        "type" : "double",
                        "defaultValue" : 1.0,
                        "interp" : "linr"
                      },
                      "fill-color-red" : {
                        "type" : "double",
                        "defaultValue" : 0.96078431372549,
                        "interp" : "linr",
                        "keyframes" : [
                          {
                            "endTime" : 74,
                            "time" : 0,
                            "value" : 1.0,
                            "duration" : 74
                          }
                        ]
                      },
                      "height" : {
                        "type" : "double",
                        "defaultValue" : 1241.46737511424,
                        "interp" : "linr"
                      },
                      "line-spacing" : {
                        "type" : "double",
                        "defaultValue" : 0.0,
                        "interp" : "linr"
                      },
                      "stroke-color-blue" : {
                        "type" : "double",
                        "defaultValue" : 0.172549019607843,
                        "interp" : "linr",
                        "keyframes" : [
                          {
                            "endTime" : 74,
                            "time" : 0,
                            "value" : 0.419607843137255,
                            "duration" : 74
                          }
                        ]
                      },
                      "stroke-color-green" : {
                        "type" : "double",
                        "defaultValue" : 0.0627450980392157,
                        "interp" : "linr",
                        "keyframes" : [
                          {
                            "endTime" : 74,
                            "time" : 0,
                            "value" : 0.0392156862745098,
                            "duration" : 74
                          }
                        ]
                      },
                      "stroke-color-opacity" : {
                        "type" : "double",
                        "defaultValue" : 1.0,
                        "interp" : "linr",
                        "keyframes" : [
                          {
                            "endTime" : 74,
                            "time" : 0,
                            "value" : 1.0,
                            "duration" : 74
                          }
                        ]
                      },
                      "stroke-color-red" : {
                        "type" : "double",
                        "defaultValue" : 1.0,
                        "interp" : "linr",
                        "keyframes" : [
                          {
                            "endTime" : 74,
                            "time" : 0,
                            "value" : 0.937254901960784,
                            "duration" : 74
                          }
                        ]
                      },
                      "stroke-width" : {
                        "type" : "double",
                        "defaultValue" : 2.0,
                        "interp" : "linr",
                        "keyframes" : [
                          {
                            "endTime" : 74,
                            "time" : 0,
                            "value" : 2.0,
                            "duration" : 74
                          }
                        ]
                      },
                      "tail-x" : {
                        "type" : "double",
                        "defaultValue" : -3.44827586206901,
                        "interp" : "linr"
                      },
                      "tail-y" : {
                        "type" : "double",
                        "defaultValue" : 37.7145883049484,
                        "interp" : "linr"
                      },
                      "width" : {
                        "type" : "double",
                        "defaultValue" : 2022.41379310345,
                        "interp" : "linr"
                      },
                      "word-wrap" : {
                        "type" : "double",
                        "defaultValue" : 1.0,
                        "interp" : "linr"
                      },
                      "fill-style" : "gradient",
                      "horizontal-alignment" : "center",
                      "resize-behavior" : "resizeText",
                      "stroke-style" : "solid",
                      "text" : "",
                      "vertical-alignment" : "center",
                      "font" : {
                        "color-blue" : {
                          "type" : "double",
                          "defaultValue" : 0.266666666666667,
                          "interp" : "linr"
                        },
                        "color-green" : {
                          "type" : "double",
                          "defaultValue" : 0.231372549019608,
                          "interp" : "linr"
                        },
                        "color-opacity" : {
                          "type" : "double",
                          "defaultValue" : 1.0,
                          "interp" : "linr"
                        },
                        "color-red" : {
                          "type" : "double",
                          "defaultValue" : 0.184313725490196,
                          "interp" : "linr"
                        },
                        "size" : {
                          "type" : "double",
                          "defaultValue" : 64.0,
                          "interp" : "linr"
                        },
                        "tracking" : {
                          "type" : "double",
                          "defaultValue" : 0.0,
                          "interp" : "linr"
                        },
                        "name" : "Montserrat",
                        "weight" : "Regular"
                      },
                      "textAttributes" : {
                        "type" : "textAttributeList",
                        "keyframes" : [
                          {
                            "endTime" : 0,
                            "time" : 0,
                            "value" : [{"name":"underline","rangeEnd":1,"rangeStart":0,"value":0,"valueType":"int"},{"name":"fontSize","rangeEnd":1,"rangeStart":0,"value":64,"valueType":"double"},{"name":"fontName","rangeEnd":1,"rangeStart":0,"value":"Montserrat","valueType":"string"},{"name":"fontItalic","rangeEnd":1,"rangeStart":0,"value":0,"valueType":"int"},{"name":"fontWeight","rangeEnd":1,"rangeStart":0,"value":400,"valueType":"int"},{"name":"kerning","rangeEnd":1,"rangeStart":0,"value":0,"valueType":"double"},{"name":"fgColor","rangeEnd":1,"rangeStart":0,"value":"(47,59,68,255)","valueType":"color"},{"name":"strikethrough","rangeEnd":1,"rangeStart":0,"value":0,"valueType":"int"}],
                            "duration" : 0
                          }
                        ]
                      }
                    },
                    "attributes" : {
                      "autoRotateText" : true
                    },
                    "parameters" : {
                      "translation0" : {
                        "type" : "double",
                        "defaultValue" : -2006.89655172414,
                        "interp" : "eioe",
                        "keyframes" : [
                          {
                            "endTime" : 74,
                            "time" : 0,
                            "value" : 2050.0,
                            "duration" : 74
                          }
                        ]
                      },
                      "translation1" : {
                        "type" : "double",
                        "defaultValue" : -57.7146043611094,
                        "interp" : "eioe",
                        "keyframes" : [
                          {
                            "endTime" : 74,
                            "time" : 0,
                            "value" : -1.59872115546023e-14,
                            "duration" : 74
                          }
                        ]
                      },
                      "sourceCrop0" : {
                        "type" : "double",
                        "defaultValue" : 0.0,
                        "interp" : "eioe"
                      },
                      "sourceCrop1" : {
                        "type" : "double",
                        "defaultValue" : 0.0,
                        "interp" : "eioe"
                      },
                      "sourceCrop2" : {
                        "type" : "double",
                        "defaultValue" : 0.0,
                        "interp" : "eioe"
                      },
                      "sourceCrop3" : {
                        "type" : "double",
                        "defaultValue" : 0.0,
                        "interp" : "eioe"
                      },
                      "geometryCrop0" : {
                        "type" : "double",
                        "defaultValue" : 0.0,
                        "interp" : "eioe"
                      },
                      "geometryCrop1" : {
                        "type" : "double",
                        "defaultValue" : 0.0,
                        "interp" : "eioe"
                      },
                      "geometryCrop2" : {
                        "type" : "double",
                        "defaultValue" : 0.0,
                        "interp" : "eioe"
                      },
                      "geometryCrop3" : {
                        "type" : "double",
                        "defaultValue" : 0.0,
                        "interp" : "eioe"
                      }
                    },
                    "effects" : [

                    ],
                    "start" : 642,
                    "duration" : 75,
                    "mediaStart" : 0,
                    "mediaDuration" : 75,
                    "scalar" : 1,
                    "metadata" : {
                      "clipSpeedAttribute" : false,
                      "default-HAlign" : "center",
                      "default-LineSpace" : 0.0,
                      "default-VAlign" : "center",
                      "default-callout-stroke-style" : "solid",
                      "default-fill-color-blue" : 1.0,
                      "default-fill-color-green" : 1.0,
                      "default-fill-color-red" : 1.0,
                      "default-fill-style" : "solid",
                      "default-height" : 1268.0,
                      "default-stroke-color-blue" : 0.56078431372549,
                      "default-stroke-color-green" : 0.686274509803922,
                      "default-stroke-color-opacity" : 1.0,
                      "default-stroke-color-red" : 0.0196078431372549,
                      "default-stroke-width" : 2.0,
                      "default-translation0" : 0.0,
                      "default-translation1" : 0.0,
                      "default-width" : 2049.0
                    },
                    "animationTracks" : {
                      "visual" : [
                        {
                          "endTime" : 74,
                          "duration" : 74,
                          "range" : [ 0, 74]
                        }
                      ]
                    }
                  },
                  {
                    "id" : 177,
                    "_type" : "Group",
                    "parameters" : {
                      "translation0" : 37.3367446393765,
                      "translation1" : 21.5482456140349,
                      "sourceCrop0" : 0.0,
                      "sourceCrop1" : 0.0,
                      "sourceCrop2" : 0.0,
                      "sourceCrop3" : 0.0,
                      "geometryCrop0" : 0.0,
                      "geometryCrop1" : 0.0,
                      "geometryCrop2" : 0.0,
                      "geometryCrop3" : 0.0,
                      "volume" : 1.0
                    },
                    "tracks" : [
                      {
                        "trackIndex" : 0,
                        "medias" : [
                          {
                            "id" : 178,
                            "_type" : "IMFile",
                            "src" : 13,
                            "trackNumber" : 0,
                            "trimStartSum" : -10,
                            "attributes" : {
                              "ident" : "patch-trans"
                            },
                            "parameters" : {
                              "translation0" : 61.922514619883,
                              "translation1" : -49.8815789473684,
                              "scale0" : 0.354166666666668,
                              "scale1" : 0.354166666666668,
                              "sourceCrop0" : 0.0,
                              "sourceCrop1" : 0.0,
                              "sourceCrop2" : 0.0,
                              "sourceCrop3" : 0.0,
                              "geometryCrop0" : 0.0,
                              "geometryCrop1" : 0.0,
                              "geometryCrop2" : 0.0,
                              "geometryCrop3" : 0.0
                            },
                            "effects" : [

                            ],
                            "start" : 0,
                            "duration" : 255,
                            "mediaStart" : 0,
                            "mediaDuration" : 1,
                            "scalar" : 1,
                            "metadata" : {
                              "clipSpeedAttribute" : false,
                              "default-height" : 160.0,
                              "default-scale0" : 1.0,
                              "default-scale1" : 1.0,
                              "default-translation0" : 0.0,
                              "default-translation1" : 0.0,
                              "default-width" : 184.0
                            },
                            "animationTracks" : {

                            }
                          }
                        ],
                          "ident" : "",
                          "audioMuted" : false,
                          "videoHidden" : false,
                          "magnetic" : false,
                          "matte" : 0,
                          "solo" : false,
                          "metadata" : {
                            "IsLocked" : "False",
                            "WinTrackHeight" : "56"
                          }
                      },
                      {
                        "trackIndex" : 1,
                        "medias" : [
                          {
                            "id" : 179,
                            "_type" : "IMFile",
                            "src" : 13,
                            "trackNumber" : 0,
                            "trimStartSum" : -10,
                            "attributes" : {
                              "ident" : "patch-trans"
                            },
                            "parameters" : {
                              "translation0" : -69.9200779727098,
                              "translation1" : 49.8815789473684,
                              "scale0" : 0.354166666666668,
                              "scale1" : 0.354166666666668,
                              "sourceCrop0" : 0.0,
                              "sourceCrop1" : 0.0,
                              "sourceCrop2" : 0.0,
                              "sourceCrop3" : 0.0,
                              "geometryCrop0" : 0.0,
                              "geometryCrop1" : 0.0,
                              "geometryCrop2" : 0.0,
                              "geometryCrop3" : 0.0
                            },
                            "effects" : [

                            ],
                            "start" : 0,
                            "duration" : 255,
                            "mediaStart" : 0,
                            "mediaDuration" : 1,
                            "scalar" : 1,
                            "metadata" : {
                              "clipSpeedAttribute" : false,
                              "default-height" : 160.0,
                              "default-scale0" : 1.0,
                              "default-scale1" : 1.0,
                              "default-translation0" : 0.0,
                              "default-translation1" : 0.0,
                              "default-width" : 184.0
                            },
                            "animationTracks" : {

                            }
                          }
                        ],
                          "ident" : "",
                          "audioMuted" : false,
                          "videoHidden" : false,
                          "magnetic" : false,
                          "matte" : 0,
                          "solo" : false,
                          "metadata" : {
                            "IsLocked" : "False",
                            "WinTrackHeight" : "56"
                          }
                      },
                      {
                        "trackIndex" : 2,
                        "medias" : [
                          {
                            "id" : 180,
                            "_type" : "IMFile",
                            "src" : 13,
                            "trackNumber" : 0,
                            "trimStartSum" : -10,
                            "attributes" : {
                              "ident" : "patch-trans"
                            },
                            "parameters" : {
                              "translation0" : 69.9200779727099,
                              "translation1" : 49.8815789473684,
                              "scale0" : 0.354166666666668,
                              "scale1" : 0.354166666666668,
                              "sourceCrop0" : 0.0,
                              "sourceCrop1" : 0.0,
                              "sourceCrop2" : 0.0,
                              "sourceCrop3" : 0.0,
                              "geometryCrop0" : 0.0,
                              "geometryCrop1" : 0.0,
                              "geometryCrop2" : 0.0,
                              "geometryCrop3" : 0.0
                            },
                            "effects" : [

                            ],
                            "start" : 0,
                            "duration" : 255,
                            "mediaStart" : 0,
                            "mediaDuration" : 1,
                            "scalar" : 1,
                            "metadata" : {
                              "clipSpeedAttribute" : false,
                              "default-height" : 160.0,
                              "default-scale0" : 1.0,
                              "default-scale1" : 1.0,
                              "default-translation0" : 0.0,
                              "default-translation1" : 0.0,
                              "default-width" : 184.0
                            },
                            "animationTracks" : {

                            }
                          }
                        ],
                          "ident" : "",
                          "audioMuted" : false,
                          "videoHidden" : false,
                          "magnetic" : false,
                          "matte" : 0,
                          "solo" : false,
                          "metadata" : {
                            "IsLocked" : "False",
                            "WinTrackHeight" : "56"
                          }
                      },
                      {
                        "trackIndex" : 3,
                        "medias" : [
                          {
                            "id" : 181,
                            "_type" : "IMFile",
                            "src" : 13,
                            "trackNumber" : 0,
                            "trimStartSum" : -10,
                            "attributes" : {
                              "ident" : "patch-trans"
                            },
                            "parameters" : {
                              "translation0" : -69.9200779727099,
                              "translation1" : -49.2850877192981,
                              "scale0" : 0.354166666666668,
                              "scale1" : 0.354166666666668,
                              "sourceCrop0" : 0.0,
                              "sourceCrop1" : 0.0,
                              "sourceCrop2" : 0.0,
                              "sourceCrop3" : 0.0,
                              "geometryCrop0" : 0.0,
                              "geometryCrop1" : 0.0,
                              "geometryCrop2" : 0.0,
                              "geometryCrop3" : 0.0
                            },
                            "effects" : [

                            ],
                            "start" : 0,
                            "duration" : 255,
                            "mediaStart" : 0,
                            "mediaDuration" : 1,
                            "scalar" : 1,
                            "metadata" : {
                              "clipSpeedAttribute" : false,
                              "default-height" : 160.0,
                              "default-scale0" : 1.0,
                              "default-scale1" : 1.0,
                              "default-translation0" : 0.0,
                              "default-translation1" : 0.0,
                              "default-width" : 184.0
                            },
                            "animationTracks" : {

                            }
                          }
                        ],
                          "ident" : "",
                          "audioMuted" : false,
                          "videoHidden" : false,
                          "magnetic" : false,
                          "matte" : 0,
                          "solo" : false,
                          "metadata" : {
                            "IsLocked" : "False",
                            "WinTrackHeight" : "56"
                          }
                      }
                    ],
                    "attributes" : {
                      "ident" : "patches-test",
                      "widthAttr" : 205.0,
                      "heightAttr" : 156.0,
                      "gain" : 1.0,
                      "mixToMono" : false,
                      "assetProperties" : [
                      ]
                    },
                    "effects" : [

                    ],
                    "start" : 764,
                    "duration" : 255,
                    "mediaStart" : 0.0,
                    "mediaDuration" : 255.0,
                    "scalar" : 1,
                    "metadata" : {
                      "clipSpeedAttribute" : false
                    },
                    "animationTracks" : {

                    }
                  },
                  {
                    "id" : 182,
                    "_type" : "Callout",
                    "def" : {
                      "kind" : "remix",
                      "shape" : "text-rectangle",
                      "style" : "basic",
                      "enable-ligatures" : 1.0,
                      "fill-color-blue" : 1.0,
                      "fill-color-green" : 1.0,
                      "fill-color-opacity" : 0.0,
                      "fill-color-red" : 1.0,
                      "height" : 128.1152920719,
                      "line-spacing" : 0.0,
                      "stroke-color-blue" : 0.56078431372549,
                      "stroke-color-green" : 0.686274509803922,
                      "stroke-color-opacity" : 0.0,
                      "stroke-color-red" : 0.0196078431372549,
                      "stroke-width" : 2.0,
                      "tail-x" : -156.964037538505,
                      "tail-y" : -48.2149122807016,
                      "width" : 130.042553191489,
                      "word-wrap" : 1.0,
                      "fill-style" : "solid",
                      "horizontal-alignment" : "center",
                      "resize-behavior" : "resizeText",
                      "stroke-style" : "solid",
                      "text" : "9%",
                      "vertical-alignment" : "center",
                      "font" : {
                        "color-blue" : 0.266666666666667,
                        "color-green" : 0.231372549019608,
                        "color-opacity" : 1.0,
                        "color-red" : 0.184313725490196,
                        "size" : 64.0,
                        "tracking" : 0.0,
                        "name" : "Montserrat",
                        "weight" : "Regular"
                      },
                      "textAttributes" : {
                        "type" : "textAttributeList",
                        "keyframes" : [
                          {
                            "endTime" : 0,
                            "time" : 0,
                            "value" : [{"name":"fontSize","rangeEnd":2,"rangeStart":0,"value":75,"valueType":"double"},{"name":"fontName","rangeEnd":2,"rangeStart":0,"value":"Faktum","valueType":"string"},{"name":"fontItalic","rangeEnd":2,"rangeStart":0,"value":0,"valueType":"int"},{"name":"fontWeight","rangeEnd":2,"rangeStart":0,"value":400,"valueType":"int"},{"name":"strikethrough","rangeEnd":2,"rangeStart":0,"value":0,"valueType":"int"},{"name":"underline","rangeEnd":2,"rangeStart":0,"value":0,"valueType":"int"},{"name":"kerning","rangeEnd":2,"rangeStart":0,"value":0,"valueType":"double"},{"name":"fgColor","rangeEnd":2,"rangeStart":0,"value":"(254,5,5,255)","valueType":"color"}],
                            "duration" : 0
                          }
                        ]
                      }
                    },
                    "attributes" : {
                      "autoRotateText" : true
                    },
                    "parameters" : {
                      "translation0" : 256.432122169657,
                      "translation1" : 24.9999983308717,
                      "sourceCrop0" : 0.0,
                      "sourceCrop1" : 0.0,
                      "sourceCrop2" : 0.0,
                      "sourceCrop3" : 0.0,
                      "geometryCrop0" : 0.0,
                      "geometryCrop1" : 0.0,
                      "geometryCrop2" : 0.0,
                      "geometryCrop3" : 0.0
                    },
                    "effects" : [

                    ],
                    "start" : 1926,
                    "duration" : 838,
                    "mediaStart" : 0,
                    "mediaDuration" : 838,
                    "scalar" : 1,
                    "metadata" : {
                      "clipSpeedAttribute" : false,
                      "default-HAlign" : "center",
                      "default-LineSpace" : 0.0,
                      "default-VAlign" : "center",
                      "default-fill-color-opacity" : 1.0,
                      "default-height" : 176.0,
                      "default-stroke-color-opacity" : 1.0,
                      "default-translation0" : 0.0,
                      "default-translation1" : 0.0,
                      "default-width" : 376.0
                    },
                    "animationTracks" : {

                    }
                  },
                  {
                    "id" : 183,
                    "_type" : "IMFile",
                    "src" : 32,
                    "trackNumber" : 0,
                    "trimStartSum" : 0,
                    "attributes" : {
                      "ident" : "yes"
                    },
                    "parameters" : {
                      "translation0" : -819.029156214488,
                      "translation1" : 73.0000000000001,
                      "scale0" : 0.79,
                      "scale1" : 0.79,
                      "sourceCrop0" : 0.0,
                      "sourceCrop1" : 0.0,
                      "sourceCrop2" : 0.0,
                      "sourceCrop3" : 0.0,
                      "geometryCrop0" : 0.0,
                      "geometryCrop1" : 0.0,
                      "geometryCrop2" : 0.0,
                      "geometryCrop3" : 0.0
                    },
                    "effects" : [

                    ],
                    "start" : 3104,
                    "duration" : 406,
                    "mediaStart" : 0,
                    "mediaDuration" : 1,
                    "scalar" : 1,
                    "metadata" : {
                      "clipSpeedAttribute" : false,
                      "default-height" : 146.0,
                      "default-scale0" : 1.0,
                      "default-scale1" : 1.0,
                      "default-translation0" : 0.0,
                      "default-translation1" : 0.0,
                      "default-width" : 174.0
                    },
                    "animationTracks" : {

                    }
                  },
                  {
                    "id" : 184,
                    "_type" : "Callout",
                    "def" : {
                      "kind" : "remix",
                      "shape" : "text-rectangle",
                      "style" : "basic",
                      "enable-ligatures" : 1.0,
                      "fill-color-blue" : 0.184313725490196,
                      "fill-color-green" : 0.156862745098039,
                      "fill-color-opacity" : 1.0,
                      "fill-color-red" : 0.137254901960784,
                      "height" : 1197.36842105263,
                      "line-spacing" : 0.0,
                      "stroke-color-blue" : 0.184313725490196,
                      "stroke-color-green" : 0.156862745098039,
                      "stroke-color-opacity" : 1.0,
                      "stroke-color-red" : 0.137254901960784,
                      "stroke-width" : 2.0,
                      "tail-x" : -169.298245614035,
                      "tail-y" : -27.8947368421054,
                      "width" : 2218.42105263158,
                      "word-wrap" : 1.0,
                      "fill-style" : "solid",
                      "horizontal-alignment" : "center",
                      "resize-behavior" : "resizeText",
                      "stroke-style" : "solid",
                      "text" : "",
                      "vertical-alignment" : "center",
                      "font" : {
                        "color-blue" : 0.266666666666667,
                        "color-green" : 0.231372549019608,
                        "color-opacity" : 1.0,
                        "color-red" : 0.184313725490196,
                        "size" : 64.0,
                        "tracking" : 0.0,
                        "name" : "Montserrat",
                        "weight" : "Regular"
                      },
                      "textAttributes" : {
                        "type" : "textAttributeList",
                        "keyframes" : [
                          {
                            "endTime" : 0,
                            "time" : 0,
                            "value" : [{"name":"fontItalic","rangeEnd":1,"rangeStart":0,"value":0,"valueType":"int"},{"name":"fgColor","rangeEnd":1,"rangeStart":0,"value":"(47,59,68,255)","valueType":"color"},{"name":"kerning","rangeEnd":1,"rangeStart":0,"value":0,"valueType":"double"},{"name":"strikethrough","rangeEnd":1,"rangeStart":0,"value":0,"valueType":"int"},{"name":"fontWeight","rangeEnd":1,"rangeStart":0,"value":400,"valueType":"int"},{"name":"fontSize","rangeEnd":1,"rangeStart":0,"value":64,"valueType":"double"},{"name":"fontName","rangeEnd":1,"rangeStart":0,"value":"Montserrat","valueType":"string"},{"name":"underline","rangeEnd":1,"rangeStart":0,"value":0,"valueType":"int"}],
                            "duration" : 0
                          }
                        ]
                      }
                    },
                    "attributes" : {
                      "autoRotateText" : true
                    },
                    "parameters" : {
                      "translation0" : -85.0877192982455,
                      "translation1" : 7.89473684210537,
                      "sourceCrop0" : 0.0,
                      "sourceCrop1" : 0.0,
                      "sourceCrop2" : 0.0,
                      "sourceCrop3" : 0.0,
                      "geometryCrop0" : 0.0,
                      "geometryCrop1" : 0.0,
                      "geometryCrop2" : 0.0,
                      "geometryCrop3" : 0.0
                    },
                    "effects" : [

                    ],
                    "start" : 4480,
                    "duration" : 101,
                    "mediaStart" : 0,
                    "mediaDuration" : 101,
                    "scalar" : 1,
                    "metadata" : {
                      "clipSpeedAttribute" : false,
                      "default-HAlign" : "center",
                      "default-LineSpace" : 0.0,
                      "default-VAlign" : "center",
                      "default-fill-color-blue" : 1.0,
                      "default-fill-color-green" : 1.0,
                      "default-fill-color-red" : 1.0,
                      "default-height" : 176.0,
                      "default-stroke-color-blue" : 0.56078431372549,
                      "default-stroke-color-green" : 0.686274509803922,
                      "default-stroke-color-red" : 0.0196078431372549,
                      "default-translation0" : 0.0,
                      "default-translation1" : 0.0,
                      "default-width" : 376.0
                    },
                    "animationTracks" : {

                    }
                  },
                  {
                    "id" : 185,
                    "_type" : "Callout",
                    "def" : {
                      "kind" : "remix",
                      "shape" : "arrow",
                      "style" : "urban",
                      "stroke-color-blue" : 0.184313725490196,
                      "stroke-color-green" : 0.156862745098039,
                      "stroke-color-opacity" : 1.0,
                      "stroke-color-red" : 0.137254901960784,
                      "stroke-width" : 8.0,
                      "tail-x" : {
                        "type" : "double",
                        "defaultValue" : 1261.38431372549,
                        "interp" : "eioe"
                      },
                      "tail-y" : {
                        "type" : "double",
                        "defaultValue" : -6.140350877193,
                        "interp" : "eioe"
                      },
                      "shape-anchor" : "rounded",
                      "shape-tail" : "arrow",
                      "stroke-style" : "solid"
                    },
                    "attributes" : {
                      "autoRotateText" : true
                    },
                    "parameters" : {
                      "translation0" : {
                        "type" : "double",
                        "defaultValue" : -1921.63261093911,
                        "keyframes" : [
                          {
                            "endTime" : 109,
                            "time" : 30,
                            "value" : -1270.75541795666,
                            "duration" : 79
                          },
                          {
                            "endTime" : 687,
                            "time" : 657,
                            "value" : -848.937236138474,
                            "duration" : 30
                          },
                          {
                            "endTime" : 776,
                            "time" : 746,
                            "value" : -1472.57359977484,
                            "duration" : 30
                          },
                          {
                            "endTime" : 1043,
                            "time" : 1013,
                            "value" : -1112.57359977484,
                            "duration" : 30
                          }
                        ]
                      },
                      "translation1" : {
                        "type" : "double",
                        "defaultValue" : 134.533702677747,
                        "keyframes" : [
                          {
                            "endTime" : 109,
                            "time" : 30,
                            "value" : 134.533702677747,
                            "duration" : 79
                          },
                          {
                            "endTime" : 687,
                            "time" : 657,
                            "value" : 134.533702677747,
                            "duration" : 30
                          },
                          {
                            "endTime" : 776,
                            "time" : 746,
                            "value" : 134.533702677747,
                            "duration" : 30
                          },
                          {
                            "endTime" : 1043,
                            "time" : 1013,
                            "value" : 134.533702677747,
                            "duration" : 30
                          }
                        ]
                      },
                      "scale0" : {
                        "type" : "double",
                        "defaultValue" : 1.05263157894737,
                        "keyframes" : [
                          {
                            "endTime" : 109,
                            "time" : 30,
                            "value" : 1.05263157894737,
                            "duration" : 79
                          },
                          {
                            "endTime" : 687,
                            "time" : 657,
                            "value" : 1.05263157894737,
                            "duration" : 30
                          },
                          {
                            "endTime" : 776,
                            "time" : 746,
                            "value" : 1.05263157894737,
                            "duration" : 30
                          },
                          {
                            "endTime" : 1043,
                            "time" : 1013,
                            "value" : 1.05263157894737,
                            "duration" : 30
                          }
                        ]
                      },
                      "scale1" : {
                        "type" : "double",
                        "defaultValue" : 1.05263157894737,
                        "keyframes" : [
                          {
                            "endTime" : 109,
                            "time" : 30,
                            "value" : 1.05263157894737,
                            "duration" : 79
                          },
                          {
                            "endTime" : 687,
                            "time" : 657,
                            "value" : 1.05263157894737,
                            "duration" : 30
                          },
                          {
                            "endTime" : 776,
                            "time" : 746,
                            "value" : 1.05263157894737,
                            "duration" : 30
                          },
                          {
                            "endTime" : 1043,
                            "time" : 1013,
                            "value" : 1.05263157894737,
                            "duration" : 30
                          }
                        ]
                      },
                      "sourceCrop0" : 0.0,
                      "sourceCrop1" : 0.0,
                      "sourceCrop2" : 0.0,
                      "sourceCrop3" : 0.0,
                      "geometryCrop0" : 0.0,
                      "geometryCrop1" : 0.0,
                      "geometryCrop2" : 0.0,
                      "geometryCrop3" : 0.0
                    },
                    "effects" : [

                    ],
                    "start" : 4799,
                    "duration" : 1178,
                    "mediaStart" : 0,
                    "mediaDuration" : 1178,
                    "scalar" : 1,
                    "metadata" : {
                      "clipSpeedAttribute" : false,
                      "default-callout-shape-anchor" : "none",
                      "default-callout-shape-tail" : "arrow",
                      "default-height" : 40.0,
                      "default-scale0" : 1.0,
                      "default-scale1" : 1.0,
                      "default-stroke-color-blue" : 0.129411764705882,
                      "default-stroke-color-green" : 0.741176470588235,
                      "default-stroke-color-red" : 0.956862745098039,
                      "default-translation0" : 0.0,
                      "default-translation1" : 0.0,
                      "default-width" : 100.0
                    },
                    "animationTracks" : {
                      "visual" : [
                        {
                          "endTime" : 109,
                          "duration" : 79,
                          "range" : [ 30, 79]
                        },
                        {
                          "endTime" : 687,
                          "duration" : 30,
                          "range" : [ 657, 30]
                        },
                        {
                          "endTime" : 776,
                          "duration" : 30,
                          "range" : [ 746, 30]
                        },
                        {
                          "endTime" : 1043,
                          "duration" : 30,
                          "range" : [ 1013, 30]
                        }
                      ]
                    }
                  },
                  {
                    "id" : 186,
                    "_type" : "Callout",
                    "def" : {
                      "kind" : "remix",
                      "shape" : "text-rectangle",
                      "style" : "basic",
                      "enable-ligatures" : 1.0,
                      "fill-color-blue" : 1.0,
                      "fill-color-green" : 1.0,
                      "fill-color-opacity" : 0.0,
                      "fill-color-red" : 1.0,
                      "height" : 10.7811035918793,
                      "line-spacing" : 0.0,
                      "stroke-color-blue" : 0.890196078431372,
                      "stroke-color-green" : 0.870588235294118,
                      "stroke-color-opacity" : 1.0,
                      "stroke-color-red" : 0.847058823529412,
                      "stroke-width" : 9.32203389830508,
                      "tail-x" : 159.833333333333,
                      "tail-y" : -77.3905517959396,
                      "width" : 14.3333333333333,
                      "word-wrap" : 1.0,
                      "fill-style" : "solid",
                      "horizontal-alignment" : "center",
                      "resize-behavior" : "resizeText",
                      "stroke-style" : "solid",
                      "text" : "",
                      "vertical-alignment" : "center",
                      "font" : {
                        "color-blue" : 0.266666666666667,
                        "color-green" : 0.231372549019608,
                        "color-opacity" : 1.0,
                        "color-red" : 0.184313725490196,
                        "size" : 64.0,
                        "tracking" : 0.0,
                        "name" : "Montserrat",
                        "weight" : "Regular"
                      },
                      "textAttributes" : {
                        "type" : "textAttributeList",
                        "keyframes" : [
                          {
                            "endTime" : 0,
                            "time" : 0,
                            "value" : [{"name":"fgColor","rangeEnd":1,"rangeStart":0,"value":"(47,59,68,255)","valueType":"color"},{"name":"fontSize","rangeEnd":1,"rangeStart":0,"value":64,"valueType":"double"},{"name":"fontWeight","rangeEnd":1,"rangeStart":0,"value":400,"valueType":"int"},{"name":"kerning","rangeEnd":1,"rangeStart":0,"value":0,"valueType":"double"},{"name":"underline","rangeEnd":1,"rangeStart":0,"value":0,"valueType":"int"},{"name":"strikethrough","rangeEnd":1,"rangeStart":0,"value":0,"valueType":"int"},{"name":"fontItalic","rangeEnd":1,"rangeStart":0,"value":0,"valueType":"int"},{"name":"fontName","rangeEnd":1,"rangeStart":0,"value":"Montserrat","valueType":"string"}],
                            "duration" : 0
                          }
                        ]
                      }
                    },
                    "attributes" : {
                      "autoRotateText" : true
                    },
                    "parameters" : {
                      "translation0" : -436.166666666667,
                      "translation1" : -4.39055156707763,
                      "sourceCrop0" : 0.0,
                      "sourceCrop1" : 0.0,
                      "sourceCrop2" : 0.0,
                      "sourceCrop3" : 0.0,
                      "geometryCrop0" : 0.0,
                      "geometryCrop1" : 0.0,
                      "geometryCrop2" : 0.0,
                      "geometryCrop3" : 0.0
                    },
                    "effects" : [

                    ],
                    "start" : 6210,
                    "duration" : 104,
                    "mediaStart" : 0,
                    "mediaDuration" : 104,
                    "scalar" : 1,
                    "metadata" : {
                      "clipSpeedAttribute" : false,
                      "default-HAlign" : "center",
                      "default-LineSpace" : 0.0,
                      "default-VAlign" : "center",
                      "default-fill-color-opacity" : 1.0,
                      "default-height" : 176.0,
                      "default-stroke-color-blue" : 0.56078431372549,
                      "default-stroke-color-green" : 0.686274509803922,
                      "default-stroke-color-red" : 0.0196078431372549,
                      "default-stroke-width" : 2.0,
                      "default-translation0" : 0.0,
                      "default-translation1" : 0.0,
                      "default-width" : 376.0
                    },
                    "animationTracks" : {

                    }
                  },
                  {
                    "id" : 187,
                    "_type" : "Callout",
                    "def" : {
                      "kind" : "remix",
                      "shape" : "text-rectangle",
                      "style" : "basic",
                      "enable-ligatures" : 1.0,
                      "fill-color-blue" : 1.0,
                      "fill-color-green" : 1.0,
                      "fill-color-opacity" : 0.0,
                      "fill-color-red" : 1.0,
                      "height" : 10.7811035918793,
                      "line-spacing" : 0.0,
                      "stroke-color-blue" : 0.890196078431372,
                      "stroke-color-green" : 0.870588235294118,
                      "stroke-color-opacity" : 1.0,
                      "stroke-color-red" : 0.847058823529412,
                      "stroke-width" : 9.32203389830508,
                      "tail-x" : 159.833333333333,
                      "tail-y" : -77.3905517959396,
                      "width" : 14.3333333333333,
                      "word-wrap" : 1.0,
                      "fill-style" : "solid",
                      "horizontal-alignment" : "center",
                      "resize-behavior" : "resizeText",
                      "stroke-style" : "solid",
                      "text" : "",
                      "vertical-alignment" : "center",
                      "font" : {
                        "color-blue" : 0.266666666666667,
                        "color-green" : 0.231372549019608,
                        "color-opacity" : 1.0,
                        "color-red" : 0.184313725490196,
                        "size" : 64.0,
                        "tracking" : 0.0,
                        "name" : "Montserrat",
                        "weight" : "Regular"
                      },
                      "textAttributes" : {
                        "type" : "textAttributeList",
                        "keyframes" : [
                          {
                            "endTime" : 0,
                            "time" : 0,
                            "value" : [{"name":"fgColor","rangeEnd":1,"rangeStart":0,"value":"(47,59,68,255)","valueType":"color"},{"name":"fontSize","rangeEnd":1,"rangeStart":0,"value":64,"valueType":"double"},{"name":"fontWeight","rangeEnd":1,"rangeStart":0,"value":400,"valueType":"int"},{"name":"kerning","rangeEnd":1,"rangeStart":0,"value":0,"valueType":"double"},{"name":"underline","rangeEnd":1,"rangeStart":0,"value":0,"valueType":"int"},{"name":"strikethrough","rangeEnd":1,"rangeStart":0,"value":0,"valueType":"int"},{"name":"fontItalic","rangeEnd":1,"rangeStart":0,"value":0,"valueType":"int"},{"name":"fontName","rangeEnd":1,"rangeStart":0,"value":"Montserrat","valueType":"string"}],
                            "duration" : 0
                          }
                        ]
                      }
                    },
                    "attributes" : {
                      "autoRotateText" : true
                    },
                    "parameters" : {
                      "translation0" : -408.893939393939,
                      "translation1" : 71.9730847965587,
                      "sourceCrop0" : 0.0,
                      "sourceCrop1" : 0.0,
                      "sourceCrop2" : 0.0,
                      "sourceCrop3" : 0.0,
                      "geometryCrop0" : 0.0,
                      "geometryCrop1" : 0.0,
                      "geometryCrop2" : 0.0,
                      "geometryCrop3" : 0.0
                    },
                    "effects" : [

                    ],
                    "start" : 6501,
                    "duration" : 104,
                    "mediaStart" : 0,
                    "mediaDuration" : 104,
                    "scalar" : 1,
                    "metadata" : {
                      "clipSpeedAttribute" : false,
                      "default-HAlign" : "center",
                      "default-LineSpace" : 0.0,
                      "default-VAlign" : "center",
                      "default-fill-color-opacity" : 1.0,
                      "default-height" : 176.0,
                      "default-stroke-color-blue" : 0.56078431372549,
                      "default-stroke-color-green" : 0.686274509803922,
                      "default-stroke-color-red" : 0.0196078431372549,
                      "default-stroke-width" : 2.0,
                      "default-translation0" : 0.0,
                      "default-translation1" : 0.0,
                      "default-width" : 376.0
                    },
                    "animationTracks" : {

                    }
                  },
                  {
                    "id" : 188,
                    "_type" : "Callout",
                    "def" : {
                      "kind" : "remix",
                      "shape" : "text-rectangle",
                      "style" : "basic",
                      "enable-ligatures" : 1.0,
                      "fill-color-blue" : 1.0,
                      "fill-color-green" : 1.0,
                      "fill-color-opacity" : 0.0,
                      "fill-color-red" : 1.0,
                      "height" : 93.5701754385966,
                      "line-spacing" : 0.0,
                      "stroke-color-blue" : 0.56078431372549,
                      "stroke-color-green" : 0.686274509803922,
                      "stroke-color-opacity" : 0.0,
                      "stroke-color-red" : 0.0196078431372549,
                      "stroke-width" : 2.0,
                      "tail-x" : -139.942760942761,
                      "tail-y" : -48.2149122807017,
                      "width" : 70.1144781144788,
                      "word-wrap" : 1.0,
                      "fill-style" : "solid",
                      "horizontal-alignment" : "center",
                      "resize-behavior" : "resizeText",
                      "stroke-style" : "solid",
                      "text" : "ü",
                      "vertical-alignment" : "center",
                      "font" : {
                        "color-blue" : 0.266666666666667,
                        "color-green" : 0.231372549019608,
                        "color-opacity" : 1.0,
                        "color-red" : 0.184313725490196,
                        "size" : 64.0,
                        "tracking" : 0.0,
                        "name" : "Montserrat",
                        "weight" : "Regular"
                      },
                      "textAttributes" : {
                        "type" : "textAttributeList",
                        "keyframes" : [
                          {
                            "endTime" : 0,
                            "time" : 0,
                            "value" : [{"name":"fontWeight","rangeEnd":2,"rangeStart":0,"value":400,"valueType":"int"},{"name":"underline","rangeEnd":2,"rangeStart":0,"value":0,"valueType":"int"},{"name":"fgColor","rangeEnd":2,"rangeStart":0,"value":"(254,5,5,255)","valueType":"color"},{"name":"fontItalic","rangeEnd":2,"rangeStart":0,"value":0,"valueType":"int"},{"name":"strikethrough","rangeEnd":2,"rangeStart":0,"value":0,"valueType":"int"},{"name":"fontSize","rangeEnd":2,"rangeStart":0,"value":103,"valueType":"double"},{"name":"fontName","rangeEnd":2,"rangeStart":0,"value":"Wingdings","valueType":"string"},{"name":"kerning","rangeEnd":2,"rangeStart":0,"value":0,"valueType":"double"}],
                            "duration" : 0
                          }
                        ]
                      }
                    },
                    "attributes" : {
                      "autoRotateText" : true
                    },
                    "parameters" : {
                      "translation0" : 844.328834191324,
                      "translation1" : 112.884726430413,
                      "sourceCrop0" : 0.0,
                      "sourceCrop1" : 0.0,
                      "sourceCrop2" : 0.0,
                      "sourceCrop3" : 0.0,
                      "geometryCrop0" : 0.0,
                      "geometryCrop1" : 0.0,
                      "geometryCrop2" : 0.0,
                      "geometryCrop3" : 0.0
                    },
                    "effects" : [

                    ],
                    "start" : 6734,
                    "duration" : 200,
                    "mediaStart" : 121,
                    "mediaDuration" : 200,
                    "scalar" : 1,
                    "metadata" : {
                      "clipSpeedAttribute" : false,
                      "default-HAlign" : "center",
                      "default-LineSpace" : 0.0,
                      "default-VAlign" : "center",
                      "default-fill-color-opacity" : 1.0,
                      "default-height" : 176.0,
                      "default-stroke-color-opacity" : 1.0,
                      "default-translation0" : 0.0,
                      "default-translation1" : 0.0,
                      "default-width" : 376.0
                    },
                    "animationTracks" : {

                    }
                  },
                  {
                    "id" : 189,
                    "_type" : "Callout",
                    "def" : {
                      "kind" : "remix",
                      "shape" : "text-rectangle",
                      "style" : "basic",
                      "enable-ligatures" : 1.0,
                      "fill-color-blue" : 1.0,
                      "fill-color-green" : 1.0,
                      "fill-color-opacity" : 0.0,
                      "fill-color-red" : 1.0,
                      "height" : 224.360446570973,
                      "line-spacing" : 0.0,
                      "stroke-color-blue" : 0.890196078431372,
                      "stroke-color-green" : 0.870588235294118,
                      "stroke-color-opacity" : 0.0,
                      "stroke-color-red" : 0.847058823529412,
                      "stroke-width" : 0.0,
                      "tail-x" : -719.312875555988,
                      "tail-y" : -8.81977671451352,
                      "width" : 575.33840626765,
                      "word-wrap" : 1.0,
                      "fill-style" : "solid",
                      "horizontal-alignment" : "left",
                      "resize-behavior" : "resizeText",
                      "stroke-style" : "solid",
                      "text" : "Why were patches not promoted?",
                      "vertical-alignment" : "center",
                      "font" : {
                        "color-blue" : 0.266666666666667,
                        "color-green" : 0.231372549019608,
                        "color-opacity" : 1.0,
                        "color-red" : 0.184313725490196,
                        "size" : 64.0,
                        "tracking" : 0.0,
                        "name" : "Montserrat",
                        "weight" : "Regular"
                      },
                      "textAttributes" : {
                        "type" : "textAttributeList",
                        "keyframes" : [
                          {
                            "endTime" : 0,
                            "time" : 0,
                            "value" : [{"name":"fontName","rangeEnd":30,"rangeStart":0,"value":"Faktum Medium","valueType":"string"},{"name":"fontItalic","rangeEnd":30,"rangeStart":0,"value":0,"valueType":"int"},{"name":"fgColor","rangeEnd":30,"rangeStart":0,"value":"(35,40,47,255)","valueType":"color"},{"name":"fontWeight","rangeEnd":30,"rangeStart":0,"value":400,"valueType":"int"},{"name":"strikethrough","rangeEnd":30,"rangeStart":0,"value":0,"valueType":"int"},{"name":"underline","rangeEnd":30,"rangeStart":0,"value":0,"valueType":"int"},{"name":"kerning","rangeEnd":30,"rangeStart":0,"value":0,"valueType":"double"},{"name":"fontSize","rangeEnd":30,"rangeStart":0,"value":60,"valueType":"double"}],
                            "duration" : 0
                          }
                        ]
                      }
                    },
                    "attributes" : {
                      "autoRotateText" : true
                    },
                    "parameters" : {
                      "translation0" : 604.42451829921,
                      "translation1" : 267.977230417653,
                      "sourceCrop0" : 0.0,
                      "sourceCrop1" : 0.0,
                      "sourceCrop2" : 0.0,
                      "sourceCrop3" : 0.0,
                      "geometryCrop0" : 0.0,
                      "geometryCrop1" : 0.0,
                      "geometryCrop2" : 0.0,
                      "geometryCrop3" : 0.0
                    },
                    "effects" : [

                    ],
                    "start" : 7171,
                    "duration" : 503,
                    "mediaStart" : 162,
                    "mediaDuration" : 503,
                    "scalar" : 1,
                    "metadata" : {
                      "clipSpeedAttribute" : false,
                      "default-HAlign" : "center",
                      "default-LineSpace" : 0.0,
                      "default-VAlign" : "center",
                      "default-fill-color-opacity" : 1.0,
                      "default-height" : 176.0,
                      "default-stroke-color-blue" : 0.56078431372549,
                      "default-stroke-color-green" : 0.686274509803922,
                      "default-stroke-color-opacity" : 1.0,
                      "default-stroke-color-red" : 0.0196078431372549,
                      "default-stroke-width" : 2.0,
                      "default-text-attributes" : "[{\"name\":\"fgColor\",\"rangeEnd\":23,\"rangeStart\":0,\"value\":\"(47,59,68,255)\",\"valueType\":\"color\"},{\"name\":\"underline\",\"rangeEnd\":23,\"rangeStart\":0,\"value\":0,\"valueType\":\"int\"},{\"name\":\"strikethrough\",\"rangeEnd\":23,\"rangeStart\":0,\"value\":0,\"valueType\":\"int\"},{\"name\":\"fontWeight\",\"rangeEnd\":23,\"rangeStart\":0,\"value\":400,\"valueType\":\"int\"},{\"name\":\"fontItalic\",\"rangeEnd\":23,\"rangeStart\":0,\"value\":0,\"valueType\":\"int\"},{\"name\":\"fontName\",\"rangeEnd\":23,\"rangeStart\":0,\"value\":\"Faktum Medium\",\"valueType\":\"string\"},{\"name\":\"kerning\",\"rangeEnd\":23,\"rangeStart\":0,\"value\":0,\"valueType\":\"double\"},{\"name\":\"fontSize\",\"rangeEnd\":23,\"rangeStart\":0,\"value\":80,\"valueType\":\"double\"}]",
                      "default-translation0" : 0.0,
                      "default-translation1" : 0.0,
                      "default-width" : 376.0
                    },
                    "animationTracks" : {

                    }
                  },
                  {
                    "id" : 190,
                    "_type" : "Callout",
                    "def" : {
                      "kind" : "remix",
                      "shape" : "text-rectangle",
                      "style" : "basic",
                      "enable-ligatures" : {
                        "type" : "double",
                        "defaultValue" : 1.0,
                        "interp" : "linr"
                      },
                      "fill-color-blue" : {
                        "type" : "double",
                        "defaultValue" : 0.109803921568627,
                        "interp" : "linr",
                        "keyframes" : [
                          {
                            "endTime" : 74,
                            "time" : 0,
                            "value" : 1.0,
                            "duration" : 74
                          }
                        ]
                      },
                      "fill-color-green" : {
                        "type" : "double",
                        "defaultValue" : 0.109803921568627,
                        "interp" : "linr",
                        "keyframes" : [
                          {
                            "endTime" : 74,
                            "time" : 0,
                            "value" : 1.0,
                            "duration" : 74
                          }
                        ]
                      },
                      "fill-color-opacity" : {
                        "type" : "double",
                        "defaultValue" : 1.0,
                        "interp" : "linr"
                      },
                      "fill-color-red" : {
                        "type" : "double",
                        "defaultValue" : 0.96078431372549,
                        "interp" : "linr",
                        "keyframes" : [
                          {
                            "endTime" : 74,
                            "time" : 0,
                            "value" : 1.0,
                            "duration" : 74
                          }
                        ]
                      },
                      "height" : {
                        "type" : "double",
                        "defaultValue" : 1241.46737511424,
                        "interp" : "linr"
                      },
                      "line-spacing" : {
                        "type" : "double",
                        "defaultValue" : 0.0,
                        "interp" : "linr"
                      },
                      "stroke-color-blue" : {
                        "type" : "double",
                        "defaultValue" : 0.172549019607843,
                        "interp" : "linr",
                        "keyframes" : [
                          {
                            "endTime" : 74,
                            "time" : 0,
                            "value" : 0.419607843137255,
                            "duration" : 74
                          }
                        ]
                      },
                      "stroke-color-green" : {
                        "type" : "double",
                        "defaultValue" : 0.0627450980392157,
                        "interp" : "linr",
                        "keyframes" : [
                          {
                            "endTime" : 74,
                            "time" : 0,
                            "value" : 0.0392156862745098,
                            "duration" : 74
                          }
                        ]
                      },
                      "stroke-color-opacity" : {
                        "type" : "double",
                        "defaultValue" : 1.0,
                        "interp" : "linr",
                        "keyframes" : [
                          {
                            "endTime" : 74,
                            "time" : 0,
                            "value" : 1.0,
                            "duration" : 74
                          }
                        ]
                      },
                      "stroke-color-red" : {
                        "type" : "double",
                        "defaultValue" : 1.0,
                        "interp" : "linr",
                        "keyframes" : [
                          {
                            "endTime" : 74,
                            "time" : 0,
                            "value" : 0.937254901960784,
                            "duration" : 74
                          }
                        ]
                      },
                      "stroke-width" : {
                        "type" : "double",
                        "defaultValue" : 2.0,
                        "interp" : "linr",
                        "keyframes" : [
                          {
                            "endTime" : 74,
                            "time" : 0,
                            "value" : 2.0,
                            "duration" : 74
                          }
                        ]
                      },
                      "tail-x" : {
                        "type" : "double",
                        "defaultValue" : -3.44827586206901,
                        "interp" : "linr"
                      },
                      "tail-y" : {
                        "type" : "double",
                        "defaultValue" : 37.7145883049484,
                        "interp" : "linr"
                      },
                      "width" : {
                        "type" : "double",
                        "defaultValue" : 2022.41379310345,
                        "interp" : "linr"
                      },
                      "word-wrap" : {
                        "type" : "double",
                        "defaultValue" : 1.0,
                        "interp" : "linr"
                      },
                      "fill-style" : "gradient",
                      "horizontal-alignment" : "center",
                      "resize-behavior" : "resizeText",
                      "stroke-style" : "solid",
                      "text" : "",
                      "vertical-alignment" : "center",
                      "font" : {
                        "color-blue" : {
                          "type" : "double",
                          "defaultValue" : 0.266666666666667,
                          "interp" : "linr"
                        },
                        "color-green" : {
                          "type" : "double",
                          "defaultValue" : 0.231372549019608,
                          "interp" : "linr"
                        },
                        "color-opacity" : {
                          "type" : "double",
                          "defaultValue" : 1.0,
                          "interp" : "linr"
                        },
                        "color-red" : {
                          "type" : "double",
                          "defaultValue" : 0.184313725490196,
                          "interp" : "linr"
                        },
                        "size" : {
                          "type" : "double",
                          "defaultValue" : 64.0,
                          "interp" : "linr"
                        },
                        "tracking" : {
                          "type" : "double",
                          "defaultValue" : 0.0,
                          "interp" : "linr"
                        },
                        "name" : "Montserrat",
                        "weight" : "Regular"
                      },
                      "textAttributes" : {
                        "type" : "textAttributeList",
                        "keyframes" : [
                          {
                            "endTime" : 0,
                            "time" : 0,
                            "value" : [{"name":"underline","rangeEnd":1,"rangeStart":0,"value":0,"valueType":"int"},{"name":"fontSize","rangeEnd":1,"rangeStart":0,"value":64,"valueType":"double"},{"name":"fontName","rangeEnd":1,"rangeStart":0,"value":"Montserrat","valueType":"string"},{"name":"fontItalic","rangeEnd":1,"rangeStart":0,"value":0,"valueType":"int"},{"name":"fontWeight","rangeEnd":1,"rangeStart":0,"value":400,"valueType":"int"},{"name":"kerning","rangeEnd":1,"rangeStart":0,"value":0,"valueType":"double"},{"name":"fgColor","rangeEnd":1,"rangeStart":0,"value":"(47,59,68,255)","valueType":"color"},{"name":"strikethrough","rangeEnd":1,"rangeStart":0,"value":0,"valueType":"int"}],
                            "duration" : 0
                          }
                        ]
                      }
                    },
                    "attributes" : {
                      "autoRotateText" : true
                    },
                    "parameters" : {
                      "translation0" : {
                        "type" : "double",
                        "defaultValue" : -2006.89655172414,
                        "interp" : "eioe",
                        "keyframes" : [
                          {
                            "endTime" : 74,
                            "time" : 0,
                            "value" : 2050.0,
                            "duration" : 74
                          }
                        ]
                      },
                      "translation1" : {
                        "type" : "double",
                        "defaultValue" : -57.7146043611094,
                        "interp" : "eioe",
                        "keyframes" : [
                          {
                            "endTime" : 74,
                            "time" : 0,
                            "value" : -1.59872115546023e-14,
                            "duration" : 74
                          }
                        ]
                      },
                      "sourceCrop0" : {
                        "type" : "double",
                        "defaultValue" : 0.0,
                        "interp" : "eioe"
                      },
                      "sourceCrop1" : {
                        "type" : "double",
                        "defaultValue" : 0.0,
                        "interp" : "eioe"
                      },
                      "sourceCrop2" : {
                        "type" : "double",
                        "defaultValue" : 0.0,
                        "interp" : "eioe"
                      },
                      "sourceCrop3" : {
                        "type" : "double",
                        "defaultValue" : 0.0,
                        "interp" : "eioe"
                      },
                      "geometryCrop0" : {
                        "type" : "double",
                        "defaultValue" : 0.0,
                        "interp" : "eioe"
                      },
                      "geometryCrop1" : {
                        "type" : "double",
                        "defaultValue" : 0.0,
                        "interp" : "eioe"
                      },
                      "geometryCrop2" : {
                        "type" : "double",
                        "defaultValue" : 0.0,
                        "interp" : "eioe"
                      },
                      "geometryCrop3" : {
                        "type" : "double",
                        "defaultValue" : 0.0,
                        "interp" : "eioe"
                      }
                    },
                    "effects" : [

                    ],
                    "start" : 8092,
                    "duration" : 75,
                    "mediaStart" : 0,
                    "mediaDuration" : 75,
                    "scalar" : 1,
                    "metadata" : {
                      "clipSpeedAttribute" : false,
                      "default-HAlign" : "center",
                      "default-LineSpace" : 0.0,
                      "default-VAlign" : "center",
                      "default-callout-stroke-style" : "solid",
                      "default-fill-color-blue" : 1.0,
                      "default-fill-color-green" : 1.0,
                      "default-fill-color-red" : 1.0,
                      "default-fill-style" : "solid",
                      "default-height" : 1268.0,
                      "default-stroke-color-blue" : 0.56078431372549,
                      "default-stroke-color-green" : 0.686274509803922,
                      "default-stroke-color-opacity" : 1.0,
                      "default-stroke-color-red" : 0.0196078431372549,
                      "default-stroke-width" : 2.0,
                      "default-translation0" : 0.0,
                      "default-translation1" : 0.0,
                      "default-width" : 2049.0
                    },
                    "animationTracks" : {
                      "visual" : [
                        {
                          "endTime" : 74,
                          "duration" : 74,
                          "range" : [ 0, 74]
                        }
                      ]
                    }
                  },
                  {
                    "id" : 191,
                    "_type" : "IMFile",
                    "src" : 28,
                    "trackNumber" : 0,
                    "trimStartSum" : 0,
                    "attributes" : {
                      "ident" : "track"
                    },
                    "parameters" : {
                      "translation0" : -777.048883971233,
                      "translation1" : 88.709314376894,
                      "scale0" : 0.766716488631685,
                      "scale1" : 0.766716488631685,
                      "sourceCrop0" : 0.0,
                      "sourceCrop1" : 0.0,
                      "sourceCrop2" : 0.0,
                      "sourceCrop3" : 0.0,
                      "geometryCrop0" : 0.0,
                      "geometryCrop1" : 0.0,
                      "geometryCrop2" : 0.0,
                      "geometryCrop3" : 0.0
                    },
                    "effects" : [

                    ],
                    "start" : 8320,
                    "duration" : 852,
                    "mediaStart" : 0,
                    "mediaDuration" : 1,
                    "scalar" : 1,
                    "metadata" : {
                      "clipSpeedAttribute" : false,
                      "default-height" : 175.0,
                      "default-scale0" : 1.0,
                      "default-scale1" : 1.0,
                      "default-translation0" : -0.5,
                      "default-translation1" : -0.5,
                      "default-width" : 175.0
                    },
                    "animationTracks" : {

                    }
                  }
                ],
                "transitions" : [
                  {
                    "name" : "Fade",
                    "duration" : 30,
                    "trivial" : false,
                    "reverse" : false,
                    "bypass" : false,
                    "useAudioPreRoll" : true,
                    "useVisualPreRoll" : true,
                    "rightMedia" : 183
                  },
                  {
                    "name" : "Fade",
                    "duration" : 29,
                    "trivial" : false,
                    "reverse" : false,
                    "bypass" : false,
                    "useAudioPreRoll" : true,
                    "useVisualPreRoll" : true,
                    "rightMedia" : 184
                  },
                  {
                    "name" : "Fade",
                    "duration" : 30,
                    "trivial" : false,
                    "reverse" : false,
                    "bypass" : false,
                    "useAudioPreRoll" : true,
                    "useVisualPreRoll" : true,
                    "leftMedia" : 184
                  },
                  {
                    "name" : "Fade",
                    "duration" : 30,
                    "trivial" : false,
                    "reverse" : false,
                    "bypass" : false,
                    "useAudioPreRoll" : true,
                    "useVisualPreRoll" : true,
                    "rightMedia" : 186
                  },
                  {
                    "name" : "Fade",
                    "duration" : 30,
                    "trivial" : false,
                    "reverse" : false,
                    "bypass" : false,
                    "useAudioPreRoll" : true,
                    "useVisualPreRoll" : true,
                    "leftMedia" : 186
                  },
                  {
                    "name" : "Fade",
                    "duration" : 30,
                    "trivial" : false,
                    "reverse" : false,
                    "bypass" : false,
                    "useAudioPreRoll" : true,
                    "useVisualPreRoll" : true,
                    "rightMedia" : 187
                  },
                  {
                    "name" : "Fade",
                    "duration" : 30,
                    "trivial" : false,
                    "reverse" : false,
                    "bypass" : false,
                    "useAudioPreRoll" : true,
                    "useVisualPreRoll" : true,
                    "leftMedia" : 187
                  },
                  {
                    "name" : "Fade",
                    "duration" : 30,
                    "trivial" : false,
                    "reverse" : false,
                    "bypass" : false,
                    "useAudioPreRoll" : true,
                    "useVisualPreRoll" : true,
                    "rightMedia" : 188
                  },
                  {
                    "name" : "Fade",
                    "duration" : 30,
                    "trivial" : false,
                    "reverse" : false,
                    "bypass" : false,
                    "useAudioPreRoll" : true,
                    "useVisualPreRoll" : true,
                    "leftMedia" : 188
                  },
                  {
                    "name" : "Fade",
                    "duration" : 30,
                    "trivial" : false,
                    "reverse" : false,
                    "bypass" : false,
                    "useAudioPreRoll" : true,
                    "useVisualPreRoll" : true,
                    "rightMedia" : 189
                  },
                  {
                    "name" : "Fade",
                    "duration" : 30,
                    "trivial" : false,
                    "reverse" : false,
                    "bypass" : false,
                    "useAudioPreRoll" : true,
                    "useVisualPreRoll" : true,
                    "leftMedia" : 189
                  },
                  {
                    "name" : "Fade",
                    "duration" : 30,
                    "trivial" : false,
                    "reverse" : false,
                    "bypass" : false,
                    "useAudioPreRoll" : true,
                    "useVisualPreRoll" : true,
                    "rightMedia" : 191
                  }
                ]
              },
              {
                "trackIndex" : 6,
                "medias" : [
                  {
                    "id" : 192,
                    "_type" : "Callout",
                    "def" : {
                      "kind" : "remix",
                      "shape" : "text-rectangle",
                      "style" : "basic",
                      "enable-ligatures" : 1.0,
                      "fill-color-blue" : 1.0,
                      "fill-color-green" : 1.0,
                      "fill-color-opacity" : 0.0,
                      "fill-color-red" : 1.0,
                      "height" : 93.5701754385966,
                      "line-spacing" : 0.0,
                      "stroke-color-blue" : 0.56078431372549,
                      "stroke-color-green" : 0.686274509803922,
                      "stroke-color-opacity" : 0.0,
                      "stroke-color-red" : 0.0196078431372549,
                      "stroke-width" : 2.0,
                      "tail-x" : -139.942760942761,
                      "tail-y" : -48.2149122807017,
                      "width" : 70.1144781144788,
                      "word-wrap" : 1.0,
                      "fill-style" : "solid",
                      "horizontal-alignment" : "center",
                      "resize-behavior" : "resizeText",
                      "stroke-style" : "solid",
                      "text" : "ü",
                      "vertical-alignment" : "center",
                      "font" : {
                        "color-blue" : 0.266666666666667,
                        "color-green" : 0.231372549019608,
                        "color-opacity" : 1.0,
                        "color-red" : 0.184313725490196,
                        "size" : 64.0,
                        "tracking" : 0.0,
                        "name" : "Montserrat",
                        "weight" : "Regular"
                      },
                      "textAttributes" : {
                        "type" : "textAttributeList",
                        "keyframes" : [
                          {
                            "endTime" : 0,
                            "time" : 0,
                            "value" : [{"name":"strikethrough","rangeEnd":2,"rangeStart":0,"value":0,"valueType":"int"},{"name":"fontWeight","rangeEnd":2,"rangeStart":0,"value":400,"valueType":"int"},{"name":"fontName","rangeEnd":2,"rangeStart":0,"value":"Wingdings","valueType":"string"},{"name":"fontSize","rangeEnd":2,"rangeStart":0,"value":103,"valueType":"double"},{"name":"fontItalic","rangeEnd":2,"rangeStart":0,"value":0,"valueType":"int"},{"name":"underline","rangeEnd":2,"rangeStart":0,"value":0,"valueType":"int"},{"name":"kerning","rangeEnd":2,"rangeStart":0,"value":0,"valueType":"double"},{"name":"fgColor","rangeEnd":2,"rangeStart":0,"value":"(254,5,5,255)","valueType":"color"}],
                            "duration" : 0
                          }
                        ]
                      }
                    },
                    "attributes" : {
                      "autoRotateText" : true
                    },
                    "parameters" : {
                      "translation0" : 17.8284600389869,
                      "translation1" : 108.214912146852,
                      "sourceCrop0" : 0.0,
                      "sourceCrop1" : 0.0,
                      "sourceCrop2" : 0.0,
                      "sourceCrop3" : 0.0,
                      "geometryCrop0" : 0.0,
                      "geometryCrop1" : 0.0,
                      "geometryCrop2" : 0.0,
                      "geometryCrop3" : 0.0
                    },
                    "effects" : [

                    ],
                    "start" : 820,
                    "duration" : 199,
                    "mediaStart" : 0,
                    "mediaDuration" : 199,
                    "scalar" : 1,
                    "metadata" : {
                      "clipSpeedAttribute" : false,
                      "default-HAlign" : "center",
                      "default-LineSpace" : 0.0,
                      "default-VAlign" : "center",
                      "default-fill-color-opacity" : 1.0,
                      "default-height" : 176.0,
                      "default-stroke-color-opacity" : 1.0,
                      "default-translation0" : 0.0,
                      "default-translation1" : 0.0,
                      "default-width" : 376.0
                    },
                    "animationTracks" : {

                    }
                  },
                  {
                    "id" : 193,
                    "_type" : "Callout",
                    "def" : {
                      "kind" : "remix",
                      "shape" : "text-rectangle",
                      "style" : "basic",
                      "enable-ligatures" : 1.0,
                      "fill-color-blue" : 1.0,
                      "fill-color-green" : 1.0,
                      "fill-color-opacity" : 0.0,
                      "fill-color-red" : 1.0,
                      "height" : 128.115293741028,
                      "line-spacing" : 0.0,
                      "stroke-color-blue" : 0.56078431372549,
                      "stroke-color-green" : 0.686274509803922,
                      "stroke-color-opacity" : 0.0,
                      "stroke-color-red" : 0.0196078431372549,
                      "stroke-width" : 2.0,
                      "tail-x" : -169.729994985314,
                      "tail-y" : -48.2149131152657,
                      "width" : 155.574468085106,
                      "word-wrap" : 1.0,
                      "fill-style" : "solid",
                      "horizontal-alignment" : "center",
                      "resize-behavior" : "resizeText",
                      "stroke-style" : "solid",
                      "text" : "90%",
                      "vertical-alignment" : "center",
                      "font" : {
                        "color-blue" : 0.266666666666667,
                        "color-green" : 0.231372549019608,
                        "color-opacity" : 1.0,
                        "color-red" : 0.184313725490196,
                        "size" : 64.0,
                        "tracking" : 0.0,
                        "name" : "Montserrat",
                        "weight" : "Regular"
                      },
                      "textAttributes" : {
                        "type" : "textAttributeList",
                        "keyframes" : [
                          {
                            "endTime" : 0,
                            "time" : 0,
                            "value" : [{"name":"fgColor","rangeEnd":3,"rangeStart":0,"value":"(254,5,5,255)","valueType":"color"},{"name":"kerning","rangeEnd":3,"rangeStart":0,"value":0,"valueType":"double"},{"name":"fontSize","rangeEnd":3,"rangeStart":0,"value":75,"valueType":"double"},{"name":"underline","rangeEnd":3,"rangeStart":0,"value":0,"valueType":"int"},{"name":"strikethrough","rangeEnd":3,"rangeStart":0,"value":0,"valueType":"int"},{"name":"fontWeight","rangeEnd":3,"rangeStart":0,"value":400,"valueType":"int"},{"name":"fontItalic","rangeEnd":3,"rangeStart":0,"value":0,"valueType":"int"},{"name":"fontName","rangeEnd":3,"rangeStart":0,"value":"Faktum","valueType":"string"}],
                            "duration" : 0
                          }
                        ]
                      }
                    },
                    "attributes" : {
                      "autoRotateText" : true
                    },
                    "parameters" : {
                      "translation0" : 533.027866850508,
                      "translation1" : 24.9999991654358,
                      "sourceCrop0" : 0.0,
                      "sourceCrop1" : 0.0,
                      "sourceCrop2" : 0.0,
                      "sourceCrop3" : 0.0,
                      "geometryCrop0" : 0.0,
                      "geometryCrop1" : 0.0,
                      "geometryCrop2" : 0.0,
                      "geometryCrop3" : 0.0
                    },
                    "effects" : [

                    ],
                    "start" : 2015,
                    "duration" : 749,
                    "mediaStart" : 0,
                    "mediaDuration" : 749,
                    "scalar" : 1,
                    "metadata" : {
                      "clipSpeedAttribute" : false,
                      "default-HAlign" : "center",
                      "default-LineSpace" : 0.0,
                      "default-VAlign" : "center",
                      "default-fill-color-opacity" : 1.0,
                      "default-height" : 176.0,
                      "default-stroke-color-opacity" : 1.0,
                      "default-translation0" : 0.0,
                      "default-translation1" : 0.0,
                      "default-width" : 376.0
                    },
                    "animationTracks" : {

                    }
                  },
                  {
                    "id" : 194,
                    "_type" : "Callout",
                    "def" : {
                      "kind" : "remix",
                      "shape" : "text-rectangle",
                      "style" : "basic",
                      "enable-ligatures" : 1.0,
                      "fill-color-blue" : 1.0,
                      "fill-color-green" : 1.0,
                      "fill-color-opacity" : 0.0,
                      "fill-color-red" : 1.0,
                      "height" : 156.347826086957,
                      "line-spacing" : 0.0,
                      "stroke-color-blue" : 0.890196078431372,
                      "stroke-color-green" : 0.870588235294118,
                      "stroke-color-opacity" : 0.0,
                      "stroke-color-red" : 0.847058823529412,
                      "stroke-width" : 0.0,
                      "tail-x" : -422.422923402878,
                      "tail-y" : -42.8260869565217,
                      "width" : 1658.81528027084,
                      "word-wrap" : 1.0,
                      "fill-style" : "solid",
                      "horizontal-alignment" : "left",
                      "resize-behavior" : "resizeText",
                      "stroke-style" : "solid",
                      "text" : "No Firefox? then no Firefox patches",
                      "vertical-alignment" : "center",
                      "font" : {
                        "color-blue" : 0.266666666666667,
                        "color-green" : 0.231372549019608,
                        "color-opacity" : 1.0,
                        "color-red" : 0.184313725490196,
                        "size" : 64.0,
                        "tracking" : 0.0,
                        "name" : "Montserrat",
                        "weight" : "Regular"
                      },
                      "textAttributes" : {
                        "type" : "textAttributeList",
                        "keyframes" : [
                          {
                            "endTime" : 0,
                            "time" : 0,
                            "value" : [{"name":"fontName","rangeEnd":35,"rangeStart":0,"value":"???????","valueType":"string"},{"name":"strikethrough","rangeEnd":35,"rangeStart":0,"value":0,"valueType":"int"},{"name":"fontWeight","rangeEnd":35,"rangeStart":0,"value":400,"valueType":"int"},{"name":"kerning","rangeEnd":35,"rangeStart":0,"value":0,"valueType":"double"},{"name":"fontSize","rangeEnd":35,"rangeStart":0,"value":75,"valueType":"double"},{"name":"fontItalic","rangeEnd":35,"rangeStart":0,"value":0,"valueType":"int"},{"name":"underline","rangeEnd":35,"rangeStart":0,"value":0,"valueType":"int"},{"name":"fgColor","rangeEnd":35,"rangeStart":0,"value":"(35,40,47,255)","valueType":"color"}],
                            "duration" : 0
                          }
                        ]
                      }
                    },
                    "attributes" : {
                      "autoRotateText" : true
                    },
                    "parameters" : {
                      "translation0" : 117.504823484779,
                      "translation1" : -123.140586302389,
                      "sourceCrop0" : 0.0,
                      "sourceCrop1" : 0.0,
                      "sourceCrop2" : 0.0,
                      "sourceCrop3" : 0.0,
                      "geometryCrop0" : 0.0,
                      "geometryCrop1" : 0.0,
                      "geometryCrop2" : 0.0,
                      "geometryCrop3" : 0.0
                    },
                    "effects" : [

                    ],
                    "start" : 3298,
                    "duration" : 212,
                    "mediaStart" : 58,
                    "mediaDuration" : 212,
                    "scalar" : 1,
                    "metadata" : {
                      "clipSpeedAttribute" : false,
                      "default-HAlign" : "center",
                      "default-LineSpace" : 0.0,
                      "default-VAlign" : "center",
                      "default-fill-color-opacity" : 1.0,
                      "default-height" : 176.0,
                      "default-stroke-color-blue" : 0.56078431372549,
                      "default-stroke-color-green" : 0.686274509803922,
                      "default-stroke-color-opacity" : 1.0,
                      "default-stroke-color-red" : 0.0196078431372549,
                      "default-stroke-width" : 2.0,
                      "default-text-attributes" : "[{\"name\":\"fgColor\",\"rangeEnd\":23,\"rangeStart\":0,\"value\":\"(47,59,68,255)\",\"valueType\":\"color\"},{\"name\":\"underline\",\"rangeEnd\":23,\"rangeStart\":0,\"value\":0,\"valueType\":\"int\"},{\"name\":\"strikethrough\",\"rangeEnd\":23,\"rangeStart\":0,\"value\":0,\"valueType\":\"int\"},{\"name\":\"fontWeight\",\"rangeEnd\":23,\"rangeStart\":0,\"value\":400,\"valueType\":\"int\"},{\"name\":\"fontItalic\",\"rangeEnd\":23,\"rangeStart\":0,\"value\":0,\"valueType\":\"int\"},{\"name\":\"fontName\",\"rangeEnd\":23,\"rangeStart\":0,\"value\":\"Faktum Medium\",\"valueType\":\"string\"},{\"name\":\"kerning\",\"rangeEnd\":23,\"rangeStart\":0,\"value\":0,\"valueType\":\"double\"},{\"name\":\"fontSize\",\"rangeEnd\":23,\"rangeStart\":0,\"value\":80,\"valueType\":\"double\"}]",
                      "default-translation0" : 0.0,
                      "default-translation1" : 0.0,
                      "default-width" : 376.0
                    },
                    "animationTracks" : {

                    }
                  },
                  {
                    "id" : 195,
                    "_type" : "Callout",
                    "def" : {
                      "kind" : "remix",
                      "shape" : "text-rectangle",
                      "style" : "basic",
                      "enable-ligatures" : 1.0,
                      "fill-color-blue" : 1.0,
                      "fill-color-green" : 1.0,
                      "fill-color-opacity" : 1.0,
                      "fill-color-red" : 1.0,
                      "height" : 150.0,
                      "line-spacing" : 0.0,
                      "stroke-color-blue" : 0.890196078431372,
                      "stroke-color-green" : 0.870588235294118,
                      "stroke-color-opacity" : 0.0,
                      "stroke-color-red" : 0.847058823529412,
                      "stroke-width" : 2.0,
                      "tail-x" : -8.07017543859651,
                      "tail-y" : -20.0,
                      "width" : 366.140350877193,
                      "word-wrap" : 1.0,
                      "fill-style" : "solid",
                      "horizontal-alignment" : "center",
                      "resize-behavior" : "resizeText",
                      "stroke-style" : "solid",
                      "text" : "",
                      "vertical-alignment" : "center",
                      "font" : {
                        "color-blue" : 0.266666666666667,
                        "color-green" : 0.231372549019608,
                        "color-opacity" : 1.0,
                        "color-red" : 0.184313725490196,
                        "size" : 64.0,
                        "tracking" : 0.0,
                        "name" : "Montserrat",
                        "weight" : "Regular"
                      },
                      "textAttributes" : {
                        "type" : "textAttributeList",
                        "keyframes" : [
                          {
                            "endTime" : 0,
                            "time" : 0,
                            "value" : [{"name":"strikethrough","rangeEnd":1,"rangeStart":0,"value":0,"valueType":"int"},{"name":"fontItalic","rangeEnd":1,"rangeStart":0,"value":0,"valueType":"int"},{"name":"fontWeight","rangeEnd":1,"rangeStart":0,"value":400,"valueType":"int"},{"name":"fontName","rangeEnd":1,"rangeStart":0,"value":"Montserrat","valueType":"string"},{"name":"fontSize","rangeEnd":1,"rangeStart":0,"value":64,"valueType":"double"},{"name":"fgColor","rangeEnd":1,"rangeStart":0,"value":"(47,59,68,255)","valueType":"color"},{"name":"underline","rangeEnd":1,"rangeStart":0,"value":0,"valueType":"int"},{"name":"kerning","rangeEnd":1,"rangeStart":0,"value":0,"valueType":"double"}],
                            "duration" : 0
                          }
                        ]
                      }
                    },
                    "attributes" : {
                      "autoRotateText" : true
                    },
                    "parameters" : {
                      "translation0" : -787.456140350877,
                      "translation1" : 115.78947368421,
                      "sourceCrop0" : 0.0,
                      "sourceCrop1" : 0.0,
                      "sourceCrop2" : 0.0,
                      "sourceCrop3" : 0.0,
                      "geometryCrop0" : 0.0,
                      "geometryCrop1" : 0.0,
                      "geometryCrop2" : 0.0,
                      "geometryCrop3" : 0.0
                    },
                    "effects" : [

                    ],
                    "start" : 4799,
                    "duration" : 1178,
                    "mediaStart" : 0,
                    "mediaDuration" : 1178,
                    "scalar" : 1,
                    "metadata" : {
                      "clipSpeedAttribute" : false,
                      "default-HAlign" : "center",
                      "default-LineSpace" : 0.0,
                      "default-VAlign" : "center",
                      "default-height" : 176.0,
                      "default-stroke-color-blue" : 0.56078431372549,
                      "default-stroke-color-green" : 0.686274509803922,
                      "default-stroke-color-opacity" : 1.0,
                      "default-stroke-color-red" : 0.0196078431372549,
                      "default-translation0" : 0.0,
                      "default-translation1" : 0.0,
                      "default-width" : 376.0
                    },
                    "animationTracks" : {

                    }
                  },
                  {
                    "id" : 196,
                    "_type" : "Callout",
                    "def" : {
                      "kind" : "remix",
                      "shape" : "text-rectangle",
                      "style" : "basic",
                      "enable-ligatures" : 1.0,
                      "fill-color-blue" : 1.0,
                      "fill-color-green" : 1.0,
                      "fill-color-opacity" : 0.0,
                      "fill-color-red" : 1.0,
                      "height" : 10.7811035918793,
                      "line-spacing" : 0.0,
                      "stroke-color-blue" : 0.890196078431372,
                      "stroke-color-green" : 0.870588235294118,
                      "stroke-color-opacity" : 1.0,
                      "stroke-color-red" : 0.847058823529412,
                      "stroke-width" : 9.32203389830508,
                      "tail-x" : 159.833333333333,
                      "tail-y" : -77.3905517959396,
                      "width" : 14.3333333333333,
                      "word-wrap" : 1.0,
                      "fill-style" : "solid",
                      "horizontal-alignment" : "center",
                      "resize-behavior" : "resizeText",
                      "stroke-style" : "solid",
                      "text" : "",
                      "vertical-alignment" : "center",
                      "font" : {
                        "color-blue" : 0.266666666666667,
                        "color-green" : 0.231372549019608,
                        "color-opacity" : 1.0,
                        "color-red" : 0.184313725490196,
                        "size" : 64.0,
                        "tracking" : 0.0,
                        "name" : "Montserrat",
                        "weight" : "Regular"
                      },
                      "textAttributes" : {
                        "type" : "textAttributeList",
                        "keyframes" : [
                          {
                            "endTime" : 0,
                            "time" : 0,
                            "value" : [{"name":"fgColor","rangeEnd":1,"rangeStart":0,"value":"(47,59,68,255)","valueType":"color"},{"name":"fontSize","rangeEnd":1,"rangeStart":0,"value":64,"valueType":"double"},{"name":"fontWeight","rangeEnd":1,"rangeStart":0,"value":400,"valueType":"int"},{"name":"kerning","rangeEnd":1,"rangeStart":0,"value":0,"valueType":"double"},{"name":"underline","rangeEnd":1,"rangeStart":0,"value":0,"valueType":"int"},{"name":"strikethrough","rangeEnd":1,"rangeStart":0,"value":0,"valueType":"int"},{"name":"fontItalic","rangeEnd":1,"rangeStart":0,"value":0,"valueType":"int"},{"name":"fontName","rangeEnd":1,"rangeStart":0,"value":"Montserrat","valueType":"string"}],
                            "duration" : 0
                          }
                        ]
                      }
                    },
                    "attributes" : {
                      "autoRotateText" : true
                    },
                    "parameters" : {
                      "translation0" : -388.893939393939,
                      "translation1" : -73.4814606579867,
                      "sourceCrop0" : 0.0,
                      "sourceCrop1" : 0.0,
                      "sourceCrop2" : 0.0,
                      "sourceCrop3" : 0.0,
                      "geometryCrop0" : 0.0,
                      "geometryCrop1" : 0.0,
                      "geometryCrop2" : 0.0,
                      "geometryCrop3" : 0.0
                    },
                    "effects" : [

                    ],
                    "start" : 6210,
                    "duration" : 104,
                    "mediaStart" : 0,
                    "mediaDuration" : 104,
                    "scalar" : 1,
                    "metadata" : {
                      "clipSpeedAttribute" : false,
                      "default-HAlign" : "center",
                      "default-LineSpace" : 0.0,
                      "default-VAlign" : "center",
                      "default-fill-color-opacity" : 1.0,
                      "default-height" : 176.0,
                      "default-stroke-color-blue" : 0.56078431372549,
                      "default-stroke-color-green" : 0.686274509803922,
                      "default-stroke-color-red" : 0.0196078431372549,
                      "default-stroke-width" : 2.0,
                      "default-translation0" : 0.0,
                      "default-translation1" : 0.0,
                      "default-width" : 376.0
                    },
                    "animationTracks" : {

                    }
                  },
                  {
                    "id" : 197,
                    "_type" : "Callout",
                    "def" : {
                      "kind" : "remix",
                      "shape" : "text-rectangle",
                      "style" : "basic",
                      "enable-ligatures" : 1.0,
                      "fill-color-blue" : 1.0,
                      "fill-color-green" : 1.0,
                      "fill-color-opacity" : 0.0,
                      "fill-color-red" : 1.0,
                      "height" : 189.814992025518,
                      "line-spacing" : 0.0,
                      "stroke-color-blue" : 0.890196078431372,
                      "stroke-color-green" : 0.870588235294118,
                      "stroke-color-opacity" : 0.0,
                      "stroke-color-red" : 0.847058823529412,
                      "stroke-width" : 0.0,
                      "tail-x" : -816.585602828715,
                      "tail-y" : -26.0925039872408,
                      "width" : 271.702042631286,
                      "word-wrap" : 1.0,
                      "fill-style" : "solid",
                      "horizontal-alignment" : "left",
                      "resize-behavior" : "resizeText",
                      "stroke-style" : "solid",
                      "text" : "2 = 4/5",
                      "vertical-alignment" : "center",
                      "font" : {
                        "color-blue" : 0.266666666666667,
                        "color-green" : 0.231372549019608,
                        "color-opacity" : 1.0,
                        "color-red" : 0.184313725490196,
                        "size" : 64.0,
                        "tracking" : 0.0,
                        "name" : "Montserrat",
                        "weight" : "Regular"
                      },
                      "textAttributes" : {
                        "type" : "textAttributeList",
                        "keyframes" : [
                          {
                            "endTime" : 0,
                            "time" : 0,
                            "value" : [{"name":"fontSize","rangeEnd":7,"rangeStart":0,"value":80,"valueType":"double"},{"name":"fontWeight","rangeEnd":7,"rangeStart":0,"value":400,"valueType":"int"},{"name":"strikethrough","rangeEnd":7,"rangeStart":0,"value":0,"valueType":"int"},{"name":"fontItalic","rangeEnd":7,"rangeStart":0,"value":0,"valueType":"int"},{"name":"underline","rangeEnd":7,"rangeStart":0,"value":0,"valueType":"int"},{"name":"kerning","rangeEnd":7,"rangeStart":0,"value":0,"valueType":"double"},{"name":"fgColor","rangeEnd":7,"rangeStart":0,"value":"(35,40,47,255)","valueType":"color"},{"name":"fontName","rangeEnd":7,"rangeStart":0,"value":"Faktum Medium","valueType":"string"}],
                            "duration" : 0
                          }
                        ]
                      }
                    },
                    "attributes" : {
                      "autoRotateText" : true
                    },
                    "parameters" : {
                      "translation0" : 379.879063753756,
                      "translation1" : 103.431775872199,
                      "sourceCrop0" : 0.0,
                      "sourceCrop1" : 0.0,
                      "sourceCrop2" : 0.0,
                      "sourceCrop3" : 0.0,
                      "geometryCrop0" : 0.0,
                      "geometryCrop1" : 0.0,
                      "geometryCrop2" : 0.0,
                      "geometryCrop3" : 0.0
                    },
                    "effects" : [

                    ],
                    "start" : 6462,
                    "duration" : 472,
                    "mediaStart" : -38,
                    "mediaDuration" : 472,
                    "scalar" : 1,
                    "metadata" : {
                      "clipSpeedAttribute" : false,
                      "default-HAlign" : "center",
                      "default-LineSpace" : 0.0,
                      "default-VAlign" : "center",
                      "default-fill-color-opacity" : 1.0,
                      "default-height" : 176.0,
                      "default-stroke-color-blue" : 0.56078431372549,
                      "default-stroke-color-green" : 0.686274509803922,
                      "default-stroke-color-opacity" : 1.0,
                      "default-stroke-color-red" : 0.0196078431372549,
                      "default-stroke-width" : 2.0,
                      "default-text-attributes" : "[{\"name\":\"fgColor\",\"rangeEnd\":23,\"rangeStart\":0,\"value\":\"(47,59,68,255)\",\"valueType\":\"color\"},{\"name\":\"underline\",\"rangeEnd\":23,\"rangeStart\":0,\"value\":0,\"valueType\":\"int\"},{\"name\":\"strikethrough\",\"rangeEnd\":23,\"rangeStart\":0,\"value\":0,\"valueType\":\"int\"},{\"name\":\"fontWeight\",\"rangeEnd\":23,\"rangeStart\":0,\"value\":400,\"valueType\":\"int\"},{\"name\":\"fontItalic\",\"rangeEnd\":23,\"rangeStart\":0,\"value\":0,\"valueType\":\"int\"},{\"name\":\"fontName\",\"rangeEnd\":23,\"rangeStart\":0,\"value\":\"Faktum Medium\",\"valueType\":\"string\"},{\"name\":\"kerning\",\"rangeEnd\":23,\"rangeStart\":0,\"value\":0,\"valueType\":\"double\"},{\"name\":\"fontSize\",\"rangeEnd\":23,\"rangeStart\":0,\"value\":80,\"valueType\":\"double\"}]",
                      "default-translation0" : 0.0,
                      "default-translation1" : 0.0,
                      "default-width" : 376.0
                    },
                    "animationTracks" : {

                    }
                  },
                  {
                    "id" : 198,
                    "_type" : "Callout",
                    "def" : {
                      "kind" : "remix",
                      "shape" : "text-rectangle",
                      "style" : "basic",
                      "enable-ligatures" : 1.0,
                      "fill-color-blue" : 1.0,
                      "fill-color-green" : 1.0,
                      "fill-color-opacity" : 0.0,
                      "fill-color-red" : 1.0,
                      "height" : 224.360446570973,
                      "line-spacing" : 0.0,
                      "stroke-color-blue" : 0.890196078431372,
                      "stroke-color-green" : 0.870588235294118,
                      "stroke-color-opacity" : 0.0,
                      "stroke-color-red" : 0.847058823529412,
                      "stroke-width" : 0.0,
                      "tail-x" : -245.578231821344,
                      "tail-y" : -8.81977671451352,
                      "width" : 1584.62587555512,
                      "word-wrap" : 1.0,
                      "fill-style" : "solid",
                      "horizontal-alignment" : "left",
                      "resize-behavior" : "resizeText",
                      "stroke-style" : "solid",
                      "text" : "Identify outstanding vulnerabilities",
                      "vertical-alignment" : "center",
                      "font" : {
                        "color-blue" : 0.266666666666667,
                        "color-green" : 0.231372549019608,
                        "color-opacity" : 1.0,
                        "color-red" : 0.184313725490196,
                        "size" : 64.0,
                        "tracking" : 0.0,
                        "name" : "Montserrat",
                        "weight" : "Regular"
                      },
                      "textAttributes" : {
                        "type" : "textAttributeList",
                        "keyframes" : [
                          {
                            "endTime" : 0,
                            "time" : 0,
                            "value" : [{"name":"fontName","rangeEnd":36,"rangeStart":0,"value":"???","valueType":"string"},{"name":"fontSize","rangeEnd":36,"rangeStart":0,"value":70,"valueType":"double"},{"name":"fgColor","rangeEnd":36,"rangeStart":0,"value":"(35,40,47,255)","valueType":"color"},{"name":"kerning","rangeEnd":36,"rangeStart":0,"value":0,"valueType":"double"},{"name":"underline","rangeEnd":36,"rangeStart":0,"value":0,"valueType":"int"},{"name":"strikethrough","rangeEnd":36,"rangeStart":0,"value":0,"valueType":"int"},{"name":"fontWeight","rangeEnd":36,"rangeStart":0,"value":400,"valueType":"int"},{"name":"fontItalic","rangeEnd":36,"rangeStart":0,"value":0,"valueType":"int"}],
                            "duration" : 0
                          }
                        ]
                      }
                    },
                    "attributes" : {
                      "autoRotateText" : true
                    },
                    "parameters" : {
                      "translation0" : 130.689874564567,
                      "translation1" : -99.5903371499146,
                      "sourceCrop0" : 0.0,
                      "sourceCrop1" : 0.0,
                      "sourceCrop2" : 0.0,
                      "sourceCrop3" : 0.0,
                      "geometryCrop0" : 0.0,
                      "geometryCrop1" : 0.0,
                      "geometryCrop2" : 0.0,
                      "geometryCrop3" : 0.0
                    },
                    "effects" : [

                    ],
                    "start" : 8506,
                    "duration" : 666,
                    "mediaStart" : 145,
                    "mediaDuration" : 666,
                    "scalar" : 1,
                    "metadata" : {
                      "clipSpeedAttribute" : false,
                      "default-HAlign" : "center",
                      "default-LineSpace" : 0.0,
                      "default-VAlign" : "center",
                      "default-fill-color-opacity" : 1.0,
                      "default-height" : 176.0,
                      "default-stroke-color-blue" : 0.56078431372549,
                      "default-stroke-color-green" : 0.686274509803922,
                      "default-stroke-color-opacity" : 1.0,
                      "default-stroke-color-red" : 0.0196078431372549,
                      "default-stroke-width" : 2.0,
                      "default-text-attributes" : "[{\"name\":\"fgColor\",\"rangeEnd\":23,\"rangeStart\":0,\"value\":\"(47,59,68,255)\",\"valueType\":\"color\"},{\"name\":\"underline\",\"rangeEnd\":23,\"rangeStart\":0,\"value\":0,\"valueType\":\"int\"},{\"name\":\"strikethrough\",\"rangeEnd\":23,\"rangeStart\":0,\"value\":0,\"valueType\":\"int\"},{\"name\":\"fontWeight\",\"rangeEnd\":23,\"rangeStart\":0,\"value\":400,\"valueType\":\"int\"},{\"name\":\"fontItalic\",\"rangeEnd\":23,\"rangeStart\":0,\"value\":0,\"valueType\":\"int\"},{\"name\":\"fontName\",\"rangeEnd\":23,\"rangeStart\":0,\"value\":\"Faktum Medium\",\"valueType\":\"string\"},{\"name\":\"kerning\",\"rangeEnd\":23,\"rangeStart\":0,\"value\":0,\"valueType\":\"double\"},{\"name\":\"fontSize\",\"rangeEnd\":23,\"rangeStart\":0,\"value\":80,\"valueType\":\"double\"}]",
                      "default-translation0" : 0.0,
                      "default-translation1" : 0.0,
                      "default-width" : 376.0
                    },
                    "animationTracks" : {

                    }
                  }
                ],
                "transitions" : [
                  {
                    "name" : "Fade",
                    "duration" : 30,
                    "trivial" : false,
                    "reverse" : false,
                    "bypass" : false,
                    "useAudioPreRoll" : true,
                    "useVisualPreRoll" : true,
                    "rightMedia" : 194
                  },
                  {
                    "name" : "Fade",
                    "duration" : 30,
                    "trivial" : false,
                    "reverse" : false,
                    "bypass" : false,
                    "useAudioPreRoll" : true,
                    "useVisualPreRoll" : true,
                    "rightMedia" : 196
                  },
                  {
                    "name" : "Fade",
                    "duration" : 30,
                    "trivial" : false,
                    "reverse" : false,
                    "bypass" : false,
                    "useAudioPreRoll" : true,
                    "useVisualPreRoll" : true,
                    "leftMedia" : 196
                  },
                  {
                    "name" : "Fade",
                    "duration" : 30,
                    "trivial" : false,
                    "reverse" : false,
                    "bypass" : false,
                    "useAudioPreRoll" : true,
                    "useVisualPreRoll" : true,
                    "rightMedia" : 197
                  },
                  {
                    "name" : "Fade",
                    "duration" : 30,
                    "trivial" : false,
                    "reverse" : false,
                    "bypass" : false,
                    "useAudioPreRoll" : true,
                    "useVisualPreRoll" : true,
                    "leftMedia" : 197
                  },
                  {
                    "name" : "Fade",
                    "duration" : 30,
                    "trivial" : false,
                    "reverse" : false,
                    "bypass" : false,
                    "useAudioPreRoll" : true,
                    "useVisualPreRoll" : true,
                    "rightMedia" : 198
                  }
                ]
              },
              {
                "trackIndex" : 7,
                "medias" : [
                  {
                    "id" : 199,
                    "_type" : "Group",
                    "parameters" : {
                      "translation0" : 23.2568226120861,
                      "translation1" : 19.3464912280702,
                      "sourceCrop0" : 0.0,
                      "sourceCrop1" : 0.0,
                      "sourceCrop2" : 0.0,
                      "sourceCrop3" : 0.0,
                      "geometryCrop0" : 0.0,
                      "geometryCrop1" : 0.0,
                      "geometryCrop2" : 0.0,
                      "geometryCrop3" : 0.0,
                      "volume" : 1.0
                    },
                    "tracks" : [
                      {
                        "trackIndex" : 0,
                        "medias" : [
                          {
                            "id" : 200,
                            "_type" : "IMFile",
                            "src" : 13,
                            "trackNumber" : 0,
                            "trimStartSum" : -10,
                            "attributes" : {
                              "ident" : "patch-trans"
                            },
                            "parameters" : {
                              "translation0" : 56.7592592592591,
                              "translation1" : -276.25,
                              "scale0" : 0.354166666666668,
                              "scale1" : 0.354166666666668,
                              "sourceCrop0" : 0.0,
                              "sourceCrop1" : 0.0,
                              "sourceCrop2" : 0.0,
                              "sourceCrop3" : 0.0,
                              "geometryCrop0" : 0.0,
                              "geometryCrop1" : 0.0,
                              "geometryCrop2" : 0.0,
                              "geometryCrop3" : 0.0
                            },
                            "effects" : [

                            ],
                            "start" : 0,
                            "duration" : 157,
                            "mediaStart" : 0,
                            "mediaDuration" : 1,
                            "scalar" : 1,
                            "metadata" : {
                              "clipSpeedAttribute" : false,
                              "default-height" : 160.0,
                              "default-scale0" : 1.0,
                              "default-scale1" : 1.0,
                              "default-translation0" : 0.0,
                              "default-translation1" : 0.0,
                              "default-width" : 184.0
                            },
                            "animationTracks" : {

                            }
                          }
                        ],
                          "ident" : "",
                          "audioMuted" : false,
                          "videoHidden" : false,
                          "magnetic" : false,
                          "matte" : 0,
                          "solo" : false,
                          "metadata" : {
                            "IsLocked" : "False",
                            "WinTrackHeight" : "56"
                          }
                      },
                      {
                        "trackIndex" : 1,
                        "medias" : [
                          {
                            "id" : 201,
                            "_type" : "IMFile",
                            "src" : 13,
                            "trackNumber" : 0,
                            "trimStartSum" : -10,
                            "attributes" : {
                              "ident" : "patch-trans"
                            },
                            "parameters" : {
                              "translation0" : -290.833333333333,
                              "translation1" : -9.82017543859654,
                              "scale0" : 0.354166666666668,
                              "scale1" : 0.354166666666668,
                              "sourceCrop0" : 0.0,
                              "sourceCrop1" : 0.0,
                              "sourceCrop2" : 0.0,
                              "sourceCrop3" : 0.0,
                              "geometryCrop0" : 0.0,
                              "geometryCrop1" : 0.0,
                              "geometryCrop2" : 0.0,
                              "geometryCrop3" : 0.0
                            },
                            "effects" : [

                            ],
                            "start" : 0,
                            "duration" : 157,
                            "mediaStart" : 0,
                            "mediaDuration" : 1,
                            "scalar" : 1,
                            "metadata" : {
                              "clipSpeedAttribute" : false,
                              "default-height" : 160.0,
                              "default-scale0" : 1.0,
                              "default-scale1" : 1.0,
                              "default-translation0" : 0.0,
                              "default-translation1" : 0.0,
                              "default-width" : 184.0
                            },
                            "animationTracks" : {

                            }
                          }
                        ],
                          "ident" : "",
                          "audioMuted" : false,
                          "videoHidden" : false,
                          "magnetic" : false,
                          "matte" : 0,
                          "solo" : false,
                          "metadata" : {
                            "IsLocked" : "False",
                            "WinTrackHeight" : "56"
                          }
                      },
                      {
                        "trackIndex" : 2,
                        "medias" : [
                          {
                            "id" : 202,
                            "_type" : "IMFile",
                            "src" : 13,
                            "trackNumber" : 0,
                            "trimStartSum" : -10,
                            "attributes" : {
                              "ident" : "patch-trans"
                            },
                            "parameters" : {
                              "translation0" : -220.833333333334,
                              "translation1" : 203.75,
                              "scale0" : 0.354166666666668,
                              "scale1" : 0.354166666666668,
                              "sourceCrop0" : 0.0,
                              "sourceCrop1" : 0.0,
                              "sourceCrop2" : 0.0,
                              "sourceCrop3" : 0.0,
                              "geometryCrop0" : 0.0,
                              "geometryCrop1" : 0.0,
                              "geometryCrop2" : 0.0,
                              "geometryCrop3" : 0.0
                            },
                            "effects" : [

                            ],
                            "start" : 0,
                            "duration" : 157,
                            "mediaStart" : 0,
                            "mediaDuration" : 1,
                            "scalar" : 1,
                            "metadata" : {
                              "clipSpeedAttribute" : false,
                              "default-height" : 160.0,
                              "default-scale0" : 1.0,
                              "default-scale1" : 1.0,
                              "default-translation0" : 0.0,
                              "default-translation1" : 0.0,
                              "default-width" : 184.0
                            },
                            "animationTracks" : {

                            }
                          }
                        ],
                          "ident" : "",
                          "audioMuted" : false,
                          "videoHidden" : false,
                          "magnetic" : false,
                          "matte" : 0,
                          "solo" : false,
                          "metadata" : {
                            "IsLocked" : "False",
                            "WinTrackHeight" : "56"
                          }
                      },
                      {
                        "trackIndex" : 3,
                        "medias" : [
                          {
                            "id" : 203,
                            "_type" : "IMFile",
                            "src" : 13,
                            "trackNumber" : 0,
                            "trimStartSum" : -10,
                            "attributes" : {
                              "ident" : "patch-trans"
                            },
                            "parameters" : {
                              "translation0" : -194.898148148148,
                              "translation1" : -209.583333333333,
                              "scale0" : 0.354166666666668,
                              "scale1" : 0.354166666666668,
                              "sourceCrop0" : 0.0,
                              "sourceCrop1" : 0.0,
                              "sourceCrop2" : 0.0,
                              "sourceCrop3" : 0.0,
                              "geometryCrop0" : 0.0,
                              "geometryCrop1" : 0.0,
                              "geometryCrop2" : 0.0,
                              "geometryCrop3" : 0.0
                            },
                            "effects" : [

                            ],
                            "start" : 0,
                            "duration" : 157,
                            "mediaStart" : 0,
                            "mediaDuration" : 1,
                            "scalar" : 1,
                            "metadata" : {
                              "clipSpeedAttribute" : false,
                              "default-height" : 160.0,
                              "default-scale0" : 1.0,
                              "default-scale1" : 1.0,
                              "default-translation0" : 0.0,
                              "default-translation1" : 0.0,
                              "default-width" : 184.0
                            },
                            "animationTracks" : {

                            }
                          }
                        ],
                          "ident" : "",
                          "audioMuted" : false,
                          "videoHidden" : false,
                          "magnetic" : false,
                          "matte" : 0,
                          "solo" : false,
                          "metadata" : {
                            "IsLocked" : "False",
                            "WinTrackHeight" : "56"
                          }
                      },
                      {
                        "trackIndex" : 4,
                        "medias" : [
                          {
                            "id" : 204,
                            "_type" : "IMFile",
                            "src" : 13,
                            "trackNumber" : 0,
                            "trimStartSum" : -10,
                            "attributes" : {
                              "ident" : "patch-trans"
                            },
                            "parameters" : {
                              "translation0" : 203.796296296296,
                              "translation1" : -176.25,
                              "scale0" : 0.354166666666668,
                              "scale1" : 0.354166666666668,
                              "sourceCrop0" : 0.0,
                              "sourceCrop1" : 0.0,
                              "sourceCrop2" : 0.0,
                              "sourceCrop3" : 0.0,
                              "geometryCrop0" : 0.0,
                              "geometryCrop1" : 0.0,
                              "geometryCrop2" : 0.0,
                              "geometryCrop3" : 0.0
                            },
                            "effects" : [

                            ],
                            "start" : 0,
                            "duration" : 157,
                            "mediaStart" : 0,
                            "mediaDuration" : 1,
                            "scalar" : 1,
                            "metadata" : {
                              "clipSpeedAttribute" : false,
                              "default-height" : 160.0,
                              "default-scale0" : 1.0,
                              "default-scale1" : 1.0,
                              "default-translation0" : 0.0,
                              "default-translation1" : 0.0,
                              "default-width" : 184.0
                            },
                            "animationTracks" : {

                            }
                          }
                        ],
                          "ident" : "",
                          "audioMuted" : false,
                          "videoHidden" : false,
                          "magnetic" : false,
                          "matte" : 0,
                          "solo" : false,
                          "metadata" : {
                            "IsLocked" : "False",
                            "WinTrackHeight" : "56"
                          }
                      },
                      {
                        "trackIndex" : 5,
                        "medias" : [
                          {
                            "id" : 205,
                            "_type" : "IMFile",
                            "src" : 13,
                            "trackNumber" : 0,
                            "trimStartSum" : -10,
                            "attributes" : {
                              "ident" : "patch-trans"
                            },
                            "parameters" : {
                              "translation0" : 188.259259259259,
                              "translation1" : 237.083333333333,
                              "scale0" : 0.354166666666668,
                              "scale1" : 0.354166666666668,
                              "sourceCrop0" : 0.0,
                              "sourceCrop1" : 0.0,
                              "sourceCrop2" : 0.0,
                              "sourceCrop3" : 0.0,
                              "geometryCrop0" : 0.0,
                              "geometryCrop1" : 0.0,
                              "geometryCrop2" : 0.0,
                              "geometryCrop3" : 0.0
                            },
                            "effects" : [

                            ],
                            "start" : 0,
                            "duration" : 157,
                            "mediaStart" : 0,
                            "mediaDuration" : 1,
                            "scalar" : 1,
                            "metadata" : {
                              "clipSpeedAttribute" : false,
                              "default-height" : 160.0,
                              "default-scale0" : 1.0,
                              "default-scale1" : 1.0,
                              "default-translation0" : 0.0,
                              "default-translation1" : 0.0,
                              "default-width" : 184.0
                            },
                            "animationTracks" : {

                            }
                          }
                        ],
                          "ident" : "",
                          "audioMuted" : false,
                          "videoHidden" : false,
                          "magnetic" : false,
                          "matte" : 0,
                          "solo" : false,
                          "metadata" : {
                            "IsLocked" : "False",
                            "WinTrackHeight" : "56"
                          }
                      },
                      {
                        "trackIndex" : 6,
                        "medias" : [
                          {
                            "id" : 206,
                            "_type" : "IMFile",
                            "src" : 13,
                            "trackNumber" : 0,
                            "trimStartSum" : -10,
                            "attributes" : {
                              "ident" : "patch-trans"
                            },
                            "parameters" : {
                              "translation0" : 4.74756335282672,
                              "translation1" : 276.25,
                              "scale0" : 0.354166666666668,
                              "scale1" : 0.354166666666668,
                              "sourceCrop0" : 0.0,
                              "sourceCrop1" : 0.0,
                              "sourceCrop2" : 0.0,
                              "sourceCrop3" : 0.0,
                              "geometryCrop0" : 0.0,
                              "geometryCrop1" : 0.0,
                              "geometryCrop2" : 0.0,
                              "geometryCrop3" : 0.0
                            },
                            "effects" : [

                            ],
                            "start" : 0,
                            "duration" : 157,
                            "mediaStart" : 0,
                            "mediaDuration" : 1,
                            "scalar" : 1,
                            "metadata" : {
                              "clipSpeedAttribute" : false,
                              "default-height" : 160.0,
                              "default-scale0" : 1.0,
                              "default-scale1" : 1.0,
                              "default-translation0" : 0.0,
                              "default-translation1" : 0.0,
                              "default-width" : 184.0
                            },
                            "animationTracks" : {

                            }
                          }
                        ],
                          "ident" : "",
                          "audioMuted" : false,
                          "videoHidden" : false,
                          "magnetic" : false,
                          "matte" : 0,
                          "solo" : false,
                          "metadata" : {
                            "IsLocked" : "False",
                            "WinTrackHeight" : "56"
                          }
                      },
                      {
                        "trackIndex" : 7,
                        "medias" : [
                          {
                            "id" : 207,
                            "_type" : "IMFile",
                            "src" : 13,
                            "trackNumber" : 0,
                            "trimStartSum" : -10,
                            "attributes" : {
                              "ident" : "patch-trans"
                            },
                            "parameters" : {
                              "translation0" : 290.833333333333,
                              "translation1" : 75.4166666666664,
                              "scale0" : 0.354166666666668,
                              "scale1" : 0.354166666666668,
                              "sourceCrop0" : 0.0,
                              "sourceCrop1" : 0.0,
                              "sourceCrop2" : 0.0,
                              "sourceCrop3" : 0.0,
                              "geometryCrop0" : 0.0,
                              "geometryCrop1" : 0.0,
                              "geometryCrop2" : 0.0,
                              "geometryCrop3" : 0.0
                            },
                            "effects" : [

                            ],
                            "start" : 0,
                            "duration" : 157,
                            "mediaStart" : 0,
                            "mediaDuration" : 1,
                            "scalar" : 1,
                            "metadata" : {
                              "clipSpeedAttribute" : false,
                              "default-height" : 160.0,
                              "default-scale0" : 1.0,
                              "default-scale1" : 1.0,
                              "default-translation0" : 0.0,
                              "default-translation1" : 0.0,
                              "default-width" : 184.0
                            },
                            "animationTracks" : {

                            }
                          }
                        ],
                          "ident" : "",
                          "audioMuted" : false,
                          "videoHidden" : false,
                          "magnetic" : false,
                          "matte" : 0,
                          "solo" : false,
                          "metadata" : {
                            "IsLocked" : "False",
                            "WinTrackHeight" : "56"
                          }
                      }
                    ],
                    "attributes" : {
                      "ident" : "patches-EA",
                      "widthAttr" : 646.0,
                      "heightAttr" : 609.0,
                      "gain" : 1.0,
                      "mixToMono" : false,
                      "assetProperties" : [
                      ]
                    },
                    "effects" : [

                    ],
                    "start" : 862,
                    "duration" : 157,
                    "mediaStart" : 0.0,
                    "mediaDuration" : 157.0,
                    "scalar" : 1,
                    "metadata" : {
                      "clipSpeedAttribute" : false
                    },
                    "animationTracks" : {

                    }
                  },
                  {
                    "id" : 208,
                    "_type" : "IMFile",
                    "src" : 14,
                    "trackNumber" : 0,
                    "trimStartSum" : 0,
                    "attributes" : {
                      "ident" : "ceo-laptop"
                    },
                    "parameters" : {
                      "translation0" : {
                        "type" : "double",
                        "defaultValue" : -27.5286197662354,
                        "keyframes" : [
                          {
                            "endTime" : 121,
                            "time" : 91,
                            "value" : 404.386273850786,
                            "duration" : 30
                          }
                        ]
                      },
                      "translation1" : {
                        "type" : "double",
                        "defaultValue" : -62.1331067223532,
                        "keyframes" : [
                          {
                            "endTime" : 121,
                            "time" : 91,
                            "value" : -223.835234381928,
                            "duration" : 30
                          }
                        ]
                      },
                      "scale0" : {
                        "type" : "double",
                        "defaultValue" : 1.19033471275778,
                        "keyframes" : [
                          {
                            "endTime" : 121,
                            "time" : 91,
                            "value" : 1.19033471275778,
                            "duration" : 30
                          }
                        ]
                      },
                      "scale1" : {
                        "type" : "double",
                        "defaultValue" : 1.19033471275778,
                        "keyframes" : [
                          {
                            "endTime" : 121,
                            "time" : 91,
                            "value" : 1.19033471275778,
                            "duration" : 30
                          }
                        ]
                      },
                      "sourceCrop0" : 0.0,
                      "sourceCrop1" : 0.0,
                      "sourceCrop2" : 0.0,
                      "sourceCrop3" : 0.0,
                      "geometryCrop0" : 0.0,
                      "geometryCrop1" : 0.0,
                      "geometryCrop2" : 0.0,
                      "geometryCrop3" : 0.0
                    },
                    "effects" : [

                    ],
                    "start" : 2235,
                    "duration" : 529,
                    "mediaStart" : 0,
                    "mediaDuration" : 1,
                    "scalar" : 1,
                    "metadata" : {
                      "clipSpeedAttribute" : false,
                      "default-height" : 57.0,
                      "default-scale0" : 1.0,
                      "default-scale1" : 1.0,
                      "default-translation0" : 0.0,
                      "default-translation1" : -0.5,
                      "default-width" : 68.0
                    },
                    "animationTracks" : {
                      "visual" : [
                        {
                          "endTime" : 121,
                          "duration" : 30,
                          "range" : [ 91, 30]
                        }
                      ]
                    }
                  },
                  {
                    "id" : 209,
                    "_type" : "IMFile",
                    "src" : 30,
                    "trackNumber" : 0,
                    "trimStartSum" : 0,
                    "attributes" : {
                      "ident" : "no"
                    },
                    "parameters" : {
                      "translation0" : -817.029156214488,
                      "translation1" : -143.886979402664,
                      "scale0" : 0.78667835538636,
                      "scale1" : 0.78667835538636,
                      "sourceCrop0" : 0.0,
                      "sourceCrop1" : 0.0,
                      "sourceCrop2" : 0.0,
                      "sourceCrop3" : 0.0,
                      "geometryCrop0" : 0.0,
                      "geometryCrop1" : 0.0,
                      "geometryCrop2" : 0.0,
                      "geometryCrop3" : 0.0
                    },
                    "effects" : [

                    ],
                    "start" : 3298,
                    "duration" : 212,
                    "mediaStart" : 0,
                    "mediaDuration" : 1,
                    "scalar" : 1,
                    "metadata" : {
                      "clipSpeedAttribute" : false,
                      "default-height" : 146.0,
                      "default-scale0" : 1.0,
                      "default-scale1" : 1.0,
                      "default-translation0" : 0.0,
                      "default-translation1" : 0.0,
                      "default-width" : 174.0
                    },
                    "animationTracks" : {

                    }
                  },
                  {
                    "id" : 210,
                    "_type" : "IMFile",
                    "src" : 18,
                    "trackNumber" : 0,
                    "trimStartSum" : 0,
                    "attributes" : {
                      "ident" : "calculcator"
                    },
                    "parameters" : {
                      "translation0" : 49.7896183641589,
                      "translation1" : -72.1271930493806,
                      "scale0" : 1.10162601691308,
                      "scale1" : 1.10162601691308,
                      "sourceCrop0" : 0.0,
                      "sourceCrop1" : 0.0,
                      "sourceCrop2" : 0.0,
                      "sourceCrop3" : 0.0,
                      "geometryCrop0" : 0.0,
                      "geometryCrop1" : 0.0,
                      "geometryCrop2" : 0.0,
                      "geometryCrop3" : 0.0
                    },
                    "effects" : [

                    ],
                    "start" : 4922,
                    "duration" : 428,
                    "mediaStart" : 0,
                    "mediaDuration" : 1,
                    "scalar" : 1,
                    "metadata" : {
                      "clipSpeedAttribute" : false,
                      "default-height" : 205.0,
                      "default-scale0" : 1.0,
                      "default-scale1" : 1.0,
                      "default-translation0" : -0.5,
                      "default-translation1" : -0.5,
                      "default-width" : 155.0
                    },
                    "animationTracks" : {

                    }
                  },
                  {
                    "id" : 211,
                    "_type" : "IMFile",
                    "src" : 19,
                    "trackNumber" : 0,
                    "trimStartSum" : 0,
                    "attributes" : {
                      "ident" : "bored"
                    },
                    "parameters" : {
                      "translation0" : 654.545454545455,
                      "translation1" : 163.789473684211,
                      "sourceCrop0" : 0.0,
                      "sourceCrop1" : 0.0,
                      "sourceCrop2" : 0.0,
                      "sourceCrop3" : 0.0,
                      "geometryCrop0" : 0.0,
                      "geometryCrop1" : 0.0,
                      "geometryCrop2" : 0.0,
                      "geometryCrop3" : 0.0
                    },
                    "effects" : [

                    ],
                    "start" : 5487,
                    "duration" : 58,
                    "mediaStart" : 0,
                    "mediaDuration" : 1,
                    "scalar" : 1,
                    "metadata" : {
                      "clipSpeedAttribute" : false,
                      "default-height" : 246.0,
                      "default-translation0" : 0.0,
                      "default-translation1" : 0.0,
                      "default-width" : 226.0
                    },
                    "animationTracks" : {

                    }
                  },
                  {
                    "id" : 212,
                    "_type" : "IMFile",
                    "src" : 20,
                    "trackNumber" : 0,
                    "trimStartSum" : 0,
                    "attributes" : {
                      "ident" : "confused"
                    },
                    "parameters" : {
                      "translation0" : 21.8181818181819,
                      "translation1" : 134.533702677747,
                      "sourceCrop0" : 0.0,
                      "sourceCrop1" : 0.0,
                      "sourceCrop2" : 0.0,
                      "sourceCrop3" : 0.0,
                      "geometryCrop0" : 0.0,
                      "geometryCrop1" : 0.0,
                      "geometryCrop2" : 0.0,
                      "geometryCrop3" : 0.0
                    },
                    "effects" : [

                    ],
                    "start" : 5583,
                    "duration" : 150,
                    "mediaStart" : 0,
                    "mediaDuration" : 1,
                    "scalar" : 1,
                    "metadata" : {
                      "clipSpeedAttribute" : false,
                      "default-height" : 235.0,
                      "default-translation0" : 0.0,
                      "default-translation1" : -0.5,
                      "default-width" : 204.0
                    },
                    "animationTracks" : {

                    }
                  },
                  {
                    "id" : 213,
                    "_type" : "IMFile",
                    "src" : 21,
                    "trackNumber" : 0,
                    "trimStartSum" : -13,
                    "attributes" : {
                      "ident" : "correct"
                    },
                    "parameters" : {
                      "translation0" : 350.409090909091,
                      "translation1" : 145.289473684211,
                      "sourceCrop0" : 0.0,
                      "sourceCrop1" : 0.0,
                      "sourceCrop2" : 0.0,
                      "sourceCrop3" : 0.0,
                      "geometryCrop0" : 0.0,
                      "geometryCrop1" : 0.0,
                      "geometryCrop2" : 0.0,
                      "geometryCrop3" : 0.0
                    },
                    "effects" : [

                    ],
                    "start" : 5854,
                    "duration" : 123,
                    "mediaStart" : 0,
                    "mediaDuration" : 1,
                    "scalar" : 1,
                    "metadata" : {
                      "clipSpeedAttribute" : false,
                      "default-height" : 209.0,
                      "default-translation0" : -0.5,
                      "default-translation1" : -0.5,
                      "default-width" : 169.0
                    },
                    "animationTracks" : {

                    }
                  },
                  {
                    "id" : 214,
                    "_type" : "Callout",
                    "def" : {
                      "kind" : "remix",
                      "shape" : "text-rectangle",
                      "style" : "basic",
                      "enable-ligatures" : 1.0,
                      "fill-color-blue" : 1.0,
                      "fill-color-green" : 1.0,
                      "fill-color-opacity" : 0.0,
                      "fill-color-red" : 1.0,
                      "height" : 10.7811035918793,
                      "line-spacing" : 0.0,
                      "stroke-color-blue" : 0.890196078431372,
                      "stroke-color-green" : 0.870588235294118,
                      "stroke-color-opacity" : 1.0,
                      "stroke-color-red" : 0.847058823529412,
                      "stroke-width" : 9.32203389830508,
                      "tail-x" : 159.833333333333,
                      "tail-y" : -77.3905517959396,
                      "width" : 14.3333333333333,
                      "word-wrap" : 1.0,
                      "fill-style" : "solid",
                      "horizontal-alignment" : "center",
                      "resize-behavior" : "resizeText",
                      "stroke-style" : "solid",
                      "text" : "",
                      "vertical-alignment" : "center",
                      "font" : {
                        "color-blue" : 0.266666666666667,
                        "color-green" : 0.231372549019608,
                        "color-opacity" : 1.0,
                        "color-red" : 0.184313725490196,
                        "size" : 64.0,
                        "tracking" : 0.0,
                        "name" : "Montserrat",
                        "weight" : "Regular"
                      },
                      "textAttributes" : {
                        "type" : "textAttributeList",
                        "keyframes" : [
                          {
                            "endTime" : 0,
                            "time" : 0,
                            "value" : [{"name":"fgColor","rangeEnd":1,"rangeStart":0,"value":"(47,59,68,255)","valueType":"color"},{"name":"fontSize","rangeEnd":1,"rangeStart":0,"value":64,"valueType":"double"},{"name":"fontWeight","rangeEnd":1,"rangeStart":0,"value":400,"valueType":"int"},{"name":"kerning","rangeEnd":1,"rangeStart":0,"value":0,"valueType":"double"},{"name":"underline","rangeEnd":1,"rangeStart":0,"value":0,"valueType":"int"},{"name":"strikethrough","rangeEnd":1,"rangeStart":0,"value":0,"valueType":"int"},{"name":"fontItalic","rangeEnd":1,"rangeStart":0,"value":0,"valueType":"int"},{"name":"fontName","rangeEnd":1,"rangeStart":0,"value":"Montserrat","valueType":"string"}],
                            "duration" : 0
                          }
                        ]
                      }
                    },
                    "attributes" : {
                      "autoRotateText" : true
                    },
                    "parameters" : {
                      "translation0" : -352.530303030303,
                      "translation1" : -4.39055156707763,
                      "sourceCrop0" : 0.0,
                      "sourceCrop1" : 0.0,
                      "sourceCrop2" : 0.0,
                      "sourceCrop3" : 0.0,
                      "geometryCrop0" : 0.0,
                      "geometryCrop1" : 0.0,
                      "geometryCrop2" : 0.0,
                      "geometryCrop3" : 0.0
                    },
                    "effects" : [

                    ],
                    "start" : 6210,
                    "duration" : 104,
                    "mediaStart" : 0,
                    "mediaDuration" : 104,
                    "scalar" : 1,
                    "metadata" : {
                      "clipSpeedAttribute" : false,
                      "default-HAlign" : "center",
                      "default-LineSpace" : 0.0,
                      "default-VAlign" : "center",
                      "default-fill-color-opacity" : 1.0,
                      "default-height" : 176.0,
                      "default-stroke-color-blue" : 0.56078431372549,
                      "default-stroke-color-green" : 0.686274509803922,
                      "default-stroke-color-red" : 0.0196078431372549,
                      "default-stroke-width" : 2.0,
                      "default-translation0" : 0.0,
                      "default-translation1" : 0.0,
                      "default-width" : 376.0
                    },
                    "animationTracks" : {

                    }
                  },
                  {
                    "id" : 215,
                    "_type" : "Callout",
                    "def" : {
                      "kind" : "remix",
                      "shape" : "text-rectangle",
                      "style" : "basic",
                      "enable-ligatures" : 1.0,
                      "fill-color-blue" : 1.0,
                      "fill-color-green" : 1.0,
                      "fill-color-opacity" : 0.0,
                      "fill-color-red" : 1.0,
                      "height" : 189.814992025518,
                      "line-spacing" : 0.0,
                      "stroke-color-blue" : 0.890196078431372,
                      "stroke-color-green" : 0.870588235294118,
                      "stroke-color-opacity" : 0.0,
                      "stroke-color-red" : 0.847058823529412,
                      "stroke-width" : 0.0,
                      "tail-x" : -816.585602828715,
                      "tail-y" : -26.0925039872408,
                      "width" : 271.702042631286,
                      "word-wrap" : 1.0,
                      "fill-style" : "solid",
                      "horizontal-alignment" : "left",
                      "resize-behavior" : "resizeText",
                      "stroke-style" : "solid",
                      "text" : "= 80%",
                      "vertical-alignment" : "center",
                      "font" : {
                        "color-blue" : 0.266666666666667,
                        "color-green" : 0.231372549019608,
                        "color-opacity" : 1.0,
                        "color-red" : 0.184313725490196,
                        "size" : 64.0,
                        "tracking" : 0.0,
                        "name" : "Montserrat",
                        "weight" : "Regular"
                      },
                      "textAttributes" : {
                        "type" : "textAttributeList",
                        "keyframes" : [
                          {
                            "endTime" : 0,
                            "time" : 0,
                            "value" : [{"name":"fontItalic","rangeEnd":5,"rangeStart":0,"value":0,"valueType":"int"},{"name":"fgColor","rangeEnd":5,"rangeStart":0,"value":"(35,40,47,255)","valueType":"color"},{"name":"underline","rangeEnd":5,"rangeStart":0,"value":0,"valueType":"int"},{"name":"fontWeight","rangeEnd":5,"rangeStart":0,"value":400,"valueType":"int"},{"name":"strikethrough","rangeEnd":5,"rangeStart":0,"value":0,"valueType":"int"},{"name":"fontSize","rangeEnd":5,"rangeStart":0,"value":80,"valueType":"double"},{"name":"fontName","rangeEnd":5,"rangeStart":0,"value":"Faktum Medium","valueType":"string"},{"name":"kerning","rangeEnd":5,"rangeStart":0,"value":0,"valueType":"double"}],
                            "duration" : 0
                          }
                        ]
                      }
                    },
                    "attributes" : {
                      "autoRotateText" : true
                    },
                    "parameters" : {
                      "translation0" : 658.060881935574,
                      "translation1" : 105.249957690381,
                      "sourceCrop0" : 0.0,
                      "sourceCrop1" : 0.0,
                      "sourceCrop2" : 0.0,
                      "sourceCrop3" : 0.0,
                      "geometryCrop0" : 0.0,
                      "geometryCrop1" : 0.0,
                      "geometryCrop2" : 0.0,
                      "geometryCrop3" : 0.0
                    },
                    "effects" : [

                    ],
                    "start" : 6558,
                    "duration" : 376,
                    "mediaStart" : 26,
                    "mediaDuration" : 376,
                    "scalar" : 1,
                    "metadata" : {
                      "clipSpeedAttribute" : false,
                      "default-HAlign" : "center",
                      "default-LineSpace" : 0.0,
                      "default-VAlign" : "center",
                      "default-fill-color-opacity" : 1.0,
                      "default-height" : 176.0,
                      "default-stroke-color-blue" : 0.56078431372549,
                      "default-stroke-color-green" : 0.686274509803922,
                      "default-stroke-color-opacity" : 1.0,
                      "default-stroke-color-red" : 0.0196078431372549,
                      "default-stroke-width" : 2.0,
                      "default-text-attributes" : "[{\"name\":\"fgColor\",\"rangeEnd\":23,\"rangeStart\":0,\"value\":\"(47,59,68,255)\",\"valueType\":\"color\"},{\"name\":\"underline\",\"rangeEnd\":23,\"rangeStart\":0,\"value\":0,\"valueType\":\"int\"},{\"name\":\"strikethrough\",\"rangeEnd\":23,\"rangeStart\":0,\"value\":0,\"valueType\":\"int\"},{\"name\":\"fontWeight\",\"rangeEnd\":23,\"rangeStart\":0,\"value\":400,\"valueType\":\"int\"},{\"name\":\"fontItalic\",\"rangeEnd\":23,\"rangeStart\":0,\"value\":0,\"valueType\":\"int\"},{\"name\":\"fontName\",\"rangeEnd\":23,\"rangeStart\":0,\"value\":\"Faktum Medium\",\"valueType\":\"string\"},{\"name\":\"kerning\",\"rangeEnd\":23,\"rangeStart\":0,\"value\":0,\"valueType\":\"double\"},{\"name\":\"fontSize\",\"rangeEnd\":23,\"rangeStart\":0,\"value\":80,\"valueType\":\"double\"}]",
                      "default-translation0" : 0.0,
                      "default-translation1" : 0.0,
                      "default-width" : 376.0
                    },
                    "animationTracks" : {

                    }
                  },
                  {
                    "id" : 216,
                    "_type" : "IMFile",
                    "src" : 25,
                    "trackNumber" : 0,
                    "trimStartSum" : 0,
                    "attributes" : {
                      "ident" : "find-patch"
                    },
                    "parameters" : {
                      "translation0" : -773.880110134879,
                      "translation1" : -105.41920908405,
                      "scale0" : 0.701280227596017,
                      "scale1" : 0.701280227596017,
                      "sourceCrop0" : 0.0,
                      "sourceCrop1" : 0.0,
                      "sourceCrop2" : 0.0,
                      "sourceCrop3" : 0.0,
                      "geometryCrop0" : 0.0,
                      "geometryCrop1" : 0.0,
                      "geometryCrop2" : 0.0,
                      "geometryCrop3" : 0.0
                    },
                    "effects" : [

                    ],
                    "start" : 8506,
                    "duration" : 666,
                    "mediaStart" : 0,
                    "mediaDuration" : 1,
                    "scalar" : 1,
                    "metadata" : {
                      "clipSpeedAttribute" : false,
                      "default-height" : 190.0,
                      "default-scale0" : 1.0,
                      "default-scale1" : 1.0,
                      "default-translation0" : 0.0,
                      "default-translation1" : 0.0,
                      "default-width" : 190.0
                    },
                    "animationTracks" : {

                    }
                  }
                ],
                "transitions" : [
                  {
                    "name" : "Fade",
                    "duration" : 30,
                    "trivial" : false,
                    "reverse" : false,
                    "bypass" : false,
                    "useAudioPreRoll" : true,
                    "useVisualPreRoll" : true,
                    "rightMedia" : 209
                  },
                  {
                    "name" : "Fade",
                    "duration" : 30,
                    "trivial" : false,
                    "reverse" : false,
                    "bypass" : false,
                    "useAudioPreRoll" : true,
                    "useVisualPreRoll" : true,
                    "rightMedia" : 210
                  },
                  {
                    "name" : "Fade",
                    "duration" : 30,
                    "trivial" : false,
                    "reverse" : false,
                    "bypass" : false,
                    "useAudioPreRoll" : true,
                    "useVisualPreRoll" : true,
                    "leftMedia" : 210
                  },
                  {
                    "name" : "Fade",
                    "duration" : 30,
                    "trivial" : false,
                    "reverse" : false,
                    "bypass" : false,
                    "useAudioPreRoll" : true,
                    "useVisualPreRoll" : true,
                    "rightMedia" : 211
                  },
                  {
                    "name" : "Fade",
                    "duration" : 28,
                    "trivial" : false,
                    "reverse" : false,
                    "bypass" : false,
                    "useAudioPreRoll" : true,
                    "useVisualPreRoll" : true,
                    "leftMedia" : 211
                  },
                  {
                    "name" : "Fade",
                    "duration" : 30,
                    "trivial" : false,
                    "reverse" : false,
                    "bypass" : false,
                    "useAudioPreRoll" : true,
                    "useVisualPreRoll" : true,
                    "rightMedia" : 212
                  },
                  {
                    "name" : "Fade",
                    "duration" : 30,
                    "trivial" : false,
                    "reverse" : false,
                    "bypass" : false,
                    "useAudioPreRoll" : true,
                    "useVisualPreRoll" : true,
                    "leftMedia" : 212
                  },
                  {
                    "name" : "Fade",
                    "duration" : 30,
                    "trivial" : false,
                    "reverse" : false,
                    "bypass" : false,
                    "useAudioPreRoll" : true,
                    "useVisualPreRoll" : true,
                    "rightMedia" : 213
                  },
                  {
                    "name" : "Fade",
                    "duration" : 30,
                    "trivial" : false,
                    "reverse" : false,
                    "bypass" : false,
                    "useAudioPreRoll" : true,
                    "useVisualPreRoll" : true,
                    "rightMedia" : 214
                  },
                  {
                    "name" : "Fade",
                    "duration" : 30,
                    "trivial" : false,
                    "reverse" : false,
                    "bypass" : false,
                    "useAudioPreRoll" : true,
                    "useVisualPreRoll" : true,
                    "leftMedia" : 214
                  },
                  {
                    "name" : "Fade",
                    "duration" : 30,
                    "trivial" : false,
                    "reverse" : false,
                    "bypass" : false,
                    "useAudioPreRoll" : true,
                    "useVisualPreRoll" : true,
                    "rightMedia" : 215
                  },
                  {
                    "name" : "Fade",
                    "duration" : 30,
                    "trivial" : false,
                    "reverse" : false,
                    "bypass" : false,
                    "useAudioPreRoll" : true,
                    "useVisualPreRoll" : true,
                    "leftMedia" : 215
                  },
                  {
                    "name" : "Fade",
                    "duration" : 30,
                    "trivial" : false,
                    "reverse" : false,
                    "bypass" : false,
                    "useAudioPreRoll" : true,
                    "useVisualPreRoll" : true,
                    "rightMedia" : 216
                  }
                ]
              },
              {
                "trackIndex" : 8,
                "medias" : [
                  {
                    "id" : 217,
                    "_type" : "Callout",
                    "def" : {
                      "kind" : "remix",
                      "shape" : "text-rectangle",
                      "style" : "basic",
                      "enable-ligatures" : 1.0,
                      "fill-color-blue" : 1.0,
                      "fill-color-green" : 1.0,
                      "fill-color-opacity" : 0.0,
                      "fill-color-red" : 1.0,
                      "height" : 93.5701754385966,
                      "line-spacing" : 0.0,
                      "stroke-color-blue" : 0.56078431372549,
                      "stroke-color-green" : 0.686274509803922,
                      "stroke-color-opacity" : 0.0,
                      "stroke-color-red" : 0.0196078431372549,
                      "stroke-width" : 2.0,
                      "tail-x" : -139.942760942761,
                      "tail-y" : -48.2149122807017,
                      "width" : 70.1144781144788,
                      "word-wrap" : 1.0,
                      "fill-style" : "solid",
                      "horizontal-alignment" : "center",
                      "resize-behavior" : "resizeText",
                      "stroke-style" : "solid",
                      "text" : "ü",
                      "vertical-alignment" : "center",
                      "font" : {
                        "color-blue" : 0.266666666666667,
                        "color-green" : 0.231372549019608,
                        "color-opacity" : 1.0,
                        "color-red" : 0.184313725490196,
                        "size" : 64.0,
                        "tracking" : 0.0,
                        "name" : "Montserrat",
                        "weight" : "Regular"
                      },
                      "textAttributes" : {
                        "type" : "textAttributeList",
                        "keyframes" : [
                          {
                            "endTime" : 0,
                            "time" : 0,
                            "value" : [{"name":"strikethrough","rangeEnd":2,"rangeStart":0,"value":0,"valueType":"int"},{"name":"fontWeight","rangeEnd":2,"rangeStart":0,"value":400,"valueType":"int"},{"name":"fontName","rangeEnd":2,"rangeStart":0,"value":"Wingdings","valueType":"string"},{"name":"fontSize","rangeEnd":2,"rangeStart":0,"value":103,"valueType":"double"},{"name":"fontItalic","rangeEnd":2,"rangeStart":0,"value":0,"valueType":"int"},{"name":"underline","rangeEnd":2,"rangeStart":0,"value":0,"valueType":"int"},{"name":"kerning","rangeEnd":2,"rangeStart":0,"value":0,"valueType":"double"},{"name":"fgColor","rangeEnd":2,"rangeStart":0,"value":"(254,5,5,255)","valueType":"color"}],
                            "duration" : 0
                          }
                        ]
                      }
                    },
                    "attributes" : {
                      "autoRotateText" : true
                    },
                    "parameters" : {
                      "translation0" : 17.8284600389869,
                      "translation1" : 348.214912146852,
                      "sourceCrop0" : 0.0,
                      "sourceCrop1" : 0.0,
                      "sourceCrop2" : 0.0,
                      "sourceCrop3" : 0.0,
                      "geometryCrop0" : 0.0,
                      "geometryCrop1" : 0.0,
                      "geometryCrop2" : 0.0,
                      "geometryCrop3" : 0.0
                    },
                    "effects" : [

                    ],
                    "start" : 904,
                    "duration" : 115,
                    "mediaStart" : 0,
                    "mediaDuration" : 115,
                    "scalar" : 1,
                    "metadata" : {
                      "clipSpeedAttribute" : false,
                      "default-HAlign" : "center",
                      "default-LineSpace" : 0.0,
                      "default-VAlign" : "center",
                      "default-fill-color-opacity" : 1.0,
                      "default-height" : 176.0,
                      "default-stroke-color-opacity" : 1.0,
                      "default-translation0" : 0.0,
                      "default-translation1" : 0.0,
                      "default-width" : 376.0
                    },
                    "animationTracks" : {

                    }
                  },
                  {
                    "id" : 218,
                    "_type" : "IMFile",
                    "src" : 15,
                    "trackNumber" : 0,
                    "trimStartSum" : 0,
                    "attributes" : {
                      "ident" : "finger"
                    },
                    "parameters" : {
                      "translation0" : {
                        "type" : "double",
                        "defaultValue" : 34.9713802337644,
                        "keyframes" : [
                          {
                            "endTime" : 50,
                            "time" : 20,
                            "value" : 466.886273850786,
                            "duration" : 30
                          }
                        ]
                      },
                      "translation1" : {
                        "type" : "double",
                        "defaultValue" : -115.133106722353,
                        "keyframes" : [
                          {
                            "endTime" : 50,
                            "time" : 20,
                            "value" : -276.835234381928,
                            "duration" : 30
                          }
                        ]
                      },
                      "sourceCrop0" : 0.0,
                      "sourceCrop1" : 0.0,
                      "sourceCrop2" : 0.0,
                      "sourceCrop3" : 0.0,
                      "geometryCrop0" : 0.0,
                      "geometryCrop1" : 0.0,
                      "geometryCrop2" : 0.0,
                      "geometryCrop3" : 0.0
                    },
                    "effects" : [

                    ],
                    "start" : 2306,
                    "duration" : 65,
                    "mediaStart" : 0,
                    "mediaDuration" : 1,
                    "scalar" : 1,
                    "metadata" : {
                      "clipSpeedAttribute" : false,
                      "default-height" : 106.0,
                      "default-translation0" : -0.5,
                      "default-translation1" : 0.0,
                      "default-width" : 125.0
                    },
                    "animationTracks" : {
                      "visual" : [
                        {
                          "endTime" : 50,
                          "duration" : 30,
                          "range" : [ 20, 30]
                        }
                      ]
                    }
                  },
                  {
                    "id" : 219,
                    "_type" : "Callout",
                    "def" : {
                      "kind" : "remix",
                      "shape" : "text-rectangle",
                      "style" : "basic",
                      "enable-ligatures" : 1.0,
                      "fill-color-blue" : 1.0,
                      "fill-color-green" : 1.0,
                      "fill-color-opacity" : 0.0,
                      "fill-color-red" : 1.0,
                      "height" : 178.0,
                      "line-spacing" : 0.0,
                      "stroke-color-blue" : 0.56078431372549,
                      "stroke-color-green" : 0.686274509803922,
                      "stroke-color-opacity" : 0.0,
                      "stroke-color-red" : 0.0196078431372549,
                      "stroke-width" : 2.0,
                      "tail-x" : -318.643038463575,
                      "tail-y" : -48.2149131152657,
                      "width" : 629.942737051731,
                      "word-wrap" : 1.0,
                      "fill-style" : "solid",
                      "horizontal-alignment" : "center",
                      "resize-behavior" : "resizeText",
                      "stroke-style" : "solid",
                      "text" : "test machines",
                      "vertical-alignment" : "center",
                      "font" : {
                        "color-blue" : 0.266666666666667,
                        "color-green" : 0.231372549019608,
                        "color-opacity" : 1.0,
                        "color-red" : 0.184313725490196,
                        "size" : 64.0,
                        "tracking" : 0.0,
                        "name" : "Montserrat",
                        "weight" : "Regular"
                      },
                      "textAttributes" : {
                        "type" : "textAttributeList",
                        "keyframes" : [
                          {
                            "endTime" : 0,
                            "time" : 0,
                            "value" : [{"name":"strikethrough","rangeEnd":13,"rangeStart":0,"value":0,"valueType":"int"},{"name":"fontItalic","rangeEnd":13,"rangeStart":0,"value":0,"valueType":"int"},{"name":"fontWeight","rangeEnd":13,"rangeStart":0,"value":400,"valueType":"int"},{"name":"underline","rangeEnd":13,"rangeStart":0,"value":0,"valueType":"int"},{"name":"fontName","rangeEnd":13,"rangeStart":0,"value":"Faktum","valueType":"string"},{"name":"fgColor","rangeEnd":13,"rangeStart":0,"value":"(254,5,5,255)","valueType":"color"},{"name":"kerning","rangeEnd":13,"rangeStart":0,"value":0,"valueType":"double"},{"name":"fontSize","rangeEnd":13,"rangeStart":0,"value":70,"valueType":"double"}],
                            "duration" : 0
                          }
                        ]
                      }
                    },
                    "attributes" : {
                      "autoRotateText" : true
                    },
                    "parameters" : {
                      "translation0" : -643.201278686523,
                      "translation1" : 294.56521655674,
                      "sourceCrop0" : 0.0,
                      "sourceCrop1" : 0.0,
                      "sourceCrop2" : 0.0,
                      "sourceCrop3" : 0.0,
                      "geometryCrop0" : 0.0,
                      "geometryCrop1" : 0.0,
                      "geometryCrop2" : 0.0,
                      "geometryCrop3" : 0.0
                    },
                    "effects" : [

                    ],
                    "start" : 2429,
                    "duration" : 335,
                    "mediaStart" : 0,
                    "mediaDuration" : 335,
                    "scalar" : 1,
                    "metadata" : {
                      "clipSpeedAttribute" : false,
                      "default-HAlign" : "center",
                      "default-LineSpace" : 0.0,
                      "default-VAlign" : "center",
                      "default-fill-color-opacity" : 1.0,
                      "default-height" : 176.0,
                      "default-stroke-color-opacity" : 1.0,
                      "default-translation0" : 0.0,
                      "default-translation1" : 0.0,
                      "default-width" : 376.0
                    },
                    "animationTracks" : {

                    }
                  },
                  {
                    "id" : 220,
                    "_type" : "Callout",
                    "def" : {
                      "kind" : "remix",
                      "shape" : "text-rectangle",
                      "style" : "basic",
                      "enable-ligatures" : {
                        "type" : "double",
                        "defaultValue" : 1.0,
                        "interp" : "linr"
                      },
                      "fill-color-blue" : {
                        "type" : "double",
                        "defaultValue" : 0.109803921568627,
                        "interp" : "linr",
                        "keyframes" : [
                          {
                            "endTime" : 74,
                            "time" : 0,
                            "value" : 1.0,
                            "duration" : 74
                          }
                        ]
                      },
                      "fill-color-green" : {
                        "type" : "double",
                        "defaultValue" : 0.109803921568627,
                        "interp" : "linr",
                        "keyframes" : [
                          {
                            "endTime" : 74,
                            "time" : 0,
                            "value" : 1.0,
                            "duration" : 74
                          }
                        ]
                      },
                      "fill-color-opacity" : {
                        "type" : "double",
                        "defaultValue" : 1.0,
                        "interp" : "linr"
                      },
                      "fill-color-red" : {
                        "type" : "double",
                        "defaultValue" : 0.96078431372549,
                        "interp" : "linr",
                        "keyframes" : [
                          {
                            "endTime" : 74,
                            "time" : 0,
                            "value" : 1.0,
                            "duration" : 74
                          }
                        ]
                      },
                      "height" : {
                        "type" : "double",
                        "defaultValue" : 1241.46737511424,
                        "interp" : "linr"
                      },
                      "line-spacing" : {
                        "type" : "double",
                        "defaultValue" : 0.0,
                        "interp" : "linr"
                      },
                      "stroke-color-blue" : {
                        "type" : "double",
                        "defaultValue" : 0.172549019607843,
                        "interp" : "linr",
                        "keyframes" : [
                          {
                            "endTime" : 74,
                            "time" : 0,
                            "value" : 0.419607843137255,
                            "duration" : 74
                          }
                        ]
                      },
                      "stroke-color-green" : {
                        "type" : "double",
                        "defaultValue" : 0.0627450980392157,
                        "interp" : "linr",
                        "keyframes" : [
                          {
                            "endTime" : 74,
                            "time" : 0,
                            "value" : 0.0392156862745098,
                            "duration" : 74
                          }
                        ]
                      },
                      "stroke-color-opacity" : {
                        "type" : "double",
                        "defaultValue" : 1.0,
                        "interp" : "linr",
                        "keyframes" : [
                          {
                            "endTime" : 74,
                            "time" : 0,
                            "value" : 1.0,
                            "duration" : 74
                          }
                        ]
                      },
                      "stroke-color-red" : {
                        "type" : "double",
                        "defaultValue" : 1.0,
                        "interp" : "linr",
                        "keyframes" : [
                          {
                            "endTime" : 74,
                            "time" : 0,
                            "value" : 0.937254901960784,
                            "duration" : 74
                          }
                        ]
                      },
                      "stroke-width" : {
                        "type" : "double",
                        "defaultValue" : 2.0,
                        "interp" : "linr",
                        "keyframes" : [
                          {
                            "endTime" : 74,
                            "time" : 0,
                            "value" : 2.0,
                            "duration" : 74
                          }
                        ]
                      },
                      "tail-x" : {
                        "type" : "double",
                        "defaultValue" : -3.44827586206901,
                        "interp" : "linr"
                      },
                      "tail-y" : {
                        "type" : "double",
                        "defaultValue" : 37.7145883049484,
                        "interp" : "linr"
                      },
                      "width" : {
                        "type" : "double",
                        "defaultValue" : 2022.41379310345,
                        "interp" : "linr"
                      },
                      "word-wrap" : {
                        "type" : "double",
                        "defaultValue" : 1.0,
                        "interp" : "linr"
                      },
                      "fill-style" : "gradient",
                      "horizontal-alignment" : "center",
                      "resize-behavior" : "resizeText",
                      "stroke-style" : "solid",
                      "text" : "",
                      "vertical-alignment" : "center",
                      "font" : {
                        "color-blue" : {
                          "type" : "double",
                          "defaultValue" : 0.266666666666667,
                          "interp" : "linr"
                        },
                        "color-green" : {
                          "type" : "double",
                          "defaultValue" : 0.231372549019608,
                          "interp" : "linr"
                        },
                        "color-opacity" : {
                          "type" : "double",
                          "defaultValue" : 1.0,
                          "interp" : "linr"
                        },
                        "color-red" : {
                          "type" : "double",
                          "defaultValue" : 0.184313725490196,
                          "interp" : "linr"
                        },
                        "size" : {
                          "type" : "double",
                          "defaultValue" : 64.0,
                          "interp" : "linr"
                        },
                        "tracking" : {
                          "type" : "double",
                          "defaultValue" : 0.0,
                          "interp" : "linr"
                        },
                        "name" : "Montserrat",
                        "weight" : "Regular"
                      },
                      "textAttributes" : {
                        "type" : "textAttributeList",
                        "keyframes" : [
                          {
                            "endTime" : 0,
                            "time" : 0,
                            "value" : [{"name":"underline","rangeEnd":1,"rangeStart":0,"value":0,"valueType":"int"},{"name":"fontSize","rangeEnd":1,"rangeStart":0,"value":64,"valueType":"double"},{"name":"fontName","rangeEnd":1,"rangeStart":0,"value":"Montserrat","valueType":"string"},{"name":"fontItalic","rangeEnd":1,"rangeStart":0,"value":0,"valueType":"int"},{"name":"fontWeight","rangeEnd":1,"rangeStart":0,"value":400,"valueType":"int"},{"name":"kerning","rangeEnd":1,"rangeStart":0,"value":0,"valueType":"double"},{"name":"fgColor","rangeEnd":1,"rangeStart":0,"value":"(47,59,68,255)","valueType":"color"},{"name":"strikethrough","rangeEnd":1,"rangeStart":0,"value":0,"valueType":"int"}],
                            "duration" : 0
                          }
                        ]
                      }
                    },
                    "attributes" : {
                      "autoRotateText" : true
                    },
                    "parameters" : {
                      "translation0" : {
                        "type" : "double",
                        "defaultValue" : -2006.89655172414,
                        "interp" : "eioe",
                        "keyframes" : [
                          {
                            "endTime" : 74,
                            "time" : 0,
                            "value" : 2050.0,
                            "duration" : 74
                          }
                        ]
                      },
                      "translation1" : {
                        "type" : "double",
                        "defaultValue" : -57.7146043611094,
                        "interp" : "eioe",
                        "keyframes" : [
                          {
                            "endTime" : 74,
                            "time" : 0,
                            "value" : -1.59872115546023e-14,
                            "duration" : 74
                          }
                        ]
                      },
                      "sourceCrop0" : {
                        "type" : "double",
                        "defaultValue" : 0.0,
                        "interp" : "eioe"
                      },
                      "sourceCrop1" : {
                        "type" : "double",
                        "defaultValue" : 0.0,
                        "interp" : "eioe"
                      },
                      "sourceCrop2" : {
                        "type" : "double",
                        "defaultValue" : 0.0,
                        "interp" : "eioe"
                      },
                      "sourceCrop3" : {
                        "type" : "double",
                        "defaultValue" : 0.0,
                        "interp" : "eioe"
                      },
                      "geometryCrop0" : {
                        "type" : "double",
                        "defaultValue" : 0.0,
                        "interp" : "eioe"
                      },
                      "geometryCrop1" : {
                        "type" : "double",
                        "defaultValue" : 0.0,
                        "interp" : "eioe"
                      },
                      "geometryCrop2" : {
                        "type" : "double",
                        "defaultValue" : 0.0,
                        "interp" : "eioe"
                      },
                      "geometryCrop3" : {
                        "type" : "double",
                        "defaultValue" : 0.0,
                        "interp" : "eioe"
                      }
                    },
                    "effects" : [

                    ],
                    "start" : 3469,
                    "duration" : 75,
                    "mediaStart" : 0,
                    "mediaDuration" : 75,
                    "scalar" : 1,
                    "metadata" : {
                      "clipSpeedAttribute" : false,
                      "default-HAlign" : "center",
                      "default-LineSpace" : 0.0,
                      "default-VAlign" : "center",
                      "default-callout-stroke-style" : "solid",
                      "default-fill-color-blue" : 1.0,
                      "default-fill-color-green" : 1.0,
                      "default-fill-color-red" : 1.0,
                      "default-fill-style" : "solid",
                      "default-height" : 1268.0,
                      "default-stroke-color-blue" : 0.56078431372549,
                      "default-stroke-color-green" : 0.686274509803922,
                      "default-stroke-color-opacity" : 1.0,
                      "default-stroke-color-red" : 0.0196078431372549,
                      "default-stroke-width" : 2.0,
                      "default-translation0" : 0.0,
                      "default-translation1" : 0.0,
                      "default-width" : 2049.0
                    },
                    "animationTracks" : {
                      "visual" : [
                        {
                          "endTime" : 74,
                          "duration" : 74,
                          "range" : [ 0, 74]
                        }
                      ]
                    }
                  },
                  {
                    "id" : 221,
                    "_type" : "Callout",
                    "def" : {
                      "kind" : "remix",
                      "shape" : "text-rectangle",
                      "style" : "basic",
                      "enable-ligatures" : 1.0,
                      "fill-color-blue" : 1.0,
                      "fill-color-green" : 1.0,
                      "fill-color-opacity" : 0.0,
                      "fill-color-red" : 1.0,
                      "height" : 118.77355202499,
                      "line-spacing" : 0.0,
                      "stroke-color-blue" : 0.56078431372549,
                      "stroke-color-green" : 0.686274509803922,
                      "stroke-color-opacity" : 0.0,
                      "stroke-color-red" : 0.0196078431372549,
                      "stroke-width" : 2.0,
                      "tail-x" : -139.942760942761,
                      "tail-y" : -48.2149122807017,
                      "width" : 89.0,
                      "word-wrap" : 1.0,
                      "fill-style" : "solid",
                      "horizontal-alignment" : "center",
                      "resize-behavior" : "resizeText",
                      "stroke-style" : "solid",
                      "text" : "91%",
                      "vertical-alignment" : "center",
                      "font" : {
                        "color-blue" : 0.266666666666667,
                        "color-green" : 0.231372549019608,
                        "color-opacity" : 1.0,
                        "color-red" : 0.184313725490196,
                        "size" : 64.0,
                        "tracking" : 0.0,
                        "name" : "Montserrat",
                        "weight" : "Regular"
                      },
                      "textAttributes" : {
                        "type" : "textAttributeList",
                        "keyframes" : [
                          {
                            "endTime" : 0,
                            "time" : 0,
                            "value" : [{"name":"fgColor","rangeEnd":3,"rangeStart":0,"value":"(254,5,5,255)","valueType":"color"},{"name":"fontName","rangeEnd":3,"rangeStart":0,"value":"Montserrat","valueType":"string"},{"name":"fontSize","rangeEnd":3,"rangeStart":0,"value":50,"valueType":"double"},{"name":"kerning","rangeEnd":3,"rangeStart":0,"value":0,"valueType":"double"},{"name":"strikethrough","rangeEnd":3,"rangeStart":0,"value":0,"valueType":"int"},{"name":"fontWeight","rangeEnd":3,"rangeStart":0,"value":400,"valueType":"int"},{"name":"underline","rangeEnd":3,"rangeStart":0,"value":0,"valueType":"int"},{"name":"fontItalic","rangeEnd":3,"rangeStart":0,"value":0,"valueType":"int"}],
                            "duration" : 0
                          }
                        ]
                      }
                    },
                    "attributes" : {
                      "autoRotateText" : true
                    },
                    "parameters" : {
                      "translation0" : 197.975976462089,
                      "translation1" : 8.5263156556248,
                      "sourceCrop0" : 0.0,
                      "sourceCrop1" : 0.0,
                      "sourceCrop2" : 0.0,
                      "sourceCrop3" : 0.0,
                      "geometryCrop0" : 0.0,
                      "geometryCrop1" : 0.0,
                      "geometryCrop2" : 0.0,
                      "geometryCrop3" : 0.0
                    },
                    "effects" : [

                    ],
                    "start" : 4985,
                    "duration" : 365,
                    "mediaStart" : 0,
                    "mediaDuration" : 365,
                    "scalar" : 1,
                    "metadata" : {
                      "clipSpeedAttribute" : false,
                      "default-HAlign" : "center",
                      "default-LineSpace" : 0.0,
                      "default-VAlign" : "center",
                      "default-fill-color-opacity" : 1.0,
                      "default-height" : 176.0,
                      "default-stroke-color-opacity" : 1.0,
                      "default-text-attributes" : "[{\"name\":\"strikethrough\",\"rangeEnd\":2,\"rangeStart\":0,\"value\":0,\"valueType\":\"int\"},{\"name\":\"fontWeight\",\"rangeEnd\":2,\"rangeStart\":0,\"value\":400,\"valueType\":\"int\"},{\"name\":\"fontName\",\"rangeEnd\":2,\"rangeStart\":0,\"value\":\"Wingdings\",\"valueType\":\"string\"},{\"name\":\"fontSize\",\"rangeEnd\":2,\"rangeStart\":0,\"value\":103,\"valueType\":\"double\"},{\"name\":\"fontItalic\",\"rangeEnd\":2,\"rangeStart\":0,\"value\":0,\"valueType\":\"int\"},{\"name\":\"underline\",\"rangeEnd\":2,\"rangeStart\":0,\"value\":0,\"valueType\":\"int\"},{\"name\":\"kerning\",\"rangeEnd\":2,\"rangeStart\":0,\"value\":0,\"valueType\":\"double\"},{\"name\":\"fgColor\",\"rangeEnd\":2,\"rangeStart\":0,\"value\":\"(254,5,5,255)\",\"valueType\":\"color\"}]",
                      "default-translation0" : 0.0,
                      "default-translation1" : 0.0,
                      "default-width" : 376.0
                    },
                    "animationTracks" : {

                    }
                  },
                  {
                    "id" : 222,
                    "_type" : "Callout",
                    "def" : {
                      "kind" : "remix",
                      "shape" : "text-rectangle",
                      "style" : "basic",
                      "enable-ligatures" : {
                        "type" : "double",
                        "defaultValue" : 1.0,
                        "interp" : "linr"
                      },
                      "fill-color-blue" : {
                        "type" : "double",
                        "defaultValue" : 0.109803921568627,
                        "interp" : "linr",
                        "keyframes" : [
                          {
                            "endTime" : 74,
                            "time" : 0,
                            "value" : 1.0,
                            "duration" : 74
                          }
                        ]
                      },
                      "fill-color-green" : {
                        "type" : "double",
                        "defaultValue" : 0.109803921568627,
                        "interp" : "linr",
                        "keyframes" : [
                          {
                            "endTime" : 74,
                            "time" : 0,
                            "value" : 1.0,
                            "duration" : 74
                          }
                        ]
                      },
                      "fill-color-opacity" : {
                        "type" : "double",
                        "defaultValue" : 1.0,
                        "interp" : "linr"
                      },
                      "fill-color-red" : {
                        "type" : "double",
                        "defaultValue" : 0.96078431372549,
                        "interp" : "linr",
                        "keyframes" : [
                          {
                            "endTime" : 74,
                            "time" : 0,
                            "value" : 1.0,
                            "duration" : 74
                          }
                        ]
                      },
                      "height" : {
                        "type" : "double",
                        "defaultValue" : 1241.46737511424,
                        "interp" : "linr"
                      },
                      "line-spacing" : {
                        "type" : "double",
                        "defaultValue" : 0.0,
                        "interp" : "linr"
                      },
                      "stroke-color-blue" : {
                        "type" : "double",
                        "defaultValue" : 0.172549019607843,
                        "interp" : "linr",
                        "keyframes" : [
                          {
                            "endTime" : 74,
                            "time" : 0,
                            "value" : 0.419607843137255,
                            "duration" : 74
                          }
                        ]
                      },
                      "stroke-color-green" : {
                        "type" : "double",
                        "defaultValue" : 0.0627450980392157,
                        "interp" : "linr",
                        "keyframes" : [
                          {
                            "endTime" : 74,
                            "time" : 0,
                            "value" : 0.0392156862745098,
                            "duration" : 74
                          }
                        ]
                      },
                      "stroke-color-opacity" : {
                        "type" : "double",
                        "defaultValue" : 1.0,
                        "interp" : "linr",
                        "keyframes" : [
                          {
                            "endTime" : 74,
                            "time" : 0,
                            "value" : 1.0,
                            "duration" : 74
                          }
                        ]
                      },
                      "stroke-color-red" : {
                        "type" : "double",
                        "defaultValue" : 1.0,
                        "interp" : "linr",
                        "keyframes" : [
                          {
                            "endTime" : 74,
                            "time" : 0,
                            "value" : 0.937254901960784,
                            "duration" : 74
                          }
                        ]
                      },
                      "stroke-width" : {
                        "type" : "double",
                        "defaultValue" : 2.0,
                        "interp" : "linr",
                        "keyframes" : [
                          {
                            "endTime" : 74,
                            "time" : 0,
                            "value" : 2.0,
                            "duration" : 74
                          }
                        ]
                      },
                      "tail-x" : {
                        "type" : "double",
                        "defaultValue" : -3.44827586206901,
                        "interp" : "linr"
                      },
                      "tail-y" : {
                        "type" : "double",
                        "defaultValue" : 37.7145883049484,
                        "interp" : "linr"
                      },
                      "width" : {
                        "type" : "double",
                        "defaultValue" : 2022.41379310345,
                        "interp" : "linr"
                      },
                      "word-wrap" : {
                        "type" : "double",
                        "defaultValue" : 1.0,
                        "interp" : "linr"
                      },
                      "fill-style" : "gradient",
                      "horizontal-alignment" : "center",
                      "resize-behavior" : "resizeText",
                      "stroke-style" : "solid",
                      "text" : "",
                      "vertical-alignment" : "center",
                      "font" : {
                        "color-blue" : {
                          "type" : "double",
                          "defaultValue" : 0.266666666666667,
                          "interp" : "linr"
                        },
                        "color-green" : {
                          "type" : "double",
                          "defaultValue" : 0.231372549019608,
                          "interp" : "linr"
                        },
                        "color-opacity" : {
                          "type" : "double",
                          "defaultValue" : 1.0,
                          "interp" : "linr"
                        },
                        "color-red" : {
                          "type" : "double",
                          "defaultValue" : 0.184313725490196,
                          "interp" : "linr"
                        },
                        "size" : {
                          "type" : "double",
                          "defaultValue" : 64.0,
                          "interp" : "linr"
                        },
                        "tracking" : {
                          "type" : "double",
                          "defaultValue" : 0.0,
                          "interp" : "linr"
                        },
                        "name" : "Montserrat",
                        "weight" : "Regular"
                      },
                      "textAttributes" : {
                        "type" : "textAttributeList",
                        "keyframes" : [
                          {
                            "endTime" : 0,
                            "time" : 0,
                            "value" : [{"name":"underline","rangeEnd":1,"rangeStart":0,"value":0,"valueType":"int"},{"name":"fontSize","rangeEnd":1,"rangeStart":0,"value":64,"valueType":"double"},{"name":"fontName","rangeEnd":1,"rangeStart":0,"value":"Montserrat","valueType":"string"},{"name":"fontItalic","rangeEnd":1,"rangeStart":0,"value":0,"valueType":"int"},{"name":"fontWeight","rangeEnd":1,"rangeStart":0,"value":400,"valueType":"int"},{"name":"kerning","rangeEnd":1,"rangeStart":0,"value":0,"valueType":"double"},{"name":"fgColor","rangeEnd":1,"rangeStart":0,"value":"(47,59,68,255)","valueType":"color"},{"name":"strikethrough","rangeEnd":1,"rangeStart":0,"value":0,"valueType":"int"}],
                            "duration" : 0
                          }
                        ]
                      }
                    },
                    "attributes" : {
                      "autoRotateText" : true
                    },
                    "parameters" : {
                      "translation0" : {
                        "type" : "double",
                        "defaultValue" : -2006.89655172414,
                        "interp" : "eioe",
                        "keyframes" : [
                          {
                            "endTime" : 74,
                            "time" : 0,
                            "value" : 2050.0,
                            "duration" : 74
                          }
                        ]
                      },
                      "translation1" : {
                        "type" : "double",
                        "defaultValue" : -57.7146043611094,
                        "interp" : "eioe",
                        "keyframes" : [
                          {
                            "endTime" : 74,
                            "time" : 0,
                            "value" : -1.59872115546023e-14,
                            "duration" : 74
                          }
                        ]
                      },
                      "sourceCrop0" : {
                        "type" : "double",
                        "defaultValue" : 0.0,
                        "interp" : "eioe"
                      },
                      "sourceCrop1" : {
                        "type" : "double",
                        "defaultValue" : 0.0,
                        "interp" : "eioe"
                      },
                      "sourceCrop2" : {
                        "type" : "double",
                        "defaultValue" : 0.0,
                        "interp" : "eioe"
                      },
                      "sourceCrop3" : {
                        "type" : "double",
                        "defaultValue" : 0.0,
                        "interp" : "eioe"
                      },
                      "geometryCrop0" : {
                        "type" : "double",
                        "defaultValue" : 0.0,
                        "interp" : "eioe"
                      },
                      "geometryCrop1" : {
                        "type" : "double",
                        "defaultValue" : 0.0,
                        "interp" : "eioe"
                      },
                      "geometryCrop2" : {
                        "type" : "double",
                        "defaultValue" : 0.0,
                        "interp" : "eioe"
                      },
                      "geometryCrop3" : {
                        "type" : "double",
                        "defaultValue" : 0.0,
                        "interp" : "eioe"
                      }
                    },
                    "effects" : [

                    ],
                    "start" : 5943,
                    "duration" : 75,
                    "mediaStart" : 0,
                    "mediaDuration" : 75,
                    "scalar" : 1,
                    "metadata" : {
                      "clipSpeedAttribute" : false,
                      "default-HAlign" : "center",
                      "default-LineSpace" : 0.0,
                      "default-VAlign" : "center",
                      "default-callout-stroke-style" : "solid",
                      "default-fill-color-blue" : 1.0,
                      "default-fill-color-green" : 1.0,
                      "default-fill-color-red" : 1.0,
                      "default-fill-style" : "solid",
                      "default-height" : 1268.0,
                      "default-stroke-color-blue" : 0.56078431372549,
                      "default-stroke-color-green" : 0.686274509803922,
                      "default-stroke-color-opacity" : 1.0,
                      "default-stroke-color-red" : 0.0196078431372549,
                      "default-stroke-width" : 2.0,
                      "default-translation0" : 0.0,
                      "default-translation1" : 0.0,
                      "default-width" : 2049.0
                    },
                    "animationTracks" : {
                      "visual" : [
                        {
                          "endTime" : 74,
                          "duration" : 74,
                          "range" : [ 0, 74]
                        }
                      ]
                    }
                  },
                  {
                    "id" : 223,
                    "_type" : "Callout",
                    "def" : {
                      "kind" : "remix",
                      "shape" : "text-rectangle",
                      "style" : "basic",
                      "enable-ligatures" : 1.0,
                      "fill-color-blue" : 1.0,
                      "fill-color-green" : 1.0,
                      "fill-color-opacity" : 0.0,
                      "fill-color-red" : 1.0,
                      "height" : 121.618420918783,
                      "line-spacing" : 0.0,
                      "stroke-color-blue" : 0.56078431372549,
                      "stroke-color-green" : 0.686274509803922,
                      "stroke-color-opacity" : 0.0,
                      "stroke-color-red" : 0.0196078431372549,
                      "stroke-width" : 2.0,
                      "tail-x" : -122.253102254696,
                      "tail-y" : -81.4057018213104,
                      "width" : 105.493795490609,
                      "word-wrap" : 1.0,
                      "fill-style" : "solid",
                      "horizontal-alignment" : "center",
                      "resize-behavior" : "resizeText",
                      "stroke-style" : "solid",
                      "text" : "û",
                      "vertical-alignment" : "center",
                      "font" : {
                        "color-blue" : 0.266666666666667,
                        "color-green" : 0.231372549019608,
                        "color-opacity" : 1.0,
                        "color-red" : 0.184313725490196,
                        "size" : 64.0,
                        "tracking" : 0.0,
                        "name" : "Montserrat",
                        "weight" : "Regular"
                      },
                      "textAttributes" : {
                        "type" : "textAttributeList",
                        "keyframes" : [
                          {
                            "endTime" : 0,
                            "time" : 0,
                            "value" : [{"name":"kerning","rangeEnd":2,"rangeStart":0,"value":0,"valueType":"double"},{"name":"fontSize","rangeEnd":2,"rangeStart":0,"value":82,"valueType":"double"},{"name":"fontWeight","rangeEnd":2,"rangeStart":0,"value":400,"valueType":"int"},{"name":"strikethrough","rangeEnd":2,"rangeStart":0,"value":0,"valueType":"int"},{"name":"fgColor","rangeEnd":2,"rangeStart":0,"value":"(249,13,40,255)","valueType":"color"},{"name":"fontItalic","rangeEnd":2,"rangeStart":0,"value":0,"valueType":"int"},{"name":"fontName","rangeEnd":2,"rangeStart":0,"value":"Wingdings","valueType":"string"},{"name":"underline","rangeEnd":2,"rangeStart":0,"value":0,"valueType":"int"}],
                            "duration" : 0
                          }
                        ]
                      }
                    },
                    "attributes" : {
                      "autoRotateText" : true
                    },
                    "parameters" : {
                      "translation0" : 844.328834191324,
                      "translation1" : 223.878946135852,
                      "sourceCrop0" : 0.0,
                      "sourceCrop1" : 0.0,
                      "sourceCrop2" : 0.0,
                      "sourceCrop3" : 0.0,
                      "geometryCrop0" : 0.0,
                      "geometryCrop1" : 0.0,
                      "geometryCrop2" : 0.0,
                      "geometryCrop3" : 0.0
                    },
                    "effects" : [

                    ],
                    "start" : 6417,
                    "duration" : 517,
                    "mediaStart" : 50,
                    "mediaDuration" : 517,
                    "scalar" : 1,
                    "metadata" : {
                      "clipSpeedAttribute" : false,
                      "default-HAlign" : "center",
                      "default-LineSpace" : 0.0,
                      "default-VAlign" : "center",
                      "default-fill-color-opacity" : 1.0,
                      "default-height" : 176.0,
                      "default-stroke-color-opacity" : 1.0,
                      "default-text-attributes" : "[{\"name\":\"strikethrough\",\"rangeEnd\":2,\"rangeStart\":0,\"value\":0,\"valueType\":\"int\"},{\"name\":\"fontWeight\",\"rangeEnd\":2,\"rangeStart\":0,\"value\":400,\"valueType\":\"int\"},{\"name\":\"fontName\",\"rangeEnd\":2,\"rangeStart\":0,\"value\":\"Wingdings\",\"valueType\":\"string\"},{\"name\":\"fontSize\",\"rangeEnd\":2,\"rangeStart\":0,\"value\":103,\"valueType\":\"double\"},{\"name\":\"fontItalic\",\"rangeEnd\":2,\"rangeStart\":0,\"value\":0,\"valueType\":\"int\"},{\"name\":\"underline\",\"rangeEnd\":2,\"rangeStart\":0,\"value\":0,\"valueType\":\"int\"},{\"name\":\"kerning\",\"rangeEnd\":2,\"rangeStart\":0,\"value\":0,\"valueType\":\"double\"},{\"name\":\"fgColor\",\"rangeEnd\":2,\"rangeStart\":0,\"value\":\"(254,5,5,255)\",\"valueType\":\"color\"}]",
                      "default-translation0" : 0.0,
                      "default-translation1" : 0.0,
                      "default-width" : 376.0
                    },
                    "animationTracks" : {

                    }
                  },
                  {
                    "id" : 224,
                    "_type" : "Callout",
                    "def" : {
                      "kind" : "remix",
                      "shape" : "text-rectangle",
                      "style" : "basic",
                      "enable-ligatures" : 1.0,
                      "fill-color-blue" : 1.0,
                      "fill-color-green" : 1.0,
                      "fill-color-opacity" : 0.0,
                      "fill-color-red" : 1.0,
                      "height" : 224.360446570973,
                      "line-spacing" : 0.0,
                      "stroke-color-blue" : 0.890196078431372,
                      "stroke-color-green" : 0.870588235294118,
                      "stroke-color-opacity" : 0.0,
                      "stroke-color-red" : 0.847058823529412,
                      "stroke-width" : 0.0,
                      "tail-x" : -245.578231821344,
                      "tail-y" : -8.81977671451352,
                      "width" : 1584.62587555512,
                      "word-wrap" : 1.0,
                      "fill-style" : "solid",
                      "horizontal-alignment" : "left",
                      "resize-behavior" : "resizeText",
                      "stroke-style" : "solid",
                      "text" : "Create a new patch group",
                      "vertical-alignment" : "center",
                      "font" : {
                        "color-blue" : 0.266666666666667,
                        "color-green" : 0.231372549019608,
                        "color-opacity" : 1.0,
                        "color-red" : 0.184313725490196,
                        "size" : 64.0,
                        "tracking" : 0.0,
                        "name" : "Montserrat",
                        "weight" : "Regular"
                      },
                      "textAttributes" : {
                        "type" : "textAttributeList",
                        "keyframes" : [
                          {
                            "endTime" : 0,
                            "time" : 0,
                            "value" : [{"name":"kerning","rangeEnd":24,"rangeStart":0,"value":0,"valueType":"double"},{"name":"underline","rangeEnd":24,"rangeStart":0,"value":0,"valueType":"int"},{"name":"fgColor","rangeEnd":24,"rangeStart":0,"value":"(35,40,47,255)","valueType":"color"},{"name":"fontName","rangeEnd":24,"rangeStart":0,"value":"??Ã","valueType":"string"},{"name":"strikethrough","rangeEnd":24,"rangeStart":0,"value":0,"valueType":"int"},{"name":"fontWeight","rangeEnd":24,"rangeStart":0,"value":400,"valueType":"int"},{"name":"fontItalic","rangeEnd":24,"rangeStart":0,"value":0,"valueType":"int"},{"name":"fontSize","rangeEnd":24,"rangeStart":0,"value":70,"valueType":"double"}],
                            "duration" : 0
                          }
                        ]
                      }
                    },
                    "attributes" : {
                      "autoRotateText" : true
                    },
                    "parameters" : {
                      "translation0" : 130.689874564567,
                      "translation1" : -259.049796609374,
                      "sourceCrop0" : 0.0,
                      "sourceCrop1" : 0.0,
                      "sourceCrop2" : 0.0,
                      "sourceCrop3" : 0.0,
                      "geometryCrop0" : 0.0,
                      "geometryCrop1" : 0.0,
                      "geometryCrop2" : 0.0,
                      "geometryCrop3" : 0.0
                    },
                    "effects" : [

                    ],
                    "start" : 8831,
                    "duration" : 341,
                    "mediaStart" : 145,
                    "mediaDuration" : 341,
                    "scalar" : 1,
                    "metadata" : {
                      "clipSpeedAttribute" : false,
                      "default-HAlign" : "center",
                      "default-LineSpace" : 0.0,
                      "default-VAlign" : "center",
                      "default-fill-color-opacity" : 1.0,
                      "default-height" : 176.0,
                      "default-stroke-color-blue" : 0.56078431372549,
                      "default-stroke-color-green" : 0.686274509803922,
                      "default-stroke-color-opacity" : 1.0,
                      "default-stroke-color-red" : 0.0196078431372549,
                      "default-stroke-width" : 2.0,
                      "default-text-attributes" : "[{\"name\":\"fgColor\",\"rangeEnd\":23,\"rangeStart\":0,\"value\":\"(47,59,68,255)\",\"valueType\":\"color\"},{\"name\":\"underline\",\"rangeEnd\":23,\"rangeStart\":0,\"value\":0,\"valueType\":\"int\"},{\"name\":\"strikethrough\",\"rangeEnd\":23,\"rangeStart\":0,\"value\":0,\"valueType\":\"int\"},{\"name\":\"fontWeight\",\"rangeEnd\":23,\"rangeStart\":0,\"value\":400,\"valueType\":\"int\"},{\"name\":\"fontItalic\",\"rangeEnd\":23,\"rangeStart\":0,\"value\":0,\"valueType\":\"int\"},{\"name\":\"fontName\",\"rangeEnd\":23,\"rangeStart\":0,\"value\":\"Faktum Medium\",\"valueType\":\"string\"},{\"name\":\"kerning\",\"rangeEnd\":23,\"rangeStart\":0,\"value\":0,\"valueType\":\"double\"},{\"name\":\"fontSize\",\"rangeEnd\":23,\"rangeStart\":0,\"value\":80,\"valueType\":\"double\"}]",
                      "default-translation0" : 0.0,
                      "default-translation1" : 0.0,
                      "default-width" : 376.0
                    },
                    "animationTracks" : {

                    }
                  }
                ],
                "transitions" : [
                  {
                    "name" : "Fade",
                    "duration" : 15,
                    "trivial" : false,
                    "reverse" : false,
                    "bypass" : false,
                    "useAudioPreRoll" : true,
                    "useVisualPreRoll" : true,
                    "leftMedia" : 218
                  },
                  {
                    "name" : "Fade",
                    "duration" : 30,
                    "trivial" : false,
                    "reverse" : false,
                    "bypass" : false,
                    "useAudioPreRoll" : true,
                    "useVisualPreRoll" : true,
                    "rightMedia" : 221
                  },
                  {
                    "name" : "Fade",
                    "duration" : 30,
                    "trivial" : false,
                    "reverse" : false,
                    "bypass" : false,
                    "useAudioPreRoll" : true,
                    "useVisualPreRoll" : true,
                    "leftMedia" : 221
                  },
                  {
                    "name" : "Fade",
                    "duration" : 30,
                    "trivial" : false,
                    "reverse" : false,
                    "bypass" : false,
                    "useAudioPreRoll" : true,
                    "useVisualPreRoll" : true,
                    "rightMedia" : 223
                  },
                  {
                    "name" : "Fade",
                    "duration" : 30,
                    "trivial" : false,
                    "reverse" : false,
                    "bypass" : false,
                    "useAudioPreRoll" : true,
                    "useVisualPreRoll" : true,
                    "leftMedia" : 223
                  },
                  {
                    "name" : "Fade",
                    "duration" : 30,
                    "trivial" : false,
                    "reverse" : false,
                    "bypass" : false,
                    "useAudioPreRoll" : true,
                    "useVisualPreRoll" : true,
                    "rightMedia" : 224
                  }
                ]
              },
              {
                "trackIndex" : 9,
                "medias" : [
                  {
                    "id" : 225,
                    "_type" : "Group",
                    "parameters" : {
                      "translation0" : 39.0068226120861,
                      "translation1" : 88.2149122137769,
                      "sourceCrop0" : 0.0,
                      "sourceCrop1" : 0.0,
                      "sourceCrop2" : 0.0,
                      "sourceCrop3" : 0.0,
                      "geometryCrop0" : 0.0,
                      "geometryCrop1" : 0.0,
                      "geometryCrop2" : 0.0,
                      "geometryCrop3" : 0.0,
                      "volume" : 1.0
                    },
                    "tracks" : [
                      {
                        "trackIndex" : 0,
                        "medias" : [
                          {
                            "id" : 226,
                            "_type" : "IMFile",
                            "src" : 13,
                            "trackNumber" : 0,
                            "trimStartSum" : -10,
                            "attributes" : {
                              "ident" : "patch-trans"
                            },
                            "parameters" : {
                              "translation0" : 442.200982880174,
                              "translation1" : -278.45175431904,
                              "scale0" : 0.354166666666668,
                              "scale1" : 0.354166666666668,
                              "sourceCrop0" : 0.0,
                              "sourceCrop1" : 0.0,
                              "sourceCrop2" : 0.0,
                              "sourceCrop3" : 0.0,
                              "geometryCrop0" : 0.0,
                              "geometryCrop1" : 0.0,
                              "geometryCrop2" : 0.0,
                              "geometryCrop3" : 0.0
                            },
                            "effects" : [

                            ],
                            "start" : 0,
                            "duration" : 76,
                            "mediaStart" : 0,
                            "mediaDuration" : 1,
                            "scalar" : 1,
                            "metadata" : {
                              "clipSpeedAttribute" : false,
                              "default-height" : 160.0,
                              "default-scale0" : 1.0,
                              "default-scale1" : 1.0,
                              "default-translation0" : 0.0,
                              "default-translation1" : 0.0,
                              "default-width" : 184.0
                            },
                            "animationTracks" : {

                            }
                          }
                        ],
                          "ident" : "",
                          "audioMuted" : false,
                          "videoHidden" : false,
                          "magnetic" : false,
                          "matte" : 0,
                          "solo" : false,
                          "metadata" : {
                            "IsLocked" : "False",
                            "WinTrackHeight" : "56"
                          }
                      },
                      {
                        "trackIndex" : 1,
                        "medias" : [
                          {
                            "id" : 227,
                            "_type" : "IMFile",
                            "src" : 13,
                            "trackNumber" : 0,
                            "trimStartSum" : -10,
                            "attributes" : {
                              "ident" : "patch-trans"
                            },
                            "parameters" : {
                              "translation0" : -491.635521885522,
                              "translation1" : -216.785087652373,
                              "scale0" : 0.354166666666668,
                              "scale1" : 0.354166666666668,
                              "sourceCrop0" : 0.0,
                              "sourceCrop1" : 0.0,
                              "sourceCrop2" : 0.0,
                              "sourceCrop3" : 0.0,
                              "geometryCrop0" : 0.0,
                              "geometryCrop1" : 0.0,
                              "geometryCrop2" : 0.0,
                              "geometryCrop3" : 0.0
                            },
                            "effects" : [

                            ],
                            "start" : 0,
                            "duration" : 76,
                            "mediaStart" : 0,
                            "mediaDuration" : 1,
                            "scalar" : 1,
                            "metadata" : {
                              "clipSpeedAttribute" : false,
                              "default-height" : 160.0,
                              "default-scale0" : 1.0,
                              "default-scale1" : 1.0,
                              "default-translation0" : 0.0,
                              "default-translation1" : 0.0,
                              "default-width" : 184.0
                            },
                            "animationTracks" : {

                            }
                          }
                        ],
                          "ident" : "",
                          "audioMuted" : false,
                          "videoHidden" : false,
                          "magnetic" : false,
                          "matte" : 0,
                          "solo" : false,
                          "metadata" : {
                            "IsLocked" : "False",
                            "WinTrackHeight" : "56"
                          }
                      },
                      {
                        "trackIndex" : 2,
                        "medias" : [
                          {
                            "id" : 228,
                            "_type" : "IMFile",
                            "src" : 13,
                            "trackNumber" : 0,
                            "trimStartSum" : -10,
                            "attributes" : {
                              "ident" : "patch-trans"
                            },
                            "parameters" : {
                              "translation0" : -405.418331808049,
                              "translation1" : 278.45175431904,
                              "scale0" : 0.354166666666668,
                              "scale1" : 0.354166666666668,
                              "sourceCrop0" : 0.0,
                              "sourceCrop1" : 0.0,
                              "sourceCrop2" : 0.0,
                              "sourceCrop3" : 0.0,
                              "geometryCrop0" : 0.0,
                              "geometryCrop1" : 0.0,
                              "geometryCrop2" : 0.0,
                              "geometryCrop3" : 0.0
                            },
                            "effects" : [

                            ],
                            "start" : 0,
                            "duration" : 76,
                            "mediaStart" : 0,
                            "mediaDuration" : 1,
                            "scalar" : 1,
                            "metadata" : {
                              "clipSpeedAttribute" : false,
                              "default-height" : 160.0,
                              "default-scale0" : 1.0,
                              "default-scale1" : 1.0,
                              "default-translation0" : 0.0,
                              "default-translation1" : 0.0,
                              "default-width" : 184.0
                            },
                            "animationTracks" : {

                            }
                          }
                        ],
                          "ident" : "",
                          "audioMuted" : false,
                          "videoHidden" : false,
                          "magnetic" : false,
                          "matte" : 0,
                          "solo" : false,
                          "metadata" : {
                            "IsLocked" : "False",
                            "WinTrackHeight" : "56"
                          }
                      },
                      {
                        "trackIndex" : 3,
                        "medias" : [
                          {
                            "id" : 229,
                            "_type" : "IMFile",
                            "src" : 13,
                            "trackNumber" : 0,
                            "trimStartSum" : -10,
                            "attributes" : {
                              "ident" : "patch-trans"
                            },
                            "parameters" : {
                              "translation0" : -496.583333333333,
                              "translation1" : 6.54824568095987,
                              "scale0" : 0.354166666666668,
                              "scale1" : 0.354166666666668,
                              "sourceCrop0" : 0.0,
                              "sourceCrop1" : 0.0,
                              "sourceCrop2" : 0.0,
                              "sourceCrop3" : 0.0,
                              "geometryCrop0" : 0.0,
                              "geometryCrop1" : 0.0,
                              "geometryCrop2" : 0.0,
                              "geometryCrop3" : 0.0
                            },
                            "effects" : [

                            ],
                            "start" : 0,
                            "duration" : 76,
                            "mediaStart" : 0,
                            "mediaDuration" : 1,
                            "scalar" : 1,
                            "metadata" : {
                              "clipSpeedAttribute" : false,
                              "default-height" : 160.0,
                              "default-scale0" : 1.0,
                              "default-scale1" : 1.0,
                              "default-translation0" : 0.0,
                              "default-translation1" : 0.0,
                              "default-width" : 184.0
                            },
                            "animationTracks" : {

                            }
                          }
                        ],
                          "ident" : "",
                          "audioMuted" : false,
                          "videoHidden" : false,
                          "magnetic" : false,
                          "matte" : 0,
                          "solo" : false,
                          "metadata" : {
                            "IsLocked" : "False",
                            "WinTrackHeight" : "56"
                          }
                      },
                      {
                        "trackIndex" : 4,
                        "medias" : [
                          {
                            "id" : 230,
                            "_type" : "IMFile",
                            "src" : 13,
                            "trackNumber" : 0,
                            "trimStartSum" : -10,
                            "attributes" : {
                              "ident" : "patch-trans"
                            },
                            "parameters" : {
                              "translation0" : 456.58089668616,
                              "translation1" : -140.35526309097,
                              "scale0" : 0.354166666666668,
                              "scale1" : 0.354166666666668,
                              "sourceCrop0" : 0.0,
                              "sourceCrop1" : 0.0,
                              "sourceCrop2" : 0.0,
                              "sourceCrop3" : 0.0,
                              "geometryCrop0" : 0.0,
                              "geometryCrop1" : 0.0,
                              "geometryCrop2" : 0.0,
                              "geometryCrop3" : 0.0
                            },
                            "effects" : [

                            ],
                            "start" : 0,
                            "duration" : 76,
                            "mediaStart" : 0,
                            "mediaDuration" : 1,
                            "scalar" : 1,
                            "metadata" : {
                              "clipSpeedAttribute" : false,
                              "default-height" : 160.0,
                              "default-scale0" : 1.0,
                              "default-scale1" : 1.0,
                              "default-translation0" : 0.0,
                              "default-translation1" : 0.0,
                              "default-width" : 184.0
                            },
                            "animationTracks" : {

                            }
                          }
                        ],
                          "ident" : "",
                          "audioMuted" : false,
                          "videoHidden" : false,
                          "magnetic" : false,
                          "matte" : 0,
                          "solo" : false,
                          "metadata" : {
                            "IsLocked" : "False",
                            "WinTrackHeight" : "56"
                          }
                      },
                      {
                        "trackIndex" : 5,
                        "medias" : [
                          {
                            "id" : 231,
                            "_type" : "IMFile",
                            "src" : 13,
                            "trackNumber" : 0,
                            "trimStartSum" : -10,
                            "attributes" : {
                              "ident" : "patch-trans"
                            },
                            "parameters" : {
                              "translation0" : -476.098484848484,
                              "translation1" : 173.214912347627,
                              "scale0" : 0.354166666666668,
                              "scale1" : 0.354166666666668,
                              "sourceCrop0" : 0.0,
                              "sourceCrop1" : 0.0,
                              "sourceCrop2" : 0.0,
                              "sourceCrop3" : 0.0,
                              "geometryCrop0" : 0.0,
                              "geometryCrop1" : 0.0,
                              "geometryCrop2" : 0.0,
                              "geometryCrop3" : 0.0
                            },
                            "effects" : [

                            ],
                            "start" : 0,
                            "duration" : 76,
                            "mediaStart" : 0,
                            "mediaDuration" : 1,
                            "scalar" : 1,
                            "metadata" : {
                              "clipSpeedAttribute" : false,
                              "default-height" : 160.0,
                              "default-scale0" : 1.0,
                              "default-scale1" : 1.0,
                              "default-translation0" : 0.0,
                              "default-translation1" : 0.0,
                              "default-width" : 184.0
                            },
                            "animationTracks" : {

                            }
                          }
                        ],
                          "ident" : "",
                          "audioMuted" : false,
                          "videoHidden" : false,
                          "magnetic" : false,
                          "matte" : 0,
                          "solo" : false,
                          "metadata" : {
                            "IsLocked" : "False",
                            "WinTrackHeight" : "56"
                          }
                      },
                      {
                        "trackIndex" : 6,
                        "medias" : [
                          {
                            "id" : 232,
                            "_type" : "IMFile",
                            "src" : 13,
                            "trackNumber" : 0,
                            "trimStartSum" : -10,
                            "attributes" : {
                              "ident" : "patch-trans"
                            },
                            "parameters" : {
                              "translation0" : 447.546296296297,
                              "translation1" : 207.381579014293,
                              "scale0" : 0.354166666666668,
                              "scale1" : 0.354166666666668,
                              "sourceCrop0" : 0.0,
                              "sourceCrop1" : 0.0,
                              "sourceCrop2" : 0.0,
                              "sourceCrop3" : 0.0,
                              "geometryCrop0" : 0.0,
                              "geometryCrop1" : 0.0,
                              "geometryCrop2" : 0.0,
                              "geometryCrop3" : 0.0
                            },
                            "effects" : [

                            ],
                            "start" : 0,
                            "duration" : 76,
                            "mediaStart" : 0,
                            "mediaDuration" : 1,
                            "scalar" : 1,
                            "metadata" : {
                              "clipSpeedAttribute" : false,
                              "default-height" : 160.0,
                              "default-scale0" : 1.0,
                              "default-scale1" : 1.0,
                              "default-translation0" : 0.0,
                              "default-translation1" : 0.0,
                              "default-width" : 184.0
                            },
                            "animationTracks" : {

                            }
                          }
                        ],
                          "ident" : "",
                          "audioMuted" : false,
                          "videoHidden" : false,
                          "magnetic" : false,
                          "matte" : 0,
                          "solo" : false,
                          "metadata" : {
                            "IsLocked" : "False",
                            "WinTrackHeight" : "56"
                          }
                      },
                      {
                        "trackIndex" : 7,
                        "medias" : [
                          {
                            "id" : 233,
                            "_type" : "IMFile",
                            "src" : 13,
                            "trackNumber" : 0,
                            "trimStartSum" : -10,
                            "attributes" : {
                              "ident" : "patch-trans"
                            },
                            "parameters" : {
                              "translation0" : 496.583333333333,
                              "translation1" : 6.54824568095979,
                              "scale0" : 0.354166666666668,
                              "scale1" : 0.354166666666668,
                              "sourceCrop0" : 0.0,
                              "sourceCrop1" : 0.0,
                              "sourceCrop2" : 0.0,
                              "sourceCrop3" : 0.0,
                              "geometryCrop0" : 0.0,
                              "geometryCrop1" : 0.0,
                              "geometryCrop2" : 0.0,
                              "geometryCrop3" : 0.0
                            },
                            "effects" : [

                            ],
                            "start" : 0,
                            "duration" : 76,
                            "mediaStart" : 0,
                            "mediaDuration" : 1,
                            "scalar" : 1,
                            "metadata" : {
                              "clipSpeedAttribute" : false,
                              "default-height" : 160.0,
                              "default-scale0" : 1.0,
                              "default-scale1" : 1.0,
                              "default-translation0" : 0.0,
                              "default-translation1" : 0.0,
                              "default-width" : 184.0
                            },
                            "animationTracks" : {

                            }
                          }
                        ],
                          "ident" : "",
                          "audioMuted" : false,
                          "videoHidden" : false,
                          "magnetic" : false,
                          "matte" : 0,
                          "solo" : false,
                          "metadata" : {
                            "IsLocked" : "False",
                            "WinTrackHeight" : "56"
                          }
                      }
                    ],
                    "attributes" : {
                      "ident" : "patches-prod",
                      "widthAttr" : 1058.0,
                      "heightAttr" : 613.0,
                      "gain" : 1.0,
                      "mixToMono" : false,
                      "assetProperties" : [
                      ]
                    },
                    "effects" : [

                    ],
                    "start" : 943,
                    "duration" : 76,
                    "mediaStart" : 0.0,
                    "mediaDuration" : 76.0,
                    "scalar" : 1,
                    "metadata" : {
                      "clipSpeedAttribute" : false
                    },
                    "animationTracks" : {

                    }
                  },
                  {
                    "id" : 234,
                    "_type" : "Callout",
                    "def" : {
                      "kind" : "TypeWinSVG",
                      "shape" : "",
                      "style" : "",
                      "DrawTime" : 1.0,
                      "borderColorBlue" : 0.0,
                      "borderColorGreen" : 0.0,
                      "borderColorRed" : 1.0,
                      "borderWidth" : 5.0,
                      "enable-ligatures" : 0.0,
                      "flipOnXAxis" : 0.0,
                      "flipOnYAxis" : 0.0,
                      "height" : 270.0,
                      "width" : 480.0,
                      "filename" : "C:\\Users\\Simon.Harrison\\AppData\\Local\\TechSmith\\Camtasia Studio\\21.0\\Features\\Tools\\Annotations\\Defaults\\anim_arrow.svg",
                      "name" : "",
                      "resize-behavior" : "resizeCallout",
                      "xmlContent" : "﻿<?xml version=\"1.0\" encoding=\"utf-8\"?>\n<!-- Generator: Adobe Illustrator 13.0.2, SVG Export Plug-In . SVG Version: 6.00 Build 14948)  -->\n<!DOCTYPE svg PUBLIC \"-//W3C//DTD SVG 1.1//EN\" \"http://www.w3.org/Graphics/SVG/1.1/DTD/svg11.dtd\">\n<svg version=\"1.1\" id=\"Layer_1\" xmlns=\"http://www.w3.org/2000/svg\" xmlns:xlink=\"http://www.w3.org/1999/xlink\" x=\"0px\" y=\"0px\"\n\t width=\"151.268px\" height=\"53px\" viewBox=\"0 0 151.268 53\" enable-background=\"new 0 0 151.268 53\" xml:space=\"preserve\">\n<path fill=\"none\" d=\"M12.852,24.926c0,0,85.25-8.838,118.688-2.996\"/>\n<path fill=\"none\" d=\"M93.169,2.713c0,0,46.52,8.657,49.944,18.729c3.424,10.071-43.753,26.022-43.753,26.022\"/>\n</svg>\n"
                    },
                    "attributes" : {
                      "autoRotateText" : true
                    },
                    "parameters" : {
                      "translation0" : -263.930998176652,
                      "translation1" : 146.756570674498,
                      "rotation2" : -0.59456593331921,
                      "scale0" : 0.816267419068265,
                      "scale1" : 0.307150300636014,
                      "sourceCrop0" : 0.0,
                      "sourceCrop1" : 0.0,
                      "sourceCrop2" : 0.0,
                      "sourceCrop3" : 0.0,
                      "geometryCrop0" : 0.0,
                      "geometryCrop1" : 0.0,
                      "geometryCrop2" : 0.0,
                      "geometryCrop3" : 0.0
                    },
                    "leftEdgeMods" : [
                      {
                        "group" : "DrawPercentageFade",
                        "duration" : 30,
                        "parameters" : [
                          {
                            "name" : "DrawTime",
                              "func" : "FadeInFunc"
                            }
                        ]
                      }
                    ],
                    "effects" : [

                    ],
                    "start" : 2429,
                    "duration" : 335,
                    "mediaStart" : 0,
                    "mediaDuration" : 335,
                    "scalar" : 1,
                    "metadata" : {
                      "clipSpeedAttribute" : false,
                      "default-height" : 270.0,
                      "default-rotation2" : 0.0,
                      "default-scale0" : 1.0,
                      "default-scale1" : 1.0,
                      "default-translation0" : 0.0,
                      "default-translation1" : 0.0,
                      "default-width" : 480.0
                    },
                    "animationTracks" : {

                    }
                  },
                  {
                    "id" : 235,
                    "_type" : "Callout",
                    "def" : {
                      "kind" : "remix",
                      "shape" : "text-rectangle",
                      "style" : "basic",
                      "enable-ligatures" : 1.0,
                      "fill-color-blue" : 1.0,
                      "fill-color-green" : 1.0,
                      "fill-color-opacity" : 0.0,
                      "fill-color-red" : 1.0,
                      "height" : 136.122497826393,
                      "line-spacing" : 0.0,
                      "stroke-color-blue" : 0.56078431372549,
                      "stroke-color-green" : 0.686274509803922,
                      "stroke-color-opacity" : 0.0,
                      "stroke-color-red" : 0.0196078431372549,
                      "stroke-width" : 2.0,
                      "tail-x" : -139.942760942761,
                      "tail-y" : -48.2149122807017,
                      "width" : 102.0,
                      "word-wrap" : 1.0,
                      "fill-style" : "solid",
                      "horizontal-alignment" : "center",
                      "resize-behavior" : "resizeText",
                      "stroke-style" : "solid",
                      "text" : "87%",
                      "vertical-alignment" : "center",
                      "font" : {
                        "color-blue" : 0.266666666666667,
                        "color-green" : 0.231372549019608,
                        "color-opacity" : 1.0,
                        "color-red" : 0.184313725490196,
                        "size" : 64.0,
                        "tracking" : 0.0,
                        "name" : "Montserrat",
                        "weight" : "Regular"
                      },
                      "textAttributes" : {
                        "type" : "textAttributeList",
                        "keyframes" : [
                          {
                            "endTime" : 0,
                            "time" : 0,
                            "value" : [{"name":"fontItalic","rangeEnd":3,"rangeStart":0,"value":0,"valueType":"int"},{"name":"fontWeight","rangeEnd":3,"rangeStart":0,"value":400,"valueType":"int"},{"name":"strikethrough","rangeEnd":3,"rangeStart":0,"value":0,"valueType":"int"},{"name":"fontName","rangeEnd":3,"rangeStart":0,"value":"Montserrat","valueType":"string"},{"name":"fgColor","rangeEnd":3,"rangeStart":0,"value":"(254,5,5,255)","valueType":"color"},{"name":"underline","rangeEnd":3,"rangeStart":0,"value":0,"valueType":"int"},{"name":"kerning","rangeEnd":3,"rangeStart":0,"value":0,"valueType":"double"},{"name":"fontSize","rangeEnd":3,"rangeStart":0,"value":50,"valueType":"double"}],
                            "duration" : 0
                          }
                        ]
                      }
                    },
                    "attributes" : {
                      "autoRotateText" : true
                    },
                    "parameters" : {
                      "translation0" : 197.975976462089,
                      "translation1" : -41.7105264496386,
                      "sourceCrop0" : 0.0,
                      "sourceCrop1" : 0.0,
                      "sourceCrop2" : 0.0,
                      "sourceCrop3" : 0.0,
                      "geometryCrop0" : 0.0,
                      "geometryCrop1" : 0.0,
                      "geometryCrop2" : 0.0,
                      "geometryCrop3" : 0.0
                    },
                    "effects" : [

                    ],
                    "start" : 4985,
                    "duration" : 365,
                    "mediaStart" : 0,
                    "mediaDuration" : 365,
                    "scalar" : 1,
                    "metadata" : {
                      "clipSpeedAttribute" : false,
                      "default-HAlign" : "center",
                      "default-LineSpace" : 0.0,
                      "default-VAlign" : "center",
                      "default-fill-color-opacity" : 1.0,
                      "default-height" : 176.0,
                      "default-stroke-color-opacity" : 1.0,
                      "default-text-attributes" : "[{\"name\":\"fontWeight\",\"rangeEnd\":2,\"rangeStart\":0,\"value\":400,\"valueType\":\"int\"},{\"name\":\"underline\",\"rangeEnd\":2,\"rangeStart\":0,\"value\":0,\"valueType\":\"int\"},{\"name\":\"fgColor\",\"rangeEnd\":2,\"rangeStart\":0,\"value\":\"(254,5,5,255)\",\"valueType\":\"color\"},{\"name\":\"fontItalic\",\"rangeEnd\":2,\"rangeStart\":0,\"value\":0,\"valueType\":\"int\"},{\"name\":\"strikethrough\",\"rangeEnd\":2,\"rangeStart\":0,\"value\":0,\"valueType\":\"int\"},{\"name\":\"fontSize\",\"rangeEnd\":2,\"rangeStart\":0,\"value\":103,\"valueType\":\"double\"},{\"name\":\"fontName\",\"rangeEnd\":2,\"rangeStart\":0,\"value\":\"Wingdings\",\"valueType\":\"string\"},{\"name\":\"kerning\",\"rangeEnd\":2,\"rangeStart\":0,\"value\":0,\"valueType\":\"double\"}]",
                      "default-translation0" : 0.0,
                      "default-translation1" : 0.0,
                      "default-width" : 376.0
                    },
                    "animationTracks" : {

                    }
                  },
                  {
                    "id" : 236,
                    "_type" : "Callout",
                    "def" : {
                      "kind" : "remix",
                      "shape" : "text-rectangle",
                      "style" : "basic",
                      "enable-ligatures" : 1.0,
                      "fill-color-blue" : 1.0,
                      "fill-color-green" : 1.0,
                      "fill-color-opacity" : 0.0,
                      "fill-color-red" : 1.0,
                      "height" : 10.7811035918793,
                      "line-spacing" : 0.0,
                      "stroke-color-blue" : 0.890196078431372,
                      "stroke-color-green" : 0.870588235294118,
                      "stroke-color-opacity" : 1.0,
                      "stroke-color-red" : 0.847058823529412,
                      "stroke-width" : 9.32203389830508,
                      "tail-x" : 159.833333333333,
                      "tail-y" : -77.3905517959396,
                      "width" : 14.3333333333333,
                      "word-wrap" : 1.0,
                      "fill-style" : "solid",
                      "horizontal-alignment" : "center",
                      "resize-behavior" : "resizeText",
                      "stroke-style" : "solid",
                      "text" : "",
                      "vertical-alignment" : "center",
                      "font" : {
                        "color-blue" : 0.266666666666667,
                        "color-green" : 0.231372549019608,
                        "color-opacity" : 1.0,
                        "color-red" : 0.184313725490196,
                        "size" : 64.0,
                        "tracking" : 0.0,
                        "name" : "Montserrat",
                        "weight" : "Regular"
                      },
                      "textAttributes" : {
                        "type" : "textAttributeList",
                        "keyframes" : [
                          {
                            "endTime" : 0,
                            "time" : 0,
                            "value" : [{"name":"fgColor","rangeEnd":1,"rangeStart":0,"value":"(47,59,68,255)","valueType":"color"},{"name":"fontSize","rangeEnd":1,"rangeStart":0,"value":64,"valueType":"double"},{"name":"fontWeight","rangeEnd":1,"rangeStart":0,"value":400,"valueType":"int"},{"name":"kerning","rangeEnd":1,"rangeStart":0,"value":0,"valueType":"double"},{"name":"underline","rangeEnd":1,"rangeStart":0,"value":0,"valueType":"int"},{"name":"strikethrough","rangeEnd":1,"rangeStart":0,"value":0,"valueType":"int"},{"name":"fontItalic","rangeEnd":1,"rangeStart":0,"value":0,"valueType":"int"},{"name":"fontName","rangeEnd":1,"rangeStart":0,"value":"Montserrat","valueType":"string"}],
                            "duration" : 0
                          }
                        ]
                      }
                    },
                    "attributes" : {
                      "autoRotateText" : true
                    },
                    "parameters" : {
                      "translation0" : -410.712121212121,
                      "translation1" : -4.39055156707763,
                      "sourceCrop0" : 0.0,
                      "sourceCrop1" : 0.0,
                      "sourceCrop2" : 0.0,
                      "sourceCrop3" : 0.0,
                      "geometryCrop0" : 0.0,
                      "geometryCrop1" : 0.0,
                      "geometryCrop2" : 0.0,
                      "geometryCrop3" : 0.0
                    },
                    "effects" : [

                    ],
                    "start" : 6501,
                    "duration" : 104,
                    "mediaStart" : 0,
                    "mediaDuration" : 104,
                    "scalar" : 1,
                    "metadata" : {
                      "clipSpeedAttribute" : false,
                      "default-HAlign" : "center",
                      "default-LineSpace" : 0.0,
                      "default-VAlign" : "center",
                      "default-fill-color-opacity" : 1.0,
                      "default-height" : 176.0,
                      "default-stroke-color-blue" : 0.56078431372549,
                      "default-stroke-color-green" : 0.686274509803922,
                      "default-stroke-color-red" : 0.0196078431372549,
                      "default-stroke-width" : 2.0,
                      "default-translation0" : 0.0,
                      "default-translation1" : 0.0,
                      "default-width" : 376.0
                    },
                    "animationTracks" : {

                    }
                  },
                  {
                    "id" : 237,
                    "_type" : "Callout",
                    "def" : {
                      "kind" : "remix",
                      "shape" : "text-rectangle",
                      "style" : "basic",
                      "enable-ligatures" : 1.0,
                      "fill-color-blue" : 1.0,
                      "fill-color-green" : 1.0,
                      "fill-color-opacity" : 0.0,
                      "fill-color-red" : 1.0,
                      "height" : 224.360446570973,
                      "line-spacing" : 0.0,
                      "stroke-color-blue" : 0.890196078431372,
                      "stroke-color-green" : 0.870588235294118,
                      "stroke-color-opacity" : 0.0,
                      "stroke-color-red" : 0.847058823529412,
                      "stroke-width" : 0.0,
                      "tail-x" : -978.810076342765,
                      "tail-y" : -8.81977671451359,
                      "width" : 596.150989659386,
                      "word-wrap" : 1.0,
                      "fill-style" : "solid",
                      "horizontal-alignment" : "left",
                      "resize-behavior" : "resizeText",
                      "stroke-style" : "solid",
                      "text" : "3 = 5/5 = 100%\r4 = 5/5 = 100%",
                      "vertical-alignment" : "center",
                      "font" : {
                        "color-blue" : 0.266666666666667,
                        "color-green" : 0.231372549019608,
                        "color-opacity" : 1.0,
                        "color-red" : 0.184313725490196,
                        "size" : 64.0,
                        "tracking" : 0.0,
                        "name" : "Montserrat",
                        "weight" : "Regular"
                      },
                      "textAttributes" : {
                        "type" : "textAttributeList",
                        "keyframes" : [
                          {
                            "endTime" : 0,
                            "time" : 0,
                            "value" : [{"name":"fontName","rangeEnd":29,"rangeStart":0,"value":"Faktum Medium","valueType":"string"},{"name":"fontWeight","rangeEnd":29,"rangeStart":0,"value":400,"valueType":"int"},{"name":"fontSize","rangeEnd":29,"rangeStart":0,"value":80,"valueType":"double"},{"name":"fontItalic","rangeEnd":29,"rangeStart":0,"value":0,"valueType":"int"},{"name":"underline","rangeEnd":29,"rangeStart":0,"value":0,"valueType":"int"},{"name":"fgColor","rangeEnd":29,"rangeStart":0,"value":"(35,40,47,255)","valueType":"color"},{"name":"strikethrough","rangeEnd":29,"rangeStart":0,"value":0,"valueType":"int"},{"name":"kerning","rangeEnd":29,"rangeStart":0,"value":0,"valueType":"double"}],
                            "duration" : 0
                          }
                        ]
                      }
                    },
                    "attributes" : {
                      "autoRotateText" : true
                    },
                    "parameters" : {
                      "translation0" : 544.946942055234,
                      "translation1" : -55.7356490464247,
                      "sourceCrop0" : 0.0,
                      "sourceCrop1" : 0.0,
                      "sourceCrop2" : 0.0,
                      "sourceCrop3" : 0.0,
                      "geometryCrop0" : 0.0,
                      "geometryCrop1" : 0.0,
                      "geometryCrop2" : 0.0,
                      "geometryCrop3" : 0.0
                    },
                    "effects" : [

                    ],
                    "start" : 6666,
                    "duration" : 268,
                    "mediaStart" : -163,
                    "mediaDuration" : 268,
                    "scalar" : 1,
                    "metadata" : {
                      "clipSpeedAttribute" : false,
                      "default-HAlign" : "center",
                      "default-LineSpace" : 0.0,
                      "default-VAlign" : "center",
                      "default-fill-color-opacity" : 1.0,
                      "default-height" : 176.0,
                      "default-stroke-color-blue" : 0.56078431372549,
                      "default-stroke-color-green" : 0.686274509803922,
                      "default-stroke-color-opacity" : 1.0,
                      "default-stroke-color-red" : 0.0196078431372549,
                      "default-stroke-width" : 2.0,
                      "default-text-attributes" : "[{\"name\":\"fgColor\",\"rangeEnd\":23,\"rangeStart\":0,\"value\":\"(47,59,68,255)\",\"valueType\":\"color\"},{\"name\":\"underline\",\"rangeEnd\":23,\"rangeStart\":0,\"value\":0,\"valueType\":\"int\"},{\"name\":\"strikethrough\",\"rangeEnd\":23,\"rangeStart\":0,\"value\":0,\"valueType\":\"int\"},{\"name\":\"fontWeight\",\"rangeEnd\":23,\"rangeStart\":0,\"value\":400,\"valueType\":\"int\"},{\"name\":\"fontItalic\",\"rangeEnd\":23,\"rangeStart\":0,\"value\":0,\"valueType\":\"int\"},{\"name\":\"fontName\",\"rangeEnd\":23,\"rangeStart\":0,\"value\":\"Faktum Medium\",\"valueType\":\"string\"},{\"name\":\"kerning\",\"rangeEnd\":23,\"rangeStart\":0,\"value\":0,\"valueType\":\"double\"},{\"name\":\"fontSize\",\"rangeEnd\":23,\"rangeStart\":0,\"value\":80,\"valueType\":\"double\"}]",
                      "default-translation0" : 0.0,
                      "default-translation1" : 0.0,
                      "default-width" : 376.0
                    },
                    "animationTracks" : {

                    }
                  },
                  {
                    "id" : 238,
                    "_type" : "IMFile",
                    "src" : 26,
                    "trackNumber" : 0,
                    "trimStartSum" : 0,
                    "attributes" : {
                      "ident" : "patch-catalog"
                    },
                    "parameters" : {
                      "translation0" : -773.88011013488,
                      "translation1" : -278.744677409518,
                      "scale0" : 0.704990704990704,
                      "scale1" : 0.704990704990703,
                      "sourceCrop0" : 0.0,
                      "sourceCrop1" : 0.0,
                      "sourceCrop2" : 0.0,
                      "sourceCrop3" : 0.0,
                      "geometryCrop0" : 0.0,
                      "geometryCrop1" : 0.0,
                      "geometryCrop2" : 0.0,
                      "geometryCrop3" : 0.0
                    },
                    "effects" : [

                    ],
                    "start" : 8831,
                    "duration" : 341,
                    "mediaStart" : 0,
                    "mediaDuration" : 1,
                    "scalar" : 1,
                    "metadata" : {
                      "clipSpeedAttribute" : false,
                      "default-height" : 190.0,
                      "default-scale0" : 1.0,
                      "default-scale1" : 1.0,
                      "default-translation0" : -0.5,
                      "default-translation1" : 0.0,
                      "default-width" : 189.0
                    },
                    "animationTracks" : {

                    }
                  }
                ],
                "transitions" : [
                  {
                    "name" : "Fade",
                    "duration" : 30,
                    "trivial" : false,
                    "reverse" : false,
                    "bypass" : false,
                    "useAudioPreRoll" : true,
                    "useVisualPreRoll" : true,
                    "rightMedia" : 235
                  },
                  {
                    "name" : "Fade",
                    "duration" : 30,
                    "trivial" : false,
                    "reverse" : false,
                    "bypass" : false,
                    "useAudioPreRoll" : true,
                    "useVisualPreRoll" : true,
                    "leftMedia" : 235
                  },
                  {
                    "name" : "Fade",
                    "duration" : 30,
                    "trivial" : false,
                    "reverse" : false,
                    "bypass" : false,
                    "useAudioPreRoll" : true,
                    "useVisualPreRoll" : true,
                    "rightMedia" : 236
                  },
                  {
                    "name" : "Fade",
                    "duration" : 30,
                    "trivial" : false,
                    "reverse" : false,
                    "bypass" : false,
                    "useAudioPreRoll" : true,
                    "useVisualPreRoll" : true,
                    "leftMedia" : 236
                  },
                  {
                    "name" : "Fade",
                    "duration" : 30,
                    "trivial" : false,
                    "reverse" : false,
                    "bypass" : false,
                    "useAudioPreRoll" : true,
                    "useVisualPreRoll" : true,
                    "rightMedia" : 237
                  },
                  {
                    "name" : "Fade",
                    "duration" : 30,
                    "trivial" : false,
                    "reverse" : false,
                    "bypass" : false,
                    "useAudioPreRoll" : true,
                    "useVisualPreRoll" : true,
                    "leftMedia" : 237
                  },
                  {
                    "name" : "Fade",
                    "duration" : 30,
                    "trivial" : false,
                    "reverse" : false,
                    "bypass" : false,
                    "useAudioPreRoll" : true,
                    "useVisualPreRoll" : true,
                    "rightMedia" : 238
                  }
                ]
              },
              {
                "trackIndex" : 10,
                "medias" : [
                  {
                    "id" : 239,
                    "_type" : "Callout",
                    "def" : {
                      "kind" : "remix",
                      "shape" : "text-rectangle",
                      "style" : "basic",
                      "enable-ligatures" : {
                        "type" : "double",
                        "defaultValue" : 1.0,
                        "interp" : "linr"
                      },
                      "fill-color-blue" : {
                        "type" : "double",
                        "defaultValue" : 0.109803921568627,
                        "interp" : "linr",
                        "keyframes" : [
                          {
                            "endTime" : 97,
                            "time" : 0,
                            "value" : 1.0,
                            "duration" : 97
                          }
                        ]
                      },
                      "fill-color-green" : {
                        "type" : "double",
                        "defaultValue" : 0.109803921568627,
                        "interp" : "linr",
                        "keyframes" : [
                          {
                            "endTime" : 97,
                            "time" : 0,
                            "value" : 1.0,
                            "duration" : 97
                          }
                        ]
                      },
                      "fill-color-opacity" : {
                        "type" : "double",
                        "defaultValue" : 1.0,
                        "interp" : "linr"
                      },
                      "fill-color-red" : {
                        "type" : "double",
                        "defaultValue" : 0.96078431372549,
                        "interp" : "linr",
                        "keyframes" : [
                          {
                            "endTime" : 97,
                            "time" : 0,
                            "value" : 1.0,
                            "duration" : 97
                          }
                        ]
                      },
                      "height" : {
                        "type" : "double",
                        "defaultValue" : 1241.46737511424,
                        "interp" : "linr"
                      },
                      "line-spacing" : {
                        "type" : "double",
                        "defaultValue" : 0.0,
                        "interp" : "linr"
                      },
                      "stroke-color-blue" : {
                        "type" : "double",
                        "defaultValue" : 0.172549019607843,
                        "interp" : "linr",
                        "keyframes" : [
                          {
                            "endTime" : 97,
                            "time" : 0,
                            "value" : 0.419607843137255,
                            "duration" : 97
                          }
                        ]
                      },
                      "stroke-color-green" : {
                        "type" : "double",
                        "defaultValue" : 0.0627450980392157,
                        "interp" : "linr",
                        "keyframes" : [
                          {
                            "endTime" : 97,
                            "time" : 0,
                            "value" : 0.0392156862745098,
                            "duration" : 97
                          }
                        ]
                      },
                      "stroke-color-opacity" : {
                        "type" : "double",
                        "defaultValue" : 1.0,
                        "interp" : "linr",
                        "keyframes" : [
                          {
                            "endTime" : 97,
                            "time" : 0,
                            "value" : 1.0,
                            "duration" : 97
                          }
                        ]
                      },
                      "stroke-color-red" : {
                        "type" : "double",
                        "defaultValue" : 1.0,
                        "interp" : "linr",
                        "keyframes" : [
                          {
                            "endTime" : 97,
                            "time" : 0,
                            "value" : 0.937254901960784,
                            "duration" : 97
                          }
                        ]
                      },
                      "stroke-width" : {
                        "type" : "double",
                        "defaultValue" : 2.0,
                        "interp" : "linr",
                        "keyframes" : [
                          {
                            "endTime" : 97,
                            "time" : 0,
                            "value" : 2.0,
                            "duration" : 97
                          }
                        ]
                      },
                      "tail-x" : {
                        "type" : "double",
                        "defaultValue" : -3.44827586206901,
                        "interp" : "linr"
                      },
                      "tail-y" : {
                        "type" : "double",
                        "defaultValue" : 37.7145883049484,
                        "interp" : "linr"
                      },
                      "width" : {
                        "type" : "double",
                        "defaultValue" : 2022.41379310345,
                        "interp" : "linr"
                      },
                      "word-wrap" : {
                        "type" : "double",
                        "defaultValue" : 1.0,
                        "interp" : "linr"
                      },
                      "fill-style" : "gradient",
                      "horizontal-alignment" : "center",
                      "resize-behavior" : "resizeText",
                      "stroke-style" : "solid",
                      "text" : "",
                      "vertical-alignment" : "center",
                      "font" : {
                        "color-blue" : {
                          "type" : "double",
                          "defaultValue" : 0.266666666666667,
                          "interp" : "linr"
                        },
                        "color-green" : {
                          "type" : "double",
                          "defaultValue" : 0.231372549019608,
                          "interp" : "linr"
                        },
                        "color-opacity" : {
                          "type" : "double",
                          "defaultValue" : 1.0,
                          "interp" : "linr"
                        },
                        "color-red" : {
                          "type" : "double",
                          "defaultValue" : 0.184313725490196,
                          "interp" : "linr"
                        },
                        "size" : {
                          "type" : "double",
                          "defaultValue" : 64.0,
                          "interp" : "linr"
                        },
                        "tracking" : {
                          "type" : "double",
                          "defaultValue" : 0.0,
                          "interp" : "linr"
                        },
                        "name" : "Montserrat",
                        "weight" : "Regular"
                      },
                      "textAttributes" : {
                        "type" : "textAttributeList",
                        "keyframes" : [
                          {
                            "endTime" : 0,
                            "time" : 0,
                            "value" : [{"name":"underline","rangeEnd":1,"rangeStart":0,"value":0,"valueType":"int"},{"name":"fontSize","rangeEnd":1,"rangeStart":0,"value":64,"valueType":"double"},{"name":"fontName","rangeEnd":1,"rangeStart":0,"value":"Montserrat","valueType":"string"},{"name":"fontItalic","rangeEnd":1,"rangeStart":0,"value":0,"valueType":"int"},{"name":"fontWeight","rangeEnd":1,"rangeStart":0,"value":400,"valueType":"int"},{"name":"kerning","rangeEnd":1,"rangeStart":0,"value":0,"valueType":"double"},{"name":"fgColor","rangeEnd":1,"rangeStart":0,"value":"(47,59,68,255)","valueType":"color"},{"name":"strikethrough","rangeEnd":1,"rangeStart":0,"value":0,"valueType":"int"}],
                            "duration" : 0
                          }
                        ]
                      }
                    },
                    "attributes" : {
                      "autoRotateText" : true
                    },
                    "parameters" : {
                      "translation0" : {
                        "type" : "double",
                        "defaultValue" : -2006.89655172414,
                        "interp" : "eioe",
                        "keyframes" : [
                          {
                            "endTime" : 97,
                            "time" : 0,
                            "value" : 2050.0,
                            "duration" : 97
                          }
                        ]
                      },
                      "translation1" : {
                        "type" : "double",
                        "defaultValue" : -57.7146043611094,
                        "interp" : "eioe",
                        "keyframes" : [
                          {
                            "endTime" : 97,
                            "time" : 0,
                            "value" : -1.59872115546023e-14,
                            "duration" : 97
                          }
                        ]
                      },
                      "sourceCrop0" : {
                        "type" : "double",
                        "defaultValue" : 0.0,
                        "interp" : "eioe"
                      },
                      "sourceCrop1" : {
                        "type" : "double",
                        "defaultValue" : 0.0,
                        "interp" : "eioe"
                      },
                      "sourceCrop2" : {
                        "type" : "double",
                        "defaultValue" : 0.0,
                        "interp" : "eioe"
                      },
                      "sourceCrop3" : {
                        "type" : "double",
                        "defaultValue" : 0.0,
                        "interp" : "eioe"
                      },
                      "geometryCrop0" : {
                        "type" : "double",
                        "defaultValue" : 0.0,
                        "interp" : "eioe"
                      },
                      "geometryCrop1" : {
                        "type" : "double",
                        "defaultValue" : 0.0,
                        "interp" : "eioe"
                      },
                      "geometryCrop2" : {
                        "type" : "double",
                        "defaultValue" : 0.0,
                        "interp" : "eioe"
                      },
                      "geometryCrop3" : {
                        "type" : "double",
                        "defaultValue" : 0.0,
                        "interp" : "eioe"
                      }
                    },
                    "effects" : [

                    ],
                    "start" : 972,
                    "duration" : 97,
                    "mediaStart" : 0,
                    "mediaDuration" : 97,
                    "scalar" : 1,
                    "metadata" : {
                      "clipSpeedAttribute" : false,
                      "default-HAlign" : "center",
                      "default-LineSpace" : 0.0,
                      "default-VAlign" : "center",
                      "default-callout-stroke-style" : "solid",
                      "default-fill-color-blue" : 1.0,
                      "default-fill-color-green" : 1.0,
                      "default-fill-color-red" : 1.0,
                      "default-fill-style" : "solid",
                      "default-height" : 1268.0,
                      "default-stroke-color-blue" : 0.56078431372549,
                      "default-stroke-color-green" : 0.686274509803922,
                      "default-stroke-color-opacity" : 1.0,
                      "default-stroke-color-red" : 0.0196078431372549,
                      "default-stroke-width" : 2.0,
                      "default-translation0" : 0.0,
                      "default-translation1" : 0.0,
                      "default-width" : 2049.0
                    },
                    "animationTracks" : {
                      "visual" : [
                        {
                          "endTime" : 97,
                          "duration" : 97,
                          "range" : [ 0, 97]
                        }
                      ]
                    }
                  },
                  {
                    "id" : 240,
                    "_type" : "Callout",
                    "def" : {
                      "kind" : "remix",
                      "shape" : "text-rectangle",
                      "style" : "basic",
                      "enable-ligatures" : 1.0,
                      "fill-color-blue" : 1.0,
                      "fill-color-green" : 1.0,
                      "fill-color-opacity" : 0.0,
                      "fill-color-red" : 1.0,
                      "height" : 128.115293741028,
                      "line-spacing" : 0.0,
                      "stroke-color-blue" : 0.56078431372549,
                      "stroke-color-green" : 0.686274509803922,
                      "stroke-color-opacity" : 0.0,
                      "stroke-color-red" : 0.0196078431372549,
                      "stroke-width" : 2.0,
                      "tail-x" : -358.860429767922,
                      "tail-y" : -48.2149131152657,
                      "width" : 533.835337650323,
                      "word-wrap" : 1.0,
                      "fill-style" : "solid",
                      "horizontal-alignment" : "center",
                      "resize-behavior" : "resizeText",
                      "stroke-style" : "solid",
                      "text" : "team machines",
                      "vertical-alignment" : "center",
                      "font" : {
                        "color-blue" : 0.266666666666667,
                        "color-green" : 0.231372549019608,
                        "color-opacity" : 1.0,
                        "color-red" : 0.184313725490196,
                        "size" : 64.0,
                        "tracking" : 0.0,
                        "name" : "Montserrat",
                        "weight" : "Regular"
                      },
                      "textAttributes" : {
                        "type" : "textAttributeList",
                        "keyframes" : [
                          {
                            "endTime" : 0,
                            "time" : 0,
                            "value" : [{"name":"fontName","rangeEnd":13,"rangeStart":0,"value":"Faktum","valueType":"string"},{"name":"fontWeight","rangeEnd":13,"rangeStart":0,"value":400,"valueType":"int"},{"name":"fontSize","rangeEnd":13,"rangeStart":0,"value":70,"valueType":"double"},{"name":"underline","rangeEnd":13,"rangeStart":0,"value":0,"valueType":"int"},{"name":"fontItalic","rangeEnd":13,"rangeStart":0,"value":0,"valueType":"int"},{"name":"strikethrough","rangeEnd":13,"rangeStart":0,"value":0,"valueType":"int"},{"name":"kerning","rangeEnd":13,"rangeStart":0,"value":0,"valueType":"double"},{"name":"fgColor","rangeEnd":13,"rangeStart":0,"value":"(254,5,5,255)","valueType":"color"}],
                            "duration" : 0
                          }
                        ]
                      }
                    },
                    "attributes" : {
                      "autoRotateText" : true
                    },
                    "parameters" : {
                      "translation0" : -629.380215597731,
                      "translation1" : -96.2078576757452,
                      "sourceCrop0" : 0.0,
                      "sourceCrop1" : 0.0,
                      "sourceCrop2" : 0.0,
                      "sourceCrop3" : 0.0,
                      "geometryCrop0" : 0.0,
                      "geometryCrop1" : 0.0,
                      "geometryCrop2" : 0.0,
                      "geometryCrop3" : 0.0
                    },
                    "effects" : [

                    ],
                    "start" : 2516,
                    "duration" : 248,
                    "mediaStart" : 0,
                    "mediaDuration" : 248,
                    "scalar" : 1,
                    "metadata" : {
                      "clipSpeedAttribute" : false,
                      "default-HAlign" : "center",
                      "default-LineSpace" : 0.0,
                      "default-VAlign" : "center",
                      "default-fill-color-opacity" : 1.0,
                      "default-height" : 176.0,
                      "default-stroke-color-opacity" : 1.0,
                      "default-translation0" : 0.0,
                      "default-translation1" : 0.0,
                      "default-width" : 376.0
                    },
                    "animationTracks" : {

                    }
                  },
                  {
                    "id" : 241,
                    "_type" : "Callout",
                    "def" : {
                      "kind" : "remix",
                      "shape" : "text-rectangle",
                      "style" : "basic",
                      "enable-ligatures" : 1.0,
                      "fill-color-blue" : 1.0,
                      "fill-color-green" : 1.0,
                      "fill-color-opacity" : 0.0,
                      "fill-color-red" : 1.0,
                      "height" : 84.1425439265736,
                      "line-spacing" : 0.0,
                      "stroke-color-blue" : 0.56078431372549,
                      "stroke-color-green" : 0.686274509803922,
                      "stroke-color-opacity" : 0.0,
                      "stroke-color-red" : 0.0196078431372549,
                      "stroke-width" : 2.0,
                      "tail-x" : -139.977584290247,
                      "tail-y" : -62.6677633252059,
                      "width" : 140.942759561711,
                      "word-wrap" : 1.0,
                      "fill-style" : "solid",
                      "horizontal-alignment" : "center",
                      "resize-behavior" : "resizeText",
                      "stroke-style" : "solid",
                      "text" : "43%",
                      "vertical-alignment" : "center",
                      "font" : {
                        "color-blue" : 0.266666666666667,
                        "color-green" : 0.231372549019608,
                        "color-opacity" : 1.0,
                        "color-red" : 0.184313725490196,
                        "size" : 64.0,
                        "tracking" : 0.0,
                        "name" : "Montserrat",
                        "weight" : "Regular"
                      },
                      "textAttributes" : {
                        "type" : "textAttributeList",
                        "keyframes" : [
                          {
                            "endTime" : 0,
                            "time" : 0,
                            "value" : [{"name":"fgColor","rangeEnd":3,"rangeStart":0,"value":"(249,13,40,255)","valueType":"color"},{"name":"fontWeight","rangeEnd":3,"rangeStart":0,"value":400,"valueType":"int"},{"name":"fontItalic","rangeEnd":3,"rangeStart":0,"value":0,"valueType":"int"},{"name":"underline","rangeEnd":3,"rangeStart":0,"value":0,"valueType":"int"},{"name":"fontName","rangeEnd":3,"rangeStart":0,"value":"Montserrat","valueType":"string"},{"name":"fontSize","rangeEnd":3,"rangeStart":0,"value":50,"valueType":"double"},{"name":"strikethrough","rangeEnd":3,"rangeStart":0,"value":0,"valueType":"int"},{"name":"kerning","rangeEnd":3,"rangeStart":0,"value":0,"valueType":"double"}],
                            "duration" : 0
                          }
                        ]
                      }
                    },
                    "attributes" : {
                      "autoRotateText" : true
                    },
                    "parameters" : {
                      "translation0" : 195.148798463586,
                      "translation1" : -96.1874982599626,
                      "sourceCrop0" : 0.0,
                      "sourceCrop1" : 0.0,
                      "sourceCrop2" : 0.0,
                      "sourceCrop3" : 0.0,
                      "geometryCrop0" : 0.0,
                      "geometryCrop1" : 0.0,
                      "geometryCrop2" : 0.0,
                      "geometryCrop3" : 0.0
                    },
                    "effects" : [

                    ],
                    "start" : 4985,
                    "duration" : 365,
                    "mediaStart" : 0,
                    "mediaDuration" : 365,
                    "scalar" : 1,
                    "metadata" : {
                      "clipSpeedAttribute" : false,
                      "default-HAlign" : "center",
                      "default-LineSpace" : 0.0,
                      "default-VAlign" : "center",
                      "default-fill-color-opacity" : 1.0,
                      "default-height" : 176.0,
                      "default-stroke-color-opacity" : 1.0,
                      "default-text-attributes" : "[{\"name\":\"strikethrough\",\"rangeEnd\":2,\"rangeStart\":0,\"value\":0,\"valueType\":\"int\"},{\"name\":\"fontWeight\",\"rangeEnd\":2,\"rangeStart\":0,\"value\":400,\"valueType\":\"int\"},{\"name\":\"fontName\",\"rangeEnd\":2,\"rangeStart\":0,\"value\":\"Wingdings\",\"valueType\":\"string\"},{\"name\":\"fontSize\",\"rangeEnd\":2,\"rangeStart\":0,\"value\":103,\"valueType\":\"double\"},{\"name\":\"fontItalic\",\"rangeEnd\":2,\"rangeStart\":0,\"value\":0,\"valueType\":\"int\"},{\"name\":\"underline\",\"rangeEnd\":2,\"rangeStart\":0,\"value\":0,\"valueType\":\"int\"},{\"name\":\"kerning\",\"rangeEnd\":2,\"rangeStart\":0,\"value\":0,\"valueType\":\"double\"},{\"name\":\"fgColor\",\"rangeEnd\":2,\"rangeStart\":0,\"value\":\"(254,5,5,255)\",\"valueType\":\"color\"}]",
                      "default-translation0" : 0.0,
                      "default-translation1" : 0.0,
                      "default-width" : 376.0
                    },
                    "animationTracks" : {

                    }
                  },
                  {
                    "id" : 242,
                    "_type" : "Callout",
                    "def" : {
                      "kind" : "remix",
                      "shape" : "text-rectangle",
                      "style" : "basic",
                      "enable-ligatures" : 1.0,
                      "fill-color-blue" : 1.0,
                      "fill-color-green" : 1.0,
                      "fill-color-opacity" : 0.0,
                      "fill-color-red" : 1.0,
                      "height" : 10.7811035918793,
                      "line-spacing" : 0.0,
                      "stroke-color-blue" : 0.890196078431372,
                      "stroke-color-green" : 0.870588235294118,
                      "stroke-color-opacity" : 1.0,
                      "stroke-color-red" : 0.847058823529412,
                      "stroke-width" : 9.32203389830508,
                      "tail-x" : 159.833333333333,
                      "tail-y" : -77.3905517959396,
                      "width" : 14.3333333333333,
                      "word-wrap" : 1.0,
                      "fill-style" : "solid",
                      "horizontal-alignment" : "center",
                      "resize-behavior" : "resizeText",
                      "stroke-style" : "solid",
                      "text" : "",
                      "vertical-alignment" : "center",
                      "font" : {
                        "color-blue" : 0.266666666666667,
                        "color-green" : 0.231372549019608,
                        "color-opacity" : 1.0,
                        "color-red" : 0.184313725490196,
                        "size" : 64.0,
                        "tracking" : 0.0,
                        "name" : "Montserrat",
                        "weight" : "Regular"
                      },
                      "textAttributes" : {
                        "type" : "textAttributeList",
                        "keyframes" : [
                          {
                            "endTime" : 0,
                            "time" : 0,
                            "value" : [{"name":"fgColor","rangeEnd":1,"rangeStart":0,"value":"(47,59,68,255)","valueType":"color"},{"name":"fontSize","rangeEnd":1,"rangeStart":0,"value":64,"valueType":"double"},{"name":"fontWeight","rangeEnd":1,"rangeStart":0,"value":400,"valueType":"int"},{"name":"kerning","rangeEnd":1,"rangeStart":0,"value":0,"valueType":"double"},{"name":"underline","rangeEnd":1,"rangeStart":0,"value":0,"valueType":"int"},{"name":"strikethrough","rangeEnd":1,"rangeStart":0,"value":0,"valueType":"int"},{"name":"fontItalic","rangeEnd":1,"rangeStart":0,"value":0,"valueType":"int"},{"name":"fontName","rangeEnd":1,"rangeStart":0,"value":"Montserrat","valueType":"string"}],
                            "duration" : 0
                          }
                        ]
                      }
                    },
                    "attributes" : {
                      "autoRotateText" : true
                    },
                    "parameters" : {
                      "translation0" : -361.621212121212,
                      "translation1" : -73.4814606579867,
                      "sourceCrop0" : 0.0,
                      "sourceCrop1" : 0.0,
                      "sourceCrop2" : 0.0,
                      "sourceCrop3" : 0.0,
                      "geometryCrop0" : 0.0,
                      "geometryCrop1" : 0.0,
                      "geometryCrop2" : 0.0,
                      "geometryCrop3" : 0.0
                    },
                    "effects" : [

                    ],
                    "start" : 6501,
                    "duration" : 104,
                    "mediaStart" : 0,
                    "mediaDuration" : 104,
                    "scalar" : 1,
                    "metadata" : {
                      "clipSpeedAttribute" : false,
                      "default-HAlign" : "center",
                      "default-LineSpace" : 0.0,
                      "default-VAlign" : "center",
                      "default-fill-color-opacity" : 1.0,
                      "default-height" : 176.0,
                      "default-stroke-color-blue" : 0.56078431372549,
                      "default-stroke-color-green" : 0.686274509803922,
                      "default-stroke-color-red" : 0.0196078431372549,
                      "default-stroke-width" : 2.0,
                      "default-translation0" : 0.0,
                      "default-translation1" : 0.0,
                      "default-width" : 376.0
                    },
                    "animationTracks" : {

                    }
                  },
                  {
                    "id" : 243,
                    "_type" : "Callout",
                    "def" : {
                      "kind" : "remix",
                      "shape" : "text-rectangle",
                      "style" : "basic",
                      "enable-ligatures" : 1.0,
                      "fill-color-blue" : 1.0,
                      "fill-color-green" : 1.0,
                      "fill-color-opacity" : 0.0,
                      "fill-color-red" : 1.0,
                      "height" : 93.5701754385966,
                      "line-spacing" : 0.0,
                      "stroke-color-blue" : 0.56078431372549,
                      "stroke-color-green" : 0.686274509803922,
                      "stroke-color-opacity" : 0.0,
                      "stroke-color-red" : 0.0196078431372549,
                      "stroke-width" : 2.0,
                      "tail-x" : -139.942760942761,
                      "tail-y" : -48.2149122807017,
                      "width" : 70.1144781144788,
                      "word-wrap" : 1.0,
                      "fill-style" : "solid",
                      "horizontal-alignment" : "center",
                      "resize-behavior" : "resizeText",
                      "stroke-style" : "solid",
                      "text" : "ü",
                      "vertical-alignment" : "center",
                      "font" : {
                        "color-blue" : 0.266666666666667,
                        "color-green" : 0.231372549019608,
                        "color-opacity" : 1.0,
                        "color-red" : 0.184313725490196,
                        "size" : 64.0,
                        "tracking" : 0.0,
                        "name" : "Montserrat",
                        "weight" : "Regular"
                      },
                      "textAttributes" : {
                        "type" : "textAttributeList",
                        "keyframes" : [
                          {
                            "endTime" : 0,
                            "time" : 0,
                            "value" : [{"name":"fontWeight","rangeEnd":2,"rangeStart":0,"value":400,"valueType":"int"},{"name":"underline","rangeEnd":2,"rangeStart":0,"value":0,"valueType":"int"},{"name":"fgColor","rangeEnd":2,"rangeStart":0,"value":"(254,5,5,255)","valueType":"color"},{"name":"fontItalic","rangeEnd":2,"rangeStart":0,"value":0,"valueType":"int"},{"name":"strikethrough","rangeEnd":2,"rangeStart":0,"value":0,"valueType":"int"},{"name":"fontSize","rangeEnd":2,"rangeStart":0,"value":103,"valueType":"double"},{"name":"fontName","rangeEnd":2,"rangeStart":0,"value":"Wingdings","valueType":"string"},{"name":"kerning","rangeEnd":2,"rangeStart":0,"value":0,"valueType":"double"}],
                            "duration" : 0
                          }
                        ]
                      }
                    },
                    "attributes" : {
                      "autoRotateText" : true
                    },
                    "parameters" : {
                      "translation0" : 844.328834191324,
                      "translation1" : -3.47890993322348,
                      "sourceCrop0" : 0.0,
                      "sourceCrop1" : 0.0,
                      "sourceCrop2" : 0.0,
                      "sourceCrop3" : 0.0,
                      "geometryCrop0" : 0.0,
                      "geometryCrop1" : 0.0,
                      "geometryCrop2" : 0.0,
                      "geometryCrop3" : 0.0
                    },
                    "effects" : [

                    ],
                    "start" : 6734,
                    "duration" : 200,
                    "mediaStart" : -271,
                    "mediaDuration" : 200,
                    "scalar" : 1,
                    "metadata" : {
                      "clipSpeedAttribute" : false,
                      "default-HAlign" : "center",
                      "default-LineSpace" : 0.0,
                      "default-VAlign" : "center",
                      "default-fill-color-opacity" : 1.0,
                      "default-height" : 176.0,
                      "default-stroke-color-opacity" : 1.0,
                      "default-translation0" : 0.0,
                      "default-translation1" : 0.0,
                      "default-width" : 376.0
                    },
                    "animationTracks" : {

                    }
                  }
                ],
                "transitions" : [
                  {
                    "name" : "Fade",
                    "duration" : 30,
                    "trivial" : false,
                    "reverse" : false,
                    "bypass" : false,
                    "useAudioPreRoll" : true,
                    "useVisualPreRoll" : true,
                    "rightMedia" : 241
                  },
                  {
                    "name" : "Fade",
                    "duration" : 30,
                    "trivial" : false,
                    "reverse" : false,
                    "bypass" : false,
                    "useAudioPreRoll" : true,
                    "useVisualPreRoll" : true,
                    "leftMedia" : 241
                  },
                  {
                    "name" : "Fade",
                    "duration" : 30,
                    "trivial" : false,
                    "reverse" : false,
                    "bypass" : false,
                    "useAudioPreRoll" : true,
                    "useVisualPreRoll" : true,
                    "rightMedia" : 242
                  },
                  {
                    "name" : "Fade",
                    "duration" : 30,
                    "trivial" : false,
                    "reverse" : false,
                    "bypass" : false,
                    "useAudioPreRoll" : true,
                    "useVisualPreRoll" : true,
                    "leftMedia" : 242
                  },
                  {
                    "name" : "Fade",
                    "duration" : 30,
                    "trivial" : false,
                    "reverse" : false,
                    "bypass" : false,
                    "useAudioPreRoll" : true,
                    "useVisualPreRoll" : true,
                    "rightMedia" : 243
                  },
                  {
                    "name" : "Fade",
                    "duration" : 30,
                    "trivial" : false,
                    "reverse" : false,
                    "bypass" : false,
                    "useAudioPreRoll" : true,
                    "useVisualPreRoll" : true,
                    "leftMedia" : 243
                  }
                ]
              },
              {
                "trackIndex" : 11,
                "medias" : [
                  {
                    "id" : 244,
                    "_type" : "Callout",
                    "def" : {
                      "kind" : "TypeWinSVG",
                      "shape" : "",
                      "style" : "",
                      "DrawTime" : 1.0,
                      "borderColorBlue" : 0.0,
                      "borderColorGreen" : 0.0,
                      "borderColorRed" : 1.0,
                      "borderWidth" : 5.0,
                      "enable-ligatures" : 0.0,
                      "flipOnXAxis" : 0.0,
                      "flipOnYAxis" : 0.0,
                      "height" : 270.0,
                      "width" : 480.0,
                      "filename" : "C:\\Users\\Simon.Harrison\\AppData\\Local\\TechSmith\\Camtasia Studio\\21.0\\Features\\Tools\\Annotations\\Defaults\\anim_arrow.svg",
                      "name" : "",
                      "resize-behavior" : "resizeCallout",
                      "xmlContent" : "﻿<?xml version=\"1.0\" encoding=\"utf-8\"?>\n<!-- Generator: Adobe Illustrator 13.0.2, SVG Export Plug-In . SVG Version: 6.00 Build 14948)  -->\n<!DOCTYPE svg PUBLIC \"-//W3C//DTD SVG 1.1//EN\" \"http://www.w3.org/Graphics/SVG/1.1/DTD/svg11.dtd\">\n<svg version=\"1.1\" id=\"Layer_1\" xmlns=\"http://www.w3.org/2000/svg\" xmlns:xlink=\"http://www.w3.org/1999/xlink\" x=\"0px\" y=\"0px\"\n\t width=\"151.268px\" height=\"53px\" viewBox=\"0 0 151.268 53\" enable-background=\"new 0 0 151.268 53\" xml:space=\"preserve\">\n<path fill=\"none\" d=\"M12.852,24.926c0,0,85.25-8.838,118.688-2.996\"/>\n<path fill=\"none\" d=\"M93.169,2.713c0,0,46.52,8.657,49.944,18.729c3.424,10.071-43.753,26.022-43.753,26.022\"/>\n</svg>\n"
                    },
                    "attributes" : {
                      "autoRotateText" : true
                    },
                    "parameters" : {
                      "translation0" : -242.843135681404,
                      "translation1" : -47.1481149977553,
                      "rotation2" : 0.314967427010046,
                      "scale0" : 0.562470722847173,
                      "scale1" : 0.307150300636014,
                      "sourceCrop0" : 0.0,
                      "sourceCrop1" : 0.0,
                      "sourceCrop2" : 0.0,
                      "sourceCrop3" : 0.0,
                      "geometryCrop0" : 0.0,
                      "geometryCrop1" : 0.0,
                      "geometryCrop2" : 0.0,
                      "geometryCrop3" : 0.0
                    },
                    "leftEdgeMods" : [
                      {
                        "group" : "DrawPercentageFade",
                        "duration" : 30,
                        "parameters" : [
                          {
                            "name" : "DrawTime",
                              "func" : "FadeInFunc"
                            }
                        ]
                      }
                    ],
                    "effects" : [

                    ],
                    "start" : 2516,
                    "duration" : 248,
                    "mediaStart" : 0,
                    "mediaDuration" : 248,
                    "scalar" : 1,
                    "metadata" : {
                      "clipSpeedAttribute" : false,
                      "default-height" : 270.0,
                      "default-rotation2" : 0.0,
                      "default-scale0" : 1.0,
                      "default-scale1" : 1.0,
                      "default-translation0" : 0.0,
                      "default-translation1" : 0.0,
                      "default-width" : 480.0
                    },
                    "animationTracks" : {

                    }
                  },
                  {
                    "id" : 245,
                    "_type" : "Callout",
                    "def" : {
                      "kind" : "remix",
                      "shape" : "text-rectangle",
                      "style" : "basic",
                      "enable-ligatures" : 1.0,
                      "fill-color-blue" : 1.0,
                      "fill-color-green" : 1.0,
                      "fill-color-opacity" : 0.0,
                      "fill-color-red" : 1.0,
                      "height" : 92.0112017266893,
                      "line-spacing" : 0.0,
                      "stroke-color-blue" : 0.56078431372549,
                      "stroke-color-green" : 0.686274509803922,
                      "stroke-color-opacity" : 0.0,
                      "stroke-color-red" : 0.0196078431372549,
                      "stroke-width" : 2.0,
                      "tail-x" : -139.942760942761,
                      "tail-y" : -68.2687588919304,
                      "width" : 99.0,
                      "word-wrap" : 1.0,
                      "fill-style" : "solid",
                      "horizontal-alignment" : "center",
                      "resize-behavior" : "resizeText",
                      "stroke-style" : "solid",
                      "text" : "95%",
                      "vertical-alignment" : "center",
                      "font" : {
                        "color-blue" : 0.266666666666667,
                        "color-green" : 0.231372549019608,
                        "color-opacity" : 1.0,
                        "color-red" : 0.184313725490196,
                        "size" : 64.0,
                        "tracking" : 0.0,
                        "name" : "Montserrat",
                        "weight" : "Regular"
                      },
                      "textAttributes" : {
                        "type" : "textAttributeList",
                        "keyframes" : [
                          {
                            "endTime" : 0,
                            "time" : 0,
                            "value" : [{"name":"strikethrough","rangeEnd":3,"rangeStart":0,"value":0,"valueType":"int"},{"name":"fontWeight","rangeEnd":3,"rangeStart":0,"value":400,"valueType":"int"},{"name":"fontSize","rangeEnd":3,"rangeStart":0,"value":50,"valueType":"double"},{"name":"fontName","rangeEnd":3,"rangeStart":0,"value":"Montserrat","valueType":"string"},{"name":"fontItalic","rangeEnd":3,"rangeStart":0,"value":0,"valueType":"int"},{"name":"fgColor","rangeEnd":3,"rangeStart":0,"value":"(254,5,5,255)","valueType":"color"},{"name":"underline","rangeEnd":3,"rangeStart":0,"value":0,"valueType":"int"},{"name":"kerning","rangeEnd":3,"rangeStart":0,"value":0,"valueType":"double"}],
                            "duration" : 0
                          }
                        ]
                      }
                    },
                    "attributes" : {
                      "autoRotateText" : true
                    },
                    "parameters" : {
                      "translation0" : 196.475976462089,
                      "translation1" : -155.777375338421,
                      "sourceCrop0" : 0.0,
                      "sourceCrop1" : 0.0,
                      "sourceCrop2" : 0.0,
                      "sourceCrop3" : 0.0,
                      "geometryCrop0" : 0.0,
                      "geometryCrop1" : 0.0,
                      "geometryCrop2" : 0.0,
                      "geometryCrop3" : 0.0
                    },
                    "effects" : [

                    ],
                    "start" : 4985,
                    "duration" : 365,
                    "mediaStart" : 0,
                    "mediaDuration" : 365,
                    "scalar" : 1,
                    "metadata" : {
                      "clipSpeedAttribute" : false,
                      "default-HAlign" : "center",
                      "default-LineSpace" : 0.0,
                      "default-VAlign" : "center",
                      "default-fill-color-opacity" : 1.0,
                      "default-height" : 176.0,
                      "default-stroke-color-opacity" : 1.0,
                      "default-text-attributes" : "[{\"name\":\"strikethrough\",\"rangeEnd\":2,\"rangeStart\":0,\"value\":0,\"valueType\":\"int\"},{\"name\":\"fontWeight\",\"rangeEnd\":2,\"rangeStart\":0,\"value\":400,\"valueType\":\"int\"},{\"name\":\"fontName\",\"rangeEnd\":2,\"rangeStart\":0,\"value\":\"Wingdings\",\"valueType\":\"string\"},{\"name\":\"fontSize\",\"rangeEnd\":2,\"rangeStart\":0,\"value\":103,\"valueType\":\"double\"},{\"name\":\"fontItalic\",\"rangeEnd\":2,\"rangeStart\":0,\"value\":0,\"valueType\":\"int\"},{\"name\":\"underline\",\"rangeEnd\":2,\"rangeStart\":0,\"value\":0,\"valueType\":\"int\"},{\"name\":\"kerning\",\"rangeEnd\":2,\"rangeStart\":0,\"value\":0,\"valueType\":\"double\"},{\"name\":\"fgColor\",\"rangeEnd\":2,\"rangeStart\":0,\"value\":\"(254,5,5,255)\",\"valueType\":\"color\"}]",
                      "default-translation0" : 0.0,
                      "default-translation1" : 0.0,
                      "default-width" : 376.0
                    },
                    "animationTracks" : {

                    }
                  },
                  {
                    "id" : 246,
                    "_type" : "Callout",
                    "def" : {
                      "kind" : "remix",
                      "shape" : "text-rectangle",
                      "style" : "basic",
                      "enable-ligatures" : 1.0,
                      "fill-color-blue" : 1.0,
                      "fill-color-green" : 1.0,
                      "fill-color-opacity" : 0.0,
                      "fill-color-red" : 1.0,
                      "height" : 10.7811035918793,
                      "line-spacing" : 0.0,
                      "stroke-color-blue" : 0.890196078431372,
                      "stroke-color-green" : 0.870588235294118,
                      "stroke-color-opacity" : 1.0,
                      "stroke-color-red" : 0.847058823529412,
                      "stroke-width" : 9.32203389830508,
                      "tail-x" : 159.833333333333,
                      "tail-y" : -77.3905517959396,
                      "width" : 14.3333333333333,
                      "word-wrap" : 1.0,
                      "fill-style" : "solid",
                      "horizontal-alignment" : "center",
                      "resize-behavior" : "resizeText",
                      "stroke-style" : "solid",
                      "text" : "",
                      "vertical-alignment" : "center",
                      "font" : {
                        "color-blue" : 0.266666666666667,
                        "color-green" : 0.231372549019608,
                        "color-opacity" : 1.0,
                        "color-red" : 0.184313725490196,
                        "size" : 64.0,
                        "tracking" : 0.0,
                        "name" : "Montserrat",
                        "weight" : "Regular"
                      },
                      "textAttributes" : {
                        "type" : "textAttributeList",
                        "keyframes" : [
                          {
                            "endTime" : 0,
                            "time" : 0,
                            "value" : [{"name":"fgColor","rangeEnd":1,"rangeStart":0,"value":"(47,59,68,255)","valueType":"color"},{"name":"fontSize","rangeEnd":1,"rangeStart":0,"value":64,"valueType":"double"},{"name":"fontWeight","rangeEnd":1,"rangeStart":0,"value":400,"valueType":"int"},{"name":"kerning","rangeEnd":1,"rangeStart":0,"value":0,"valueType":"double"},{"name":"underline","rangeEnd":1,"rangeStart":0,"value":0,"valueType":"int"},{"name":"strikethrough","rangeEnd":1,"rangeStart":0,"value":0,"valueType":"int"},{"name":"fontItalic","rangeEnd":1,"rangeStart":0,"value":0,"valueType":"int"},{"name":"fontName","rangeEnd":1,"rangeStart":0,"value":"Montserrat","valueType":"string"}],
                            "duration" : 0
                          }
                        ]
                      }
                    },
                    "attributes" : {
                      "autoRotateText" : true
                    },
                    "parameters" : {
                      "translation0" : -323.439393939394,
                      "translation1" : -4.39055156707763,
                      "sourceCrop0" : 0.0,
                      "sourceCrop1" : 0.0,
                      "sourceCrop2" : 0.0,
                      "sourceCrop3" : 0.0,
                      "geometryCrop0" : 0.0,
                      "geometryCrop1" : 0.0,
                      "geometryCrop2" : 0.0,
                      "geometryCrop3" : 0.0
                    },
                    "effects" : [

                    ],
                    "start" : 6501,
                    "duration" : 104,
                    "mediaStart" : 0,
                    "mediaDuration" : 104,
                    "scalar" : 1,
                    "metadata" : {
                      "clipSpeedAttribute" : false,
                      "default-HAlign" : "center",
                      "default-LineSpace" : 0.0,
                      "default-VAlign" : "center",
                      "default-fill-color-opacity" : 1.0,
                      "default-height" : 176.0,
                      "default-stroke-color-blue" : 0.56078431372549,
                      "default-stroke-color-green" : 0.686274509803922,
                      "default-stroke-color-red" : 0.0196078431372549,
                      "default-stroke-width" : 2.0,
                      "default-translation0" : 0.0,
                      "default-translation1" : 0.0,
                      "default-width" : 376.0
                    },
                    "animationTracks" : {

                    }
                  },
                  {
                    "id" : 247,
                    "_type" : "Callout",
                    "def" : {
                      "kind" : "remix",
                      "shape" : "text-rectangle",
                      "style" : "basic",
                      "enable-ligatures" : 1.0,
                      "fill-color-blue" : 1.0,
                      "fill-color-green" : 1.0,
                      "fill-color-opacity" : 0.0,
                      "fill-color-red" : 1.0,
                      "height" : 93.5701754385966,
                      "line-spacing" : 0.0,
                      "stroke-color-blue" : 0.56078431372549,
                      "stroke-color-green" : 0.686274509803922,
                      "stroke-color-opacity" : 0.0,
                      "stroke-color-red" : 0.0196078431372549,
                      "stroke-width" : 2.0,
                      "tail-x" : -139.942760942761,
                      "tail-y" : -48.2149122807017,
                      "width" : 70.1144781144788,
                      "word-wrap" : 1.0,
                      "fill-style" : "solid",
                      "horizontal-alignment" : "center",
                      "resize-behavior" : "resizeText",
                      "stroke-style" : "solid",
                      "text" : "ü",
                      "vertical-alignment" : "center",
                      "font" : {
                        "color-blue" : 0.266666666666667,
                        "color-green" : 0.231372549019608,
                        "color-opacity" : 1.0,
                        "color-red" : 0.184313725490196,
                        "size" : 64.0,
                        "tracking" : 0.0,
                        "name" : "Montserrat",
                        "weight" : "Regular"
                      },
                      "textAttributes" : {
                        "type" : "textAttributeList",
                        "keyframes" : [
                          {
                            "endTime" : 0,
                            "time" : 0,
                            "value" : [{"name":"fontWeight","rangeEnd":2,"rangeStart":0,"value":400,"valueType":"int"},{"name":"underline","rangeEnd":2,"rangeStart":0,"value":0,"valueType":"int"},{"name":"fgColor","rangeEnd":2,"rangeStart":0,"value":"(254,5,5,255)","valueType":"color"},{"name":"fontItalic","rangeEnd":2,"rangeStart":0,"value":0,"valueType":"int"},{"name":"strikethrough","rangeEnd":2,"rangeStart":0,"value":0,"valueType":"int"},{"name":"fontSize","rangeEnd":2,"rangeStart":0,"value":103,"valueType":"double"},{"name":"fontName","rangeEnd":2,"rangeStart":0,"value":"Wingdings","valueType":"string"},{"name":"kerning","rangeEnd":2,"rangeStart":0,"value":0,"valueType":"double"}],
                            "duration" : 0
                          }
                        ]
                      }
                    },
                    "attributes" : {
                      "autoRotateText" : true
                    },
                    "parameters" : {
                      "translation0" : 844.328834191324,
                      "translation1" : -108.933455387769,
                      "sourceCrop0" : 0.0,
                      "sourceCrop1" : 0.0,
                      "sourceCrop2" : 0.0,
                      "sourceCrop3" : 0.0,
                      "geometryCrop0" : 0.0,
                      "geometryCrop1" : 0.0,
                      "geometryCrop2" : 0.0,
                      "geometryCrop3" : 0.0
                    },
                    "effects" : [

                    ],
                    "start" : 6734,
                    "duration" : 200,
                    "mediaStart" : -271,
                    "mediaDuration" : 200,
                    "scalar" : 1,
                    "metadata" : {
                      "clipSpeedAttribute" : false,
                      "default-HAlign" : "center",
                      "default-LineSpace" : 0.0,
                      "default-VAlign" : "center",
                      "default-fill-color-opacity" : 1.0,
                      "default-height" : 176.0,
                      "default-stroke-color-opacity" : 1.0,
                      "default-translation0" : 0.0,
                      "default-translation1" : 0.0,
                      "default-width" : 376.0
                    },
                    "animationTracks" : {

                    }
                  }
                ],
                "transitions" : [
                  {
                    "name" : "Fade",
                    "duration" : 30,
                    "trivial" : false,
                    "reverse" : false,
                    "bypass" : false,
                    "useAudioPreRoll" : true,
                    "useVisualPreRoll" : true,
                    "rightMedia" : 245
                  },
                  {
                    "name" : "Fade",
                    "duration" : 30,
                    "trivial" : false,
                    "reverse" : false,
                    "bypass" : false,
                    "useAudioPreRoll" : true,
                    "useVisualPreRoll" : true,
                    "leftMedia" : 245
                  },
                  {
                    "name" : "Fade",
                    "duration" : 30,
                    "trivial" : false,
                    "reverse" : false,
                    "bypass" : false,
                    "useAudioPreRoll" : true,
                    "useVisualPreRoll" : true,
                    "rightMedia" : 246
                  },
                  {
                    "name" : "Fade",
                    "duration" : 30,
                    "trivial" : false,
                    "reverse" : false,
                    "bypass" : false,
                    "useAudioPreRoll" : true,
                    "useVisualPreRoll" : true,
                    "leftMedia" : 246
                  },
                  {
                    "name" : "Fade",
                    "duration" : 30,
                    "trivial" : false,
                    "reverse" : false,
                    "bypass" : false,
                    "useAudioPreRoll" : true,
                    "useVisualPreRoll" : true,
                    "rightMedia" : 247
                  },
                  {
                    "name" : "Fade",
                    "duration" : 30,
                    "trivial" : false,
                    "reverse" : false,
                    "bypass" : false,
                    "useAudioPreRoll" : true,
                    "useVisualPreRoll" : true,
                    "leftMedia" : 247
                  }
                ]
              },
              {
                "trackIndex" : 12,
                "medias" : [
                  {
                    "id" : 248,
                    "_type" : "Callout",
                    "def" : {
                      "kind" : "remix",
                      "shape" : "text-rectangle",
                      "style" : "basic",
                      "enable-ligatures" : 1.0,
                      "fill-color-blue" : 1.0,
                      "fill-color-green" : 1.0,
                      "fill-color-opacity" : 0.0,
                      "fill-color-red" : 1.0,
                      "height" : 128.115293741028,
                      "line-spacing" : 0.0,
                      "stroke-color-blue" : 0.56078431372549,
                      "stroke-color-green" : 0.686274509803922,
                      "stroke-color-opacity" : 0.0,
                      "stroke-color-red" : 0.0196078431372549,
                      "stroke-width" : 2.0,
                      "tail-x" : -642.556081941835,
                      "tail-y" : -48.2149131152657,
                      "width" : 1101.22664199815,
                      "word-wrap" : 1.0,
                      "fill-style" : "solid",
                      "horizontal-alignment" : "center",
                      "resize-behavior" : "resizeText",
                      "stroke-style" : "solid",
                      "text" : "MAKE SURE THEY KNOW!",
                      "vertical-alignment" : "center",
                      "font" : {
                        "color-blue" : 0.266666666666667,
                        "color-green" : 0.231372549019608,
                        "color-opacity" : 1.0,
                        "color-red" : 0.184313725490196,
                        "size" : 64.0,
                        "tracking" : 0.0,
                        "name" : "Montserrat",
                        "weight" : "Regular"
                      },
                      "textAttributes" : {
                        "type" : "textAttributeList",
                        "keyframes" : [
                          {
                            "endTime" : 0,
                            "time" : 0,
                            "value" : [{"name":"fontWeight","rangeEnd":20,"rangeStart":0,"value":700,"valueType":"int"},{"name":"underline","rangeEnd":20,"rangeStart":0,"value":0,"valueType":"int"},{"name":"fontItalic","rangeEnd":20,"rangeStart":0,"value":0,"valueType":"int"},{"name":"strikethrough","rangeEnd":20,"rangeStart":0,"value":0,"valueType":"int"},{"name":"kerning","rangeEnd":20,"rangeStart":0,"value":0,"valueType":"double"},{"name":"fgColor","rangeEnd":20,"rangeStart":0,"value":"(254,5,5,255)","valueType":"color"},{"name":"fontSize","rangeEnd":20,"rangeStart":0,"value":70,"valueType":"double"},{"name":"fontName","rangeEnd":20,"rangeStart":0,"value":"Faktum","valueType":"string"}],
                            "duration" : 0
                          }
                        ]
                      }
                    },
                    "attributes" : {
                      "autoRotateText" : true
                    },
                    "parameters" : {
                      "translation0" : -22.4188466769098,
                      "translation1" : 475.942352294922,
                      "sourceCrop0" : 0.0,
                      "sourceCrop1" : 0.0,
                      "sourceCrop2" : 0.0,
                      "sourceCrop3" : 0.0,
                      "geometryCrop0" : 0.0,
                      "geometryCrop1" : 0.0,
                      "geometryCrop2" : 0.0,
                      "geometryCrop3" : 0.0
                    },
                    "effects" : [

                    ],
                    "start" : 2642,
                    "duration" : 122,
                    "mediaStart" : 0,
                    "mediaDuration" : 122,
                    "scalar" : 1,
                    "metadata" : {
                      "clipSpeedAttribute" : false,
                      "default-HAlign" : "center",
                      "default-LineSpace" : 0.0,
                      "default-VAlign" : "center",
                      "default-fill-color-opacity" : 1.0,
                      "default-height" : 176.0,
                      "default-stroke-color-opacity" : 1.0,
                      "default-translation0" : 0.0,
                      "default-translation1" : 0.0,
                      "default-width" : 376.0
                    },
                    "animationTracks" : {

                    }
                  },
                  {
                    "id" : 249,
                    "_type" : "Callout",
                    "def" : {
                      "kind" : "remix",
                      "shape" : "text-rectangle",
                      "style" : "basic",
                      "enable-ligatures" : 1.0,
                      "fill-color-blue" : 1.0,
                      "fill-color-green" : 1.0,
                      "fill-color-opacity" : 0.0,
                      "fill-color-red" : 1.0,
                      "height" : 93.5701754385966,
                      "line-spacing" : 0.0,
                      "stroke-color-blue" : 0.56078431372549,
                      "stroke-color-green" : 0.686274509803922,
                      "stroke-color-opacity" : 0.0,
                      "stroke-color-red" : 0.0196078431372549,
                      "stroke-width" : 2.0,
                      "tail-x" : -139.942760942761,
                      "tail-y" : -48.2149122807017,
                      "width" : 70.1144781144788,
                      "word-wrap" : 1.0,
                      "fill-style" : "solid",
                      "horizontal-alignment" : "center",
                      "resize-behavior" : "resizeText",
                      "stroke-style" : "solid",
                      "text" : "ü",
                      "vertical-alignment" : "center",
                      "font" : {
                        "color-blue" : 0.266666666666667,
                        "color-green" : 0.231372549019608,
                        "color-opacity" : 1.0,
                        "color-red" : 0.184313725490196,
                        "size" : 64.0,
                        "tracking" : 0.0,
                        "name" : "Montserrat",
                        "weight" : "Regular"
                      },
                      "textAttributes" : {
                        "type" : "textAttributeList",
                        "keyframes" : [
                          {
                            "endTime" : 0,
                            "time" : 0,
                            "value" : [{"name":"strikethrough","rangeEnd":2,"rangeStart":0,"value":0,"valueType":"int"},{"name":"fontWeight","rangeEnd":2,"rangeStart":0,"value":400,"valueType":"int"},{"name":"fontName","rangeEnd":2,"rangeStart":0,"value":"Wingdings","valueType":"string"},{"name":"fontSize","rangeEnd":2,"rangeStart":0,"value":103,"valueType":"double"},{"name":"fontItalic","rangeEnd":2,"rangeStart":0,"value":0,"valueType":"int"},{"name":"underline","rangeEnd":2,"rangeStart":0,"value":0,"valueType":"int"},{"name":"kerning","rangeEnd":2,"rangeStart":0,"value":0,"valueType":"double"},{"name":"fgColor","rangeEnd":2,"rangeStart":0,"value":"(254,5,5,255)","valueType":"color"}],
                            "duration" : 0
                          }
                        ]
                      }
                    },
                    "attributes" : {
                      "autoRotateText" : true
                    },
                    "parameters" : {
                      "translation0" : 295.222874207394,
                      "translation1" : 5.07456126965978,
                      "sourceCrop0" : 0.0,
                      "sourceCrop1" : 0.0,
                      "sourceCrop2" : 0.0,
                      "sourceCrop3" : 0.0,
                      "geometryCrop0" : 0.0,
                      "geometryCrop1" : 0.0,
                      "geometryCrop2" : 0.0,
                      "geometryCrop3" : 0.0
                    },
                    "effects" : [

                    ],
                    "start" : 5111,
                    "duration" : 239,
                    "mediaStart" : 0,
                    "mediaDuration" : 239,
                    "scalar" : 1,
                    "metadata" : {
                      "clipSpeedAttribute" : false,
                      "default-HAlign" : "center",
                      "default-LineSpace" : 0.0,
                      "default-VAlign" : "center",
                      "default-fill-color-opacity" : 1.0,
                      "default-height" : 176.0,
                      "default-stroke-color-opacity" : 1.0,
                      "default-translation0" : 0.0,
                      "default-translation1" : 0.0,
                      "default-width" : 376.0
                    },
                    "animationTracks" : {

                    }
                  },
                  {
                    "id" : 250,
                    "_type" : "Callout",
                    "def" : {
                      "kind" : "remix",
                      "shape" : "text-rectangle",
                      "style" : "basic",
                      "enable-ligatures" : 1.0,
                      "fill-color-blue" : 1.0,
                      "fill-color-green" : 1.0,
                      "fill-color-opacity" : 0.0,
                      "fill-color-red" : 1.0,
                      "height" : 10.7811035918793,
                      "line-spacing" : 0.0,
                      "stroke-color-blue" : 0.890196078431372,
                      "stroke-color-green" : 0.870588235294118,
                      "stroke-color-opacity" : 1.0,
                      "stroke-color-red" : 0.847058823529412,
                      "stroke-width" : 9.32203389830508,
                      "tail-x" : 159.833333333333,
                      "tail-y" : -77.3905517959396,
                      "width" : 14.3333333333333,
                      "word-wrap" : 1.0,
                      "fill-style" : "solid",
                      "horizontal-alignment" : "center",
                      "resize-behavior" : "resizeText",
                      "stroke-style" : "solid",
                      "text" : "",
                      "vertical-alignment" : "center",
                      "font" : {
                        "color-blue" : 0.266666666666667,
                        "color-green" : 0.231372549019608,
                        "color-opacity" : 1.0,
                        "color-red" : 0.184313725490196,
                        "size" : 64.0,
                        "tracking" : 0.0,
                        "name" : "Montserrat",
                        "weight" : "Regular"
                      },
                      "textAttributes" : {
                        "type" : "textAttributeList",
                        "keyframes" : [
                          {
                            "endTime" : 0,
                            "time" : 0,
                            "value" : [{"name":"fgColor","rangeEnd":1,"rangeStart":0,"value":"(47,59,68,255)","valueType":"color"},{"name":"fontSize","rangeEnd":1,"rangeStart":0,"value":64,"valueType":"double"},{"name":"fontWeight","rangeEnd":1,"rangeStart":0,"value":400,"valueType":"int"},{"name":"kerning","rangeEnd":1,"rangeStart":0,"value":0,"valueType":"double"},{"name":"underline","rangeEnd":1,"rangeStart":0,"value":0,"valueType":"int"},{"name":"strikethrough","rangeEnd":1,"rangeStart":0,"value":0,"valueType":"int"},{"name":"fontItalic","rangeEnd":1,"rangeStart":0,"value":0,"valueType":"int"},{"name":"fontName","rangeEnd":1,"rangeStart":0,"value":"Montserrat","valueType":"string"}],
                            "duration" : 0
                          }
                        ]
                      }
                    },
                    "attributes" : {
                      "autoRotateText" : true
                    },
                    "parameters" : {
                      "translation0" : -439.80303030303,
                      "translation1" : 51.9730847965586,
                      "sourceCrop0" : 0.0,
                      "sourceCrop1" : 0.0,
                      "sourceCrop2" : 0.0,
                      "sourceCrop3" : 0.0,
                      "geometryCrop0" : 0.0,
                      "geometryCrop1" : 0.0,
                      "geometryCrop2" : 0.0,
                      "geometryCrop3" : 0.0
                    },
                    "effects" : [

                    ],
                    "start" : 6659,
                    "duration" : 104,
                    "mediaStart" : 0,
                    "mediaDuration" : 104,
                    "scalar" : 1,
                    "metadata" : {
                      "clipSpeedAttribute" : false,
                      "default-HAlign" : "center",
                      "default-LineSpace" : 0.0,
                      "default-VAlign" : "center",
                      "default-fill-color-opacity" : 1.0,
                      "default-height" : 176.0,
                      "default-stroke-color-blue" : 0.56078431372549,
                      "default-stroke-color-green" : 0.686274509803922,
                      "default-stroke-color-red" : 0.0196078431372549,
                      "default-stroke-width" : 2.0,
                      "default-translation0" : 0.0,
                      "default-translation1" : 0.0,
                      "default-width" : 376.0
                    },
                    "animationTracks" : {

                    }
                  }
                ],
                "transitions" : [
                  {
                    "name" : "Fade",
                    "duration" : 30,
                    "trivial" : false,
                    "reverse" : false,
                    "bypass" : false,
                    "useAudioPreRoll" : true,
                    "useVisualPreRoll" : true,
                    "rightMedia" : 249
                  },
                  {
                    "name" : "Fade",
                    "duration" : 30,
                    "trivial" : false,
                    "reverse" : false,
                    "bypass" : false,
                    "useAudioPreRoll" : true,
                    "useVisualPreRoll" : true,
                    "leftMedia" : 249
                  },
                  {
                    "name" : "Fade",
                    "duration" : 30,
                    "trivial" : false,
                    "reverse" : false,
                    "bypass" : false,
                    "useAudioPreRoll" : true,
                    "useVisualPreRoll" : true,
                    "rightMedia" : 250
                  },
                  {
                    "name" : "Fade",
                    "duration" : 30,
                    "trivial" : false,
                    "reverse" : false,
                    "bypass" : false,
                    "useAudioPreRoll" : true,
                    "useVisualPreRoll" : true,
                    "leftMedia" : 250
                  }
                ]
              },
              {
                "trackIndex" : 13,
                "medias" : [
                  {
                    "id" : 251,
                    "_type" : "Callout",
                    "def" : {
                      "kind" : "remix",
                      "shape" : "text-rectangle",
                      "style" : "basic",
                      "enable-ligatures" : {
                        "type" : "double",
                        "defaultValue" : 1.0,
                        "interp" : "linr"
                      },
                      "fill-color-blue" : {
                        "type" : "double",
                        "defaultValue" : 0.109803921568627,
                        "interp" : "linr",
                        "keyframes" : [
                          {
                            "endTime" : 74,
                            "time" : 0,
                            "value" : 1.0,
                            "duration" : 74
                          }
                        ]
                      },
                      "fill-color-green" : {
                        "type" : "double",
                        "defaultValue" : 0.109803921568627,
                        "interp" : "linr",
                        "keyframes" : [
                          {
                            "endTime" : 74,
                            "time" : 0,
                            "value" : 1.0,
                            "duration" : 74
                          }
                        ]
                      },
                      "fill-color-opacity" : {
                        "type" : "double",
                        "defaultValue" : 1.0,
                        "interp" : "linr"
                      },
                      "fill-color-red" : {
                        "type" : "double",
                        "defaultValue" : 0.96078431372549,
                        "interp" : "linr",
                        "keyframes" : [
                          {
                            "endTime" : 74,
                            "time" : 0,
                            "value" : 1.0,
                            "duration" : 74
                          }
                        ]
                      },
                      "height" : {
                        "type" : "double",
                        "defaultValue" : 1241.46737511424,
                        "interp" : "linr"
                      },
                      "line-spacing" : {
                        "type" : "double",
                        "defaultValue" : 0.0,
                        "interp" : "linr"
                      },
                      "stroke-color-blue" : {
                        "type" : "double",
                        "defaultValue" : 0.172549019607843,
                        "interp" : "linr",
                        "keyframes" : [
                          {
                            "endTime" : 74,
                            "time" : 0,
                            "value" : 0.419607843137255,
                            "duration" : 74
                          }
                        ]
                      },
                      "stroke-color-green" : {
                        "type" : "double",
                        "defaultValue" : 0.0627450980392157,
                        "interp" : "linr",
                        "keyframes" : [
                          {
                            "endTime" : 74,
                            "time" : 0,
                            "value" : 0.0392156862745098,
                            "duration" : 74
                          }
                        ]
                      },
                      "stroke-color-opacity" : {
                        "type" : "double",
                        "defaultValue" : 1.0,
                        "interp" : "linr",
                        "keyframes" : [
                          {
                            "endTime" : 74,
                            "time" : 0,
                            "value" : 1.0,
                            "duration" : 74
                          }
                        ]
                      },
                      "stroke-color-red" : {
                        "type" : "double",
                        "defaultValue" : 1.0,
                        "interp" : "linr",
                        "keyframes" : [
                          {
                            "endTime" : 74,
                            "time" : 0,
                            "value" : 0.937254901960784,
                            "duration" : 74
                          }
                        ]
                      },
                      "stroke-width" : {
                        "type" : "double",
                        "defaultValue" : 2.0,
                        "interp" : "linr",
                        "keyframes" : [
                          {
                            "endTime" : 74,
                            "time" : 0,
                            "value" : 2.0,
                            "duration" : 74
                          }
                        ]
                      },
                      "tail-x" : {
                        "type" : "double",
                        "defaultValue" : -3.44827586206901,
                        "interp" : "linr"
                      },
                      "tail-y" : {
                        "type" : "double",
                        "defaultValue" : 37.7145883049484,
                        "interp" : "linr"
                      },
                      "width" : {
                        "type" : "double",
                        "defaultValue" : 2022.41379310345,
                        "interp" : "linr"
                      },
                      "word-wrap" : {
                        "type" : "double",
                        "defaultValue" : 1.0,
                        "interp" : "linr"
                      },
                      "fill-style" : "gradient",
                      "horizontal-alignment" : "center",
                      "resize-behavior" : "resizeText",
                      "stroke-style" : "solid",
                      "text" : "",
                      "vertical-alignment" : "center",
                      "font" : {
                        "color-blue" : {
                          "type" : "double",
                          "defaultValue" : 0.266666666666667,
                          "interp" : "linr"
                        },
                        "color-green" : {
                          "type" : "double",
                          "defaultValue" : 0.231372549019608,
                          "interp" : "linr"
                        },
                        "color-opacity" : {
                          "type" : "double",
                          "defaultValue" : 1.0,
                          "interp" : "linr"
                        },
                        "color-red" : {
                          "type" : "double",
                          "defaultValue" : 0.184313725490196,
                          "interp" : "linr"
                        },
                        "size" : {
                          "type" : "double",
                          "defaultValue" : 64.0,
                          "interp" : "linr"
                        },
                        "tracking" : {
                          "type" : "double",
                          "defaultValue" : 0.0,
                          "interp" : "linr"
                        },
                        "name" : "Montserrat",
                        "weight" : "Regular"
                      },
                      "textAttributes" : {
                        "type" : "textAttributeList",
                        "keyframes" : [
                          {
                            "endTime" : 0,
                            "time" : 0,
                            "value" : [{"name":"underline","rangeEnd":1,"rangeStart":0,"value":0,"valueType":"int"},{"name":"fontSize","rangeEnd":1,"rangeStart":0,"value":64,"valueType":"double"},{"name":"fontName","rangeEnd":1,"rangeStart":0,"value":"Montserrat","valueType":"string"},{"name":"fontItalic","rangeEnd":1,"rangeStart":0,"value":0,"valueType":"int"},{"name":"fontWeight","rangeEnd":1,"rangeStart":0,"value":400,"valueType":"int"},{"name":"kerning","rangeEnd":1,"rangeStart":0,"value":0,"valueType":"double"},{"name":"fgColor","rangeEnd":1,"rangeStart":0,"value":"(47,59,68,255)","valueType":"color"},{"name":"strikethrough","rangeEnd":1,"rangeStart":0,"value":0,"valueType":"int"}],
                            "duration" : 0
                          }
                        ]
                      }
                    },
                    "attributes" : {
                      "autoRotateText" : true
                    },
                    "parameters" : {
                      "translation0" : {
                        "type" : "double",
                        "defaultValue" : -2006.89655172414,
                        "interp" : "eioe",
                        "keyframes" : [
                          {
                            "endTime" : 74,
                            "time" : 0,
                            "value" : 2050.0,
                            "duration" : 74
                          }
                        ]
                      },
                      "translation1" : {
                        "type" : "double",
                        "defaultValue" : -57.7146043611094,
                        "interp" : "eioe",
                        "keyframes" : [
                          {
                            "endTime" : 74,
                            "time" : 0,
                            "value" : -1.59872115546023e-14,
                            "duration" : 74
                          }
                        ]
                      },
                      "sourceCrop0" : {
                        "type" : "double",
                        "defaultValue" : 0.0,
                        "interp" : "eioe"
                      },
                      "sourceCrop1" : {
                        "type" : "double",
                        "defaultValue" : 0.0,
                        "interp" : "eioe"
                      },
                      "sourceCrop2" : {
                        "type" : "double",
                        "defaultValue" : 0.0,
                        "interp" : "eioe"
                      },
                      "sourceCrop3" : {
                        "type" : "double",
                        "defaultValue" : 0.0,
                        "interp" : "eioe"
                      },
                      "geometryCrop0" : {
                        "type" : "double",
                        "defaultValue" : 0.0,
                        "interp" : "eioe"
                      },
                      "geometryCrop1" : {
                        "type" : "double",
                        "defaultValue" : 0.0,
                        "interp" : "eioe"
                      },
                      "geometryCrop2" : {
                        "type" : "double",
                        "defaultValue" : 0.0,
                        "interp" : "eioe"
                      },
                      "geometryCrop3" : {
                        "type" : "double",
                        "defaultValue" : 0.0,
                        "interp" : "eioe"
                      }
                    },
                    "effects" : [

                    ],
                    "start" : 2726,
                    "duration" : 75,
                    "mediaStart" : 0,
                    "mediaDuration" : 75,
                    "scalar" : 1,
                    "metadata" : {
                      "clipSpeedAttribute" : false,
                      "default-HAlign" : "center",
                      "default-LineSpace" : 0.0,
                      "default-VAlign" : "center",
                      "default-callout-stroke-style" : "solid",
                      "default-fill-color-blue" : 1.0,
                      "default-fill-color-green" : 1.0,
                      "default-fill-color-red" : 1.0,
                      "default-fill-style" : "solid",
                      "default-height" : 1268.0,
                      "default-stroke-color-blue" : 0.56078431372549,
                      "default-stroke-color-green" : 0.686274509803922,
                      "default-stroke-color-opacity" : 1.0,
                      "default-stroke-color-red" : 0.0196078431372549,
                      "default-stroke-width" : 2.0,
                      "default-translation0" : 0.0,
                      "default-translation1" : 0.0,
                      "default-width" : 2049.0
                    },
                    "animationTracks" : {
                      "visual" : [
                        {
                          "endTime" : 74,
                          "duration" : 74,
                          "range" : [ 0, 74]
                        }
                      ]
                    }
                  },
                  {
                    "id" : 252,
                    "_type" : "Callout",
                    "def" : {
                      "kind" : "remix",
                      "shape" : "text-rectangle",
                      "style" : "basic",
                      "enable-ligatures" : 1.0,
                      "fill-color-blue" : 1.0,
                      "fill-color-green" : 1.0,
                      "fill-color-opacity" : 0.0,
                      "fill-color-red" : 1.0,
                      "height" : 93.5701754385966,
                      "line-spacing" : 0.0,
                      "stroke-color-blue" : 0.56078431372549,
                      "stroke-color-green" : 0.686274509803922,
                      "stroke-color-opacity" : 0.0,
                      "stroke-color-red" : 0.0196078431372549,
                      "stroke-width" : 2.0,
                      "tail-x" : -139.942760942761,
                      "tail-y" : -48.2149122807017,
                      "width" : 70.1144781144788,
                      "word-wrap" : 1.0,
                      "fill-style" : "solid",
                      "horizontal-alignment" : "center",
                      "resize-behavior" : "resizeText",
                      "stroke-style" : "solid",
                      "text" : "ü",
                      "vertical-alignment" : "center",
                      "font" : {
                        "color-blue" : 0.266666666666667,
                        "color-green" : 0.231372549019608,
                        "color-opacity" : 1.0,
                        "color-red" : 0.184313725490196,
                        "size" : 64.0,
                        "tracking" : 0.0,
                        "name" : "Montserrat",
                        "weight" : "Regular"
                      },
                      "textAttributes" : {
                        "type" : "textAttributeList",
                        "keyframes" : [
                          {
                            "endTime" : 0,
                            "time" : 0,
                            "value" : [{"name":"fontWeight","rangeEnd":2,"rangeStart":0,"value":400,"valueType":"int"},{"name":"underline","rangeEnd":2,"rangeStart":0,"value":0,"valueType":"int"},{"name":"fgColor","rangeEnd":2,"rangeStart":0,"value":"(254,5,5,255)","valueType":"color"},{"name":"fontItalic","rangeEnd":2,"rangeStart":0,"value":0,"valueType":"int"},{"name":"strikethrough","rangeEnd":2,"rangeStart":0,"value":0,"valueType":"int"},{"name":"fontSize","rangeEnd":2,"rangeStart":0,"value":103,"valueType":"double"},{"name":"fontName","rangeEnd":2,"rangeStart":0,"value":"Wingdings","valueType":"string"},{"name":"kerning","rangeEnd":2,"rangeStart":0,"value":0,"valueType":"double"}],
                            "duration" : 0
                          }
                        ]
                      }
                    },
                    "attributes" : {
                      "autoRotateText" : true
                    },
                    "parameters" : {
                      "translation0" : 295.222874207394,
                      "translation1" : -47.3496811545825,
                      "sourceCrop0" : 0.0,
                      "sourceCrop1" : 0.0,
                      "sourceCrop2" : 0.0,
                      "sourceCrop3" : 0.0,
                      "geometryCrop0" : 0.0,
                      "geometryCrop1" : 0.0,
                      "geometryCrop2" : 0.0,
                      "geometryCrop3" : 0.0
                    },
                    "effects" : [

                    ],
                    "start" : 5111,
                    "duration" : 239,
                    "mediaStart" : 0,
                    "mediaDuration" : 239,
                    "scalar" : 1,
                    "metadata" : {
                      "clipSpeedAttribute" : false,
                      "default-HAlign" : "center",
                      "default-LineSpace" : 0.0,
                      "default-VAlign" : "center",
                      "default-fill-color-opacity" : 1.0,
                      "default-height" : 176.0,
                      "default-stroke-color-opacity" : 1.0,
                      "default-translation0" : 0.0,
                      "default-translation1" : 0.0,
                      "default-width" : 376.0
                    },
                    "animationTracks" : {

                    }
                  },
                  {
                    "id" : 253,
                    "_type" : "Callout",
                    "def" : {
                      "kind" : "remix",
                      "shape" : "text-rectangle",
                      "style" : "basic",
                      "enable-ligatures" : 1.0,
                      "fill-color-blue" : 1.0,
                      "fill-color-green" : 1.0,
                      "fill-color-opacity" : 0.0,
                      "fill-color-red" : 1.0,
                      "height" : 10.7811035918793,
                      "line-spacing" : 0.0,
                      "stroke-color-blue" : 0.890196078431372,
                      "stroke-color-green" : 0.870588235294118,
                      "stroke-color-opacity" : 1.0,
                      "stroke-color-red" : 0.847058823529412,
                      "stroke-width" : 9.32203389830508,
                      "tail-x" : 159.833333333333,
                      "tail-y" : -77.3905517959396,
                      "width" : 14.3333333333333,
                      "word-wrap" : 1.0,
                      "fill-style" : "solid",
                      "horizontal-alignment" : "center",
                      "resize-behavior" : "resizeText",
                      "stroke-style" : "solid",
                      "text" : "",
                      "vertical-alignment" : "center",
                      "font" : {
                        "color-blue" : 0.266666666666667,
                        "color-green" : 0.231372549019608,
                        "color-opacity" : 1.0,
                        "color-red" : 0.184313725490196,
                        "size" : 64.0,
                        "tracking" : 0.0,
                        "name" : "Montserrat",
                        "weight" : "Regular"
                      },
                      "textAttributes" : {
                        "type" : "textAttributeList",
                        "keyframes" : [
                          {
                            "endTime" : 0,
                            "time" : 0,
                            "value" : [{"name":"fgColor","rangeEnd":1,"rangeStart":0,"value":"(47,59,68,255)","valueType":"color"},{"name":"fontSize","rangeEnd":1,"rangeStart":0,"value":64,"valueType":"double"},{"name":"fontWeight","rangeEnd":1,"rangeStart":0,"value":400,"valueType":"int"},{"name":"kerning","rangeEnd":1,"rangeStart":0,"value":0,"valueType":"double"},{"name":"underline","rangeEnd":1,"rangeStart":0,"value":0,"valueType":"int"},{"name":"strikethrough","rangeEnd":1,"rangeStart":0,"value":0,"valueType":"int"},{"name":"fontItalic","rangeEnd":1,"rangeStart":0,"value":0,"valueType":"int"},{"name":"fontName","rangeEnd":1,"rangeStart":0,"value":"Montserrat","valueType":"string"}],
                            "duration" : 0
                          }
                        ]
                      }
                    },
                    "attributes" : {
                      "autoRotateText" : true
                    },
                    "parameters" : {
                      "translation0" : -441.621212121212,
                      "translation1" : -24.3905515670777,
                      "sourceCrop0" : 0.0,
                      "sourceCrop1" : 0.0,
                      "sourceCrop2" : 0.0,
                      "sourceCrop3" : 0.0,
                      "geometryCrop0" : 0.0,
                      "geometryCrop1" : 0.0,
                      "geometryCrop2" : 0.0,
                      "geometryCrop3" : 0.0
                    },
                    "effects" : [

                    ],
                    "start" : 6659,
                    "duration" : 104,
                    "mediaStart" : 0,
                    "mediaDuration" : 104,
                    "scalar" : 1,
                    "metadata" : {
                      "clipSpeedAttribute" : false,
                      "default-HAlign" : "center",
                      "default-LineSpace" : 0.0,
                      "default-VAlign" : "center",
                      "default-fill-color-opacity" : 1.0,
                      "default-height" : 176.0,
                      "default-stroke-color-blue" : 0.56078431372549,
                      "default-stroke-color-green" : 0.686274509803922,
                      "default-stroke-color-red" : 0.0196078431372549,
                      "default-stroke-width" : 2.0,
                      "default-translation0" : 0.0,
                      "default-translation1" : 0.0,
                      "default-width" : 376.0
                    },
                    "animationTracks" : {

                    }
                  }
                ],
                "transitions" : [
                  {
                    "name" : "Fade",
                    "duration" : 30,
                    "trivial" : false,
                    "reverse" : false,
                    "bypass" : false,
                    "useAudioPreRoll" : true,
                    "useVisualPreRoll" : true,
                    "rightMedia" : 252
                  },
                  {
                    "name" : "Fade",
                    "duration" : 30,
                    "trivial" : false,
                    "reverse" : false,
                    "bypass" : false,
                    "useAudioPreRoll" : true,
                    "useVisualPreRoll" : true,
                    "leftMedia" : 252
                  },
                  {
                    "name" : "Fade",
                    "duration" : 30,
                    "trivial" : false,
                    "reverse" : false,
                    "bypass" : false,
                    "useAudioPreRoll" : true,
                    "useVisualPreRoll" : true,
                    "rightMedia" : 253
                  },
                  {
                    "name" : "Fade",
                    "duration" : 30,
                    "trivial" : false,
                    "reverse" : false,
                    "bypass" : false,
                    "useAudioPreRoll" : true,
                    "useVisualPreRoll" : true,
                    "leftMedia" : 253
                  }
                ]
              },
              {
                "trackIndex" : 14,
                "medias" : [
                  {
                    "id" : 254,
                    "_type" : "Callout",
                    "def" : {
                      "kind" : "remix",
                      "shape" : "text-rectangle",
                      "style" : "basic",
                      "enable-ligatures" : 1.0,
                      "fill-color-blue" : 1.0,
                      "fill-color-green" : 1.0,
                      "fill-color-opacity" : 0.0,
                      "fill-color-red" : 1.0,
                      "height" : 121.618420918783,
                      "line-spacing" : 0.0,
                      "stroke-color-blue" : 0.56078431372549,
                      "stroke-color-green" : 0.686274509803922,
                      "stroke-color-opacity" : 0.0,
                      "stroke-color-red" : 0.0196078431372549,
                      "stroke-width" : 2.0,
                      "tail-x" : -122.253102254696,
                      "tail-y" : -81.4057018213104,
                      "width" : 105.493795490609,
                      "word-wrap" : 1.0,
                      "fill-style" : "solid",
                      "horizontal-alignment" : "center",
                      "resize-behavior" : "resizeText",
                      "stroke-style" : "solid",
                      "text" : "û",
                      "vertical-alignment" : "center",
                      "font" : {
                        "color-blue" : 0.266666666666667,
                        "color-green" : 0.231372549019608,
                        "color-opacity" : 1.0,
                        "color-red" : 0.184313725490196,
                        "size" : 64.0,
                        "tracking" : 0.0,
                        "name" : "Montserrat",
                        "weight" : "Regular"
                      },
                      "textAttributes" : {
                        "type" : "textAttributeList",
                        "keyframes" : [
                          {
                            "endTime" : 0,
                            "time" : 0,
                            "value" : [{"name":"kerning","rangeEnd":2,"rangeStart":0,"value":0,"valueType":"double"},{"name":"fontSize","rangeEnd":2,"rangeStart":0,"value":82,"valueType":"double"},{"name":"fontWeight","rangeEnd":2,"rangeStart":0,"value":400,"valueType":"int"},{"name":"strikethrough","rangeEnd":2,"rangeStart":0,"value":0,"valueType":"int"},{"name":"fgColor","rangeEnd":2,"rangeStart":0,"value":"(249,13,40,255)","valueType":"color"},{"name":"fontItalic","rangeEnd":2,"rangeStart":0,"value":0,"valueType":"int"},{"name":"fontName","rangeEnd":2,"rangeStart":0,"value":"Wingdings","valueType":"string"},{"name":"underline","rangeEnd":2,"rangeStart":0,"value":0,"valueType":"int"}],
                            "duration" : 0
                          }
                        ]
                      }
                    },
                    "attributes" : {
                      "autoRotateText" : true
                    },
                    "parameters" : {
                      "translation0" : 295.222874207394,
                      "translation1" : -99.5893143284263,
                      "sourceCrop0" : 0.0,
                      "sourceCrop1" : 0.0,
                      "sourceCrop2" : 0.0,
                      "sourceCrop3" : 0.0,
                      "geometryCrop0" : 0.0,
                      "geometryCrop1" : 0.0,
                      "geometryCrop2" : 0.0,
                      "geometryCrop3" : 0.0
                    },
                    "effects" : [

                    ],
                    "start" : 5111,
                    "duration" : 239,
                    "mediaStart" : 0,
                    "mediaDuration" : 239,
                    "scalar" : 1,
                    "metadata" : {
                      "clipSpeedAttribute" : false,
                      "default-HAlign" : "center",
                      "default-LineSpace" : 0.0,
                      "default-VAlign" : "center",
                      "default-fill-color-opacity" : 1.0,
                      "default-height" : 176.0,
                      "default-stroke-color-opacity" : 1.0,
                      "default-text-attributes" : "[{\"name\":\"strikethrough\",\"rangeEnd\":2,\"rangeStart\":0,\"value\":0,\"valueType\":\"int\"},{\"name\":\"fontWeight\",\"rangeEnd\":2,\"rangeStart\":0,\"value\":400,\"valueType\":\"int\"},{\"name\":\"fontName\",\"rangeEnd\":2,\"rangeStart\":0,\"value\":\"Wingdings\",\"valueType\":\"string\"},{\"name\":\"fontSize\",\"rangeEnd\":2,\"rangeStart\":0,\"value\":103,\"valueType\":\"double\"},{\"name\":\"fontItalic\",\"rangeEnd\":2,\"rangeStart\":0,\"value\":0,\"valueType\":\"int\"},{\"name\":\"underline\",\"rangeEnd\":2,\"rangeStart\":0,\"value\":0,\"valueType\":\"int\"},{\"name\":\"kerning\",\"rangeEnd\":2,\"rangeStart\":0,\"value\":0,\"valueType\":\"double\"},{\"name\":\"fgColor\",\"rangeEnd\":2,\"rangeStart\":0,\"value\":\"(254,5,5,255)\",\"valueType\":\"color\"}]",
                      "default-translation0" : 0.0,
                      "default-translation1" : 0.0,
                      "default-width" : 376.0
                    },
                    "animationTracks" : {

                    }
                  },
                  {
                    "id" : 255,
                    "_type" : "Callout",
                    "def" : {
                      "kind" : "remix",
                      "shape" : "text-rectangle",
                      "style" : "basic",
                      "enable-ligatures" : 1.0,
                      "fill-color-blue" : 1.0,
                      "fill-color-green" : 1.0,
                      "fill-color-opacity" : 0.0,
                      "fill-color-red" : 1.0,
                      "height" : 10.7811035918793,
                      "line-spacing" : 0.0,
                      "stroke-color-blue" : 0.890196078431372,
                      "stroke-color-green" : 0.870588235294118,
                      "stroke-color-opacity" : 1.0,
                      "stroke-color-red" : 0.847058823529412,
                      "stroke-width" : 9.32203389830508,
                      "tail-x" : 159.833333333333,
                      "tail-y" : -77.3905517959396,
                      "width" : 14.3333333333333,
                      "word-wrap" : 1.0,
                      "fill-style" : "solid",
                      "horizontal-alignment" : "center",
                      "resize-behavior" : "resizeText",
                      "stroke-style" : "solid",
                      "text" : "",
                      "vertical-alignment" : "center",
                      "font" : {
                        "color-blue" : 0.266666666666667,
                        "color-green" : 0.231372549019608,
                        "color-opacity" : 1.0,
                        "color-red" : 0.184313725490196,
                        "size" : 64.0,
                        "tracking" : 0.0,
                        "name" : "Montserrat",
                        "weight" : "Regular"
                      },
                      "textAttributes" : {
                        "type" : "textAttributeList",
                        "keyframes" : [
                          {
                            "endTime" : 0,
                            "time" : 0,
                            "value" : [{"name":"fgColor","rangeEnd":1,"rangeStart":0,"value":"(47,59,68,255)","valueType":"color"},{"name":"fontSize","rangeEnd":1,"rangeStart":0,"value":64,"valueType":"double"},{"name":"fontWeight","rangeEnd":1,"rangeStart":0,"value":400,"valueType":"int"},{"name":"kerning","rangeEnd":1,"rangeStart":0,"value":0,"valueType":"double"},{"name":"underline","rangeEnd":1,"rangeStart":0,"value":0,"valueType":"int"},{"name":"strikethrough","rangeEnd":1,"rangeStart":0,"value":0,"valueType":"int"},{"name":"fontItalic","rangeEnd":1,"rangeStart":0,"value":0,"valueType":"int"},{"name":"fontName","rangeEnd":1,"rangeStart":0,"value":"Montserrat","valueType":"string"}],
                            "duration" : 0
                          }
                        ]
                      }
                    },
                    "attributes" : {
                      "autoRotateText" : true
                    },
                    "parameters" : {
                      "translation0" : -392.530303030303,
                      "translation1" : -93.4814606579868,
                      "sourceCrop0" : 0.0,
                      "sourceCrop1" : 0.0,
                      "sourceCrop2" : 0.0,
                      "sourceCrop3" : 0.0,
                      "geometryCrop0" : 0.0,
                      "geometryCrop1" : 0.0,
                      "geometryCrop2" : 0.0,
                      "geometryCrop3" : 0.0
                    },
                    "effects" : [

                    ],
                    "start" : 6659,
                    "duration" : 104,
                    "mediaStart" : 0,
                    "mediaDuration" : 104,
                    "scalar" : 1,
                    "metadata" : {
                      "clipSpeedAttribute" : false,
                      "default-HAlign" : "center",
                      "default-LineSpace" : 0.0,
                      "default-VAlign" : "center",
                      "default-fill-color-opacity" : 1.0,
                      "default-height" : 176.0,
                      "default-stroke-color-blue" : 0.56078431372549,
                      "default-stroke-color-green" : 0.686274509803922,
                      "default-stroke-color-red" : 0.0196078431372549,
                      "default-stroke-width" : 2.0,
                      "default-translation0" : 0.0,
                      "default-translation1" : 0.0,
                      "default-width" : 376.0
                    },
                    "animationTracks" : {

                    }
                  }
                ],
                "transitions" : [
                  {
                    "name" : "Fade",
                    "duration" : 30,
                    "trivial" : false,
                    "reverse" : false,
                    "bypass" : false,
                    "useAudioPreRoll" : true,
                    "useVisualPreRoll" : true,
                    "rightMedia" : 254
                  },
                  {
                    "name" : "Fade",
                    "duration" : 30,
                    "trivial" : false,
                    "reverse" : false,
                    "bypass" : false,
                    "useAudioPreRoll" : true,
                    "useVisualPreRoll" : true,
                    "leftMedia" : 254
                  },
                  {
                    "name" : "Fade",
                    "duration" : 30,
                    "trivial" : false,
                    "reverse" : false,
                    "bypass" : false,
                    "useAudioPreRoll" : true,
                    "useVisualPreRoll" : true,
                    "rightMedia" : 255
                  },
                  {
                    "name" : "Fade",
                    "duration" : 30,
                    "trivial" : false,
                    "reverse" : false,
                    "bypass" : false,
                    "useAudioPreRoll" : true,
                    "useVisualPreRoll" : true,
                    "leftMedia" : 255
                  }
                ]
              },
              {
                "trackIndex" : 15,
                "medias" : [
                  {
                    "id" : 256,
                    "_type" : "Callout",
                    "def" : {
                      "kind" : "remix",
                      "shape" : "text-rectangle",
                      "style" : "basic",
                      "enable-ligatures" : 1.0,
                      "fill-color-blue" : 1.0,
                      "fill-color-green" : 1.0,
                      "fill-color-opacity" : 0.0,
                      "fill-color-red" : 1.0,
                      "height" : 93.5701754385966,
                      "line-spacing" : 0.0,
                      "stroke-color-blue" : 0.56078431372549,
                      "stroke-color-green" : 0.686274509803922,
                      "stroke-color-opacity" : 0.0,
                      "stroke-color-red" : 0.0196078431372549,
                      "stroke-width" : 2.0,
                      "tail-x" : -139.942760942761,
                      "tail-y" : -48.2149122807017,
                      "width" : 70.1144781144788,
                      "word-wrap" : 1.0,
                      "fill-style" : "solid",
                      "horizontal-alignment" : "center",
                      "resize-behavior" : "resizeText",
                      "stroke-style" : "solid",
                      "text" : "ü",
                      "vertical-alignment" : "center",
                      "font" : {
                        "color-blue" : 0.266666666666667,
                        "color-green" : 0.231372549019608,
                        "color-opacity" : 1.0,
                        "color-red" : 0.184313725490196,
                        "size" : 64.0,
                        "tracking" : 0.0,
                        "name" : "Montserrat",
                        "weight" : "Regular"
                      },
                      "textAttributes" : {
                        "type" : "textAttributeList",
                        "keyframes" : [
                          {
                            "endTime" : 0,
                            "time" : 0,
                            "value" : [{"name":"strikethrough","rangeEnd":2,"rangeStart":0,"value":0,"valueType":"int"},{"name":"fontWeight","rangeEnd":2,"rangeStart":0,"value":400,"valueType":"int"},{"name":"fontName","rangeEnd":2,"rangeStart":0,"value":"Wingdings","valueType":"string"},{"name":"fontSize","rangeEnd":2,"rangeStart":0,"value":103,"valueType":"double"},{"name":"fontItalic","rangeEnd":2,"rangeStart":0,"value":0,"valueType":"int"},{"name":"underline","rangeEnd":2,"rangeStart":0,"value":0,"valueType":"int"},{"name":"kerning","rangeEnd":2,"rangeStart":0,"value":0,"valueType":"double"},{"name":"fgColor","rangeEnd":2,"rangeStart":0,"value":"(254,5,5,255)","valueType":"color"}],
                            "duration" : 0
                          }
                        ]
                      }
                    },
                    "attributes" : {
                      "autoRotateText" : true
                    },
                    "parameters" : {
                      "translation0" : 295.222874682625,
                      "translation1" : -161.895135833886,
                      "sourceCrop0" : 0.0,
                      "sourceCrop1" : 0.0,
                      "sourceCrop2" : 0.0,
                      "sourceCrop3" : 0.0,
                      "geometryCrop0" : 0.0,
                      "geometryCrop1" : 0.0,
                      "geometryCrop2" : 0.0,
                      "geometryCrop3" : 0.0
                    },
                    "effects" : [

                    ],
                    "start" : 5111,
                    "duration" : 239,
                    "mediaStart" : 0,
                    "mediaDuration" : 239,
                    "scalar" : 1,
                    "metadata" : {
                      "clipSpeedAttribute" : false,
                      "default-HAlign" : "center",
                      "default-LineSpace" : 0.0,
                      "default-VAlign" : "center",
                      "default-fill-color-opacity" : 1.0,
                      "default-height" : 176.0,
                      "default-stroke-color-opacity" : 1.0,
                      "default-translation0" : 0.0,
                      "default-translation1" : 0.0,
                      "default-width" : 376.0
                    },
                    "animationTracks" : {

                    }
                  },
                  {
                    "id" : 257,
                    "_type" : "Callout",
                    "def" : {
                      "kind" : "remix",
                      "shape" : "text-rectangle",
                      "style" : "basic",
                      "enable-ligatures" : 1.0,
                      "fill-color-blue" : 1.0,
                      "fill-color-green" : 1.0,
                      "fill-color-opacity" : 0.0,
                      "fill-color-red" : 1.0,
                      "height" : 10.7811035918793,
                      "line-spacing" : 0.0,
                      "stroke-color-blue" : 0.890196078431372,
                      "stroke-color-green" : 0.870588235294118,
                      "stroke-color-opacity" : 1.0,
                      "stroke-color-red" : 0.847058823529412,
                      "stroke-width" : 9.32203389830508,
                      "tail-x" : 159.833333333333,
                      "tail-y" : -77.3905517959396,
                      "width" : 14.3333333333333,
                      "word-wrap" : 1.0,
                      "fill-style" : "solid",
                      "horizontal-alignment" : "center",
                      "resize-behavior" : "resizeText",
                      "stroke-style" : "solid",
                      "text" : "",
                      "vertical-alignment" : "center",
                      "font" : {
                        "color-blue" : 0.266666666666667,
                        "color-green" : 0.231372549019608,
                        "color-opacity" : 1.0,
                        "color-red" : 0.184313725490196,
                        "size" : 64.0,
                        "tracking" : 0.0,
                        "name" : "Montserrat",
                        "weight" : "Regular"
                      },
                      "textAttributes" : {
                        "type" : "textAttributeList",
                        "keyframes" : [
                          {
                            "endTime" : 0,
                            "time" : 0,
                            "value" : [{"name":"fgColor","rangeEnd":1,"rangeStart":0,"value":"(47,59,68,255)","valueType":"color"},{"name":"fontSize","rangeEnd":1,"rangeStart":0,"value":64,"valueType":"double"},{"name":"fontWeight","rangeEnd":1,"rangeStart":0,"value":400,"valueType":"int"},{"name":"kerning","rangeEnd":1,"rangeStart":0,"value":0,"valueType":"double"},{"name":"underline","rangeEnd":1,"rangeStart":0,"value":0,"valueType":"int"},{"name":"strikethrough","rangeEnd":1,"rangeStart":0,"value":0,"valueType":"int"},{"name":"fontItalic","rangeEnd":1,"rangeStart":0,"value":0,"valueType":"int"},{"name":"fontName","rangeEnd":1,"rangeStart":0,"value":"Montserrat","valueType":"string"}],
                            "duration" : 0
                          }
                        ]
                      }
                    },
                    "attributes" : {
                      "autoRotateText" : true
                    },
                    "parameters" : {
                      "translation0" : -354.348484848485,
                      "translation1" : -24.3905515670777,
                      "sourceCrop0" : 0.0,
                      "sourceCrop1" : 0.0,
                      "sourceCrop2" : 0.0,
                      "sourceCrop3" : 0.0,
                      "geometryCrop0" : 0.0,
                      "geometryCrop1" : 0.0,
                      "geometryCrop2" : 0.0,
                      "geometryCrop3" : 0.0
                    },
                    "effects" : [

                    ],
                    "start" : 6659,
                    "duration" : 104,
                    "mediaStart" : 0,
                    "mediaDuration" : 104,
                    "scalar" : 1,
                    "metadata" : {
                      "clipSpeedAttribute" : false,
                      "default-HAlign" : "center",
                      "default-LineSpace" : 0.0,
                      "default-VAlign" : "center",
                      "default-fill-color-opacity" : 1.0,
                      "default-height" : 176.0,
                      "default-stroke-color-blue" : 0.56078431372549,
                      "default-stroke-color-green" : 0.686274509803922,
                      "default-stroke-color-red" : 0.0196078431372549,
                      "default-stroke-width" : 2.0,
                      "default-translation0" : 0.0,
                      "default-translation1" : 0.0,
                      "default-width" : 376.0
                    },
                    "animationTracks" : {

                    }
                  }
                ],
                "transitions" : [
                  {
                    "name" : "Fade",
                    "duration" : 30,
                    "trivial" : false,
                    "reverse" : false,
                    "bypass" : false,
                    "useAudioPreRoll" : true,
                    "useVisualPreRoll" : true,
                    "rightMedia" : 256
                  },
                  {
                    "name" : "Fade",
                    "duration" : 30,
                    "trivial" : false,
                    "reverse" : false,
                    "bypass" : false,
                    "useAudioPreRoll" : true,
                    "useVisualPreRoll" : true,
                    "leftMedia" : 256
                  },
                  {
                    "name" : "Fade",
                    "duration" : 30,
                    "trivial" : false,
                    "reverse" : false,
                    "bypass" : false,
                    "useAudioPreRoll" : true,
                    "useVisualPreRoll" : true,
                    "rightMedia" : 257
                  },
                  {
                    "name" : "Fade",
                    "duration" : 30,
                    "trivial" : false,
                    "reverse" : false,
                    "bypass" : false,
                    "useAudioPreRoll" : true,
                    "useVisualPreRoll" : true,
                    "leftMedia" : 257
                  }
                ]
              },
              {
                "trackIndex" : 16,
                "medias" : [
                  {
                    "id" : 258,
                    "_type" : "Callout",
                    "def" : {
                      "kind" : "remix",
                      "shape" : "text-rectangle",
                      "style" : "basic",
                      "enable-ligatures" : 1.0,
                      "fill-color-blue" : 1.0,
                      "fill-color-green" : 1.0,
                      "fill-color-opacity" : 0.0,
                      "fill-color-red" : 1.0,
                      "height" : 10.7811035918793,
                      "line-spacing" : 0.0,
                      "stroke-color-blue" : 0.890196078431372,
                      "stroke-color-green" : 0.870588235294118,
                      "stroke-color-opacity" : 1.0,
                      "stroke-color-red" : 0.847058823529412,
                      "stroke-width" : 9.32203389830508,
                      "tail-x" : 159.833333333333,
                      "tail-y" : -77.3905517959396,
                      "width" : 14.3333333333333,
                      "word-wrap" : 1.0,
                      "fill-style" : "solid",
                      "horizontal-alignment" : "center",
                      "resize-behavior" : "resizeText",
                      "stroke-style" : "solid",
                      "text" : "",
                      "vertical-alignment" : "center",
                      "font" : {
                        "color-blue" : 0.266666666666667,
                        "color-green" : 0.231372549019608,
                        "color-opacity" : 1.0,
                        "color-red" : 0.184313725490196,
                        "size" : 64.0,
                        "tracking" : 0.0,
                        "name" : "Montserrat",
                        "weight" : "Regular"
                      },
                      "textAttributes" : {
                        "type" : "textAttributeList",
                        "keyframes" : [
                          {
                            "endTime" : 0,
                            "time" : 0,
                            "value" : [{"name":"fgColor","rangeEnd":1,"rangeStart":0,"value":"(47,59,68,255)","valueType":"color"},{"name":"fontSize","rangeEnd":1,"rangeStart":0,"value":64,"valueType":"double"},{"name":"fontWeight","rangeEnd":1,"rangeStart":0,"value":400,"valueType":"int"},{"name":"kerning","rangeEnd":1,"rangeStart":0,"value":0,"valueType":"double"},{"name":"underline","rangeEnd":1,"rangeStart":0,"value":0,"valueType":"int"},{"name":"strikethrough","rangeEnd":1,"rangeStart":0,"value":0,"valueType":"int"},{"name":"fontItalic","rangeEnd":1,"rangeStart":0,"value":0,"valueType":"int"},{"name":"fontName","rangeEnd":1,"rangeStart":0,"value":"Montserrat","valueType":"string"}],
                            "duration" : 0
                          }
                        ]
                      }
                    },
                    "attributes" : {
                      "autoRotateText" : true
                    },
                    "parameters" : {
                      "translation0" : -405.257575757576,
                      "translation1" : 51.9730847965586,
                      "sourceCrop0" : 0.0,
                      "sourceCrop1" : 0.0,
                      "sourceCrop2" : 0.0,
                      "sourceCrop3" : 0.0,
                      "geometryCrop0" : 0.0,
                      "geometryCrop1" : 0.0,
                      "geometryCrop2" : 0.0,
                      "geometryCrop3" : 0.0
                    },
                    "effects" : [

                    ],
                    "start" : 6659,
                    "duration" : 104,
                    "mediaStart" : 0,
                    "mediaDuration" : 104,
                    "scalar" : 1,
                    "metadata" : {
                      "clipSpeedAttribute" : false,
                      "default-HAlign" : "center",
                      "default-LineSpace" : 0.0,
                      "default-VAlign" : "center",
                      "default-fill-color-opacity" : 1.0,
                      "default-height" : 176.0,
                      "default-stroke-color-blue" : 0.56078431372549,
                      "default-stroke-color-green" : 0.686274509803922,
                      "default-stroke-color-red" : 0.0196078431372549,
                      "default-stroke-width" : 2.0,
                      "default-translation0" : 0.0,
                      "default-translation1" : 0.0,
                      "default-width" : 376.0
                    },
                    "animationTracks" : {

                    }
                  }
                ],
                "transitions" : [
                  {
                    "name" : "Fade",
                    "duration" : 30,
                    "trivial" : false,
                    "reverse" : false,
                    "bypass" : false,
                    "useAudioPreRoll" : true,
                    "useVisualPreRoll" : true,
                    "rightMedia" : 258
                  },
                  {
                    "name" : "Fade",
                    "duration" : 30,
                    "trivial" : false,
                    "reverse" : false,
                    "bypass" : false,
                    "useAudioPreRoll" : true,
                    "useVisualPreRoll" : true,
                    "leftMedia" : 258
                  }
                ]
              },
              {
                "trackIndex" : 17,
                "medias" : [
                  {
                    "id" : 259,
                    "_type" : "Callout",
                    "def" : {
                      "kind" : "remix",
                      "shape" : "text-rectangle",
                      "style" : "basic",
                      "enable-ligatures" : 1.0,
                      "fill-color-blue" : 1.0,
                      "fill-color-green" : 1.0,
                      "fill-color-opacity" : 0.0,
                      "fill-color-red" : 1.0,
                      "height" : 10.7811035918793,
                      "line-spacing" : 0.0,
                      "stroke-color-blue" : 0.890196078431372,
                      "stroke-color-green" : 0.870588235294118,
                      "stroke-color-opacity" : 1.0,
                      "stroke-color-red" : 0.847058823529412,
                      "stroke-width" : 9.32203389830508,
                      "tail-x" : 159.833333333333,
                      "tail-y" : -77.3905517959396,
                      "width" : 14.3333333333333,
                      "word-wrap" : 1.0,
                      "fill-style" : "solid",
                      "horizontal-alignment" : "center",
                      "resize-behavior" : "resizeText",
                      "stroke-style" : "solid",
                      "text" : "",
                      "vertical-alignment" : "center",
                      "font" : {
                        "color-blue" : 0.266666666666667,
                        "color-green" : 0.231372549019608,
                        "color-opacity" : 1.0,
                        "color-red" : 0.184313725490196,
                        "size" : 64.0,
                        "tracking" : 0.0,
                        "name" : "Montserrat",
                        "weight" : "Regular"
                      },
                      "textAttributes" : {
                        "type" : "textAttributeList",
                        "keyframes" : [
                          {
                            "endTime" : 0,
                            "time" : 0,
                            "value" : [{"name":"fgColor","rangeEnd":1,"rangeStart":0,"value":"(47,59,68,255)","valueType":"color"},{"name":"fontSize","rangeEnd":1,"rangeStart":0,"value":64,"valueType":"double"},{"name":"fontWeight","rangeEnd":1,"rangeStart":0,"value":400,"valueType":"int"},{"name":"kerning","rangeEnd":1,"rangeStart":0,"value":0,"valueType":"double"},{"name":"underline","rangeEnd":1,"rangeStart":0,"value":0,"valueType":"int"},{"name":"strikethrough","rangeEnd":1,"rangeStart":0,"value":0,"valueType":"int"},{"name":"fontItalic","rangeEnd":1,"rangeStart":0,"value":0,"valueType":"int"},{"name":"fontName","rangeEnd":1,"rangeStart":0,"value":"Montserrat","valueType":"string"}],
                            "duration" : 0
                          }
                        ]
                      }
                    },
                    "attributes" : {
                      "autoRotateText" : true
                    },
                    "parameters" : {
                      "translation0" : -407.075757575758,
                      "translation1" : -24.3905515670777,
                      "sourceCrop0" : 0.0,
                      "sourceCrop1" : 0.0,
                      "sourceCrop2" : 0.0,
                      "sourceCrop3" : 0.0,
                      "geometryCrop0" : 0.0,
                      "geometryCrop1" : 0.0,
                      "geometryCrop2" : 0.0,
                      "geometryCrop3" : 0.0
                    },
                    "effects" : [

                    ],
                    "start" : 6659,
                    "duration" : 104,
                    "mediaStart" : 0,
                    "mediaDuration" : 104,
                    "scalar" : 1,
                    "metadata" : {
                      "clipSpeedAttribute" : false,
                      "default-HAlign" : "center",
                      "default-LineSpace" : 0.0,
                      "default-VAlign" : "center",
                      "default-fill-color-opacity" : 1.0,
                      "default-height" : 176.0,
                      "default-stroke-color-blue" : 0.56078431372549,
                      "default-stroke-color-green" : 0.686274509803922,
                      "default-stroke-color-red" : 0.0196078431372549,
                      "default-stroke-width" : 2.0,
                      "default-translation0" : 0.0,
                      "default-translation1" : 0.0,
                      "default-width" : 376.0
                    },
                    "animationTracks" : {

                    }
                  }
                ],
                "transitions" : [
                  {
                    "name" : "Fade",
                    "duration" : 30,
                    "trivial" : false,
                    "reverse" : false,
                    "bypass" : false,
                    "useAudioPreRoll" : true,
                    "useVisualPreRoll" : true,
                    "rightMedia" : 259
                  },
                  {
                    "name" : "Fade",
                    "duration" : 30,
                    "trivial" : false,
                    "reverse" : false,
                    "bypass" : false,
                    "useAudioPreRoll" : true,
                    "useVisualPreRoll" : true,
                    "leftMedia" : 259
                  }
                ]
              },
              {
                "trackIndex" : 18,
                "medias" : [
                  {
                    "id" : 260,
                    "_type" : "Callout",
                    "def" : {
                      "kind" : "remix",
                      "shape" : "text-rectangle",
                      "style" : "basic",
                      "enable-ligatures" : 1.0,
                      "fill-color-blue" : 1.0,
                      "fill-color-green" : 1.0,
                      "fill-color-opacity" : 0.0,
                      "fill-color-red" : 1.0,
                      "height" : 10.7811035918793,
                      "line-spacing" : 0.0,
                      "stroke-color-blue" : 0.890196078431372,
                      "stroke-color-green" : 0.870588235294118,
                      "stroke-color-opacity" : 1.0,
                      "stroke-color-red" : 0.847058823529412,
                      "stroke-width" : 9.32203389830508,
                      "tail-x" : 159.833333333333,
                      "tail-y" : -77.3905517959396,
                      "width" : 14.3333333333333,
                      "word-wrap" : 1.0,
                      "fill-style" : "solid",
                      "horizontal-alignment" : "center",
                      "resize-behavior" : "resizeText",
                      "stroke-style" : "solid",
                      "text" : "",
                      "vertical-alignment" : "center",
                      "font" : {
                        "color-blue" : 0.266666666666667,
                        "color-green" : 0.231372549019608,
                        "color-opacity" : 1.0,
                        "color-red" : 0.184313725490196,
                        "size" : 64.0,
                        "tracking" : 0.0,
                        "name" : "Montserrat",
                        "weight" : "Regular"
                      },
                      "textAttributes" : {
                        "type" : "textAttributeList",
                        "keyframes" : [
                          {
                            "endTime" : 0,
                            "time" : 0,
                            "value" : [{"name":"fgColor","rangeEnd":1,"rangeStart":0,"value":"(47,59,68,255)","valueType":"color"},{"name":"fontSize","rangeEnd":1,"rangeStart":0,"value":64,"valueType":"double"},{"name":"fontWeight","rangeEnd":1,"rangeStart":0,"value":400,"valueType":"int"},{"name":"kerning","rangeEnd":1,"rangeStart":0,"value":0,"valueType":"double"},{"name":"underline","rangeEnd":1,"rangeStart":0,"value":0,"valueType":"int"},{"name":"strikethrough","rangeEnd":1,"rangeStart":0,"value":0,"valueType":"int"},{"name":"fontItalic","rangeEnd":1,"rangeStart":0,"value":0,"valueType":"int"},{"name":"fontName","rangeEnd":1,"rangeStart":0,"value":"Montserrat","valueType":"string"}],
                            "duration" : 0
                          }
                        ]
                      }
                    },
                    "attributes" : {
                      "autoRotateText" : true
                    },
                    "parameters" : {
                      "translation0" : -357.984848484849,
                      "translation1" : -93.4814606579868,
                      "sourceCrop0" : 0.0,
                      "sourceCrop1" : 0.0,
                      "sourceCrop2" : 0.0,
                      "sourceCrop3" : 0.0,
                      "geometryCrop0" : 0.0,
                      "geometryCrop1" : 0.0,
                      "geometryCrop2" : 0.0,
                      "geometryCrop3" : 0.0
                    },
                    "effects" : [

                    ],
                    "start" : 6659,
                    "duration" : 104,
                    "mediaStart" : 0,
                    "mediaDuration" : 104,
                    "scalar" : 1,
                    "metadata" : {
                      "clipSpeedAttribute" : false,
                      "default-HAlign" : "center",
                      "default-LineSpace" : 0.0,
                      "default-VAlign" : "center",
                      "default-fill-color-opacity" : 1.0,
                      "default-height" : 176.0,
                      "default-stroke-color-blue" : 0.56078431372549,
                      "default-stroke-color-green" : 0.686274509803922,
                      "default-stroke-color-red" : 0.0196078431372549,
                      "default-stroke-width" : 2.0,
                      "default-translation0" : 0.0,
                      "default-translation1" : 0.0,
                      "default-width" : 376.0
                    },
                    "animationTracks" : {

                    }
                  }
                ],
                "transitions" : [
                  {
                    "name" : "Fade",
                    "duration" : 30,
                    "trivial" : false,
                    "reverse" : false,
                    "bypass" : false,
                    "useAudioPreRoll" : true,
                    "useVisualPreRoll" : true,
                    "rightMedia" : 260
                  },
                  {
                    "name" : "Fade",
                    "duration" : 30,
                    "trivial" : false,
                    "reverse" : false,
                    "bypass" : false,
                    "useAudioPreRoll" : true,
                    "useVisualPreRoll" : true,
                    "leftMedia" : 260
                  }
                ]
              },
              {
                "trackIndex" : 19,
                "medias" : [
                  {
                    "id" : 261,
                    "_type" : "Callout",
                    "def" : {
                      "kind" : "remix",
                      "shape" : "text-rectangle",
                      "style" : "basic",
                      "enable-ligatures" : 1.0,
                      "fill-color-blue" : 1.0,
                      "fill-color-green" : 1.0,
                      "fill-color-opacity" : 0.0,
                      "fill-color-red" : 1.0,
                      "height" : 10.7811035918793,
                      "line-spacing" : 0.0,
                      "stroke-color-blue" : 0.890196078431372,
                      "stroke-color-green" : 0.870588235294118,
                      "stroke-color-opacity" : 1.0,
                      "stroke-color-red" : 0.847058823529412,
                      "stroke-width" : 9.32203389830508,
                      "tail-x" : 159.833333333333,
                      "tail-y" : -77.3905517959396,
                      "width" : 14.3333333333333,
                      "word-wrap" : 1.0,
                      "fill-style" : "solid",
                      "horizontal-alignment" : "center",
                      "resize-behavior" : "resizeText",
                      "stroke-style" : "solid",
                      "text" : "",
                      "vertical-alignment" : "center",
                      "font" : {
                        "color-blue" : 0.266666666666667,
                        "color-green" : 0.231372549019608,
                        "color-opacity" : 1.0,
                        "color-red" : 0.184313725490196,
                        "size" : 64.0,
                        "tracking" : 0.0,
                        "name" : "Montserrat",
                        "weight" : "Regular"
                      },
                      "textAttributes" : {
                        "type" : "textAttributeList",
                        "keyframes" : [
                          {
                            "endTime" : 0,
                            "time" : 0,
                            "value" : [{"name":"fgColor","rangeEnd":1,"rangeStart":0,"value":"(47,59,68,255)","valueType":"color"},{"name":"fontSize","rangeEnd":1,"rangeStart":0,"value":64,"valueType":"double"},{"name":"fontWeight","rangeEnd":1,"rangeStart":0,"value":400,"valueType":"int"},{"name":"kerning","rangeEnd":1,"rangeStart":0,"value":0,"valueType":"double"},{"name":"underline","rangeEnd":1,"rangeStart":0,"value":0,"valueType":"int"},{"name":"strikethrough","rangeEnd":1,"rangeStart":0,"value":0,"valueType":"int"},{"name":"fontItalic","rangeEnd":1,"rangeStart":0,"value":0,"valueType":"int"},{"name":"fontName","rangeEnd":1,"rangeStart":0,"value":"Montserrat","valueType":"string"}],
                            "duration" : 0
                          }
                        ]
                      }
                    },
                    "attributes" : {
                      "autoRotateText" : true
                    },
                    "parameters" : {
                      "translation0" : -319.80303030303,
                      "translation1" : -24.3905515670777,
                      "sourceCrop0" : 0.0,
                      "sourceCrop1" : 0.0,
                      "sourceCrop2" : 0.0,
                      "sourceCrop3" : 0.0,
                      "geometryCrop0" : 0.0,
                      "geometryCrop1" : 0.0,
                      "geometryCrop2" : 0.0,
                      "geometryCrop3" : 0.0
                    },
                    "effects" : [

                    ],
                    "start" : 6659,
                    "duration" : 104,
                    "mediaStart" : 0,
                    "mediaDuration" : 104,
                    "scalar" : 1,
                    "metadata" : {
                      "clipSpeedAttribute" : false,
                      "default-HAlign" : "center",
                      "default-LineSpace" : 0.0,
                      "default-VAlign" : "center",
                      "default-fill-color-opacity" : 1.0,
                      "default-height" : 176.0,
                      "default-stroke-color-blue" : 0.56078431372549,
                      "default-stroke-color-green" : 0.686274509803922,
                      "default-stroke-color-red" : 0.0196078431372549,
                      "default-stroke-width" : 2.0,
                      "default-translation0" : 0.0,
                      "default-translation1" : 0.0,
                      "default-width" : 376.0
                    },
                    "animationTracks" : {

                    }
                  }
                ],
                "transitions" : [
                  {
                    "name" : "Fade",
                    "duration" : 30,
                    "trivial" : false,
                    "reverse" : false,
                    "bypass" : false,
                    "useAudioPreRoll" : true,
                    "useVisualPreRoll" : true,
                    "rightMedia" : 261
                  },
                  {
                    "name" : "Fade",
                    "duration" : 30,
                    "trivial" : false,
                    "reverse" : false,
                    "bypass" : false,
                    "useAudioPreRoll" : true,
                    "useVisualPreRoll" : true,
                    "leftMedia" : 261
                  }
                ]
              },
              {
                "trackIndex" : 20,
                "medias" : [
                  {
                    "id" : 262,
                    "_type" : "Callout",
                    "def" : {
                      "kind" : "remix",
                      "shape" : "text-rectangle",
                      "style" : "basic",
                      "enable-ligatures" : 1.0,
                      "fill-color-blue" : 1.0,
                      "fill-color-green" : 1.0,
                      "fill-color-opacity" : 0.0,
                      "fill-color-red" : 1.0,
                      "height" : 10.7811035918793,
                      "line-spacing" : 0.0,
                      "stroke-color-blue" : 0.890196078431372,
                      "stroke-color-green" : 0.870588235294118,
                      "stroke-color-opacity" : 1.0,
                      "stroke-color-red" : 0.847058823529412,
                      "stroke-width" : 9.32203389830508,
                      "tail-x" : 159.833333333333,
                      "tail-y" : -77.3905517959396,
                      "width" : 14.3333333333333,
                      "word-wrap" : 1.0,
                      "fill-style" : "solid",
                      "horizontal-alignment" : "center",
                      "resize-behavior" : "resizeText",
                      "stroke-style" : "solid",
                      "text" : "",
                      "vertical-alignment" : "center",
                      "font" : {
                        "color-blue" : 0.266666666666667,
                        "color-green" : 0.231372549019608,
                        "color-opacity" : 1.0,
                        "color-red" : 0.184313725490196,
                        "size" : 64.0,
                        "tracking" : 0.0,
                        "name" : "Montserrat",
                        "weight" : "Regular"
                      },
                      "textAttributes" : {
                        "type" : "textAttributeList",
                        "keyframes" : [
                          {
                            "endTime" : 0,
                            "time" : 0,
                            "value" : [{"name":"fgColor","rangeEnd":1,"rangeStart":0,"value":"(47,59,68,255)","valueType":"color"},{"name":"fontSize","rangeEnd":1,"rangeStart":0,"value":64,"valueType":"double"},{"name":"fontWeight","rangeEnd":1,"rangeStart":0,"value":400,"valueType":"int"},{"name":"kerning","rangeEnd":1,"rangeStart":0,"value":0,"valueType":"double"},{"name":"underline","rangeEnd":1,"rangeStart":0,"value":0,"valueType":"int"},{"name":"strikethrough","rangeEnd":1,"rangeStart":0,"value":0,"valueType":"int"},{"name":"fontItalic","rangeEnd":1,"rangeStart":0,"value":0,"valueType":"int"},{"name":"fontName","rangeEnd":1,"rangeStart":0,"value":"Montserrat","valueType":"string"}],
                            "duration" : 0
                          }
                        ]
                      }
                    },
                    "attributes" : {
                      "autoRotateText" : true
                    },
                    "parameters" : {
                      "translation0" : -354.348484848485,
                      "translation1" : 48.336721160195,
                      "sourceCrop0" : 0.0,
                      "sourceCrop1" : 0.0,
                      "sourceCrop2" : 0.0,
                      "sourceCrop3" : 0.0,
                      "geometryCrop0" : 0.0,
                      "geometryCrop1" : 0.0,
                      "geometryCrop2" : 0.0,
                      "geometryCrop3" : 0.0
                    },
                    "effects" : [

                    ],
                    "start" : 6659,
                    "duration" : 104,
                    "mediaStart" : 0,
                    "mediaDuration" : 104,
                    "scalar" : 1,
                    "metadata" : {
                      "clipSpeedAttribute" : false,
                      "default-HAlign" : "center",
                      "default-LineSpace" : 0.0,
                      "default-VAlign" : "center",
                      "default-fill-color-opacity" : 1.0,
                      "default-height" : 176.0,
                      "default-stroke-color-blue" : 0.56078431372549,
                      "default-stroke-color-green" : 0.686274509803922,
                      "default-stroke-color-red" : 0.0196078431372549,
                      "default-stroke-width" : 2.0,
                      "default-translation0" : 0.0,
                      "default-translation1" : 0.0,
                      "default-width" : 376.0
                    },
                    "animationTracks" : {

                    }
                  }
                ],
                "transitions" : [
                  {
                    "name" : "Fade",
                    "duration" : 30,
                    "trivial" : false,
                    "reverse" : false,
                    "bypass" : false,
                    "useAudioPreRoll" : true,
                    "useVisualPreRoll" : true,
                    "rightMedia" : 262
                  },
                  {
                    "name" : "Fade",
                    "duration" : 30,
                    "trivial" : false,
                    "reverse" : false,
                    "bypass" : false,
                    "useAudioPreRoll" : true,
                    "useVisualPreRoll" : true,
                    "leftMedia" : 262
                  }
                ]
              },
              {
                "trackIndex" : 21,
                "medias" : [
                  {
                    "id" : 263,
                    "_type" : "Callout",
                    "def" : {
                      "kind" : "remix",
                      "shape" : "text-rectangle",
                      "style" : "basic",
                      "enable-ligatures" : 1.0,
                      "fill-color-blue" : 1.0,
                      "fill-color-green" : 1.0,
                      "fill-color-opacity" : 0.0,
                      "fill-color-red" : 1.0,
                      "height" : 10.7811035918793,
                      "line-spacing" : 0.0,
                      "stroke-color-blue" : 0.890196078431372,
                      "stroke-color-green" : 0.870588235294118,
                      "stroke-color-opacity" : 1.0,
                      "stroke-color-red" : 0.847058823529412,
                      "stroke-width" : 9.32203389830508,
                      "tail-x" : 159.833333333333,
                      "tail-y" : -77.3905517959396,
                      "width" : 14.3333333333333,
                      "word-wrap" : 1.0,
                      "fill-style" : "solid",
                      "horizontal-alignment" : "center",
                      "resize-behavior" : "resizeText",
                      "stroke-style" : "solid",
                      "text" : "",
                      "vertical-alignment" : "center",
                      "font" : {
                        "color-blue" : 0.266666666666667,
                        "color-green" : 0.231372549019608,
                        "color-opacity" : 1.0,
                        "color-red" : 0.184313725490196,
                        "size" : 64.0,
                        "tracking" : 0.0,
                        "name" : "Montserrat",
                        "weight" : "Regular"
                      },
                      "textAttributes" : {
                        "type" : "textAttributeList",
                        "keyframes" : [
                          {
                            "endTime" : 0,
                            "time" : 0,
                            "value" : [{"name":"fgColor","rangeEnd":1,"rangeStart":0,"value":"(47,59,68,255)","valueType":"color"},{"name":"fontSize","rangeEnd":1,"rangeStart":0,"value":64,"valueType":"double"},{"name":"fontWeight","rangeEnd":1,"rangeStart":0,"value":400,"valueType":"int"},{"name":"kerning","rangeEnd":1,"rangeStart":0,"value":0,"valueType":"double"},{"name":"underline","rangeEnd":1,"rangeStart":0,"value":0,"valueType":"int"},{"name":"strikethrough","rangeEnd":1,"rangeStart":0,"value":0,"valueType":"int"},{"name":"fontItalic","rangeEnd":1,"rangeStart":0,"value":0,"valueType":"int"},{"name":"fontName","rangeEnd":1,"rangeStart":0,"value":"Montserrat","valueType":"string"}],
                            "duration" : 0
                          }
                        ]
                      }
                    },
                    "attributes" : {
                      "autoRotateText" : true
                    },
                    "parameters" : {
                      "translation0" : -319.80303030303,
                      "translation1" : 48.336721160195,
                      "sourceCrop0" : 0.0,
                      "sourceCrop1" : 0.0,
                      "sourceCrop2" : 0.0,
                      "sourceCrop3" : 0.0,
                      "geometryCrop0" : 0.0,
                      "geometryCrop1" : 0.0,
                      "geometryCrop2" : 0.0,
                      "geometryCrop3" : 0.0
                    },
                    "effects" : [

                    ],
                    "start" : 6659,
                    "duration" : 104,
                    "mediaStart" : 0,
                    "mediaDuration" : 104,
                    "scalar" : 1,
                    "metadata" : {
                      "clipSpeedAttribute" : false,
                      "default-HAlign" : "center",
                      "default-LineSpace" : 0.0,
                      "default-VAlign" : "center",
                      "default-fill-color-opacity" : 1.0,
                      "default-height" : 176.0,
                      "default-stroke-color-blue" : 0.56078431372549,
                      "default-stroke-color-green" : 0.686274509803922,
                      "default-stroke-color-red" : 0.0196078431372549,
                      "default-stroke-width" : 2.0,
                      "default-translation0" : 0.0,
                      "default-translation1" : 0.0,
                      "default-width" : 376.0
                    },
                    "animationTracks" : {

                    }
                  }
                ],
                "transitions" : [
                  {
                    "name" : "Fade",
                    "duration" : 30,
                    "trivial" : false,
                    "reverse" : false,
                    "bypass" : false,
                    "useAudioPreRoll" : true,
                    "useVisualPreRoll" : true,
                    "rightMedia" : 263
                  },
                  {
                    "name" : "Fade",
                    "duration" : 30,
                    "trivial" : false,
                    "reverse" : false,
                    "bypass" : false,
                    "useAudioPreRoll" : true,
                    "useVisualPreRoll" : true,
                    "leftMedia" : 263
                  }
                ]
              }            ]
          }
        }
      ]
    },
    "trackAttributes" : [
      {
        "ident" : "",
        "audioMuted" : false,
        "videoHidden" : false,
        "magnetic" : false,
        "matte" : 0,
        "solo" : false,
        "metadata" : {
          "IsLocked" : "False",
          "WinTrackHeight" : "56"
        }
      },
      {
        "ident" : "",
        "audioMuted" : false,
        "videoHidden" : false,
        "magnetic" : false,
        "matte" : 0,
        "solo" : false,
        "metadata" : {
          "IsLocked" : "False",
          "WinTrackHeight" : "56"
        }
      },
      {
        "ident" : "",
        "audioMuted" : false,
        "videoHidden" : false,
        "magnetic" : false,
        "matte" : 0,
        "solo" : false,
        "metadata" : {
          "IsLocked" : "False",
          "WinTrackHeight" : "56"
        }
      },
      {
        "ident" : "",
        "audioMuted" : false,
        "videoHidden" : false,
        "magnetic" : false,
        "matte" : 0,
        "solo" : false,
        "metadata" : {
          "IsLocked" : "False",
          "WinTrackHeight" : "56"
        }
      },
      {
        "ident" : "",
        "audioMuted" : false,
        "videoHidden" : false,
        "magnetic" : false,
        "matte" : 0,
        "solo" : false,
        "metadata" : {
          "IsLocked" : "False",
          "WinTrackHeight" : "56"
        }
      },
      {
        "ident" : "",
        "audioMuted" : false,
        "videoHidden" : false,
        "magnetic" : false,
        "matte" : 0,
        "solo" : false,
        "metadata" : {
          "IsLocked" : "False",
          "WinTrackHeight" : "56"
        }
      },
      {
        "ident" : "",
        "audioMuted" : false,
        "videoHidden" : false,
        "magnetic" : false,
        "matte" : 0,
        "solo" : false,
        "metadata" : {
          "IsLocked" : "False",
          "WinTrackHeight" : "56"
        }
      },
      {
        "ident" : "",
        "audioMuted" : false,
        "videoHidden" : false,
        "magnetic" : false,
        "matte" : 0,
        "solo" : false,
        "metadata" : {
          "IsLocked" : "False",
          "WinTrackHeight" : "56"
        }
      },
      {
        "ident" : "",
        "audioMuted" : false,
        "videoHidden" : false,
        "magnetic" : false,
        "matte" : 0,
        "solo" : false,
        "metadata" : {
          "IsLocked" : "False",
          "WinTrackHeight" : "56"
        }
      },
      {
        "ident" : "",
        "audioMuted" : false,
        "videoHidden" : false,
        "magnetic" : false,
        "matte" : 0,
        "solo" : false,
        "metadata" : {
          "IsLocked" : "False",
          "WinTrackHeight" : "56"
        }
      },
      {
        "ident" : "",
        "audioMuted" : false,
        "videoHidden" : false,
        "magnetic" : false,
        "matte" : 0,
        "solo" : false,
        "metadata" : {
          "IsLocked" : "False",
          "WinTrackHeight" : "56"
        }
      },
      {
        "ident" : "",
        "audioMuted" : false,
        "videoHidden" : false,
        "magnetic" : false,
        "matte" : 0,
        "solo" : false,
        "metadata" : {
          "IsLocked" : "False",
          "WinTrackHeight" : "56"
        }
      },
      {
        "ident" : "",
        "audioMuted" : false,
        "videoHidden" : false,
        "magnetic" : false,
        "matte" : 0,
        "solo" : false,
        "metadata" : {
          "IsLocked" : "False",
          "WinTrackHeight" : "56"
        }
      },
      {
        "ident" : "",
        "audioMuted" : false,
        "videoHidden" : false,
        "magnetic" : false,
        "matte" : 0,
        "solo" : false,
        "metadata" : {
          "IsLocked" : "False",
          "WinTrackHeight" : "56"
        }
      },
      {
        "ident" : "",
        "audioMuted" : false,
        "videoHidden" : false,
        "magnetic" : false,
        "matte" : 0,
        "solo" : false,
        "metadata" : {
          "IsLocked" : "False",
          "WinTrackHeight" : "56"
        }
      },
      {
        "ident" : "",
        "audioMuted" : false,
        "videoHidden" : false,
        "magnetic" : false,
        "matte" : 0,
        "solo" : false,
        "metadata" : {
          "IsLocked" : "False",
          "WinTrackHeight" : "56"
        }
      },
      {
        "ident" : "",
        "audioMuted" : false,
        "videoHidden" : false,
        "magnetic" : false,
        "matte" : 0,
        "solo" : false,
        "metadata" : {
          "IsLocked" : "False",
          "WinTrackHeight" : "56"
        }
      },
      {
        "ident" : "",
        "audioMuted" : false,
        "videoHidden" : false,
        "magnetic" : false,
        "matte" : 0,
        "solo" : false,
        "metadata" : {
          "IsLocked" : "False",
          "WinTrackHeight" : "56"
        }
      },
      {
        "ident" : "",
        "audioMuted" : false,
        "videoHidden" : false,
        "magnetic" : false,
        "matte" : 0,
        "solo" : false,
        "metadata" : {
          "IsLocked" : "False",
          "WinTrackHeight" : "56"
        }
      },
      {
        "ident" : "",
        "audioMuted" : false,
        "videoHidden" : false,
        "magnetic" : false,
        "matte" : 0,
        "solo" : false,
        "metadata" : {
          "IsLocked" : "False",
          "WinTrackHeight" : "56"
        }
      },
      {
        "ident" : "",
        "audioMuted" : false,
        "videoHidden" : false,
        "magnetic" : false,
        "matte" : 0,
        "solo" : false,
        "metadata" : {
          "IsLocked" : "False",
          "WinTrackHeight" : "56"
        }
      },
      {
        "ident" : "",
        "audioMuted" : false,
        "videoHidden" : false,
        "magnetic" : false,
        "matte" : 0,
        "solo" : false,
        "metadata" : {
          "IsLocked" : "False",
          "WinTrackHeight" : "56"
        }
      }
    ],
    "captionAttributes" : {
      "enabled" : true,
      "fontName" : "Arial",
      "fontSize" : 64,
      "backgroundColor" : [ 0, 0, 0, 191],
      "foregroundColor" : [ 255, 255, 255, 255],
      "lang" : "en",
      "alignment" : 0,
      "defaultFontSize" : true,
      "opacity" : 0.5,
      "backgroundEnabled" : true,
      "backgroundOnlyAroundText" : true
    },
    "gain" : 1.0,
    "legacyAttenuateAudioMix" : true,
    "backgroundColor" : [ 255, 255, 255, 255]
  },
  "metadata" : {
    "AutoSaveFile" : "",
    "CanvasZoom" : 56,
    "Date" : "2021-07-22 04:02:51 PM",
    "Fit" : 1,
    "IsAutoSave" : false,
    "Language" : "ENU",
    "ProfileName" : "",
    "ProjectDimensionsChanged" : "1",
    "Title" : "upgrading",
    "audioNarrationNotes" : "",
    "calloutStyle" : "All",
    "canvasDetached" : "False",
    "canvasPositionHeight" : "0",
    "canvasPositionLeft" : "0",
    "canvasPositionTop" : "0",
    "canvasPositionWidth" : "0"
  }
}
